<?xml version="1.0" encoding="UTF-8"?><svg id="Layer_2" xmlns="http://www.w3.org/2000/svg" viewBox="0 0 22 16.1"><defs><style>.cls-1{fill:#666161;}</style></defs><g id="Layer_1-2"><path class="cls-1" d="M10.75,7.87l2.87,2.03c-1.34-2.31-1.08-4.35,1.51-5.7,1.17-.61,2.6-.11,3.54,1.02,1.12,1.33,1.13,2.87,0,4.75,.84,.43,1.58,.99,2.15,1.76,.72,.96,1.13,2.04,1.17,3.25,.03,.83-.26,1.13-1.09,1.13-4.55,0-9.1,0-13.64,0-2.07,0-4.13,0-6.2,0-.78,0-1.1-.3-1.06-1.07,.16-3.19,1.72-5.47,4.56-6.89,.1-.05,.19-.09,.31-.15-.25-.34-.52-.66-.73-1C2.47,4.24,4.02,.66,7.17,.07c1.55-.29,2.84,.35,3.83,1.54,1.55,1.86,1.47,4.34-.16,6.14-.05,.06-.11,.12-.1,.12Zm2.99,6.46c-.23-2.43-2.71-5.52-6.72-5.12-2.51,.25-5.34,2.99-5.17,5.12H13.74ZM7.77,1.76c-1.06,0-2,.74-2.42,1.92-.48,1.34,.23,2.98,1.54,3.56,1.17,.51,2.49-.05,3.15-1.34,.93-1.81-.35-4.14-2.28-4.13Zm12.37,12.57c-.48-2.61-3.54-3.85-5.42-2.85l.91,2.85h4.52Zm-2.35-6.77c0-.94-.78-1.84-1.6-1.84-.82,0-1.6,.9-1.6,1.84,0,.94,.78,1.84,1.6,1.84,.82,0,1.6-.89,1.6-1.84Z"/></g></svg>