<?xml version="1.0" encoding="UTF-8"?><svg id="Layer_2" xmlns="http://www.w3.org/2000/svg" viewBox="0 0 83.52 83.51"><defs><style>.cls-1{fill:#fff;}</style></defs><g id="Layer_1-2"><g><path class="cls-1" d="M35.35,45.53c-2.03,0-3.82,.05-5.61-.04-.36-.02-1-.52-1-.8,.02-5.62-.21-11.27,.3-16.85,.41-4.44,3.3-7.65,7.25-9.74,.35-.18,.93-.14,1.32,0,2.8,1.03,5.58,1.03,8.38,0,.34-.13,.81-.3,1.09-.17,3.5,1.63,5.88,4.26,7.18,8.12-2.37,0-4.54,.03-6.71-.03-.4-.01-.85-.36-1.18-.66-2.04-1.9-4.37-2.47-6.96-1.4-2.64,1.09-4,3.19-4.04,6.01-.07,4.6-.02,9.21-.02,13.82,0,.52,0,1.04,0,1.74Z"/><path class="cls-1" d="M37.99,35.25c0-2.05-.05-3.84,.04-5.63,.02-.32,.59-.89,.91-.89,5.47,.01,10.97-.18,16.42,.26,4.55,.36,7.79,3.19,9.91,7.2,.19,.36,.21,.94,.06,1.31-1.09,2.76-.85,5.48,0,8.25,.18,.56,.18,1.35-.08,1.85-1.63,3.19-4.14,5.37-7.8,6.52,0-2.41-.03-4.63,.03-6.84,0-.36,.36-.76,.64-1.05,1.9-1.97,2.47-4.27,1.48-6.81-1.03-2.65-3.06-4.1-5.92-4.14-4.65-.06-9.31-.02-13.97-.03-.52,0-1.04,0-1.74,0Z"/><path class="cls-1" d="M26.06,29.26c0,2.39,.03,4.6-.03,6.81,0,.36-.36,.75-.63,1.05-1.92,2.02-2.5,4.35-1.44,6.94,1.1,2.7,3.24,4.05,6.12,4.08,4.56,.05,9.11,.01,13.67,.01,.53,0,1.05,0,1.69,0v6.34c-.36,.05-.68,.14-1,.14-4.89,0-9.79,.08-14.68-.04-5.06-.13-8.81-2.6-11.32-6.95-.27-.46-.38-1.21-.21-1.69,1.02-2.77,.82-5.49-.02-8.26-.18-.61-.18-1.45,.11-1.99,1.66-3.1,4.19-5.23,7.75-6.45Z"/><path class="cls-1" d="M29.35,57.25c2.44,0,4.61-.04,6.78,.03,.4,.01,.83,.42,1.16,.73,1.99,1.88,4.28,2.44,6.82,1.45,2.58-1.01,4.05-2.99,4.11-5.78,.09-3.78,.04-7.56,.04-11.33,0-1.54,.56-2.75,2.05-3.35,2.12-.85,4.43,.53,4.46,2.87,.06,4.5,.18,9.03-.25,13.49-.42,4.47-3.12,7.72-7.05,9.86-.38,.21-1.03,.22-1.45,.05-2.84-1.13-5.65-1.1-8.49,.03-.35,.14-.86,.17-1.18,.02-3.43-1.58-5.65-4.24-7.02-8.08Z"/><path class="cls-1" d="M75.11,33.29c4.63,.02,8.38,3.78,8.42,8.43,.03,4.74-3.83,8.54-8.64,8.5-4.58-.03-8.38-3.9-8.35-8.51,.03-4.69,3.85-8.45,8.57-8.43Z"/><path class="cls-1" d="M33.29,8.51C33.29,3.8,37.09-.01,41.77,0c4.7,.01,8.47,3.82,8.46,8.54-.01,4.62-3.77,8.39-8.41,8.44-4.65,.05-8.52-3.79-8.53-8.47Z"/><path class="cls-1" d="M8.43,33.29c4.71-.01,8.54,3.76,8.55,8.44,.02,4.67-3.81,8.49-8.51,8.49C3.78,50.22-.05,46.37,0,41.7c.05-4.66,3.8-8.4,8.43-8.42Z"/><path class="cls-1" d="M50.23,74.96c.01,4.72-3.74,8.53-8.45,8.55-4.68,.02-8.49-3.8-8.49-8.51,0-4.68,3.86-8.52,8.52-8.48,4.64,.04,8.4,3.81,8.42,8.43Z"/></g></g></svg>