<?xml version="1.0" encoding="UTF-8"?><svg id="Layer_2" xmlns="http://www.w3.org/2000/svg" viewBox="0 0 130.87 96.47"><defs><style>.cls-1{fill:#000d08;}.cls-2{fill:#50656d;}.cls-3{fill:#3b5c66;}.cls-4{fill:#dbebf2;}.cls-5{fill:#ddeef6;}.cls-6{fill:#232b31;}.cls-7{fill:#8c8c8f;}.cls-8{fill:#757d80;}.cls-9{fill:#dcedf5;}.cls-10{fill:#4181a0;}.cls-11{fill:#616465;}.cls-12{fill:#557068;}.cls-13{fill:#3f5c6c;}.cls-14{fill:#385a64;}.cls-15{fill:#4d6160;}.cls-16{fill:#7b7f84;}.cls-17{fill:#3e83a6;}.cls-18{fill:#38394d;}.cls-19{fill:#77c6df;}.cls-20{fill:#08181c;}.cls-21{fill:#4e565c;}.cls-22{fill:#5e757c;}.cls-23{fill:#777f82;}.cls-24{fill:#6e7978;}.cls-25{fill:#757576;}.cls-26{fill:#3c4555;}.cls-27{fill:#252e2e;}.cls-28{fill:#7c7c7c;}.cls-29{fill:#76c5db;}.cls-30{fill:#4082a5;}.cls-31{fill:#071826;}.cls-32{fill:#5e6867;}.cls-33{fill:#6f797a;}.cls-34{fill:#496c75;}.cls-35{fill:#3d5b61;}.cls-36{fill:#48466b;}.cls-37{fill:#252434;}.cls-38{fill:#818181;}.cls-39{fill:#3e83a7;}.cls-40{fill:#455959;}.cls-41{fill:#4b636c;}.cls-42{fill:#3f81aa;}.cls-43{fill:#5a6a72;}.cls-44{fill:#767676;}.cls-45{fill:#6d7278;}.cls-46{fill:#757579;}.cls-47{fill:#fdfdfd;}.cls-48{fill:#808082;}.cls-49{fill:#3e5b6a;}.cls-50{fill:#747b7a;}.cls-51{fill:#4082a3;}.cls-52{fill:#828384;}.cls-53{fill:#40626a;}.cls-54{fill:#809199;}.cls-55{fill:#666d71;}.cls-56{fill:#021b16;}.cls-57{fill:#596b67;}.cls-58{fill:#7d7d7f;}.cls-59{fill:#48466c;}.cls-60{fill:#6e7781;}.cls-61{fill:#2e2f46;}.cls-62{fill:#f9f8fa;}.cls-63{fill:#48466d;}.cls-64{fill:#4e6670;}.cls-65{fill:#abecd8;}.cls-66{fill:#0c2130;}.cls-67{fill:#47456b;}.cls-68{fill:#f7f8f9;}.cls-69{fill:#7f7f7f;}.cls-70{fill:#5e7379;}.cls-71{fill:#fefefd;}.cls-72{fill:#2d4447;}.cls-73{fill:#697d78;}.cls-74{fill:#667172;}.cls-75{fill:#868e99;}.cls-76{fill:#536c74;}.cls-77{fill:#21343d;}.cls-78{fill:#607877;}.cls-79{fill:#47466c;}.cls-80{fill:#95999c;}.cls-81{fill:#fefefe;}.cls-82{fill:#6d7c84;}.cls-83{fill:#2d3633;}.cls-84{fill:#aae9d6;}</style></defs><g id="Layer_1-2"><g><path class="cls-5" d="M35.2,9.99c.08,.2-.17,.7,.44,.42,2.62-1.2,5.28-2.31,7.99-3.32,3.71-1.38,7.53-2.39,11.36-3.37,1.28-.33,2.59-.44,3.85-.77,2.14-.57,4.31-.87,6.48-1.22,1.76-.28,3.53-.48,5.31-.69,1.8-.21,3.59-.4,5.39-.58,.79-.08,1.59-.09,2.38-.15,2.01-.15,4.03-.25,6.05-.18,1.75,.06,3.49-.18,5.22-.13,2.95,.08,5.92,.07,8.86,.45,4.16,.53,8.23,1.5,11.96,3.48,1.8,.95,3.42,2.18,4.99,3.5,2.19,1.84,3.72,4.17,5.15,6.53,1.26,2.07,2.15,4.37,3,6.66,1.81,4.88,3.19,9.89,4.68,14.86,.99,3.33,1.69,6.74,2.18,10.18,.36,2.52,.46,5.07,.29,7.6-.22,3.31-1.01,6.51-2.33,9.58-1.79,4.17-4.5,7.65-7.79,10.7-1.82,1.69-3.87,3.11-5.96,4.46-3.35,2.17-6.93,3.91-10.62,5.43-2.6,1.07-5.23,2.04-7.91,2.89-.29,.09-.58,.12-.88,.11-.21-.63,.18-1.07,.49-1.54,.19-.16,.41-.22,.58,0,.27,.35,.47,.12,.67-.05,.27-.23,.35-.54,.28-.87-.05-.22-.22-.15-.36-.1-.34,.11-.52-.03-.6-.35-.05-.45,.19-.81,.37-1.18,.34-.68,.46-1.45,.89-2.09,.22-.14,.43-.09,.63,.04,.26,.17,.56,.27,.66-.11,.1-.35,.37-.78-.08-1.08-.21-.14-.45-.21-.52-.49-.05-.27,.07-.48,.19-.7,.62-1.22,1.1-2.51,1.61-3.77,.08-.2,.19-.42-.05-.6-.24-.12-.49-.08-.74-.08-4.66,0-9.31,0-13.97,0-.27,0-.55-.01-.81,.08-.34,.08-.69,.19-1.04,.05-.6-.24-1.23-.09-1.85-.12-.45-.02-.91-.07-1.35,0-1.49,.25-2.21-.81-3-1.72-.32-.37-.09-.58,.32-.64,.46-.07,.96,.09,1.39-.19,1.13-.24,2.19-.65,3.18-1.25,.59-.06,1.11-.2,1.1-.96,.16-.38,.3-.76,.7-.96,.2-.04,.39,.08,.55,.02-.14,0-.35,.03-.43-.21-.04-.19,.02-.35,.14-.5,.27-.18,.39-.41,.25-.73-.02-.14,.01-.28,.03-.41,.11-.33,.08-.7,.22-1.02,.05-.12,.08-.24-.04-.34-.06-.05-.14-.05-.21,0-.11,.08-.18,.21-.14,.32,.08,.26,.2,.51,.18,.8-.14,1.01-.47,1.94-1.19,2.7-.8,.61-1.92,.82-2.41,1.84-.45,.44-1.04,.41-1.6,.47-.98,.11-1.97,.14-2.96,.01-.67-.35-1.13-.94-1.61-1.49-.33-.37-.03-1.01,.51-1.21,.21-.07,.44-.05,.65-.14,2.57-.49,4.5-1.92,5.98-4.03,.36-.6-.13-.55-.47-.61-.46-.15-.93-.28-1.06-.84,.03-.24,.14-.43,.38-.53,.44-.15,.89-.06,1.34-.06,3.64,0,7.29,0,10.93,0,.37,0,.75-.02,1.12,.04,1.17,.77,2.49,.58,3.76,.49,2.11-.15,4.22-.09,6.33-.05,.35,0,.7,.05,.96-.25,.04-.07,.07-.15,.09-.23,.02-.08,.05-.16,.08-.24,.1-.34,.06-.7,.06-1.04,0-4.21,.02-8.43-.01-12.64,0-.77,.25-1.22,.93-1.61,1.62-.92,3.26-1.83,4.86-2.79,.21-.13,.42-.27,.67-.31,.43-.03,.5,.31,.63,.6,.12,.27,.26,.55,.62,.55,.16,0,.27-.11,.33-.26,.12-.32,0-.58-.22-.81-.15-.16-.32-.31-.34-.55,.32-.76,.97-1.35,1.15-2.18,.13-.46,.12-.92,0-1.39-.1-.5-.36-.95-.48-1.45,.01-.39-.13-.65-.55-.7-1.72-1.09-3.72-1.39-5.6-2.03-.38-.13-.78-.19-1.05-.53-.16-.24-.2-.51-.2-.78,.02-1.54-.09-3.09,.08-4.63,.08-.72-.04-.78-.78-.97-2.29-.56-4.6-.14-6.9-.27-.65-.04-1.29,0-1.94-.01-.34,0-.75,0-.82-.46-.07-.48,.28-.68,.67-.72,.58-.06,.82-.36,.87-.91,.04-.4,.27-.68,.66-.83,.92-.38,.92-.38,.83-1.39,0-.1,0-.2,.03-.29,.09-.22,.27-.36,.49-.43,1.54-.45,2.78-1.38,3.96-2.4,.6-.23,1.34-.19,1.74-.86,.07-.12,.26-.14,.41-.14,.39,0,.81-.01,.92-.45,.15-.64,.4-1.3,.05-1.95-.22-.41-.71-.12-1-.36-.19-.32-.05-.62,.07-.91,.2-.87,.11-1.73,0-2.59-.1-.28-.2-.56-.18-.86,0-.33,.26-.72-.24-.92-.39-.57-.67-1.2-.92-1.84-.11-.68,.24-.96,.88-1.02-.56-.17-1.14-.02-1.7-.11-.07-.03-.12-.07-.17-.12-.22-.71-.6-1.23-1.45-1.16-.23-.04-.4-.16-.53-.34-.2-.35-.55-.55-.8-.86-.3-.37-.61,.25-.94,.08-.07-.03-.13-.07-.17-.13-.3-1.07-.46-1.19-1.59-1.25-.25-.01-.5,0-.75-.03-.77-.06-1.49-.04-1.87,.83-.1,.24-.36,.41-.56,.59-.78,.43-1.66,.66-2.39,1.2-2.22,1.63-3.56,3.7-3.83,6.52-.41,4.41,2.73,8.55,7.02,9.23,.12,.02,.24,.06,.36,.09,.83,.17,1,.4,.82,1.22-.05,.22-.09,.44-.18,.65-.27,.85-.78,1.57-1.38,2.2-.7,.74-1.52,1.19-2.63,1.18-5.24-.04-10.48-.03-15.72,0-.77,0-1.28-.21-1.63-.9-.38-.76-.9-1.43-1.32-2.17-.17-.39-.42-.23-.66-.08-.9,.54-1.81,1.04-2.72,1.56-.28,.16-.66,.52-.91-.09-.08-3.02-.02-6.04-.03-9.06,0-1.42,0-2.85,0-4.27,0-.29,.08-.61-.19-.84-.3-.16-.61-.18-.94-.18-9.69,0-19.39,0-29.08,0-.25,0-.5-.02-.73,.09-.12,.06-.23,.12-.31,.24-.18,.47-.24,.96-.23,1.46,0,1.91,0,3.82,0,5.73,0,1.57-.2,1.76-1.75,1.76-.18,0-.36-.01-.53-.05-.37-.17-.76-.11-1.15-.1-.55,0-.9-.19-.88-.79,.06-1.42,.3-2.82,.6-4.21,.61-.34,.15-.82,.15-1.23,.07-1.59,.41-3.15,.62-4.72,.02-.17,.1-.34,.31-.36Z"/><path class="cls-5" d="M75.97,68.02c-.13,.15-.31,.16-.47,.13-.49-.07-.46,.44-.7,.64-.2,.17,.16,.34,.29,.49,.38,.45,.88,.78,1.19,1.29-.52,.37-1.11,.14-1.67,.2-.26,.03-.53,0-.75,0,1.43,0,2.89,0,4.36,0,.32,0,.66-.05,.9,.24-.25,.42-.66,.25-1.02,.28-.26,.02-.53,0-.8,0l-.13,.21c.58,.53,1.16,1.06,1.74,1.59,.21,.19,.47,.14,.71,.14,1.1,0,2.2,0,3.3,0,.24,0,.51-.09,.69,.17-.25,.23-.56,.18-.85,.19-.97,0-1.94,.04-2.91,0-.69-.03-1.08,.2-1.36,.87-1.19,2.85-2.42,5.68-3.48,8.58-.3,.82-.84,1.53-1.09,2.37-.38,.67-.46,1.5-1.07,2.05-1.38,.16-2.77,.03-4.15,.07-.62,.02-1.24-.06-1.85,.06-.29,.1-.57,.22-.81,.42-.03,.04-.07,.08-.1,.12-.21,.28-.5,.59-.36,.94,.16,.4,.61,.24,.94,.24,7.19,0,14.38,0,21.57,0,1.8,0,3.59,0,5.39,0,.27,0,.55,.02,.8-.11,.38-.28,.09-.76,.33-1.09,.05-.07,.12-.1,.21-.09q.12,1.69-1.57,1.69c-2.15,0-4.3,.09-6.44-.02-2.11-.11-4.07,.39-6.06,.93-1.84,.5-3.71,.91-5.58,1.32-2.06,.45-4.12,.9-6.19,1.27-2.9,.52-5.81,1-8.72,1.44-2.6,.39-5.2,.77-7.81,1.03-1.9,.18-3.8,.35-5.71,.51-3.11,.27-6.22,.28-9.33,.26-1.94-.01-3.85-.25-5.77-.54-3.35-.52-6.55-1.52-9.57-2.99-2.83-1.39-5.56-3-7.92-5.15-.88-.8-1.82-1.54-2.67-2.38-2.77-2.74-5.06-5.83-6.95-9.24-2.11-3.8-3.51-7.86-4.17-12.13-.38-2.47-.44-4.98-.24-7.51,.29-3.67,.99-7.22,2.17-10.69,.52-1.53,1.16-3.02,1.84-4.49,1.77-3.83,4.02-7.37,6.57-10.71,1.16-1.52,2.44-2.94,3.7-4.39,1.53-1.75,3.23-3.3,4.93-4.86,1.73-1.6,3.63-3.02,5.5-4.45,.87-.66,1.74-1.33,2.72-1.82,.42,.36-.04,.83,.17,1.22,.02,.16,0,.32-.06,.48-.38,.71-.3,1.5-.4,2.26-.21,1.45-.49,2.9-.51,4.37-.04,2.79,2.19,5.1,4.99,5.26,.2,.01,.4,.01,.59,.07,1.44,.11,2.87,.25,4.3,.37,.91,.07,1.08,.22,1.05,1.13-.01,.4-.19,.78-.14,1.18-.02,1.29-.26,2.56-.36,3.84-.14,1.65-.37,3.29-.51,4.94-.11,1.23-.33,2.45-.38,3.69-.18,.53-.05,1.09-.17,1.63-.07,.3,.14,.46,.43,.49,.2,.03,.4,.02,.6,.02,6.04,0,12.08,0,18.13,0,.33,0,.65,0,.96-.11,2.68-.09,5.37-.02,8.05-.04,1.54-.01,3.08,0,4.62,0,.08,0,.16-.02,.24-.04,.43-.34,.03-.93,.39-1.29,.07-.06,.15-.1,.24-.12,1.17-.09,2.35-.02,3.52-.04,.56,0,.83,.26,.82,.82-.01,1.67,.06,3.34-.04,5.01-.11,.4-.47,.39-.78,.46-1.12,.24-2.22,.55-3.2,1.19-1.34,.88-2.39,2.01-3.13,3.44-.18,.34-.3,.76-.78,.82-2.94-.01-5.88,.05-8.82-.03-.09-.04-.17-.1-.22-.19-.22-1.31-.07-2.64-.09-3.95-.03-1.75,.16-1.6-1.63-1.6-9.46,0-18.92,0-28.38,0-.36,0-.76-.11-1.07,.18-.22,.53-.09,1.08-.11,1.62-.02,.99,0,1.99,0,2.98,0,.29,.03,.6-.17,.86-.32,.2-.67,.12-1.01,.12-1.4,.01-2.81,0-4.21,0-3.04-.03-5.67-2.66-5.69-5.68-.02-2.87,1.36-4.74,3.98-5.77,.4,.01,.61,.32,.84,.57,3.26,3.41,9.3,3.36,12.51-.45,2.92-3.45,2.62-8.45-.35-11.59-2.8-2.96-7.68-3.28-10.61-1.28-.34,.35-.74,.63-1.16,.87-2.97,2.42-3.61,6.96-2.03,10.09,.25,.5,.66,.94,.74,1.53-.03,.26-.22,.36-.44,.45-2.07,.94-3.28,2.54-3.48,4.81-.24,2.68,.99,4.59,3.28,5.86,.5,.28,1.08,.36,1.62,.54,1.7,.08,3.39,.01,5.09,.04,.29,0,.6-.06,.88,.09,.3,.37,.2,.81,.2,1.23,0,8.26,0,16.52,0,24.79,0,.22,0,.45,0,.67,0,1,.02,1.02,.99,1.02,2.15,0,4.29,0,6.44,0,4.82,0,9.64,.01,14.45-.01,.74,0,1.35,.2,1.92,.65,.78,.62,1.56,1.24,2.37,1.83,.38,.28,.64,.26,.94-.11,.41-.51,.76-1.05,1.19-1.54,.12-.2,.26-.36,.47-.47,.58-.3,1.21-.14,1.82-.2,.27-.05,.58-.05,.59-.44,.01-2.05,0-4.09,0-6.14,0-.95,.19-1.1,1.13-.87,2.13,.51,4.26,1,6.38,1.53,.55,.14,.77,0,.89-.53,.32-1.46,.75-2.9,.99-4.37,.24-1.46,1.21-1.95,2.4-2.29,.19-.05,.39-.08,.52-.13-.75,.16-1.53,.43-2.23,.88-.34,.21-.68,.06-1.01-.02-2.06-.47-4.1-1.02-6.16-1.5-.7-.16-1.41-.31-2.1-.5-.32-.09-.63-.18-.75-.54-.11-.82-.05-1.64-.05-2.47,0-3.12,0-6.23,0-9.35,0-.37-.07-.75,.16-1.09,.17-.14,.37-.13,.57-.13,2.67,0,5.33,0,8,0,.15,0,.3,0,.43,.09,.3,.28,.14,.61,.08,.91-.76,3.48,.22,6.43,2.9,8.73,1.4,1.2,3.1,1.85,5,1.91,.6,.02,1.25-.22,1.81,.21Z"/><path class="cls-81" d="M27.58,16.73v-.36c.07-1.21,.24-2.4,.42-3.6l.3-1.3c-.2-.5-.01-.99,.06-1.47,.15-1.06,.26-2.12,.42-3.17,.13-.87,.2-.93,1.09-.83,.12,.01,.24,.05,.37,.06,1.2,.06,2.4,.13,3.6,.22,1.96,.23,1.68-.03,1.43,1.83-.27,2.07-.63,4.14-.87,6.21-.26,2.27-.78,4.51-.89,6.79,.13,.37,.5,.21,.74,.32,.59,.15,1.19,.02,1.77,.09,.08,0,.16,.03,.23,.05,.63,.18,1.34,.04,1.9,.52,.11,.1,.33-.02,.49-.1,.27-.14,.52-.1,.78,.05,.46,.27,.93,.24,1.43,.05,.87-.33,1.36-.08,1.39,.83,.03,1.08,.71,1.97,.72,3.04,0,.32,.29,.44,.58,.48,.25,.03,.5,.03,.75,0,.74-.07,1.32,.12,1.83,.74,.61,.73,.68,.69,1.43,.14,.32-.23,.64-.28,.97-.05,.24,.17,.49,.19,.78,.12,1.37-.31,2.72-.71,4.15-.65,.12,0,.25,0,.37,0,.32-.02,.7,.11,.95-.07,.3-.21-.03-.53-.03-.82,.02-1.08,.36-1.5,1.43-1.63,2.06-.24,3.81,.24,5,2.1,.2,.31,.35,.62,.23,.98-.14,.42,0,.69,.31,.97,.65,.58,.96,1.44,1.64,2.03,.37,.32,.62,.33,.97,.1,1.26-.8,2.72-1.24,3.93-2.13,.32-.23,.69-.38,1-.65,1.01-.9,2.28-1.09,3.54-1.26,.81-.11,1.42,.38,1.86,1.05,.41,.63,.82,1.24,1.34,1.79,.45,.47,.36,.87-.21,1.32-1.1,.85-2.31,1.54-3.54,2.19-.39,.2-.69,.48-.92,.85-.57,.63-1.39,.88-2.04,1.39-1.27,.88-2.59,1.7-3.99,2.35-1.84,.86-4.67,.07-5.85-1.6-.91-1.28-1.46-2.78-2.39-4.19-.05,.69-.17,1.27-.21,1.87-.13,2.03-.37,4.06-.55,6.09-.02,.28,.02,.54,.06,.81,.02,.16,0,.32-.07,.48-.26,.92-.41,1.85-.25,2.8,.08,.39-.04,.75-.14,1.11-.2,.47-.01,1.1-.58,1.42-2.37,.07-4.74,.02-7.1,.03-3.71,0-7.43,0-11.14,0q-1.15,0-.99-1.11c.03-.2,.02-.4,.03-.6,.43-3.98,.82-7.96,1.25-11.94,.02-.17,.02-.35,.03-.52,.09-.71,.13-1.43,.21-2.15,.05-.37-.07-.62-.52-.62-1.56,0-3.1-.35-4.66-.32-.46-.24-.98-.1-1.47-.22-2.87-.74-4.57-3.05-4.27-5.97,.18-1.76,.48-3.5,.66-5.26,.03-.25,.06-.5,.23-.7Z"/><path class="cls-79" d="M73.74,85.39c.12-.84,.74-1.45,1.01-2.23,1.08-3.11,2.43-6.1,3.67-9.15,.19-.46,.41-.64,.92-.63,1.42,.05,2.84,.03,4.26,.04,.27,.31,.5-.13,.76-.05,.19-.08,.39-.05,.59-.05,4.98,0,9.96,0,14.94,0,.22,0,.45-.08,.64,.1-.51,1.62-1.16,3.18-1.96,4.68-.09,.16-.16,.3-.15,.48-.07,.64-.26,1.23-.71,1.7l-1.22,3.27c-.01,.53-.23,.98-.56,1.37-.3,.46-.52,.96-.63,1.5-.23,.51-.61,.99-.47,1.61-.03,.02-.06,.05-.09,.08-.3-.52-.77-.59-1.33-.58-6.3,.02-12.61,.01-18.91,0-1.47,0-1.49-.03-.98-1.38,.1-.25,.26-.49,.22-.78Z"/><path class="cls-11" d="M33.32,21.4c.2-1.54,.39-3.09,.61-4.63,.46-3.25,.92-6.49,1.4-9.73,.06-.38-.09-.5-.43-.46-.35,.03-.69,0-1.01-.15,.35-.44,.79-.16,1.2-.15,.35-.03,.54,.05,.48,.49-.15,1.08-.24,2.16-.36,3.24-.34,1.73-.61,3.47-.75,5.23-.18,.34,.28,.79-.19,1.07-.12,1.4-.5,2.76-.56,4.17-.18,.4-.03,.68,.35,.86-.22,.26-.47,.18-.73,.07Z"/><path class="cls-55" d="M30.25,6.15c-1.23-.03-1.25-.03-1.41,1.03-.21,1.43-.36,2.86-.54,4.29-.29-.07-.22-.28-.19-.48,.21-1.6,.42-3.19,.61-4.79,.05-.39,.25-.41,.56-.4,.64,.02,1.25,.29,1.9,.17-.23,.46-.61,.16-.92,.17Z"/><path class="cls-80" d="M30.25,6.15c.3-.12,.66,.1,.92-.17,1.31,0,2.61,.07,3.9,.29-.39,.13-.83-.17-1.2,.15-1.21-.03-2.43-.07-3.63-.27Z"/><path class="cls-8" d="M28,12.77c.03,1.22-.14,2.42-.42,3.6-.39-.41,.09-.84-.04-1.26,.21-.77,.04-1.62,.46-2.35Z"/><path class="cls-41" d="M37.89,12.28l.17-.15c.26-.15,.54-.08,.81-.08,9.91,0,19.81,0,29.72,0,.26,0,.55-.11,.79,.1,.22,.29,.14,.62,.14,.94,.01,4.56,.02,9.12,.03,13.69,.09,.11,.08,.22,.01,.34-.08,.05-.16,.07-.25,.05-.15-.04-.21-.16-.25-.3-.11-.42-.08-.84-.08-1.27,0-3.89,0-7.79,0-11.68,0-1.08-.03-1.11-1.08-1.11-9.43,0-18.87,0-28.3,0-1.08,0-1.12,.04-1.12,1.15,0,2.07,0,4.14,0,6.21,0,1.03,.01,1.02,1,1.16,.42,.06,.85,.06,1.23,.29,.12,.47-.27,.36-.5,.44-.92-.17-1.89,.12-2.79-.3-.33-.37,.3-.42,.24-.71,.15-.33,.11-.69,.11-1.03,.06-2.59-.14-5.18,.12-7.76Z"/><path class="cls-3" d="M66.37,56c.96-2.04,2.32-3.71,4.41-4.7,.98-.46,2-.77,3.08-.83,.04-.04,.08-.07,.14-.08,.14-.05,.26-.16,.43-.15,2.76-.05,5.06,.94,6.91,2.98,.25,.28,.49,.56,.66,.92,0,.07,.15-.09,.06-.04-.04,.02-.06,0-.06-.04,.02-1.05,.22-2.08,.33-3.11,.14-1.26,.29-2.52,.47-3.78,.03-.22,.03-.45,.23-.61,.09-.02,.17,.01,.22,.09,.23,.47,.17,.98,.11,1.47-.49,3.98-.96,7.96-1.46,11.93-.05,.39-.08,.79-.28,1.15-.19,.2-.28,.05-.37-.1-.14-1.12,.16-2.22,.27-3.33,.05-.54,.09-1.09,.18-1.63,.03-.19,.15-.42-.04-.56-.2-.15-.37,.06-.53,.15-1.3,.78-2.61,1.56-3.9,2.34-.59,.36-1.2,.71-1.88,1.14,1.18,.81,2.39,1.43,3.52,2.16,.32,.19,.68,.3,.92,.61,.23,.17,.58,.19,.68,.53,.32,.22,.6,.5,1,.57,.39,.16,.95,.19,.63,.87-1.04,1.41-2.29,2.58-3.88,3.36-.71,.35-1.49,.46-2.23,.7-.99-.05-1.98,.05-2.98-.12-5.19-.92-8.44-6.4-6.75-11.42,.07-.15-.03-.34,.12-.48Z"/><path class="cls-5" d="M99.05,23.04c-.15,.26,.03,.47,.1,.7,.21,.73-.1,1.21-.86,1.26-.49,.03-.77,.25-.73,.74,.05,.76-.22,1.14-1.02,1.07-.29-.03-.6,.02-.61,.39-.01,.5,.4,.35,.66,.35,2.12,.01,4.25,.06,6.36-.02,1.06-.04,2.05,.25,3.08,.34,.56,.05,.57,.51,.5,.91-.28,1.59-.08,3.18-.14,4.77-.01,.3-.04,.6,.15,.87-.79,.19-1.09,0-1.1-.77-.03-1.46,0-2.93-.01-4.39,0-.29,.05-.6-.12-.87-.27-.26-.61-.17-.93-.17-2.96,0-5.92,0-8.88,0-.22,0-.45,.01-.67,0-.31-.02-.74,.1-.84-.27-.08-.32,.34-.43,.55-.62,.76-.7,1.36-1.52,1.69-2.51,.13-.35,.26-.7,.26-1.07,0-.55,.28-.8,.77-.72,.6,.09,1.2-.37,1.79,.03Z"/><path class="cls-24" d="M105.53,28.13c.18,1.72,.07,3.45,.06,5.18,0,.74,.19,1.12,.95,1.11,1.2,.53,2.48,.82,3.72,1.19,1,.3,1.96,.64,2.82,1.25,.42,.08,.5,.45,.63,.77l.51,1.48c.04,.49,.05,.98,0,1.47-.24,.8-.69,1.48-1.25,2.09-.2,.36-.5,.56-.91,.61-1.09,.46-2.05,1.17-3.1,1.73-.98,.52-1.91,1.12-2.89,1.63-.45,.24-.46,.58-.46,.99,0,4.44,0,8.87,0,13.31,0,.26,.1,.55-.11,.79-.14-.21-.08-.44-.08-.66,0-4.46,0-8.92,0-13.38,0-.2-.07-.42,.1-.59,.07-.08,.02,.11-.04,.02-.04-.06-.06-.05-.06,.02-.02,3.39,0,6.78-.01,10.16,0,1.47,.05,2.94-.04,4.4-.14,.17-.34,.2-.54,.2-1.34,.02-2.68,.03-4.02,0-.38,0-.8-.07-.55-.65,1.29,.09,2.59,.04,3.88,.07,.62,.01,.82-.23,.82-.84-.01-4.07,0-8.13-.01-12.2,0-.64-.05-.65-.63-.35-.71,.36-1.34,.87-2.12,1.1-.13,0-.24-.05-.32-.16-.04-.5,.39-.6,.69-.77,2.88-1.7,5.79-3.34,8.69-5.02,.32-.19,.66-.36,.96-.58,1.07-.76,1.72-1.77,1.56-3.11-.16-1.37-.91-2.37-2.24-2.84-1.55-.55-3.15-.97-4.72-1.47-3.09-.98-6.23-1.81-9.31-2.83-.1-.08-.17-.18-.16-.31,.26-.49,.65-.25,.99-.16,1.76,.48,3.49,1.03,5.24,1.55,1.38,.41,1.38,.42,1.38-1.02,0-1.05,0-2.1,0-3.14,0-.32-.04-.66,.23-.91,.1-.02,.17,.02,.21,.11,.02,1.83,0,3.66,.01,5.49,0-1.84,0-3.67,0-5.51,0-.1,.03-.18,.11-.23Z"/><path class="cls-13" d="M99.05,23.04c-.66,.07-1.33,.16-1.99,.21-.32,.02-.4,.15-.44,.45-.05,.39-.18,.77-.28,1.15-.17,.01-.22-.06-.16-.22,.03-.12,.05-.24,.08-.36,.25-.91,.24-.93-.66-1.08-3.93-.69-6.94-3.64-7.48-7.35-.68-4.59,1.99-8.59,5.96-9.87,.12-.04,.22-.11,.33-.17,1.34-.71,3.9-.71,4.94,.01,.02,.04,.05,.05,.09,.03,.71,.04,1.35,.23,1.84,.79,.12,.11,.21,.27,.41,.26,.74,.17,1.18,.71,1.57,1.3l.02,.02c.5,.28,.86,.67,1.01,1.23l.89,1.78c.42,.2,.19,.62,.31,.92-.02,.31,.04,.6,.18,.87,.07,.1,.06,.21,.03,.32-.07,.16-.02,.39-.26,.46-.29-.12-.26-.4-.29-.64-.66-4.97-5.82-8.2-10.62-6.81-4.78,1.39-7.68,7.08-5.11,11.84,1.54,2.85,3.95,4.45,7.26,4.5,3.76,.06,6.34-1.75,7.94-5.08,.28-.59,.41-1.23,.52-1.87,.04-.24,.02-.51,.28-.66,.2-.01,.24,.17,.32,.29,.03,.12,0,.23-.05,.33-.15,.28-.2,.59-.18,.9-.08,1.43-.79,2.56-1.75,3.56-.11,.12-.24,.25-.39,.33-1.2,1.23-2.66,2.03-4.29,2.54Z"/><path class="cls-15" d="M96.18,24.63l.16,.22c-.39,1.26-1.26,2.17-2.41,3.12,.42,0,.66,0,.89,0,3.32,0,6.63,0,9.95,0,.25,0,.56-.13,.76,.16-.03,.01-.05,.02-.07,.04-.02,.06-.06,.11-.12,.13h-.15c-.41,.34-.9,.24-1.37,.24-8.8,0-17.6,0-26.4,0-1.01,0-1.32-.14-.59,1.02,.44,.69,.37,.98-.32,1.42-.69,.44-1.38,.9-2.12,1.25-.13,.04-.26,.02-.36-.07-.06-.06-.09-.13-.1-.21,.39-.68,1.14-.9,1.75-1.31,.78-.52,.79-.67,.23-1.46-.93-1.31-1.85-2.64-2.42-4.16,.03-.11,.09-.2,.23-.17,.53,.87,1.08,1.73,1.59,2.62,.19,.34,.4,.5,.81,.5,5.59-.01,11.17-.01,16.76,0,.39,0,.72-.11,1.04-.34,1.06-.77,1.8-1.78,2.26-2.99Z"/><path class="cls-74" d="M101.82,48.79l.22,.16c.04,.87-.11,1.74-.21,2.6-.36,2.89-.73,5.78-1.1,8.67-.05,.36-.03,.76-.36,1.03-.26,.52,.14,.45,.42,.45,1.51,0,3.02,0,4.52,0,.07,.01,.11,.05,.13,.12,.02,.04,.03,.08,.02,.13-.26,.3-.61,.31-.96,.3-2.91-.08-5.82,0-8.73,.01-.53,0-1.04-.05-1.53-.26h-13.64c-.25,.3-.59,.03-.87,.14-.31-.2-.56-.48-.94-.56,.25-.32,.62-.27,.95-.25,.58,.03,1.11-.06,1.57-.42l.16,.34c.45,.17,.92,.21,1.4,.21,5.27,0,10.53,0,15.8,0,1.15,0,1.17-.04,1.31-1.21,.41-3.44,.86-6.88,1.28-10.32,.05-.42,0-.93,.55-1.13Z"/><path class="cls-5" d="M103.34,20.5c1-1.14,1.7-2.44,2.14-3.88,.9-.29,1.25-.12,1.32,.77,.04,.55-.08,1.13-.23,1.67-.12,.43-.51,.59-.95,.52-.17-.03-.4-.15-.47,.03-.34,.87-1.17,.67-1.81,.88Z"/><path class="cls-82" d="M79.12,71.02h-6.23v-.3c1.1-.25,2.25-.03,3.38-.14,1.23,.11,2.45-.02,3.67-.12,.36-.03,.68-.13,.97-.34,.79-.59,1.65-1.11,2.36-1.81,.63-.77,.96-1.67,1.11-2.65,.14-.24,0-.49,.03-.73,.02-.1,.06-.2,.18-.2,.12,0,.16,.11,.16,.2-.03,.32,.03,.65-.05,.96l-.05,.42c-.08,.26-.04,.57-.26,.79-.12,.12-.18,.27-.18,.45-.08,.09-.03,.25-.18,.3-.26,.24-.43,.54-.59,.85-.17,.6-.61,.92-1.17,1.11-.98,.59-1.98,1.12-3.16,1.21Z"/><path class="cls-5" d="M94.26,62.02c3.32-.01,6.63-.02,9.95-.04,.42,0,.85-.01,1.27-.02-.13,.56-.58,.65-1.03,.62-2.14-.18-4.27-.18-6.41,.01-.92,.08-1.85,.04-2.77,0-.41-.01-.72-.32-1.02-.58Z"/><path class="cls-5" d="M99.35,5.82c-1.65-.38-3.29-.37-4.94-.01,.25-.41,.73-.65,.83-1.2,.04-.25,.43-.27,.72-.27,.69,0,1.39-.05,2.07,.02,1.18,.11,1.33,.3,1.33,1.47Z"/><path class="cls-4" d="M69.37,12.16c-10.31,0-20.63,0-30.94,0-.12,0-.25-.02-.37-.03,.22-.25,.51-.15,.77-.15,9.93,0,19.86,0,29.78,0,.26,0,.56-.11,.75,.18Z"/><path class="cls-5" d="M124.7,67.97c-.3-.11-.5-.31-.59-.57-.08-.23,0-.45,.24-.56,.69-.32,.73-.83,.37-1.39-.26-.41-.14-.87-.3-1.29-.03-.06,.05-.19,.11-.26,.18-.21,.38-.49,.68-.36,.5,.2,.92,.58,1.24,.99,.19,.24-.08,.56-.32,.76-.77,.6-1.21,1.37-1.19,2.37,0,.19-.11,.25-.23,.32Z"/><path class="cls-5" d="M128.38,55.65c-.33-.37-.51-.79-.53-1.19-.05-1.37-.03-2.74-.03-4.1,0-.25,.12-.43,.39-.46,.31-.04,.37,.21,.42,.43,.19,.91,.14,1.84,.05,2.75-.07,.71-.13,1.42-.12,2.13,0,.15-.02,.29-.19,.45Z"/><path class="cls-5" d="M119.14,13.54c.02,.19-.07,.4-.36,.56-.39,.22-.73,.05-1.06-.09-.28-.12-.23-.39-.18-.65,.12-.62,.34-1.26-.48-1.64-.27-.13-.21-.49-.14-.75,.06-.22,.3-.25,.37-.03,.21,.74,.94,.98,1.37,1.52,.24,.3,.47,.57,.48,1.08Z"/><path class="cls-5" d="M120.78,20.95c0-.27-.05-.57,.23-.68,.48-.19,.72-.57,.93-1,.15-.3,.35-.35,.5,.02,.17,.41,.24,.83-.02,1.21-.26,.39-.56,.75-.68,1.22-.04,.17-.18,.29-.39,.28-.2-.01-.34-.1-.39-.28-.08-.26-.22-.51-.18-.77Z"/><path class="cls-4" d="M37.89,12.28v9.08c-.66,.16-1.33,.59-1.95-.08,.2,0,.4-.01,.6-.02,.86,0,1.08-.22,1.08-1.12,0-2.12,0-4.23,0-6.35,0-.52,.08-1.03,.27-1.51Z"/><path class="cls-5" d="M100.54,73.42c-5.04,0-10.08-.01-15.12-.02-.35,0-.7-.02-1.05-.03,.21-.2,.47-.13,.71-.13,4.9,0,9.8,0,14.7,0,.26,0,.56-.11,.76,.17Z"/><path class="cls-5" d="M129.33,57.91c-.24,.54-.08,1.18-.39,1.75-.21,.38-.45,.33-.72,.2-.31-.14-.45-.37-.23-.71,.34-.53,.81-1,.78-1.71,0-.18,.19-.23,.34-.19,.34,.1,.19,.4,.24,.67Z"/><path class="cls-56" d="M105.45,61.83l-.13-.12c.01-2.59,.03-5.19,.04-7.78,0-2.31,0-4.63,.14-6.94v14.73s-.03,.08-.05,.12Z"/><path class="cls-5" d="M97.71,80.29c.17-.6,.4-1.17,.71-1.7,.07,.1,.16,.28,.22,.27,.83-.09,.64,.38,.57,.89-.15,1.07-.32,1.17-1.21,.58-.07-.05-.19-.03-.29-.04Z"/><path class="cls-5" d="M122.13,69.18c0-.34,.1-.56,.41-.57,.29,0,.52-.11,.72-.31,.15-.15,.36-.21,.54-.08,.18,.13,.16,.38,.08,.55-.21,.45-.32,.93-.99,1.06-.71,.14-.7-.28-.77-.65Z"/><path class="cls-5" d="M112.06,43.27l.91-.61c.1,.24,.33,.36,.5,.53,.28,.26,.32,.6,.19,.95-.09,.25-.28,.43-.54,.45-.38,.04-.53-.29-.73-.53-.2-.23-.07-.6-.34-.79Z"/><path class="cls-5" d="M95.93,84.93c.14-.48,.29-.95,.56-1.37,.16,.4,.36,.18,.57,.05,.33-.21,.46-.12,.5,.29,.09,.88-.42,1.26-1.13,1.52-.18-.14,.05-.72-.5-.49Z"/><path class="cls-5" d="M118.21,72.2c.12,.02,.31-.06,.38,.12,.07,.17-.07,.29-.19,.36-.34,.19-.53,.36-.09,.67,.12,.08,.11,.35-.02,.39-.38,.11-.61,.36-.87,.63-.14,.14-.34,.05-.45-.11-.12-.18-.15-.43,.02-.55,.46-.29,.68-.66,.69-1.22,0-.26,.28-.31,.54-.3Z"/><path class="cls-5" d="M118.91,73.07s-.15-.05-.15-.08c0-.12,.01-.28,.09-.34,.62-.53,1.25-1.04,1.89-1.55,.1-.08,.24-.09,.34,0,.12,.11,.16,.25,.1,.4-.06,.18-2.05,1.56-2.27,1.56Z"/><path class="cls-5" d="M125.74,32.7c.39,.08,.62,.3,.66,.6,.05,.36,.54,.66,.18,1.08-.16,.19-.42,.31-.57,.07-.28-.46-.47-.97-.44-1.54,0-.14,.07-.23,.16-.23Z"/><path class="cls-5" d="M110.52,5.37c.03,.38-.37,.45-.65,.64-.33,.23-.61-.06-.92-.08-.03,0-.09-.1-.08-.1,.28-.33,.55-.67,.86-.96,.18-.16,.42-.11,.61,.06,.11,.1,.22,.2,.17,.45Z"/><path class="cls-23" d="M73.72,24.86l-.17,.18c-1.14,.79-2.39,1.41-3.6,2.08-.14,.08-.28,.1-.42-.01v-.33c1.19-.67,2.37-1.33,3.54-2.01,.25-.14,.48-.31,.64,.09Z"/><path class="cls-5" d="M121.55,68.46c.44,.1,.52,.39,.35,.68-.16,.27-.21,.48-.03,.74,.11,.17,.38,.37,.09,.56-.29,.19-.64-.06-.68-.25-.1-.49-.33-1.02,0-1.52,.06-.09,.18-.15,.26-.21Z"/><path class="cls-5" d="M104.29,9.45l-1.01-1.23c.51-.17,1.05,.02,1.57-.11,.35-.09,.58,.18,.64,.6-.58,0-1.31-.24-1.2,.74Z"/><path class="cls-5" d="M115.13,76.38c-.3,.21-.59,.43-.9,.63-.24,.16-.49,.41-.8,.16-.18-.15-.27-.35-.15-.6,.17-.36,.44-.53,.84-.47,.34,.06,.62,.38,1.01,.27Z"/><path class="cls-5" d="M107.92,3.44c.47,.11,.89,.2,1.24,.53,.24,.23,.27,.38,.06,.61-.2,.21-.46,.3-.62,.03-.2-.32-.5-.46-.79-.63-.12-.07-.3-.17-.21-.33,.06-.11,.24-.15,.34-.2Z"/><path class="cls-5" d="M127.25,61.97c.27-.37,.09-1.08,.73-1.23,.24-.05,.46,.24,.4,.51-.11,.48-.27,.99-.82,1.15-.23,.07-.33-.16-.32-.43Z"/><path class="cls-5" d="M83.27,68.3c-.59,.85-1.33,1.52-2.36,1.81-.06-.51,.26-.79,.67-.91,.63-.19,.96-.92,1.69-.9Z"/><path class="cls-50" d="M35.93,21.27c.64,.18,1.3,.16,1.95,.08-.07,.32-.45,.12-.57,.34-.35,.1-.7,.2-1.05,0l-.06-.02h-.06c-.65-.15-1.33,.07-1.98-.11-.27-.09-.6,.07-.85-.17,.23-.04,.5,.09,.69-.14,.5-.12,1-.13,1.5,0h.42Z"/><path class="cls-5" d="M129.17,44.16c-.08,.24,.17,.77-.17,.79-.47,.04-.18-.56-.37-.84-.06-.08-.04-.25,0-.35,.1-.2,.04-.6,.38-.54,.27,.05,.12,.38,.15,.58,.02,.1,0,.2,0,.35Z"/><path class="cls-5" d="M106.57,80.89c-.29,0-.6-.02-.59-.39,0-.24,.1-.53,.43-.46,.29,.06,.61,.2,.66,.51,.05,.35-.27,.33-.5,.35Z"/><path class="cls-5" d="M84.7,65.9v-1.19c-.34,.33-.13,.7-.32,.95,0-.26-.11-.46-.22-.69-.13-.26,.06-.47,.25-.63,.14-.11,.34-.13,.48,0,.17,.16,.28,.37,.08,.58-.27,.28-.02,.69-.26,.97Z"/><path class="cls-5" d="M123.92,23.31c-.03,.22,.05,.64-.32,.56-.48-.1-.19-.63-.32-.95-.06-.16,.01-.41,.21-.38,.4,.06,.44,.4,.43,.77Z"/><path class="cls-5" d="M101.28,6.63c-.61-.26-1.23-.53-1.84-.79,.13-.05,.32-.07,.39-.17,.32-.42,.6-.36,.74,.09,.13,.4,.74,.38,.71,.87Z"/><path class="cls-5" d="M103.26,8.19c-.52-.43-1.05-.87-1.57-1.3,1.14-.04,1.44,.21,1.57,1.3Z"/><path class="cls-5" d="M108.71,79.56c.25,.06,.52,.11,.51,.43-.02,.41-.43,.34-.67,.47-.21,.12-.35-.04-.33-.24,.03-.3,.14-.58,.49-.66Z"/><path class="cls-5" d="M126.29,30.39c-.35,.54-.62,.88-.6,1.35,0,.14-.13,.29-.31,.16-.23-.16-.33-.39-.21-.65,.19-.39,.56-.57,1.12-.86Z"/><path class="cls-5" d="M99.26,83.59c.18,.07,.51,.07,.46,.35-.05,.25-.26,.5-.58,.48-.19-.02-.38-.14-.37-.39,0-.31,.19-.44,.5-.44Z"/><path class="cls-5" d="M82.28,69.81c.39-.37,.78-.74,1.17-1.11,0,.87-.23,1.08-1.17,1.11Z"/><path class="cls-5" d="M99.22,1.44c-.52,.41-1.11,.07-1.66,.15,.52-.37,1.09-.25,1.66-.15Z"/><path class="cls-5" d="M129.57,53.81c.07,.48,.11,.85-.27,1.36-.16-.58-.26-.96,.27-1.36Z"/><path class="cls-5" d="M105.63,13.33l.03-.3c.16,.9,.29,1.79,0,2.69l-.03-.3c-.32-.69-.19-1.39,0-2.08Z"/><path class="cls-4" d="M35.52,21.26h-1.5c-.64-.05-.42-.45-.31-.8-.05,.53,.21,.66,.7,.66,.36,0,.79-.29,1.11,.13Z"/><path class="cls-5" d="M124.07,34.62c.01-.21-.01-.43,.22-.43,.24,0,.22,.21,.22,.38,0,.18-.05,.39-.24,.39-.26,.01-.16-.24-.2-.35Z"/><path class="cls-5" d="M84.03,67.84l.18-.3c.19,.25,.38,.12,.56-.01,.08-.06,.19-.1,.26-.02,.05,.07,.07,.18,.05,.27-.02,.14-.12,.2-.26,.18-.26-.04-.53-.09-.79-.13Z"/><path class="cls-5" d="M122.78,23.63c-.33-.22-.41-.46-.3-.74,.03-.09,.17-.14,.25-.07,.24,.22,.15,.48,.05,.81Z"/><path class="cls-4" d="M34.26,16.29c.11-.35-.01-.74,.19-1.07-.04,.36,.77,.87-.19,1.07Z"/><path class="cls-5" d="M128.98,40.52c.31,.27,.14,.58,.19,1.03q-.36-.57-.19-1.03Z"/><path class="cls-5" d="M82.08,63.95c.23-.61-.46-.55-.63-.87,.84,0,.97,.18,.63,.87Z"/><path class="cls-5" d="M79.75,62.15c.24-.32,.57-.15,.87-.15l-.17,.5-.7-.35Z"/><path class="cls-5" d="M97.99,82.21c0,.19-.03,.36-.2,.37-.18,.01-.22-.16-.22-.31,0-.15,.04-.3,.24-.29,.15,.01,.18,.14,.19,.23Z"/><path class="cls-5" d="M114.18,7.74c.17-.03,.2,.12,.21,.22,.02,.15-.02,.3-.2,.31-.11,0-.25-.06-.26-.2-.01-.16,.12-.25,.24-.33Z"/><path class="cls-5" d="M113.72,37.63c-.21-.26-.42-.51-.63-.77,.62-.08,.68,.3,.63,.77Z"/><path class="cls-5" d="M99.12,2.56c.03-.15,.14-.17,.27-.16,.14,0,.24,.08,.23,.22,0,.15-.12,.2-.25,.18-.13-.02-.21-.1-.24-.24Z"/><path class="cls-5" d="M105.48,12.15l-.31-.92c.75,.09,.33,.57,.31,.92Z"/><path class="cls-5" d="M114.59,10.22c-.05,.12-.13,.23-.28,.2-.13-.02-.24-.1-.21-.25,.03-.14,.16-.2,.28-.2,.14,0,.22,.1,.2,.25Z"/><path class="cls-5" d="M114.23,40.57v-1.47c.17,.49,.18,.98,0,1.47Z"/><path class="cls-5" d="M84.39,67.1c.09-.26,.17-.52,.26-.79,.21,.36,.3,.68-.26,.79Z"/><path class="cls-5" d="M101.69,5.32c-.15-.06-.24-.17-.22-.34,.02-.12,.1-.16,.21-.13,.13,.05,.19,.16,.19,.29,0,.11-.06,.18-.18,.18Z"/><path class="cls-39" d="M19.92,32.61c.4-.16,.74-.4,1.02-.73,.62-.13,1.11-.56,1.71-.74,3.16-.94,6.08-.62,8.65,1.63,1.5,1.32,2.46,2.93,2.78,4.9,.63,3.8-.96,7.35-4.57,9.22-2.28,1.18-4.65,1.24-7.01,.37-3.02-1.11-5.35-4.22-5.43-7.55-.06-2.62,.7-4.85,2.61-6.66,.13-.12,.25-.25,.25-.44Z"/><path class="cls-79" d="M94.69,89.43c-.2,.23-.47,.12-.7,.12-9.29,0-18.58,.01-27.86,0-.31,0-.73,.16-.9-.14-.22-.38,.06-.77,.25-1.11,.13-.24,.31-.46,.58-.57,1.11-.35,2.26-.25,3.4-.25,7.96,0,15.93,0,23.89,0,.22,0,.45,.01,.67,0,.44-.02,.63,.15,.61,.61-.02,.44-.08,.9,.06,1.34Z"/><path class="cls-40" d="M25.59,55.98l.08-5.64c.3,0,.69-.38,.84,.21-.39,.43-.33,.97-.33,1.49,0,9.84,0,19.69,0,29.53,0,.44-.17,.89,.06,1.31,.4,.23,.11,.57,.14,.86,.16,.12,.34,.08,.51,.08,7.17,0,14.35,.01,21.52,0,.38-.09,.66,.12,.94,.33,.83,.63,1.69,1.22,2.48,1.9,.42,.36,.69,.29,1.04-.12,.43-.5,.66-1.17,1.3-1.48,.19,.04,.15,.21,.19,.34-.48,.64-.97,1.26-1.42,1.92-.26,.38-.46,.41-.82,.11-.93-.75-1.9-1.45-2.85-2.19-.39-.3-.78-.44-1.29-.44-7.16,.02-14.33,0-21.49,.03-.72,0-.92-.18-.91-.9,.02-8.98,0-17.97,0-26.95-.07-.12-.07-.25,0-.38Z"/><path class="cls-49" d="M19.92,32.61c.31,.31-.04,.45-.19,.59-2.33,2.22-2.94,4.97-2.34,8.01,.51,2.59,2.14,4.4,4.44,5.58,2.63,1.34,5.32,1.28,7.86-.17,2.57-1.46,4.17-3.62,4.33-6.71,.1-1.95-.18-3.79-1.35-5.38-2.24-3.03-4.95-4.11-8.65-3.58-.89,.13-1.67,.44-2.44,.86-.19,.1-.4,.38-.65,.08,1.82-1.32,3.89-1.62,6.05-1.29,3.6,.56,6.56,3.37,7.19,6.73,.73,3.87-.83,7.49-4.08,9.47-3.32,2.03-8.03,1.4-10.75-1.44-.19-.2-.41-.36-.61-.54-.14-.07-.07-.23-.15-.33-2.07-3.12-2.32-6.34-.54-9.67,.46-.86,1.1-1.6,1.87-2.21Z"/><path class="cls-78" d="M26.52,50.46c-.26-.23-.57-.1-.86-.13,.18-.26,.46-.15,.69-.15,10.03,0,20.06,0,30.09-.02,.66,0,.85,.17,.83,.83-.05,1.67-.02,3.34-.02,5.01-.51-.11-.35-.53-.36-.84-.03-1.51,0-3.01-.02-4.52,0-.1,.01,.02-.01-.07-.04-.17-.07,.02-.11,0-.33,.17-.68,.13-1.03,.13-9.33,0-18.66,0-27.99,0-.41,0-.86,.08-1.2-.27Z"/><path class="cls-33" d="M57.24,69.36c3.12,.76,6.24,1.52,9.36,2.3,.32,.08,.51-.08,.75-.22,.95-.53,1.96-.82,3.07-.73-.04,.38-.3,.28-.46,.28-.83,0-1.56,.31-2.29,.63-.45,.2-.73,.52-.84,1.05-.36,1.68-.81,3.34-1.16,5.02-.15,.71-.36,.94-1.12,.74-2.17-.58-4.36-1.04-6.53-1.61-.68-.18-.78,0-.77,.63,.02,2.15-.02,4.29-.03,6.44-.29-.05-.32-.3-.32-.51,0-2.28-.11-4.56,.06-6.83,.29-.48,.73-.33,1.14-.24,2.04,.48,4.07,.99,6.11,1.46,.78,.18,.85,.15,1.05-.6,.37-1.42,.67-2.86,1.05-4.28,.16-.59-.06-.81-.6-.93-2.31-.51-4.61-1.09-6.91-1.64-.67-.16-1.39-.2-1.97-.62-.05-.07-.05-.15,0-.22,.13-.11,.28-.13,.44-.11Z"/><path class="cls-18" d="M94.69,89.43c-.28-.33-.15-.72-.13-1.08,.03-.55-.14-.75-.71-.73-1.27,.04-2.54,.01-3.81,.01-7.45,0-14.91,.01-22.36-.02-.56,0-1.06,.39-1.62,.12,.18-.14,.36-.27,.6-.27,1.87-.13,3.75-.02,5.62-.07,.22,0,.49,.15,.67-.13,.2-.66,.43-1.3,.79-1.89,.31,.31-.02,.55-.11,.8-.44,1.15-.45,1.14,.76,1.14,2.32,0,4.64,0,6.96,0,4.17,0,8.34,.02,12.5-.02,.64,0,.93,.17,.88,.81,.02,.44,.09,.88-.04,1.31Z"/><path class="cls-46" d="M36.24,44.32s0,.05,.01,.07c.07,.49-.37,1.1,0,1.43,.36,.32,1,.11,1.52,.11,5.88,.01,11.76,.02,17.65,.02,.15,0,.3-.03,.45,0,.15,.03,.3,.06,.38,.22-.32,.03-.64,.07-.96,.07-6.19,0-12.38,0-18.58,0-.93,0-.93,0-.79-.91,.08-.49-.03-1,.18-1.48,.19,.11,.04,.33,.15,.47Z"/><path class="cls-6" d="M57.24,69.36c-.06,.1-.16,.14-.28,.13-.11-.11-.19-.23-.21-.39-.05-.35-.07-.69-.07-1.04,0-5.44,0-10.89,0-16.33,0-.42-.08-.86,.22-1.22,.37,.02,.18,.31,.19,.46,.02,1.42,0,2.85,.02,4.27,0,.26-.1,.55,.13,.78h.01c.07,.1,.07,.21-.01,.31,0,4.35,0,8.69-.01,13.04Z"/><path class="cls-72" d="M69.24,34.8l1.94-1.26c.6-.71,1.45-1.05,2.23-1.5,.13-.07,.28-.09,.39,.06,.05,.12,.04,.24,0,.36-.6,.66-1.43,.97-2.16,1.44-2.26,1.44-1.83,.81-1.87,3.31-.04,2.36,.05,4.72-.04,7.08-.03,.13-.1,.24-.18,.35h0c-.22,.46,.07,.99-.16,1.46l-.14,.04c-.1-.11-.17-.24-.19-.39-.12-1.16-.06-2.33-.05-3.5,0-2.31-.06-4.62,.04-6.92,.02-.2,.09-.37,.22-.52Z"/><path class="cls-60" d="M69.54,44.64v-.32c.26-.24,.59-.24,.92-.24,.67-.01,1.35,0,2.02,0,1.14,0,1.15,0,1.15-1.18,0-2.59,0-5.19,0-7.78,0-.92-.08-1.84,.1-2.76v-.31c-.02-.27,.13-.24,.29-.15v.17c.21,.31,.22,.66,.22,1.01,0,5.46,0,10.93,0,16.39,0,.35-.01,.7-.22,1.01h-.17c.14-1.8,.02-3.59,.07-5.38,.01-.45-.25-.46-.58-.46-1.27,0-2.54,0-3.81,0Z"/><path class="cls-45" d="M27.58,16.73c-.25,2.1-.49,4.2-.75,6.29-.34,2.76,1.98,5.39,4.81,5.6,.25,.02,.49,.07,.74,.1,.04,.15,0,.23-.18,.18-3.61,0-6.11-2.89-5.61-6.45,.24-1.72,.44-3.45,.67-5.18,.03-.23-.05-.53,.33-.55Z"/><path class="cls-43" d="M18.59,44.48c.12,.08,.14,.2,.15,.33-1.51,.66-2.74,1.62-3.4,3.17-1.58,3.73,.79,7.59,4.9,8.03-.18,.41-.49,.21-.77,.17-2.62-.45-4.67-2.71-4.82-5.32-.17-2.85,.99-4.81,3.6-6.1,.13-.06,.23-.18,.34-.27Z"/><path class="cls-64" d="M69.21,45.81v.33c-1.73,.02-3.47,.04-5.21,.04-2.59,0-5.18-.01-7.76-.02l-.54-.08c-.05-.16,0-.29,.15-.38,.35-.16,.73-.13,1.1-.13,3.68,0,7.36,0,11.04,0,.42,0,.85-.07,1.22,.23Z"/><path class="cls-21" d="M36.24,44.32l-.15-.47c.22-2.22,.44-4.45,.67-6.67,.19-1.9,.39-3.81,.58-5.71,.35,.06,.16,.29,.15,.46-.28,2.87-.56,5.74-.85,8.61-.13,1.26-.27,2.52-.4,3.78Z"/><path class="cls-54" d="M57.25,56.32v-.32c3.05,0,6.08,0,9.12,0-.02,.16,.03,.34-.12,.48-.19-.25-.46-.15-.69-.15-2.77,0-5.54,0-8.3,0Z"/><path class="cls-27" d="M57.09,76.4c0,2.23,.01,4.47,.03,6.7,0,.27-.08,.55,.1,.8,.02,.37-.34,.19-.48,.33-.46,.09-.93,.01-1.39,.03-.24,.01-.5-.03-.67,.2l-.3,.32-.12-.22c-.11-.68,.32-.98,.85-1.2,.21,.01,.34,.2,.53,.26,.68,.2,1.05-.05,1.07-.77,.04-2.04-.06-4.09,.05-6.13,.03-.13,.09-.24,.21-.32h.13Z"/><path class="cls-16" d="M37.49,31.93c-.07-.15,.01-.35-.15-.46,.03-.49,.04-.99,.11-1.47,.07-.47-.1-.59-.54-.62-1.45-.09-2.91-.23-4.36-.35-.12-.01-.23-.07-.35-.1l.18-.18c1.66-.03,3.31,.25,4.96,.36,.26,.02,.53,.08,.46,.43-.16,.8-.08,1.63-.31,2.42Z"/><path class="cls-75" d="M19.48,56.17c.25-.07,.55,.09,.77-.17,1.78,0,3.56-.02,5.34-.03v.38c-1.75-.01-3.5-.02-5.25-.05-.29,0-.6,.08-.86-.13Z"/><path class="cls-79" d="M72.95,87.27c-.12,.28-.37,.2-.58,.2-1.91,0-3.81,0-5.72,0,.34-.2,.72-.13,1.09-.14,1.73-.02,3.47-.04,5.2-.06Z"/><path class="cls-65" d="M54.68,84.46c.19-.51,.63-.29,.96-.3,.36-.02,.74-.09,1.1,.07-.67,.27-1.4-.06-2.06,.23Z"/><path class="cls-64" d="M69.37,46.1c.07-.49-.16-1.01,.16-1.47-.08,.49,.15,1.01-.16,1.47Z"/><path class="cls-19" d="M69.21,45.81h-13.45c-.19-.38-.1-.78-.02-1.17l.15-1c.01-.99,.02-1.98,.31-2.94v-.39c.09-2.16,.35-4.3,.55-6.45,.05-.54,0-1.1,.15-1.63,.05-.18,0-.45,.27-.47,.2-.01,.24,.22,.33,.36,.65,1.01,1.11,2.12,1.71,3.15,1.19,2.03,4.26,3.01,6.42,1.84,.96-.52,1.89-1.11,2.83-1.67,.22-.13,.44-.36,.75-.22v10.58Z"/><path class="cls-47" d="M74.03,31.9c-.1,.05-.26-.03-.3,.15l-2.55,1.5c.43-1.04,1.47-1.28,2.32-1.74,.87-.47,1.62-1.12,2.45-1.65,.27-.18,.26-.52,.02-.72-.75-.61-1.12-1.52-1.75-2.22-.64-.72-1.37-.74-2.5-.49-1.8,.39-3.06,1.66-4.57,2.52-.48,.27-.97,.52-1.49,.68-.46,.14-.86,.37-1.23,.68-.39,.32-.72,.26-1.17-.09-.88-.69-1.11-1.9-2.12-2.46-.08-.04-.15-.26-.11-.33,.71-1.15-.29-1.71-.88-2.28-1.29-1.26-2.92-1.21-4.56-.87-.54,.11-.86,1.23-.54,1.76,.1,.16,.39,.24,.26,.48-.13,.23-.4,.14-.62,.15-1.02,.06-2.04-.13-3.05,.13-.54,.14-1.05,.5-1.65,.2-.16-.08-.3,.13-.44,.24-.34,.25-.75,.32-1.02,.02-.5-.55-.84-.21-1.06,.17-.31,.52-.58,.4-.95,.13q-1.36-.97-3.14-1.19c-.46-.06-.67-.3-.66-.74,0-.61-.12-1.18-.46-1.69-.28-.42-.07-.93-.19-1.39-.17-.67-.49-.87-1.12-.58-.63,.28-1.21,.43-1.76-.14-.05-.05-.22-.08-.27-.04-.94,.82-1.69-.55-2.58-.24,0,0-.05-.08-.07-.12h1.05c.92,.19,1.86,.2,2.8,.18,.33,.13,.63-.03,.95-.05,.51-.03,1.05-.17,1.51,.22,.13,.16,.21,.35,.18,.54-.14,.89,.28,1.5,.96,1.99,.24,.5-.01,1.06,.21,1.56,.38,.29,.82,.15,1.23,.14,.76,0,1.47,.12,2.19,.39,1.1,.41,2.29,.39,3.38,.01,.83-.28,1.63-.42,2.48-.39,.18,0,.35-.02,.49-.13,.09-.09,.18-.19,.17-.32-.06-.82,.14-1.46,1.04-1.76,.36-.12,.32-.63,.44-.97,.18-.34,.49-.29,.79-.26,2.38,.22,4.17,1.38,5.42,3.39,.69,1.12,1.28,2.31,1.94,3.45,.22,.39,.42,.45,.82,.23,1.35-.74,2.68-1.54,4.02-2.31,.39-.23,.8-.38,1.22-.52h.01c1.01-.55,2.01-1.11,3.03-1.65,.31-.17,.57-.49,.99-.41,.91,1.52,1.79,3.06,2.76,4.54,.39,.6,.2,.84-.32,1.13-.67,.37-1.32,.79-1.97,1.19Z"/><path class="cls-2" d="M69.21,35.23c-.98,.43-1.88,1.03-2.77,1.61-2.81,1.84-6.36,.83-7.83-2.34-.42-.9-.92-1.76-1.54-2.63-.08,.84-.17,1.67-.24,2.51-.16,1.83-.32,3.67-.49,5.5-.01,.14-.09,.28-.14,.42-.34-.73-.02-1.47,.02-2.19,.14-2.16,.37-4.32,.57-6.48,.02-.19,.09-.38,.16-.69,.57,.7,.83,1.45,1.22,2.11,.31,.54,.62,1.09,.87,1.65,1.08,2.4,4.44,3.66,7.02,2.01,1.04-.67,2.11-1.28,3.17-1.91l-.03,.43Z"/><path class="cls-70" d="M56.2,40.7c-.1,.98-.05,1.97-.31,2.94-.21-1.01-.2-2,.31-2.94Z"/><path class="cls-77" d="M55.74,44.64l.02,1.17c-.02,.09-.04,.18-.06,.27-.12,.01-.22-.03-.29-.13,.14-.43,.05-.92,.33-1.31Z"/><path class="cls-4" d="M34.17,21.57c.66-.02,1.32-.03,1.98,.12-.66-.01-1.33,.16-1.98-.12Z"/><path class="cls-63" d="M91.5,86.28c-.24-.4-.52-.29-.74-.3-5.12,0-10.24,0-15.35,0-.02,0-.05,0-.07,0-.32-.12-.72,.37-.94-.04-.22-.39,.14-.75,.3-1.11,.47-1.09,1.09-2.13,1.41-3.28,.08-.3,.16-.53,.55-.34,.51,.25,.69-.26,.96-.49,.27-.23,.18-.54-.08-.78-.16-.15-.23-.33-.12-.54,.61-1.17,.41-2.54,.97-3.73,.12-.25,.18-.52,.3-.76,.14-.26,.3-.58,.63-.56,.33,.03,.24,.38,.29,.61,.06,.31,.3,.37,.56,.37,.47,0,.95-.01,1.42,0,.59,.02,1.04-.02,1.21-.78,.13-.6,.79-.51,1.22-.41,2.15,.5,4.32,.21,6.48,.27,1.45,.04,2.9,.01,4.34,0,.45,0,.84,.04,1.01,.55,.09,.25,.33,.35,.61,.35,.42,0,.85,.02,1.27-.02,.34-.03,.74-.27,.94,.13,.2,.4,.24,.97,0,1.3-.67,.93-.79,2.05-1.27,3.03-.1,.2-.16,.46-.32,.58-.99,.71-.98,1.82-1.16,2.84-.09,.49-.27,.97-.63,1.24-.67,.5-.78,1.19-.86,1.9-.04,.37-.17,.51-.52,.58-.27,.06-.54,.1-.81,.1-6.12,0-12.23,0-18.35,0-.26,0-.74,.16-.72-.24,.02-.37,.39-.52,.86-.42,.44,.09,.93-.08,1.4-.08,4.77,0,9.54,0,14.3,0h.91Z"/><path class="cls-19" d="M40.76,21.72c-.52,.03-1.03-.11-1.54-.16-.99-.09-.99-.07-.99-1.1,0-2.4,.01-4.79-.01-7.19,0-.54,.11-.73,.7-.73,9.89,.02,19.77,.01,29.66,0,.39,0,.66,.01,.65,.54-.02,4.59-.02,9.19-.02,13.78,0,.07-.02,.15-.03,.22-.9,.76-1.98,1.22-2.97,1.83-.61,.38-1.27,.69-1.88,1.08-.4,.26-.62,.22-.88-.22-.81-1.37-1.45-2.83-2.39-4.13-1.22-1.68-2.88-2.56-4.91-2.73-.55-.05-.73-.29-.74-.8,0-.54,.09-1.1-.11-1.63-.08-.29-.16-.62-.44-.75-.78-.37-.86-1.02-.81-1.75,.01-.15,0-.3-.01-.45-.41-1.51-1.49-2.35-3.03-2.36-1.32,0-2.65,0-3.97,0-1.79,0-3.01,1.2-3.05,2.98,.04,.67,0,1.26-.78,1.57-.37,.14-.41,.58-.43,.96-.02,.38,.11,.8-.25,1.11-.59,.06-1.18,.18-1.76-.08Z"/><path class="cls-76" d="M55.47,20.48c.21,.56,.07,1.13,.09,1.7,.01,.36,.1,.53,.5,.56,2.79,.21,4.68,1.74,5.95,4.14,.49,.92,1.03,1.82,1.5,2.75,.22,.42,.39,.44,.79,.2,1.61-.95,3.24-1.85,4.86-2.77l.36,.02c-1.83,1.07-3.65,2.13-5.47,3.21-.42,.25-.51-.07-.66-.32-.83-1.42-1.49-2.94-2.47-4.27-1.26-1.73-3.03-2.53-5.11-2.73-.11-.01-.23,.07-.34,.1-.39-.87-.38-1.74,0-2.61Z"/><path class="cls-22" d="M40.76,21.72l1.78-.04c.17,.16,.16,.33,.01,.51-.78-.34-1.64-.03-2.43-.3,.21-.06,.46,.04,.64-.16Z"/><path class="cls-81" d="M101.82,48.79c-.43,.42-.29,.98-.35,1.48-.47,3.58-.91,7.17-1.34,10.76-.06,.48-.19,.66-.71,.66-5.77-.03-11.53-.03-17.3-.04-.28,0-.64,.1-.62-.39,.56-4.45,1.12-8.89,1.66-13.34,.05-.44,.01-.89,.02-1.34-1.07-.6-1.94-1.47-2.88-2.24-.79-.65-1.57-1.3-2.37-1.94-1.02-.82-1.62-1.84-1.47-3.17,.17-1.53,1.08-2.48,2.53-2.92,2.48-.75,4.94-1.56,7.44-2.27,.58-.16,1.23-.57,1.8,.08,.06,.16,.06,.31,.03,.48-.08,.26-.11,.54-.09,.81,.05,.62-.11,1.1-.7,1.44-.45,.26-.54,.75-.5,1.25-.01,.42,.01,.84-.03,1.26-.06,.58-.27,.7-.78,.43-.28-.15-.54-.34-.83-.49,.45,.25,.86,.56,1.34,.75,.17,.11,.33,.26,.35,.45,.16,1.12,.92,1.38,1.89,1.37,.42,.21,.63,.63,.95,.94,1.63,1.55,3.55,1.76,5.63,1.25,1.05-.32,1.88-.94,2.54-1.81,.2-.28,.36-.66,.77-.63,.78,.06,1.24-.38,1.66-.94,.78-.42,1.6-.74,2.32-1.06-.71,.19-1.37,.74-2.22,.86-.07-.04-.11-.1-.14-.17-.16-.5,.02-1.03-.17-1.52-.07-.34-.06-.69-.05-1.03,.01-.46-.14-.88-.52-1.08-.78-.39-.9-1.03-.83-1.78-.04-.78-.37-1.41-.9-1.97-.18-.19-.44-.35-.35-.68,.23-.1,.44-.03,.66,.04,4.36,1.32,8.73,2.65,13.09,3.98,1.53,.47,2.46,1.52,2.64,3.1,.18,1.55-.54,2.68-1.87,3.46-3.43,1.99-6.85,3.98-10.28,5.97Z"/><path class="cls-65" d="M74.2,32.22c.68-.6,1.48-1,2.27-1.44,.53-.29,.6-.56,.25-1.04-.31-.41-.54-.88-.88-1.43,9.87,0,19.62,0,29.36,0,.01,1.72,.01,3.44,.05,5.16,.01,.55-.2,.54-.64,.41-2.17-.66-4.34-1.3-6.51-1.93-.22-.06-.52-.33-.7,.1-.13,.14-.3,.16-.48,.12-1.96-.43-3.95-.13-5.93-.18-.63-.02-1.19,.29-1.66,.73-.29,.27-.53,.6-.88,.79-2.7,.77-5.37,1.6-8.05,2.44-.66,.21-1.34,.35-1.98,.65-2.07,.95-2.59,3.66-.95,5.23,1.56,1.5,3.32,2.79,4.97,4.19,.2,.17,.47,.29,.56,.58,.05,1.58-.36,3.11-.48,4.67-.08,1.04-.27,2.07-.43,3.2-.76-1.01-1.53-1.89-2.54-2.55-1.39-.91-2.89-1.43-4.55-1.46-.27,0-.55,.06-.79-.14-.15-.17-.09-.38-.09-.57,0-5.65,0-11.3,0-16.95,0-.19-.06-.4,.09-.57Z"/><path class="cls-39" d="M66.09,59.15c-.18-4.35,3.93-8.5,8.4-8.41,2.85,.06,5.11,1.09,6.89,3.27,.37,.45,.55,.75-.18,1.16-2.09,1.15-4.11,2.44-6.17,3.64-.53,.31-.61,.51-.02,.85,2.13,1.24,4.23,2.52,6.36,3.76,.39,.23,.5,.4,.19,.79-1.64,2.07-3.69,3.35-6.39,3.5-3.41,.19-5.99-1.26-7.84-4.03-.92-1.38-1.26-2.47-1.24-4.53Z"/><path class="cls-65" d="M81.33,60.92c-.06,.58-.39,.76-.96,.69-.52-.06-1.04-.02-1.56-.02-1.27-.78-2.55-1.55-3.91-2.38,2.36-1.4,4.66-2.77,7.11-4.23-.24,2.1-.46,4.02-.68,5.94Z"/><path class="cls-73" d="M82.98,46.59c-1.95-1.51-3.91-3.01-5.68-4.72-1.71-1.66-1.1-4.61,1.13-5.43,2.21-.82,4.5-1.44,6.76-2.14,1.02-.31,2.05-.6,3.07-.9,.16,.14,.24,.31,.24,.52-.05,.22-.13,.38-.4,.23-.35-.29-.74-.18-1.11-.07-2.67,.81-5.35,1.58-8,2.45-2.7,.88-3.21,3.77-1.03,5.62,1.5,1.27,3.04,2.5,4.55,3.75,.24,.2,.55,.34,.65,.68h-.2Z"/><path class="cls-1" d="M74.2,32.22c0,6.03,0,12.06,0,18.09-.08,.03,.04,.26-.17,.17,0-6.14,0-12.28,.01-18.41l.16,.15Z"/><path class="cls-65" d="M100.37,61.26c.48-3.87,.95-7.74,1.43-11.61,.03-.25,.07-.49,.24-.69,.87-.49,1.74-.97,2.6-1.47,.38-.22,.59-.34,.59,.29-.02,4.39-.02,8.79,0,13.18,0,.49-.15,.65-.64,.64-1.22-.03-2.45,0-3.67,0-.25,0-.52,.04-.55-.33Z"/><path class="cls-12" d="M88.42,33.84c-.19-.1-.15-.28-.15-.44,1.06-1.38,2.48-1.81,4.16-1.68,.77,.06,1.55,.03,2.32-.02,.91-.05,1.78,.1,2.64,.33l.2,.21c.71,.7,1.37,1.44,1.43,2.51-.04,.1-.09,.19-.22,.17-.35-.34-.31-.86-.56-1.25-.25-.39-.5-.74-1.02-.69-.1-.05-.17-.13-.23-.23-.12-.2-.28-.37-.51-.39-1.29-.12-2.59-.26-3.87,.08-.09,.06-.19,.12-.29,.18-1.31,.38-2.58,.85-3.89,1.23Z"/><path class="cls-20" d="M105.34,28.3l.12-.13v6h-.12v-5.87Z"/><path class="cls-39" d="M105.47,15.1c-.25,1.03-.36,2.09-.88,3.05-1.51,2.78-3.76,4.48-6.95,4.73-3.63,.29-6.48-1.18-8.26-4.3-2.55-4.46-.75-9.79,3.82-11.94,3.19-1.5,6.39-1.15,9.2,1.23,1.75,1.49,2.82,3.32,2.97,5.64,0,.09,.07,.18,.11,.27,.15,.44,.15,.88,0,1.31Z"/><path class="cls-66" d="M105.47,15.1c0-.44,0-.88,0-1.31,.04-.16,0-.34,.16-.46,.07,.69,.06,1.39,0,2.08l-.16-.31Z"/><path class="cls-5" d="M97.72,5.31c-.54,.09-.98,.11-1.41-.08,.44-.05,.85-.65,1.41,.08Z"/><path class="cls-35" d="M21.9,35.67c.8-.41,1.65-.19,2.46-.13,.45,.03,.09,.43,.01,.64-.26,.76,0,1.39,.71,1.73,.6,.28,1.31,.06,1.68-.55,.29-.47,.27-.96-.04-1.41-.25-.37-.12-.48,.26-.48,.62,0,1.25,.02,1.87,0,.4-.01,.54,.17,.51,.54-.01,.17,0,.35,0,.52q0,1.02,.97,1.04c.99,.02,1.67,.81,1.59,1.85-.06,.88-.93,1.62-1.84,1.42-.67-.15-.74,.07-.73,.63,.02,1.5,0,1.5-1.49,1.5-1.74,0-3.49,0-5.23,0-.25,0-.56,.14-.74-.19,.08-2.37,.09-4.75,0-7.12Z"/><path class="cls-31" d="M21.9,35.67c.19,.22,.1,.48,.1,.72,0,1.89,0,3.79,0,5.68,0,.24,.09,.5-.09,.72,0-2.37,0-4.75,0-7.12Z"/><path class="cls-81" d="M55.01,83.43l-.75,1.12c-.59,.52-.96,1.21-1.47,1.8-.24,.28-.37,.4-.74,.1-1.09-.88-2.23-1.69-3.36-2.53-.15,.01-.28-.04-.4-.12-1.59-1.27-3.21-2.48-4.83-3.71-2.56-1.93-5.13-3.87-7.65-5.84-1.45-1.14-2.28-2.73-2.59-4.58-.44-2.63,.56-4.84,2.07-6.86,1.13-1.51,2.66-2.51,4.41-3.2,.52-.2,.87-.14,1.04,.44,.14,.53,.28,1.07,.51,1.57,1.79,3.46,6.16,3.43,8.17,.91,.14-.23,.34-.43,.49-.66,.43-.66,.62-.67,1.09-.05,1.29,1.71,2.66,3.37,3.95,5.08,.46,.62,.96,1.21,1.41,1.84,.17,.24,.4,.45,.41,.78,1.3,.49,2.68,.7,4.02,1.05,1.81,.46,3.62,.89,5.44,1.31,.39,.09,.47,.22,.38,.61-.43,1.71-.85,3.43-1.22,5.15-.11,.52-.3,.61-.81,.48-2.17-.56-4.34-1.07-6.52-1.58-.31-.07-.64-.09-.96-.13h0c-1.86-.16-3.46-.95-4.86-2.14-.54-.46-1.08-.94-1.49-1.54-.04-1.22,0-2.43-.01-3.32-.15,1.85,.2,4.01,.14,6.18,0,.3,.02,.6-.04,.89-.24,.55-.53,.26-.81,.04-1.9-1.45-3.81-2.89-5.7-4.36-.51-.4-1.05-.77-1.56-1.16-.2-.15-.42-.31-.4-.59,.02-.31,.31-.26,.51-.33,.87-.3,1.62-1.19,1.93-2.18-.33,1.29-1.3,2.05-2.83,2.44,2.94,2.28,5.74,4.43,8.57,6.54,.06,.04,.11,.09,.16,.14,1.52,1.26,3.13,2.39,4.69,3.6,1.3,1.01,1.28,1.72-.1,2.67-.08,.06-.18,.08-.26,.14Z"/><path class="cls-65" d="M56.91,50.5c0,6.23,.01,12.45,.02,18.68-.37,.11-.47-.22-.63-.42-1.89-2.44-3.77-4.88-5.67-7.31-.2-.25-.29-.51-.21-.83,.21-.93,.25-1.86-.03-2.8-.16-.51,.09-.72,.63-.7,.73,.03,1.46,.01,2.19,0-.94,.02-1.88-.02-2.82,.02-.41-.14-.61-.5-.84-.82-1.28-1.78-3.1-2.23-5.09-1.81-1.96,.41-3.18,1.75-3.65,3.72-.09,.36-.1,.74-.29,1.07-1.38,.56-2.74,1.16-3.89,2.16-1.47,1.28-2.4,2.89-3.09,4.68-1.3,3.37-2.8,6.66-4.2,9.99-.43,1.01-.87,2.01-1.29,3.03-.43,.95-.83,1.92-1.24,2.88-.15,.34-.26,.71-.59,.93l-.22,.3c-.15-.18-.07-.38-.07-.57,0-10.51,0-21.02,0-31.53,0-.45,.02-.8,.6-.73,.32,.01,.65,.03,.97,.03,9.81,0,19.61,0,29.42,0Z"/><path class="cls-59" d="M26.22,82.98l1.65-3.89c.13-.06,.19,.02,.24,.12,.14,.26-.26,.6,.13,.82,.48,.09,.95,.04,1.42,.04,4.14,0,8.29,0,12.43,0,.5,0,1,0,1.49-.07,1.66,1.17,3.28,2.4,4.85,3.7-.18,.35-.51,.25-.8,.25-6.99,0-13.98,0-20.97,0-.2,0-.52,.2-.59-.21,.11-.24,.39-.45,.13-.75Z"/><path class="cls-61" d="M26.08,83.74c.22,.24,.51,.14,.78,.14,6.86,0,13.71,0,20.57,0,.35,0,.7,.02,1.01-.18l.25,.22c-.17,.16-.37,.11-.57,.11-7.23,0-14.46,0-21.69,0-.19,0-.45,.1-.56-.09-.19-.29,.03-.26,.22-.2Z"/><path class="cls-57" d="M50.36,57.04h3.27v.21c-.62,0-1.25,0-1.88,0-.27,0-.55,0-.82,0-.38-.01-.49,.14-.36,.5,.36,1,.34,2,.03,3-.07,.23-.02,.38,.11,.54,2.02,2.59,4.03,5.19,6.05,7.78,.04,.05,.13,.07,.19,.11l.03,.3-.2,.03c-1.97-2.52-3.93-5.04-5.9-7.56-.13-.17-.28-.34-.43-.52l-.84,1.17c-.16,.02-.2-.08-.22-.21,0-.05,0-.11,.03-.14,.98-1.45,1.05-3.04,.7-4.69,.03-.2,.07-.4,.26-.53Z"/><path class="cls-9" d="M73.73,32.36c.29,.16,.18,.44,.18,.67,0,3.54,0,7.08,.02,10.62,0,.59-.2,.71-.73,.69-1.22-.03-2.44-.01-3.66-.01-.01-2.98-.01-5.96-.04-8.94,0-.41,.22-.56,.5-.74,1.25-.76,2.49-1.52,3.74-2.29Z"/><path class="cls-65" d="M55.01,83.43c.3-.38,.59-.79,.92-1.15,.43-.46,.32-.76-.16-1.11-1.77-1.32-3.51-2.67-5.26-4.01,.26-.4,.22-.84,.22-1.29,0-.86,0-1.72,0-2.58,.15-.44,.36-.17,.52-.03,.37,.32,.69,.71,1.07,1.03,1.06,.89,2.24,1.52,3.58,1.87,.34,.09,.73,.13,1,.42,.01,2.29,.02,4.59,.04,6.88,0,.36-.12,.51-.47,.47-.02,0-.05,0-.07,0-.63,.03-.66,.01-1.39-.49Z"/><path class="cls-33" d="M56.9,76.57c-2.01-.39-3.8-1.23-5.27-2.69-.26-.26-.54-.51-.81-.76-.15-.16,0-.22,.11-.29,.5,.25,.77,.74,1.18,1.09,1.22,1.06,2.58,1.82,4.16,2.18,.28,.06,.59,.07,.82,.3l-.19,.18Z"/><path class="cls-59" d="M42.55,22.18v-.51c-.01-.37,0-.75-.01-1.12,0-.44,.17-.87,.53-1,.75-.27,.7-.84,.7-1.42,.41-.05,.18,.45,.45,.52,.93-1.3,2.11-2.26,3.71-2.56,2.18-.41,4.01,.26,5.49,1.91,.2,.23,.35,.48,.31,.81-.33,.84-1.01,.25-1.44,.44,.35-.01,.77,0,1.19-.01,.18-.01,.36,0,.34,.26-.91,.32-1.79,.36-2.62-.21-.17-.12-.3-.29-.5-.08-.58,.57-1.32,.49-2.04,.5-2.01,.02-1.8-.24-1.81,1.79,0,1.27,0,2.54,0,3.81,0,.86,.12,1.01,.96,1.26,1.1,.33,2.17,.15,3.22-.25,.23-.09,.46-.2,.72-.21,.49,.07,.97-.02,1.46,.01,.29,.02,.59,0,.8,.26-1.49,0-2.9,.47-4.34,.72-1.01,.17-2.04,.08-2.98-.44-.49-.27-1.03-.12-1.54-.16-.5-.05-1.03,.15-1.51-.13,.71-.17,1.44-.08,2.15-.06,.52,.01,.62-.18,.62-.65-.02-1.74-.01-3.49,0-5.23,0-.23-.1-.48,.07-.67-.18,.07-.07,.27-.07,.4,0,1.74,0,3.49,0,5.23,0,.9,0,.91-.86,.9-.55,0-1.19,.19-1.62-.06-.52-.3-.09-1.01-.22-1.52-.01-.04-.07-.07-.11-.1-1.2-.44-1.04-1.46-1.02-2.42Z"/><path class="cls-26" d="M53.78,19.48c-.55-.39-1.2-.01-1.81-.23,.55-.28,1.32,.27,1.66-.53,.23,.02,.31,.19,.36,.32-.15-.4-.14-.85-.04-1.31,.05-.11,.11-.21,.26-.19,.03,.27,.09,.54,.07,.81-.04,.53,.04,.93,.63,1.16,.38,.15,.55,.55,.56,.98,0,.87,0,1.74,0,2.61,.08,.69-.21,1.22-.86,1.4-.49,.13-.54,.37-.54,.78,0,.36,.11,.74-.09,1.09-.76-.1-1.54,.11-2.29-.13,.04-.34,.34-.48,.55-.67,1.7-1.48,2.15-3.32,1.58-5.45-.06-.21-.15-.43-.04-.65Z"/><path class="cls-37" d="M43.56,24.6c.42,.21,.2,.6,.19,.89-.02,.54,.13,.74,.71,.73,1.84,0,1.84,.02,1.84-1.83,0-1.59,0-3.18,.13-4.77,0,2.11,0,4.23,0,6.34,0,.37-.23,.38-.5,.38-.77,0-1.55,.01-2.32,.02-.02-.59-.04-1.17-.06-1.76Z"/><path class="cls-29" d="M86.73,81.66c-.73,0-1.19-.43-1.19-1.14,0-.71,.45-1.16,1.17-1.16,.68,0,1.22,.5,1.23,1.14,0,.63-.54,1.16-1.21,1.16Z"/><path class="cls-34" d="M54.22,17.53l-.14,.15c-.37-.06-.42-.4-.54-.66-.49-1.04-1.32-1.52-2.44-1.54-1.34-.02-2.69-.03-4.03,0-1.73,.04-2.72,1.02-2.79,2.73-.01,.33-.05,.64-.22,.93-.35-.27,.02-.75-.29-1.03-.03-1.69,1.33-3.14,3-3.17,1.47-.03,2.94-.02,4.41,0,1.5,.02,2.72,1.08,3.03,2.58Z"/><path class="cls-36" d="M92.28,32.55l.16-.19c.33,.42,.76,.57,1.3,.54,.79-.04,1.54,.17,2.22,.54,.43,.23,.67,.23,.8-.28,.04-.17,.16-.31,.35-.35l.17,.19c-.26,1.04,.3,1.71,1.01,2.32,.09,.08,.15,.2,.25,.27,.02,.01,.04,.01,.08,.02,.18-.18,.04-.49,.25-.66l.15-.19c.02,.25,.06,.49,.06,.74,0,.4,.08,.65,.53,.83,.53,.21,.8,.71,.79,1.32,0,.37,.02,.74,.03,1.11,.14,.55-.1,1.13,.14,1.67h0c.08,.11,.07,.22,0,.33-.33,.69-.81,1.17-1.65,1.05-.47-.07-.5,.39-.76,.58-.16,.02-.2-.09-.23-.22,.02-.59-.2-1.09-.66-1.44-.98-.73-1.29-1.72-1.27-2.88,.02-1.08,0-1.1-1.06-1.08-1.84,.03-3.69-.09-5.53,.13-.57,.07-.84,.28-.95,.83-.23,1.07,0,2.08,.38,3.07,.13,.32,.35,.61,.29,.99-.05,.12-.12,.22-.28,.17-.96,.24-1.73-.21-1.92-1.17-.05-.25-.11-.47-.32-.62,.36-.63,.29-1.31,.19-1.98-.12-.8,.14-1.43,.91-1.74,.34-.14,.24-.37,.25-.6,.02-.42-.16-.87,.17-1.25,.34,.35,.1,.81,.26,1.27,.43-.46,.7-1,1.16-1.39,.57-.48,1.16-.94,1.87-1.18,.4-.14,.69-.36,.87-.73Z"/><path class="cls-62" d="M92.28,32.55c.1,.46-.04,.68-.54,.83-1.31,.39-2.3,1.25-3.03,2.41-.11,.18-.14,.44-.44,.52-.28-.56-.02-1.17-.17-1.73v-.45c.22,.03,.28-.11,.3-.3,.19-.4,.61-.4,.95-.5,.97-.27,1.89-.73,2.91-.8Z"/><path class="cls-38" d="M88.83,41.96l.21-.22c.23,0,.36,.15,.49,.3,1.38,1.63,3.17,2.13,5.22,1.9,.22-.03,.44-.08,.66,0,.12,.06,.19,.14,.22,.27-2.53,.91-4.87,.13-6.81-2.25Z"/><path class="cls-7" d="M100.56,40.75v-.33c.96-.38,1.85-.91,2.88-1.08-.89,.61-1.88,1.02-2.88,1.42Z"/><path class="cls-52" d="M86.78,38.18c.13,.68,.4,1.37-.19,1.98-.71-.32-1.37-.71-1.98-1.17l.12-.21c.52,.3,1.05,.58,1.56,.9,.4,.25,.53,.13,.5-.31-.02-.4-.02-.8-.02-1.19Z"/><path class="cls-25" d="M95.64,44.2l-.18-.16c.03-.16,.14-.27,.27-.33,.67-.32,1.26-.75,1.77-1.29,.13-.14,.28-.29,.51-.18l.13,.14c-.61,.92-1.46,1.5-2.5,1.83Z"/><path class="cls-7" d="M100.57,40.42c-.3-.53-.13-1.11-.14-1.67,.19,.54,.05,1.11,.14,1.67Z"/><path class="cls-84" d="M97.11,32.8c-.45,1.09-.45,1.08-1.5,.68-.73-.28-1.48-.5-2.26-.39-.62,.08-.88-.15-.91-.73,0-.21,.12-.3,.33-.3,1.13,0,2.27-.06,3.4,.02,.36,.02,1.11-.13,.94,.73Z"/><path class="cls-68" d="M98.87,34.94v1.16l-.18,.07c-.51-.7-1.06-1.34-1.68-1.94-.33-.32,.21-.8,.27-1.24,.16-.31,.3-.38,.59-.09,.59,.57,.82,1.28,1,2.04Z"/><path class="cls-84" d="M88.94,33.15c.93-1.04,1.96-1.14,3.09-.94l-3.09,.94Z"/><path class="cls-65" d="M99.95,10.49l.76,.58c1.52,2.1,1.63,4.29,.28,6.24-1.21,1.74-3.23,2.47-5.02,2.08-2.43-.53-3.9-2.24-4.14-4.49-.31-2.95,1.82-5.43,4.87-5.6,1.2-.07,2.37,.23,3.24,1.19Z"/><path class="cls-14" d="M99.95,10.49c-1.44-.97-2.97-1.37-4.68-.78-2.67,.92-4.04,3.86-3.02,6.49,.98,2.54,4.1,3.82,6.58,2.7,2.63-1.18,3.71-4.25,2.42-6.79-.18-.35-.52-.62-.53-1.05,.88,.6,1.12,1.58,1.3,2.51,.41,2.21-.82,4.49-2.86,5.53-1.92,.98-4.28,.52-5.93-1-2.58-2.38-1.99-7.29,1.92-8.66,1.53-.54,3.04-.37,4.44,.49,.17,.1,.62,.13,.37,.55Z"/><path class="cls-65" d="M24.17,35.77c-.33,1.18-.19,1.77,.48,2.26,.59,.43,1.24,.44,1.82,.05,.82-.55,.91-1.36,.57-2.24,.08-.03,.13-.05,.18-.06q1.82-.1,1.84,1.71c0,.47-.1,.99,.67,.49,.55-.35,1.25-.13,1.66,.42,.41,.54,.41,1.12,0,1.66-.4,.53-1.1,.73-1.67,.38-.58-.35-.68-.21-.67,.4,0,.59,.27,1.35-.12,1.73-.39,.37-1.14,.11-1.73,.12-1.45,.02-2.9-.02-4.34,.02-.54,.01-.74-.12-.73-.7,.04-1.85,.03-3.7,0-5.54-.01-.57,.16-.76,.72-.71,.42,.04,.84,0,1.32,0Z"/><path class="cls-67" d="M50.36,57.04c-.01,.16,.01,.34-.13,.47-1.89-.12-3.79-.05-5.68-.06-.94,0-.99,.07-1.01,1.03-.04,1.82-.49,2.49-2.11,3.12-.1,.08-.21,.14-.35,.09-.26-.49-.49-.99-.5-1.56-.02-.29-.15-.56-.14-.85,.15-2.14,1.09-3.75,3.07-4.67,2.3-1.07,5.06-.25,6.44,1.89,.12,.19,.27,.36,.4,.54Z"/><path class="cls-32" d="M40.45,59.29c.15,.27,.2,.55,.14,.85-.1-.29-.11-.62-.63-.42-3.75,1.44-6.03,4.13-6.58,8.09-.35,2.53,.63,4.73,2.65,6.34,2.49,1.99,5.04,3.91,7.56,5.86-.2,.28-.48,.29-.79,.29-4.79,0-9.59,0-14.38,0-.23,0-.51,.11-.67-.18,.36-.26,.77-.18,1.16-.18,4.64,.01,9.29-.04,13.93,.02,.05,0,.09-.02,.12-.06-.25,.08-.39-.11-.56-.24-2.2-1.65-4.38-3.31-6.55-5-1.43-1.12-2.31-2.6-2.77-4.34-.2-.78-.26-1.57-.11-2.18,.03-.28-.11-.21-.01-.22,.03,0,.04,.02,.04,.06-.05,.45-.24,.86-.42,1.27-1.29,2.98-2.53,5.97-3.82,8.95-.17,.39-.21,.89-.71,1.08l-.17-.18c2.09-4.87,4.11-9.76,6.28-14.59,1.22-2.71,3.45-4.37,6.29-5.22Z"/><path class="cls-44" d="M50.47,77.02c-2.84-2.15-5.67-4.31-8.51-6.46-.11-.09-.28-.15-.26-.33,.02-.17,.17-.15,.29-.16,1.64-.2,2.52-1.16,2.72-2.77,0-.04,.07-.06,.1-.09,.32,1.04-.59,2.51-1.84,2.97-.2,.07-.54,0-.55,.28,0,.21,.28,.32,.46,.46,2.34,1.78,4.68,3.56,7.03,5.34,.22,.16,.41,.37,.7,.41,.17,.2,0,.28-.14,.36Z"/><path class="cls-58" d="M41.08,61.69l.15-.16c.33,.02,.44,.3,.59,.52,1.68,2.42,5.38,2.46,6.98,.71,.16-.18,.34-.38,.64-.31l.15,.16c-2.17,2.91-7.05,2.39-8.51-.91Z"/><path class="cls-83" d="M50.47,77.02l.14-.36c0-2.67,.01-5.34,.02-8.01,0-.04,.04-.09,.17-.32,0,1.32,0,2.45,0,3.57,0,.31-.12,.65,.12,.93l-.11,.29c0,1.17,0,2.34-.02,3.52,0,.21,.15,.55-.29,.52,0-.05-.02-.09-.04-.14Z"/><path class="cls-81" d="M28.04,79.28c1.6-3.73,3.2-7.46,4.8-11.19,.05-.13,.11-.25,.22-.38-.13,2.03,.38,3.86,1.6,5.46,.94,1.22,2.25,2.03,3.45,2.96,1.67,1.3,3.36,2.58,5.03,3.85-.01,.18-.12,.16-.21,.16-4.97,0-9.93,0-14.9,0-.1,0-.2-.02-.3-.04l.3-.82Z"/><path class="cls-81" d="M49.45,62.45c-2.3,2.63-6.47,2.25-8.21-.92,.02-.1,.05-.18,.17-.22,1.46-.51,1.92-1.15,1.93-2.7q0-1.34,1.32-1.34c1.62,0,3.24,0,4.86,0,.26,0,.57-.11,.72,.23,.57,1.78,.36,3.43-.79,4.94Z"/><path class="cls-47" d="M53.78,19.48c.99,1.81,.75,4.99-2.09,6.77-1.51,.8-3.05,.98-4.66,.3-.33-.14-.46-.31-.46-.66,.01-1.97,.02-3.93,0-5.9,0-.41,.16-.51,.53-.5,.65,.02,1.29-.01,1.94,0,.74,.02,1.39-.13,1.8-.89,.75,1.19,1.89,.86,2.93,.88Z"/><path class="cls-19" d="M44.06,19.16c0-.96-.14-1.94,.57-2.77,.6-.71,1.33-1.1,2.26-1.12,1.15-.02,2.3,.06,3.44-.03,1.9-.14,3.16,.62,3.76,2.44,0,.46,0,.92,0,1.54l-.44-.51c-1.8-3.27-6.77-3.4-9.03-.25-.17,.24-.24,.56-.54,.69Z"/><path class="cls-17" d="M44.94,21.93c0,.45,0,.9,0,1.35-.01,.46-.02,.94-.65,.99-.63,.05-1.24,.02-1.42-.75-.25-1.08-.22-2.18,.03-3.25,.17-.72,.82-.69,1.41-.66,.58,.04,.64,.44,.64,.9,0,.47,0,.95,0,1.42Z"/><path class="cls-10" d="M55.29,21.95c0,.4,.01,.8,0,1.19-.01,.43-.23,.75-.57,1-.15,.11-.33,.16-.49,.07-.19-.11-.15-.31-.08-.47,.52-1.24,.56-2.49,.14-3.78-.1-.31,.09-.41,.38-.3,.47,.18,.58,.59,.62,1.02,.04,.42,0,.84,0,1.27Z"/><path class="cls-71" d="M98.01,42.24c-.73,.77-1.58,1.37-2.55,1.8-1.15,.19-2.31,.27-3.44-.07-1.25-.38-2.19-1.21-2.97-2.23-.82-1.34-1.08-2.77-.76-4.31,.11-.52,.29-.8,.92-.8,2.1,0,4.19-.07,6.29-.16,.55-.02,.68,.15,.67,.66,0,.62-.01,1.24,.13,1.86,.14,.59,.41,1.13,.93,1.39,.57,.28,.59,.89,.96,1.27,.19,.2-.13,.38-.18,.58Z"/><path class="cls-30" d="M100.23,39.53c0,.36,0,.61,0,.86-.02,.77-.36,1.09-1.18,1.1-.7,0-1.01-.28-1.03-1.06-.03-.97-.01-1.94-.03-2.91,0-.52-.05-1.01,.73-1,.94,0,1.35,.22,1.37,.97,.02,.72,.24,1.43,.14,2.04Z"/><path class="cls-51" d="M87.06,38.97c0-.42,0-.85,0-1.27,0-.29,.1-.55,.3-.74,.18-.17,.43-.35,.67-.23,.27,.13,.06,.4,.03,.59-.2,1.24-.25,2.46,.3,3.64,.09,.19,.32,.42,.08,.6-.22,.17-.53,.13-.77-.02-.48-.3-.53-.82-.58-1.31-.04-.42,0-.84,0-1.27h-.02Z"/><path class="cls-53" d="M96.89,14.26c.85,0,1.69,.01,2.54,0,.41,0,.58,.09,.55,.54-.1,1.43-1.5,2.7-3.06,2.72-1.59,.02-3.01-1.16-3.15-2.6-.05-.46,.05-.69,.58-.67,.84,.04,1.69,.01,2.54,.01Z"/><path class="cls-69" d="M46.86,60.53c.52,.65,1.02,.73,1.18,.16,.09-.32,.07-.66,.19-.99,.26,.49,.25,.96-.07,1.4-.22,.3-.55,.34-.87,.22-.37-.14-.48-.44-.41-.8Z"/><path class="cls-48" d="M51.92,21.97c.08,.59,.22,1.2-.25,1.72-.23,.25-.57,.29-.9,.14-.35-.16-.52-.42-.45-.88,.32,.26,.42,.77,.92,.63,.23-.06,.41-.2,.42-.46,.01-.39,0-.77,0-1.16l.25,.02Z"/><path class="cls-28" d="M92.7,39.93c.17,.6-.06,.9-.41,1.07-.32,.15-.7,.16-.97-.14-.34-.37-.44-.79-.21-1.37,.33,.45,0,1.19,.75,1.27,.5,.05,.58-.37,.84-.83Z"/><path class="cls-42" d="M96.91,14.53c.72,0,1.45,.02,2.17,0,.47-.02,.64,.15,.54,.62-.23,1.1-1.4,2.04-2.63,2.07-1.3,.03-2.54-.8-2.84-1.91-.13-.5-.06-.82,.59-.79,.72,.04,1.45,0,2.17,0Z"/></g></g></svg>