<?xml version="1.0" encoding="UTF-8"?><svg id="Layer_2" xmlns="http://www.w3.org/2000/svg" viewBox="0 0 63.26 61.45"><defs><style>.cls-1{fill:#fff;}</style></defs><g id="Layer_1-2"><g><path class="cls-1" d="M22.16,13.64c-8.81,3.7-14.96,13.41-13.8,23.69,1.39,.13,2.82,.12,4.17,.43,4.69,1.06,7.83,5.48,7.57,10.47-.24,4.61-3.99,8.57-8.71,9.21-4.73,.65-9.35-2.22-10.84-6.74-1.48-4.47,.16-9.15,4.13-11.71,.48-.31,.82-.54,.73-1.25-1.22-10.6,4.32-21.04,13.91-26.03,1.47-.77,2.23-1.49,2.49-3.31C22.51,3.46,26.74,.03,31.59,0c4.82-.03,8.93,3.39,9.94,8.3,1.29,6.25-4.13,12.33-10.48,11.81-4.27-.35-7.11-2.61-8.89-6.48ZM3.02,47.5c0,3.95,3.1,7.03,7.05,7.03,3.9,0,7.06-3.13,7.11-7.04,.04-3.86-3.26-7.15-7.16-7.13-3.89,.02-7,3.19-6.99,7.13ZM38.71,10.09c0-3.9-3.16-7.07-7.05-7.08-3.93,0-7.12,3.21-7.09,7.15,.03,3.91,3.19,7.03,7.1,7.01,3.9-.02,7.04-3.18,7.04-7.08Z"/><path class="cls-1" d="M54.95,37.33c.5-5.5-.73-10.61-3.79-15.26-1.57-2.39-3.55-4.41-5.86-6.1-1.02-.75-1.09-1.9-.21-2.55,.77-.56,1.42-.25,2.08,.24,4.11,3.03,7.14,6.89,9.02,11.64,1.59,4.02,2.2,8.19,1.67,12.5-.09,.73,.33,.92,.79,1.23,3.33,2.25,4.94,5.42,4.55,9.4-.41,4.11-2.66,7.01-6.54,8.49-5.4,2.05-11.42-1.02-13.09-6.6-1.63-5.46,1.68-11.27,7.24-12.56,1.29-.3,2.66-.28,4.14-.42Zm5.31,10.18c.01-3.94-3.09-7.11-6.98-7.14-3.9-.02-7.21,3.26-7.17,7.12,.04,3.9,3.2,7.04,7.1,7.04,3.95,0,7.04-3.08,7.05-7.03Z"/><path class="cls-1" d="M31.63,61.45c-3.74-.11-7.35-.8-10.77-2.35-1.05-.48-1.44-1.2-1.11-2.03,.35-.88,1.18-1.15,2.28-.68,6.41,2.75,12.82,2.75,19.23,0,1.09-.47,1.93-.18,2.27,.7,.32,.82-.08,1.55-1.13,2.03-3.42,1.55-7.03,2.24-10.77,2.34Z"/></g></g></svg>