<?xml version="1.0" encoding="UTF-8"?><svg id="Layer_2" xmlns="http://www.w3.org/2000/svg" viewBox="0 0 42.95 34.17"><g id="Layer_1-2"><g><path d="M4.41,22.01c-.42,0-.74,0-1.06,0-1.95-.04-3.33-1.39-3.34-3.32-.02-5.12-.02-10.24,0-15.36C.02,1.45,1.4,.02,3.27,.02,11.36,0,19.46,0,27.56,.01c1.94,0,3.27,1.42,3.31,3.47,.03,1.79,0,3.57,0,5.36,0,.32,0,.64,0,1.06,1.2,0,2.29,0,3.38,0,1.7,0,3.39-.01,5.09,0,2.29,.02,3.59,1.32,3.6,3.61,.01,3.75,0,7.5,0,11.25,0,2.63-1.15,3.8-3.78,3.87-.15,0-.29,.02-.57,.04,0,1.32,.04,2.61-.02,3.91-.02,.44-.17,.97-.45,1.28-.5,.53-1.07,.29-1.58-.13-1.85-1.55-3.69-3.1-5.56-4.61-.33-.27-.84-.45-1.27-.46-3.15-.04-6.31-.02-9.47-.02-2.44,0-3.72-1.3-3.73-3.76,0-.92,0-1.84,0-2.86-1.26,0-2.44-.03-3.62,.02-.23,0-.49,.28-.67,.49-1.81,2.09-3.61,4.19-5.41,6.3-.45,.53-.9,1.11-1.71,.81-.79-.29-.71-1.01-.71-1.66,0-1.96,0-3.91,0-5.97Zm2.22,3.62c1.57-1.83,2.96-3.41,4.31-5.04,.46-.55,.96-.78,1.68-.78,4.85,.03,9.7,.02,14.55,.01,1.11,0,1.45-.33,1.45-1.43,0-4.91,0-9.82,0-14.72,0-1.16-.32-1.47-1.49-1.47-7.79,0-15.59,0-23.38,0-1.19,0-1.53,.34-1.53,1.55,0,2.59,0,5.18,0,7.76,0,2.26,0,4.52,0,6.78,0,1.18,.36,1.52,1.56,1.53,.45,0,.89,0,1.34,0,1.19,0,1.52,.34,1.53,1.54,0,1.33,0,2.66,0,4.25Zm12.12-3.62c0,1.01,0,1.92,0,2.84,0,1.28,.3,1.59,1.57,1.59,2.77,0,5.54,.1,8.29-.03,1.84-.09,3.35,.29,4.63,1.66,.72,.78,1.63,1.39,2.45,2.06,.16,.13,.35,.23,.63,.4,0-1-.02-1.86,0-2.72,.02-.96,.42-1.35,1.36-1.37,.51-.01,1.01,0,1.52,0,1.22,0,1.55-.32,1.55-1.52,0-3.78,0-7.55,0-11.33,0-1.12-.32-1.45-1.42-1.46-1.52-.01-3.03,0-4.55,0-1.27,0-2.54,0-3.91,0,0,.43,0,.75,0,1.07,0,1.75,.02,3.51,0,5.26-.03,2.23-1.36,3.54-3.58,3.55-1.93,0-3.87,0-5.8,0-.88,0-1.77,0-2.75,0Z"/><path d="M15.39,6.63c2.47,0,4.93,0,7.4,0,.94,0,1.44,.38,1.44,1.07,0,.7-.5,1.1-1.41,1.1-4.93,0-9.87,0-14.8,0-.92,0-1.43-.41-1.38-1.12,.05-.83,.6-1.06,1.35-1.06,2.47,.01,4.93,0,7.4,0Z"/><path d="M15.49,14.32c-2.47,0-4.93,0-7.4,0-.97,0-1.49-.42-1.46-1.15,.03-.69,.51-1.05,1.46-1.05,4.9,0,9.81,0,14.71,0,.94,0,1.42,.39,1.43,1.09,0,.69-.51,1.1-1.43,1.11-2.44,0-4.87,0-7.31,0Z"/></g></g></svg>