<?xml version="1.0" encoding="UTF-8"?><svg id="Layer_2" xmlns="http://www.w3.org/2000/svg" viewBox="0 0 32.51 32.65"><defs><style>.cls-1{fill:#15a0f8;}.cls-2{fill:#0e8ef0;}.cls-3{fill:#0774e6;}.cls-4{fill:#0e8df0;}.cls-5{fill:#fefefe;}</style></defs><g id="Layer_1-2"><g><path class="cls-5" d="M18.91,32.14c-1.73,.79-3.5,.51-5.27,.19-1.56-1.7-1.36-3.83-1.22-5.84,.18-2.54-.58-4.37-2.97-5.4-1.22-2.45-1.05-4.56,1.54-6.01,2.01-1.11,1.05-3.34,1.92-4.88,1.35-3.22,3.67-5.02,7.25-4.96,3.27,.06,4.24,1.15,4.16,4.64-.31,1.51-1.64,1.86-2.77,2.51-1.58,.91-1.8,2.07,.13,2.72,2.4,.8,2.37,2.51,2.07,4.45-3.38,2.65-3.94,6.31-3.73,10.28,.05,.9-.59,1.61-1.1,2.31Z"/><path class="cls-1" d="M23.55,10.38c-.41-1.24,.83-3.21-.93-3.7-2.02-.57-4.26-.66-6.26,.59-1.25,.79-1.86,2.07-2.66,3.2-2.94,1-5.95,.59-8.94,.38-1.2-.08-2.31-.55-2.88-1.77C4.32,3.26,9.11,.54,15,.07c6.4-.52,11.62,2,14.99,7.74,.86,1.61,.06,2.49-1.41,2.89-1.68,.45-3.41,.68-5.03-.31Z"/><path class="cls-3" d="M18.91,32.14c0-2.28,0-4.57,.02-6.85,.03-2.21-.86-5,3.17-4.55,1.01,.11,.49-1.25,.87-1.83,.74-.93,1.79-1.21,2.88-1.18,2.26,.07,4.43-.47,6.64-.78-.37,7.95-6.02,14.28-13.58,15.18Z"/><path class="cls-3" d="M9.71,20.85c3.39-.69,4.27,.86,3.94,4.02-.26,2.46-.03,4.97-.02,7.46C5.44,30.48,.44,24.83,.04,16.96c2.02,.17,3.97,.84,6.03,.77,2.09-.07,3.51,.82,3.64,3.12Z"/><path class="cls-2" d="M9.71,20.85c-1.02-2.51-3.22-1.91-5.17-1.96-1.76-.04-3.75,.47-4.5-1.93-.17-2.81,.25-5.48,1.84-7.88,2.68,.95,5.46,.57,8.2,.66,1.24,.04,2.58-.35,3.62,.73-.03,1.4-.07,2.8-.1,4.19-.02,.77,0,1.69-1.08,1.58-4.27-.45-2.82,2.5-2.81,4.61Z"/><path class="cls-4" d="M32.49,16.96c-.62,1.36-1.52,2.09-3.17,1.97-2.1-.15-4.23-.03-6.34-.02-.2-1.01,1.18-2.8-1.37-2.64-1.38,.09-2.88,.38-2.72-1.97,.14-1.96,.44-3.48,2.85-3.44,.63,.01,1.32,.1,1.81-.48,1.28-.81,2.72-.67,4.12-.64,1.38,.03,2.39-.28,2.32-1.94,2.04,2.72,2.65,5.83,2.5,9.15Z"/></g></g></svg>