<?xml version="1.0" encoding="UTF-8"?><svg id="Layer_2" xmlns="http://www.w3.org/2000/svg" viewBox="0 0 31.84 34.78"><defs><style>.cls-1{fill:#5a5a5a;}</style></defs><g id="Layer_1-2"><g><path class="cls-1" d="M.03,6.89V3.89c1.53,0,3.03-.03,4.53,.01,.61,.02,.91-.14,1.19-.74C6.7,1.09,8.41-.02,10.66,0c2.28,.02,3.97,1.17,4.9,3.29,.21,.48,.44,.61,.94,.61,4.83-.02,9.67-.01,14.5-.01h.84v3c-.28,0-.54,0-.8,0-4.86,0-9.71,0-14.57,0-.47,0-.7,.12-.89,.58-.8,2.01-2.74,3.31-4.88,3.31-2.35,0-4.03-1.12-4.99-3.23-.24-.53-.52-.66-1.05-.65-1.52,.03-3.05,.01-4.63,.01Zm12.96-1.51c0-1.35-1.06-2.39-2.4-2.37-1.31,.02-2.35,1.06-2.36,2.36,0,1.32,1.07,2.41,2.38,2.42,1.32,0,2.38-1.07,2.38-2.41Z"/><path class="cls-1" d="M.05,27.87c1.58,0,3.12-.02,4.67,.01,.49,.01,.75-.11,.95-.59,.88-2.12,2.77-3.32,5.09-3.3,2.12,.02,4.04,1.33,4.84,3.37,.18,.47,.44,.52,.86,.52,4.83,0,9.67,0,14.5,0h.86v3c-.24,0-.5,0-.75,0-4.88,0-9.76,0-14.64,0-.43,0-.65,.09-.84,.54-.92,2.15-2.62,3.27-4.93,3.37-2.12,.09-4.13-1.28-4.98-3.29-.19-.46-.41-.63-.93-.62-1.55,.04-3.1,.02-4.7,.02v-3Zm12.94,1.48c0-1.33-1.08-2.4-2.4-2.39-1.31,.01-2.38,1.12-2.36,2.44,.01,1.3,1.07,2.34,2.38,2.34,1.34,0,2.39-1.04,2.38-2.39Z"/><path class="cls-1" d="M0,18.87C0,17.94,0,17.11,0,16.28c0-.11,.02-.21,.04-.39H.86c4.83,0,9.67,0,14.5,0,.48,0,.73-.1,.95-.59,.92-2.11,2.58-3.24,4.88-3.32,2.17-.07,4.17,1.23,4.99,3.25,.22,.54,.5,.67,1.04,.66,1.52-.03,3.05-.01,4.62-.01v2.98c-1.59,0-3.16,.02-4.73,0-.46,0-.7,.11-.89,.57-.86,2.1-2.8,3.37-5,3.35-2.19-.02-4.13-1.33-4.96-3.42-.17-.43-.41-.49-.8-.49-4.86,0-9.71,0-14.57,0H0Zm18.89-1.47c0,1.34,1.08,2.4,2.41,2.38,1.29-.02,2.35-1.08,2.35-2.38,0-1.32-1.07-2.41-2.38-2.41-1.33,0-2.38,1.06-2.38,2.41Z"/></g></g></svg>