<?xml version="1.0" encoding="UTF-8"?><svg id="Layer_2" xmlns="http://www.w3.org/2000/svg" viewBox="0 0 33.76 31.69"><g id="Layer_1-2"><g><path d="M16.81,31.69c-2.83,0-5.67,0-8.5,0-2.98,0-4.87-1.51-5.52-4.43-.89-3.96-1.75-7.93-2.62-11.89-.51-2.34,.19-4.23,2.12-5.68C5.99,6.92,9.68,4.13,13.39,1.36c2.44-1.82,4.55-1.82,7.01,.01,3.71,2.76,7.4,5.55,11.11,8.33,1.93,1.45,2.6,3.35,2.09,5.69-.86,3.93-1.73,7.85-2.59,11.78-.66,2.98-2.53,4.51-5.57,4.52-2.87,0-5.75,0-8.62,0Zm.02-2.17c2.83,0,5.66,.01,8.5,0,1.96,0,2.99-.79,3.42-2.65,.91-3.95,1.79-7.92,2.67-11.88,.32-1.45-.06-2.65-1.31-3.57-3.75-2.78-7.46-5.6-11.2-8.38-1.43-1.07-2.61-1.06-4.05,0-3.71,2.76-7.38,5.57-11.11,8.31-1.34,.99-1.71,2.22-1.37,3.77,.86,3.84,1.7,7.69,2.58,11.53,.48,2.1,1.46,2.86,3.62,2.87,2.75,0,5.5,0,8.26,0Z"/><path d="M16.87,24.04c1.75,0,3.51,0,5.26,0,.8,0,1.5,.17,1.52,1.11,.02,.97-.7,1.14-1.49,1.14-3.51,0-7.02,0-10.53,0-.77,0-1.52-.13-1.52-1.11,0-1.03,.77-1.15,1.6-1.14,1.71,.01,3.43,0,5.14,0Z"/></g></g></svg>