<?xml version="1.0" encoding="UTF-8"?><svg id="Layer_2" xmlns="http://www.w3.org/2000/svg" viewBox="0 0 82.67 81.59"><defs><style>.cls-1{fill:#fff;}</style></defs><g id="Layer_1-2"><g><path class="cls-1" d="M39.18,16.9v47.41h-8.88c-.03-.37-.1-.7-.09-1.03,.05-1.83-.77-3.13-2.24-4.2-6.35-4.6-9.64-10.91-9.87-18.69-.31-10.16,6.84-19.74,16.62-22.52,1.4-.4,2.85-.63,4.46-.97Z"/><path class="cls-1" d="M58.16,21.33c.3,.27,.56,.48,.8,.72,1.52,1.46,3.03,2.93,4.61,4.47-1.06,1.45-1.98,2.78-2.98,4.04-.62,.78-.58,1.43-.33,2.4,.65,2.55,2.25,3.51,4.72,3.56,.91,.02,1.81,.28,2.79,.44,0,2.31,.04,4.47-.04,6.63-.01,.35-.54,.88-.92,.97-1.34,.31-2.7,.5-4.07,.65-.9,.1-1.22,.61-1.68,1.34-1.45,2.29-1.01,4.16,.79,5.97,.61,.62,1.05,1.41,1.53,2.06l-5.43,5.3c-1.12-.82-2.49-1.76-3.79-2.78-.74-.59-1.35-.54-2.26-.28-2.45,.69-3.66,2.09-3.58,4.68,.03,.91-.31,1.82-.49,2.8h-2.72c0-2.88-.04-5.72,.06-8.55,0-.28,.82-.69,1.3-.77,5.79-.93,10.57-5.45,11.78-11.18,1.81-8.63-3.93-16.46-13.01-17.57v-9.13c.36-.04,.74-.05,1.11-.11,1.15-.18,1.7,.23,1.77,1.46,.07,1.22,.4,2.42,.53,3.64,.09,.91,.62,1.24,1.36,1.68,2.29,1.38,4.18,1.02,5.99-.83,.6-.62,1.41-1.04,2.16-1.58Z"/><path class="cls-1" d="M45.16,49.43V31.98c4.01-.11,7.76,3.94,7.91,8.5,.15,4.54-3.49,8.72-7.91,8.95Z"/><path class="cls-1" d="M32.81,74.7h17.02c.13,3.3-3.98,6.75-8.17,6.89-4.4,.14-8.76-3.22-8.85-6.89Z"/><path class="cls-1" d="M30.51,70.39h21.62c-.42,1.48-1.41,2.23-2.77,2.24-5.35,.06-10.7,.05-16.05,0-1.32-.01-2.26-.78-2.81-2.25Z"/><path class="cls-1" d="M30.36,66.45h22.01v1.88H30.36v-1.88Z"/><path class="cls-1" d="M5.93,40.33c1.42,0,2.84-.08,4.25,.05,.48,.04,.91,.63,1.36,.96-.46,.32-.92,.9-1.39,.91-2.93,.08-5.87,.09-8.8,0-.46-.01-.9-.61-1.34-.94,.46-.33,.9-.9,1.38-.93,1.51-.12,3.03-.04,4.55-.04Z"/><path class="cls-1" d="M77.03,42.3c-1.47,0-2.95,.08-4.41-.04-.5-.04-.97-.56-1.45-.86,.44-.35,.87-1,1.32-1.01,2.99-.09,5.98-.08,8.96,0,.41,.01,.81,.62,1.22,.95-.41,.32-.8,.88-1.23,.92-1.46,.12-2.94,.04-4.41,.05Z"/><path class="cls-1" d="M12.73,70.97c-.28-.22-.68-.37-.76-.63-.11-.32-.09-.85,.12-1.06,2.25-2.32,4.54-4.62,6.87-6.86,.23-.22,.86-.03,1.31-.03-.05,.52,.09,1.23-.2,1.54-1.7,1.83-3.5,3.57-5.27,5.34-.42,.42-.82,.84-1.26,1.23-.21,.19-.49,.29-.8,.47Z"/><path class="cls-1" d="M62.99,20.59c-.25-.2-.63-.36-.7-.61-.09-.32-.07-.85,.14-1.07,2.25-2.32,4.53-4.61,6.86-6.84,.22-.22,1.03-.16,1.27,.07,.22,.21,.24,1.02,.02,1.25-2.2,2.3-4.46,4.53-6.72,6.77-.19,.19-.51,.25-.87,.42Z"/><path class="cls-1" d="M70.98,69.94c-.23,.28-.44,.78-.7,.8-.41,.04-.97-.11-1.27-.39-1.6-1.51-3.14-3.09-4.7-4.65-.62-.62-1.33-1.2-1.82-1.91-.22-.33-.03-.94-.02-1.43,.45,.02,1.06-.13,1.31,.1,2.3,2.2,4.54,4.47,6.78,6.74,.16,.16,.24,.41,.42,.75Z"/><path class="cls-1" d="M12.79,11.68c.39,.27,.7,.42,.93,.65,2.1,2.07,4.21,4.12,6.23,6.27,.32,.34,.21,1.09,.3,1.65-.56-.11-1.31-.02-1.66-.35-2.14-2.02-4.21-4.12-6.25-6.25-.29-.3-.43-.86-.4-1.28,.02-.24,.53-.45,.85-.69Z"/><path class="cls-1" d="M40.4,5.68c0-1.47-.07-2.95,.04-4.41,.03-.44,.56-.85,.86-1.27,.33,.44,.94,.87,.96,1.32,.09,2.94,.09,5.89,0,8.83-.01,.46-.61,.91-.93,1.37-.31-.47-.84-.92-.88-1.42-.12-1.46-.04-2.94-.04-4.41Z"/></g></g></svg>