<?xml version="1.0" encoding="UTF-8"?><svg id="Layer_2" xmlns="http://www.w3.org/2000/svg" viewBox="0 0 127.23 82.88"><defs><style>.cls-1{fill:#0e080b;}.cls-2{fill:#230d08;}.cls-3{fill:#fdfcfc;}.cls-4{fill:#3c2b5b;}.cls-5{fill:#9b9a9a;}.cls-6{fill:#1d1434;}.cls-7{fill:#2b130e;}.cls-8{fill:#381d16;}.cls-9{fill:#26110c;}.cls-10{fill:#2b120c;}.cls-11{fill:#959194;}.cls-12{fill:#eee3e6;}.cls-13{fill:#714436;}.cls-14{fill:#26111e;}.cls-15{fill:#a16556;}.cls-16{fill:#bcbcb9;}.cls-17{fill:#2a120e;}.cls-18{fill:#71539a;}.cls-19{fill:#1e1816;}.cls-20{fill:#6e6f70;}.cls-21{fill:#64508d;}.cls-22{fill:#230f09;}.cls-23{fill:#bdbdbc;}.cls-24{fill:#0d0709;}.cls-25{fill:#34160f;}.cls-26{fill:#483467;}.cls-27{fill:#091c29;}.cls-28{fill:#b37099;}.cls-29{fill:#6f549a;}.cls-30{fill:#2b1621;}.cls-31{fill:#9f76db;}.cls-32{fill:#3c2c5b;}.cls-33{fill:#2b2116;}.cls-34{fill:#a277dc;}.cls-35{fill:#64cbfa;}.cls-36{fill:#6f6f6f;}.cls-37{fill:#070403;}.cls-38{fill:#5db6d6;}.cls-39{fill:#fec930;}.cls-40{fill:#564039;}.cls-41{fill:#d59d01;}.cls-42{fill:#f2eae8;}.cls-43{fill:#fdecb8;}.cls-44{fill:#352323;}.cls-45{fill:#fcfcfb;}.cls-46{fill:#f1e9ea;}.cls-47{fill:#919193;}.cls-48{fill:#f1c641;}.cls-49{fill:#60cafc;}.cls-50{fill:#342423;}.cls-51{fill:#2c2b2c;}.cls-52{fill:#0d080b;}.cls-53{fill:#61cbfe;}.cls-54{fill:#fac933;}.cls-55{fill:#9e76dc;}.cls-56{fill:#f0e8e8;}.cls-57{fill:#edebec;}.cls-58{fill:#fe9edb;}.cls-59{fill:#230e09;}.cls-60{fill:#a46251;}.cls-61{fill:#b17097;}.cls-62{fill:#eae2e1;}.cls-63{fill:#6d6e6f;}.cls-64{fill:#fefdfe;}.cls-65{fill:#f2e8e8;}.cls-66{fill:#cdcdcd;}.cls-67{fill:#0b1825;}.cls-68{fill:#9e76dd;}.cls-69{fill:#2e130d;}.cls-70{fill:#231f20;}.cls-71{fill:#1b1233;}.cls-72{fill:#d0ced0;}.cls-73{fill:#b36f9b;}.cls-74{fill:#220f16;}.cls-75{fill:#f1eae9;}.cls-76{fill:#2d120c;}.cls-77{fill:#3a2c5a;}.cls-78{fill:#fefefe;}</style></defs><g id="Layer_1-2"><g><path class="cls-32" d="M58.11,34.48c0-6.16,.01-12.32,.02-18.48,0-1.83-.02-3.67,.01-5.5,.04-2.3,1.68-3.96,4.01-4.1,.19-.01,.38,0,.57,0,12.46,0,24.93,0,37.39,0,1.87,0,3.33,.68,4.16,2.44,.25,.52,.36,1.08,.36,1.66,0,10.57,0,21.14,0,31.71,0,.14-.02,.28-.04,.43-.27,.15-.56,.07-.84,.07-12.55,0-25.11-.01-37.66,.03-1.01,0-1.69-.29-2.35-1-.73-.78-1.42-1.6-2.17-2.36-.89-1.02-1.88-1.94-2.84-2.89-.57-.57-.81-1.21-.63-1.99Z"/><path class="cls-58" d="M61.53,39.03c1.02,1.03,2.05,2.05,3.04,3.1,.32,.33,.64,.48,1.11,.48,12.97-.01,25.95,0,38.92,0-.26,.27-.58,.13-.87,.13-12.48,0-24.96,0-37.44,0-.3,0-.6,0-1.06,0,.71,.78,1.31,1.44,1.91,2.1,1.1,1.18,2.26,2.32,2.93,3.82,1.13,2.56,1.04,5.09-.35,7.51-1.38,2.41-3.56,3.96-5.93,5.27-.45,.25-.92,.47-1.38,.71-.41-.21-.83,.02-1.25-.01-2.7-.19-5.41-.07-8.1-.32-.2-.02-.39-.01-.42,.24-.14,1.08-.54,2.13-.39,3.25-.02,.57-.24,1.1-.34,1.65-.12,.99-.5,1.93-.62,2.92-.41,1.47-.65,2.97-.99,4.45-.29,1-.47,2.02-.68,3.03-.21,1.08-.62,1.31-1.71,1.05-2.11-2.97-5.08-4.8-8.34-6.2-1.92-.82-4.01-.98-6.05-1.25-.26-.03-.53-.02-.75-.19-.25-.22-.29-.53-.34-.83-.21-1.06-.37-2.13-.53-3.19-.41-.06-.41,.33-.53,.52-.58,.92-1.26,1.77-1.9,2.65-.36,.51-.88,.73-1.47,.72-1.61-.03-3.22,.08-4.59,.18,.72,.08,1.65-.21,2.6-.15,1.62,0,3.23,0,4.85,0,1,0,1.24,.3,.89,1.21-.71,1.84-1.03,3.75-1.07,5.72,0,.28-.02,.58-.26,.79-.32,.2-.68,.18-1.04,.18-5,0-10.01,0-15.01,0-.4,0-.81,.02-1.17-.22-.61-.64-.78-1.44-.84-2.28-.14-1.92,.3-3.71,1.14-5.42,.73-1.14,1.39-2.33,2.2-3.42,1.29-1.82,2.69-3.56,4.15-5.25,1.21-1.4,2.47-2.75,3.76-4.09,.11-.12,.27-.17,.4-.26,.05-.04,.1-.08,.15-.12,.33-.49,.82-.83,1.23-1.24,1.99-1.79,4.13-3.31,6.8-3.91,1.27-.25,2.49-.8,3.83-.48,.47-.03,.85,.13,1.24,.42,1.24,.95,2.52,1.85,3.76,2.8,.36,.28,.5,.05,.68-.18,.5-.66,1.03-1.3,1.5-1.98,.35-.51,.62-.44,.95,0,.39,.53,.8,1.05,1.2,1.58,.24,.32,.42,.39,.55-.08,.12-.41,.3-.8,.39-1.22,.12-.55,.34-.91,.98-.8,.1,.02,.21-.08,.32-.12,.29-.35,.71-.35,1.11-.37,.43-.03,.85-.04,1.28-.11,.49-.04,.97-.09,1.46-.16,.65-.02,1.28-.21,1.93-.17,.98-.19,1.99-.17,2.98-.32,.2,0,.4,0,.6,.03,.15,.03,.32,0,.46,.09,1.05,.57,2.02,1.3,3.09,1.84,.12,.06,.23,.14,.34,.23-.63-.77-1.08-1.68-1.9-2.3-.7-.97-1.39-1.94-2.04-2.95-.14-.22-.28-.45-.44-.65-.54-.75-1.02-1.55-1.56-2.3-.12-.17-.24-.35-.23-.59,.27-.56,.81-.86,1.26-1.22,1.6-1.3,3.14-2.68,4.77-3.95,.26-.2,.48-.47,.87-.41Z"/><path class="cls-68" d="M82.82,72.72c-3.42,0-6.85,.05-10.27,0-2.37-.04-3.76-2.1-3.1-4.62,1.57-6.02,3.18-12.02,4.83-18.02,.71-2.59,3.29-4.48,5.96-4.48,9.51,0,19.02,0,28.53,0,2.6,0,4.12,1.96,3.48,4.49-.51,2.02-1.07,4.04-1.61,6.06-.45,.48-.5,1.25-1.15,1.59-.3,.05-.55-.11-.82-.19-1.87-.53-3.61,.66-3.8,2.6-.02,.23,0,.47-.11,.69-.19,.29-.5,.44-.78,.61-2.34,1.42-3.41,3.57-3.51,6.23-.05,1.4,0,2.8-.01,4.21,0,.35,.05,.73-.3,.98-1.15,.22-2.31,.21-3.46,.01-.39-.23-.46-.65-.57-1.03-.5-1.78-.94-3.58-1.43-5.37-.24-.87-.27-.9-1.17-.9-2.99,0-5.99,0-8.98,0-.26,0-.52,0-.77,.08-.12,.09-.17,.22-.18,.37-.11,1.98-.42,3.94-.54,5.92-.02,.28-.02,.57-.24,.79Z"/><path class="cls-66" d="M51.12,69.89c-.02-1.05,.44-2,.6-3.01,.26-.27,.61-.23,.93-.24,.9-.01,1.8,0,2.7,0,.73-.01,.79-.08,.81-.83,.01-.5,.03-1-.47-1.32,.17-.52,.53-.48,.93-.29,.19,.28,.14,.59,.14,.9,0,3.47,0,6.93,0,10.4,0,.98,0,.98-.95,1.27-.37,.12-.7,.3-.95,.6-.12,.15-.27,.3-.21,.5,.07,.23,.31,.17,.49,.19,.24,.02,.47,0,.71,0,2.59,.02,5.17-.04,7.76,.03,.24-.06,.47-.04,.71-.04,5.45,0,10.89,0,16.34,0,.44,0,.91-.08,1.29,.26,1.42,0,2.84,0,4.26,0,.34,0,.63-.02,.62-.46,.66,.24,1.35,.19,2.04,.19,3.06,0,6.12,.02,9.18-.02,1.04,0,2.09,.09,3.13-.01,4.21,.06,8.41,.02,12.62,.02,.28,0,.57-.07,.83,.11,.23,.25,.53,.16,.81,.16,3.62,0,7.23,0,10.85,0,.92,0,.93,.01,.94,.9,0,1-.03,2,.01,3,.02,.54-.18,.69-.7,.68-3-.02-6-.01-8.99-.01-38.83,0-77.66,0-116.49,0q-1.03,0-1.03-1.04c0-.95,.03-1.9-.01-2.85-.02-.55,.18-.68,.7-.68,3.26,.02,6.52,0,9.78,0q.94,0,.94-.98c0-12.94,0-25.88,0-38.83,0-.29-.13-.62,.16-.87,.31,.37,.19,.82,.19,1.24,0,12.67,0,25.34,0,38.01,0,.33-.01,.67,.01,.99,.05,.29,.26,.26,.47,.24,.29-.02,.59-.05,.88,.04,.21,.13,.44,.15,.69,.15,5.53,0,11.07-.01,16.6-.02,.31-.29,.7-.25,1.08-.24,2.46,.01,4.93-.06,7.39,.04,.18-.03,.35,.02,.53,0,.86-.07,1.73-.02,2.59,0,.12,0,.25,0,.37,0,.67-.05,1.35,0,2.02-.03,.25,0,.52,.04,.72-.19,.06-.05,.13-.08,.21-.11,.82,.2,1.68,.22,2.49,.52,.14,0,.28,.01,.43,.01,.88,.01,1.01-.11,1.14-1.05,.15-1,.39-1.98,.69-2.95,.32,.24,.26,.59,.26,.91,.02,.73-.02,1.47,.02,2.2,.03,.61,.22,.68,1.13,.65,.55-.02,.61-.29,.55-.74-.26-1.95-.61-3.88-.91-5.83-.08-.54-.12-1.07-.03-1.61Z"/><path class="cls-60" d="M61.53,39.03c-1.94,1.59-3.88,3.19-5.82,4.78-.33,.27-.66,.54-.99,.81-.35,.07-.42-.25-.55-.44-.29-.41-.56-.82-.82-1.24-.53-.84-1.06-1.67-1.41-2.57-.1,1.92,.38,3.83,.29,5.78-.05,1.11-.27,2.16-.92,3.08-.38,.48-.89,.77-1.44,1.02-1.04,.43-2.11,.54-3.21,.33-.89-.6-2.02-.7-2.9-1.4,0,.21,.17,.25,.23,.36,.59,.86,1.29,1.56,2.43,1.61,.04,.06,.04,.13,0,.19-2.98-.11-5.96-.24-8.95-.33-.58-.02-.82-.17-.78-.82,.07-1.04,.03-2.08,.03-3.13,.56-.19,1.13-.06,1.69-.07,.49-.02,.94-.1,1.36-.36,.6-.37,.64-.57,.17-1.1-.63-.72-1.15-1.51-1.43-2.44-.57-1.85,.74-3.27,2.63-2.86,.61,.13,1.17,.39,1.72,.67,.58,.29,.77,.21,1.06-.37,.24-.5,.31-1.04,.32-1.59,.01-.84,.15-.92,.92-.52,.34,.18,.67,.36,1.06,.4,.53,.06,1-.03,1.28-.55,.25-.49,.62-.52,1.08-.29,.49,.24,1,.46,1.54,.54,1.06,.16,1.4-.19,1.21-1.22-.03-.16-.06-.33-.05-.49,.03-.18,.07-.37,.07-.56,.03-1.71-.63-2.37-2.38-2.35-.81-.21-1.54-.67-2.37-.83-.11-.02-.2-.12-.18-.26,0-.48,.11-.9,.55-1.16,1.8-.26,3.47,.21,5.1,.9-1.5-.71-3.07-1.09-4.74-.97-.12,0-.24-.01-.34-.08,.06-.51,.41-.78,.82-1,1.75-.14,3.48-.16,5.1,.66-1.22-.62-2.52-.78-3.86-.73-.36,.01-.77,.13-1.06-.23,.05-.5,.49-.61,.82-.83,1.74-.18,3.48-.45,4.76,.35-.84-.4-2.05-.73-3.38-.46-.36,.07-.75,.14-1.07-.18,.28-.52,.82-.6,1.32-.69,1.43-.28,2.81-.1,4.12,.58,1.1,.65,2.04,1.51,2.95,2.4,.11,1.07,.31,2.11,.61,3.14,.04,1.68,1.49,2.39,2.41,3.47,.32,.38,.67,.72,1.01,1.09Z"/><path class="cls-39" d="M40.02,0c5.45,.06,9.84,4.56,9.78,10.01-.06,5.44-4.63,9.83-10.13,9.75-5.41-.08-9.74-4.65-9.66-10.2C30.08,4.31,34.66-.06,40.02,0Z"/><path class="cls-35" d="M114.62,78.14c-.33,.15-.68,.17-1.04,.17-3.89,0-7.78,0-11.67,0-.29,0-.57-.02-.83-.13-.65-.06-.91-.56-.99-1.07-.21-1.34-.13-2.7-.05-4.05,0-.12,.09-.22,.17-.31,0-1.69,0-3.38,.03-5.07,.05-2.53,1.03-4.6,3.09-6.11,.42-.3,.88-.55,1.32-.82,.14-.14,.25-.32,.45-.38,1.03-.44,2.11-.5,3.21-.42,.76-.02,1.47,.22,2.18,.44,.19,.04,.36,.14,.54,.19,2.44,1.17,3.89,3.11,4.45,5.74,.19,.89,.02,1.8,.12,2.7,.03,2.25-.01,4.51,.03,6.76,.03,.25-.07,.48-.15,.7-.17,.61-.34,1.22-.87,1.64Z"/><path class="cls-32" d="M98.09,78.16c-.18,.22-.44,.14-.66,.14-3.26,0-6.53,0-9.79,0-.38,0-.71,0-.8-.46-.43-1.66-.87-3.32-1.3-4.98-.31-.32-.45-.71-.56-1.13-.43-1.56-.79-3.13-1.25-4.69-.16-.56-.28-1.13-.16-1.72,3.54,0,7.07,0,10.61-.04,.5,0,.56,.3,.66,.66,.61,2.27,1.23,4.53,1.85,6.79,.8,1.68,1.15,3.48,1.47,5.29,0,.04-.03,.09-.06,.13Z"/><path class="cls-70" d="M46.42,32.79c.89,.22,1.76,.52,2.58,.95,1.21,.25,2.37,1.69,2.43,3.02,.06,.28,.12,.55,.18,.83,.18,.82,.06,1.02-.78,1.14-.89,.13-1.67-.22-2.44-.62-.2-.11-.4-.34-.63,.06-.57,.99-1.32,1.18-2.36,.64-.31-.16-.6-.35-.98-.57,.12,1.04,.04,1.94-.49,2.76-.24,.37-.47,.59-.96,.24-.57-.41-1.25-.67-1.96-.82-1.66-.33-2.8,.91-2.33,2.54,.3,1.03,.86,1.91,1.63,2.64,.55,.52,.27,.81-.17,1.09-1.07,.69-2.24,.66-3.42,.37-.55-2.69-.75-5.41-.31-8.13,.37-2.29,1.22-4.34,3.39-5.56,1.04-.59,2.18-.78,3.35-.79,1.09-.01,2.18,.03,3.26,.22Z"/><path class="cls-66" d="M17.71,57.31c0-5.33,.02-10.65-.01-15.98,0-.69,.18-.94,.88-.87,.57,.06,1.14,.04,1.71,0,.57-.04,.73,.17,.73,.73-.02,3.26-.01,6.51-.01,9.77,0,1.16,0,2.33,0,3.49,0,.25-.08,.53,.16,.73,.17,.23,.09,.49,.09,.74-.07,.51,.14,1.08-.32,1.5-.95,.19-1.91,.08-2.87,.07-.14,0-.27-.07-.36-.19Z"/><path class="cls-64" d="M12.99,43.06c.04-.32,.23-.45,.54-.44,1.14,.02,2.28,.05,3.41,.04,.53,0,.64,.19,.64,.7-.02,4.65-.01,9.3-.01,13.96-.83,.39-1.68,.23-2.53,.11-.31-.25-.34-.61-.4-.96-.62-4.13-1.18-8.26-1.81-12.39-.05-.35-.13-.71,.16-1.01Z"/><path class="cls-39" d="M115.39,68.92c-.08-1.18,.03-2.37-.36-3.52-.72-2.14-2.14-3.65-4.13-4.66-.15-.17-.18-.38-.21-.6-.11-.78-.39-1.46-.99-2-.14-.13-.25-.29-.2-.5,.21-.37,.43-.73,.61-1.1,.11-.23,.25-.39,.52-.4,1.68,1.03,3.45,1.88,5.18,2.82,1.06,.58,2.13,1.16,3.21,1.69,.54,.27,.64,.5,.33,1.07-.8,1.48-1.68,2.92-2.33,4.48-.07,.15-.05,.33-.13,.49-.27,.54-.53,1.09-.81,1.62-.15,.28-.28,.61-.69,.61Z"/><path class="cls-5" d="M15.01,57.32c.85,0,1.71,0,2.56,0,.05,.01,.09,0,.14,0,1.1,0,2.2,0,3.3,0,.78-.39,1.57-.19,2.26-.14-.45-.2-.95-.59-1.5-.89-.25-.13-.51-.26-.6-.57-.15-.17-.02-.35,0-.53,.33-.48,.65-.96,.98-1.45,.36-.53,.8-1,1.25-1.46,2.42-2.45,4.76-4.98,7.24-7.37,.3-.28,.56-.69,1.08-.44l.27,.16c.13,.1,.15,.24,.13,.39-.69,1.49-1.6,2.86-2.41,4.29-1.08,1.9-2.22,3.77-3.27,5.69-.29,.52-.64,1-1.02,1.45l-1.28,1.26c-1.04-.11-2.09-.04-3.13-.05-2.76-.01-5.51,0-8.27,0-.96,0-1.02-.06-1.02-1.01,0-4.37,0-8.74,0-13.11,0-.26-.05-.53,.1-.76,.37-.07,.35,.24,.4,.44,.07,.3,.05,.61,.05,.92,0,3.83,0,7.65,0,11.48,0,.26,.01,.52,0,.78,0,.45,.21,.64,.65,.64,.4,0,.81,0,1.21,0,.31,0,.62,.03,.87,.26Z"/><path class="cls-66" d="M31.99,45.04v-.4c.29-.41,.15-.88,.13-1.31-.03-.58,.19-.74,.74-.72,.83,.04,1.66,.04,2.49,0,.51-.02,.65,.17,.65,.66-.02,2.88,0,5.75,0,8.63-1.11,.17-2.23,.28-3.31,.56-.18,.05-.37,.09-.55,.13-.22-.19-.25-.46-.25-.72,.03-2.28-.13-4.56,.1-6.84Z"/><path class="cls-34" d="M81.94,78.3c-6.14,0-12.29-.01-18.43-.02-.34-.7-.95-1.2-1.41-1.81,4.26,0,8.51-.02,12.77-.02,1.59,0,3.19,0,4.78,0,1.33,0,1.98,.53,2.29,1.85Z"/><path class="cls-23" d="M15.01,57.32c-.71,0-1.43-.04-2.14,.01-.67,.05-.89-.15-.88-.85,.03-4.3,.02-8.6,.01-12.89,0-.28,.08-.57-.11-.83-.16-.11-.16-.28-.16-.45,0-1.42,0-2.85,0-4.27,0-.14,.03-.28,.12-.4,.26,.2,.15,.48,.15,.73,.01,1.21,0,2.42,0,3.63,0,.36,0,.69,.5,.64,.33-.04,.34,.27,.49,.43,.27,1.94,.52,3.89,.8,5.83,.4,2.81,.81,5.61,1.22,8.42Z"/><path class="cls-66" d="M31.71,44.48c-.4-.08-.6,.22-.82,.46-2.72,2.77-5.44,5.54-8.16,8.3-.18,.18-.39,.34-.58,.51,.67-1.6,1.68-3.01,2.51-4.53,1.01-1.84,2.1-3.65,3.14-5.48,.61-1.08,.6-1.1,1.7-.51,.75,.4,1.48,.83,2.21,1.25Z"/><path class="cls-28" d="M56.55,64.19l-.87,.26c-.38,.47-.97,.43-1.48,.53-.65,.13-1.29,.44-1.98,.18,.02-1.22,.14-2.43,.64-3.57,1.58,.06,3.17,.11,4.75,.16,1.49,.05,2.98,.09,4.47,.15,.16,0,.44-.1,.32,.26-1.64,.69-3.28,1.37-5.01,1.81-.47,.12-.41,.44-.41,.76,0,3.89,0,7.78,0,11.67-.08,.08-.15,.08-.22-.02-.13-.3-.07-.61-.07-.92-.02-3.68,.02-7.37-.02-11.05-.02-.09-.06-.17-.12-.23Z"/><path class="cls-77" d="M56.85,76.44s.09-.02,.13-.04c1.71,.02,3.41,.04,5.12,.07,.74,.39,1.34,.9,1.41,1.81-2.97,0-5.94,.01-8.91,.03-.44,0-.55-.11-.38-.54,.32-.78,.88-1.26,1.7-1.31,.51-.03,.62-.19,.62-.67-.01-3.87,0-7.74,0-11.62l.16,.02c.11,.25,.06,.52,.06,.77,0,3.57,0,7.13,0,10.7,0,.25-.09,.52,.09,.76Z"/><path class="cls-19" d="M11.84,37.64l.05,5.12c0,4.73,0,9.46-.04,14.18,0,.61,.34,.55,.73,.55,3.64,0,7.27,0,10.91,.03,.21,0,.54-.21,.64,.2l-.03,.04c-.6,.19-1.21,.2-1.83,.2-2.97,0-5.94,0-8.91,0-1.22,0-1.3,.08-1.31,1.28-.03,5.87,.11,11.73,.06,17.6,0,.36,.04,.72-.06,1.06-.06,.21-.08,.57-.49,.39,0-.26-.02-.52-.02-.78,0-13.01,0-26.01,0-39.02,0-.28,.02-.57,.03-.85h.25Z"/><path class="cls-18" d="M83.56,65.34c.55,2.54,1.31,5.03,1.97,7.54-.89-.27-1.81,0-2.71-.15,0-2.03,.31-4.03,.53-6.04,.05-.45-.13-.95,.21-1.35Z"/><path class="cls-45" d="M46.55,50.43c.67-.11,1.35,.07,2.03-.06,.44-.08,.87-.17,1.28-.36,.49,.46,.54,1.27,.12,2.02-.78,.26-1.62,.08-2.41,.3-.05,0-.09,0-.14,0q-1.01,0-1.01-1s.01-.09,0-.14c-.14-.17-.19-.35-.12-.56,.05-.12,.13-.2,.27-.2Z"/><path class="cls-21" d="M116.77,66.63c.03-.17,.09-.33,.26-.42,.77,1.38,1.59,2.73,1.85,4.34,.41,2.53-1.1,5.26-3.39,5.95-.16-.14-.09-.28,0-.43,.04-.19,.21-.25,.35-.33,2.01-1.24,2.89-3.41,2.31-5.7-.24-.93-.67-1.78-1.12-2.61-.14-.25-.28-.5-.26-.8Z"/><path class="cls-10" d="M46.99,31.47c.49-.29,1.02-.15,1.53-.12,1.32,.08,2.56,.44,3.73,1.05,.17,.09,.49,.16,.38,.43-.14,.34-.36,.03-.52-.04-1.41-.67-2.89-1.04-4.46-1.03-.23,0-.48,.05-.68-.12l.02-.15Z"/><path class="cls-17" d="M47.99,30.17c1.61,0,3.24-.08,4.75,.64,.32,.15,.97,.28,.81,.61-.18,.37-.64-.08-.95-.22-1.19-.51-2.42-.62-3.69-.59-.36,.01-.76,.15-1.1-.14l.18-.3Z"/><path class="cls-7" d="M49.12,29.05c1.02,.04,2.02-.22,3.05-.02,.79,.15,1.49,.46,2.17,.85,.13,.08,.35,.14,.22,.36-.1,.17-.25,.08-.37,0-1.48-.92-3.08-1.02-4.74-.76-.22,.04-.48,.11-.64-.16,.05-.16,.19-.22,.31-.29Z"/><path class="cls-15" d="M54.69,28.89c.93-1,1.51-.91,2.06,.34,.18,.4,.39,.8,.37,1.27-.14,.07-.3,.05-.4-.04-.64-.58-1.41-.97-2.03-1.57Z"/><path class="cls-9" d="M54.69,28.89c.98,.28,1.6,1.1,2.43,1.61,.15,.27,.35,.51,.38,.84-.14,.04-.27,.09-.38-.05-.65-.8-1.46-1.42-2.34-1.94-.16-.09-.24-.22-.22-.41l.14-.04Z"/><path class="cls-53" d="M81.13,32.97c-2.64,0-5.28-.11-7.91,.03-2.91,.15-4.45-1.43-4.21-4.27,.05-.61-.04-1.23,.17-1.83,.48-1.36,1.55-2.23,2.99-2.23,5.99-.02,11.98-.03,17.97,0,1.73,0,3.04,1.36,3.1,3.1,.03,.66,.02,1.33,0,2-.05,1.92-1.35,3.2-3.27,3.21-2.95,.01-5.89,0-8.84,0Z"/><path class="cls-4" d="M104.51,10.24c0,1.47,0,2.93,0,4.4,0,.3-.13,.44-.43,.43-.19,0-.38,0-.57,0-14.77,0-29.53,0-44.3-.01-.32,0-.94,.31-.93-.38,.01-.52,.51-.61,.97-.61,1.33,0,2.7-.21,3.99,.04,4.45,.86,8.92,.24,13.37,.36,4.47,.13,8.94,.03,13.41,.03s8.99-.01,13.48,.01c.68,0,.91-.17,.88-.87-.06-1.13-.01-2.27-.01-3.4h.14Z"/><path class="cls-4" d="M63.97,9.94c.01-.93,.01-.93,.87-.65,.28,.09,.63,.17,.83,.03,.7-.5,1.29-.11,1.94,.14-.12,.32-.5,.08-.64,.31-.07,.26-.32,.4-.45,.63-.28,.51-.13,1.11,.34,1.35,.56,.29,1.17,.06,1.4-.52,.09-.24,.06-.52,.28-.71,.32-.6,1.14-.54,1.72,.14,.12,.14,.12,.29,0,.42-.81,.18-1.37,.59-1.41,1.49-.02,.4-.26,.5-.62,.51-1.35,.05-2.7-.06-4.06,.09-.83,.09-.5-.63-.47-1.09-.04-.06-.05-.15,0-.19,.57-.52,.6-1.11,.26-1.76-.03-.06,0-.14,.02-.2Z"/><path class="cls-4" d="M100.35,6.61H62.57v-.07h37.78v.07Z"/><path class="cls-4" d="M72.67,10.52c.29-.49,.76-.33,1.14-.26,.4,.08,.28,.49,.29,.78,.01,.33,0,.66,0,.99q0,1.04-1.07,1.04c-.98,0-1.1-.18-.79-1.15,.03-.5,.18-.96,.42-1.4Z"/><path class="cls-63" d="M68.54,10.51c0,.97-.28,1.46-.89,1.56-.71,.11-1.22-.16-1.42-.76-.23-.67,0-1.14,.75-1.55,.68-.09,1.22,.13,1.57,.75Z"/><path class="cls-20" d="M72.67,10.52c.08,.53-.08,.99-.42,1.4-1.17,.35-1.64,.15-2-.85v-.42l.46-.71c.57-.54,1.27-.48,1.67,.14l.29,.44Z"/><path class="cls-36" d="M63.97,9.94c.69,.98,.64,1.38-.28,2.14-1.19,0-1.53-.27-1.71-1.29-.12-.49,.17-.72,.56-.88,.48-.18,.96-.21,1.43,.03Z"/><path class="cls-4" d="M72.38,10.08c-.53-.42-1.09-.38-1.67-.14-.18-.03-.42,.03-.41-.26,0-.23,.21-.35,.4-.3,.44,.11,.82-.03,1.23-.13,.28-.07,.57,.08,.71,.37,.1,.22,.04,.42-.25,.47Z"/><path class="cls-4" d="M62.54,9.91c-.18,.3-.46,.53-.56,.88-.53-.08-.56-.52-.62-.9-.04-.27,.15-.48,.46-.52,.43-.06,.68,.1,.73,.55Z"/><path class="cls-60" d="M45.26,77.86c.07,.36-.11,.45-.43,.45-.8-.01-1.6-.01-2.4-.01-.67-.53-1.23-1.18-1.79-1.7,.39,.58,1.18,.91,1.48,1.69h-2.69c-.3-.2-.54-.46-.86-.74,.07,.34,.49,.4,.41,.75-2.84,0-5.69,0-8.53,0-.07-2.28,.25-4.49,1.11-6.62,.3-.76,.26-.8-.55-.8-1.71,0-3.42,0-5.13,0,.1-.43,.45-.26,.69-.26,1.84-.03,3.69-.14,5.53-.07,.28-.05,.52,.07,.76,.19,5.37,.16,9.95,2.17,13.83,5.84,.5,.48,1.11,.92,1.14,1.73-.91,.15-1.75-.12-2.58-.43-.93-.83-1.79-1.74-2.7-2.45,.85,.78,1.77,1.63,2.7,2.46Z"/><path class="cls-42" d="M23.71,57.95c-.02,.27-.24,.4-.4,.56-2.39,2.43-4.62,5-6.64,7.74-.26,.36-.63,.63-.81,1.06-.6-.27-1.24-.16-1.87-.2-.42-.02-.46,.53-.86,.48-.15-.08-.23-.29-.38-.32-.93-.17-.83-.85-.82-1.52,.02-2.44,.01-4.89,0-7.33,0-.45,.1-.62,.59-.62,3.58,.02,7.16,0,10.74,.01,.15,0,.34-.08,.44,.12Z"/><path class="cls-56" d="M31.99,45.04c.22,.21,.14,.49,.14,.74,0,2.27,0,4.55,0,6.82-1.64,.46-3.21,1.07-4.56,2.16-.72,.57-1.44,1.14-2.15,1.71,.93-1.65,1.84-3.3,2.78-4.94,1.25-2.17,2.53-4.33,3.79-6.49Z"/><path class="cls-78" d="M53.52,42.92c.39,.57,.79,1.13,1.18,1.7,.62,.96,1.33,1.87,1.86,2.89,.27,1.28,.37,2.55-.03,3.82-.72,.21-1.47,.26-2.21,.29-.3,.01-.6,.07-.9,.11-.28-.25-.27-.59-.28-.93,0-2.33-.01-4.66,0-6.99,0-.33-.07-.73,.37-.9Z"/><path class="cls-72" d="M53.52,42.92c-.14,.13-.13,.3-.13,.47,0,2.78,.01,5.56,.02,8.34-.68-.01-1.34,.23-2.03,.15-.55-.85-.42-1.78-.27-2.7,1.05-1.62,.97-3.43,.8-5.23-.14-1.44-.3-2.87-.12-4.35,.45,1.18,1.17,2.21,1.73,3.32Z"/><path class="cls-16" d="M23.71,57.95c-3.73,0-7.46-.01-11.19-.02-.35,0-.52,.09-.52,.48,.01,2.66,0,5.32,0,7.98,0,.25,0,.55,.34,.49,.64-.12,.81,.26,.94,.74,.52,.94,.62,1.94,.44,2.99-.68,1.63-1.24,3.28-1.17,5.11,.04,.88,.29,1.66,.6,2.45-.51,.15-1.03,.32-1.57,.12,.4,0,.29-.3,.29-.51,0-3.59,0-7.18,0-10.78,0-2.88,0-5.76-.03-8.63,0-.58,.28-.58,.7-.58,3.85,0,7.71-.01,11.56-.02-.09,.17-.27,.13-.41,.18Z"/><path class="cls-47" d="M51.12,69.89c.38,2.38,.8,4.75,1.13,7.13,.18,1.28,.11,1.25-1.23,1.3-.7,.03-.96-.15-.92-.9,.06-1.04,0-2.08,0-3.13,.28-1.48,.51-2.98,1.02-4.41Z"/><path class="cls-46" d="M52.25,65.15c1.14-.23,2.29-.47,3.43-.7,.6-.08,.75,.2,.74,.78-.03,1.66,0,1.66-1.64,1.66-1.02,0-2.05,0-3.07,0,.13-.53,.25-1.06,.38-1.59,0-.11,.04-.16,.15-.14Z"/><path class="cls-73" d="M32.86,70.73h-.73c-.68-.25-1.4-.11-2.1-.19-.59-.07-.83-.29-.4-.84,.74-.94,1.43-1.93,2.06-2.95,.1-.16,.2-.33,.44-.3,.12,1.45,.34,2.88,.73,4.28Z"/><path class="cls-30" d="M32.13,66.45c-.81,1.3-1.68,2.56-2.7,3.86,.76,.05,1.41,.1,2.06,.14,.25,.02,.54-.06,.64,.29-1.76,0-3.53,0-5.29,.02-.32,0-.66-.08-.97,.12-.97,.05-1.95,.12-2.92,.16-.21,0-.57,.14-.57-.2,0-.27,.33-.19,.53-.2,1.78-.08,3.56-.17,5.34-.23,.42-.01,.69-.15,.95-.49,.85-1.12,1.67-2.25,2.41-3.45,.1-.16,.17-.38,.41-.32,.14,.03,.1,.19,.1,.3Z"/><path class="cls-3" d="M13.72,70.6c-.15-1-.29-1.99-.44-2.99-.07-.58,.18-.8,.76-.74,.44,.04,.89,.02,1.33,0,.31,0,.51,.08,.48,.43-.71,1.1-1.43,2.19-2.14,3.29Z"/><path class="cls-12" d="M57.25,51.35c-.11,.01-.22,.1-.31-.04-.37-.71-.12-1.46-.17-2.2-.02-.36-.12-.76,.19-1.07,.71,.98,1.48,1.92,2.03,3.01,.03,.09,.01,.17-.04,.24-.55,.4-1.12,.32-1.7,.05Z"/><path class="cls-11" d="M51.12,49.18c.23,.89,.1,1.81,.27,2.7-.46,.19-.94,.16-1.42,.15-.07-.67,.12-1.36-.12-2.02,.49-.18,.87-.51,1.27-.83Z"/><path class="cls-1" d="M43.69,71.47c-.51-.08-.81-.35-.81-.89,0-.55,.35-.91,.88-.87,.58,.04,.84,.39,.81,.94-.02,.55-.37,.77-.88,.83Z"/><path class="cls-24" d="M44.58,64.19c0,.65-.37,1.04-.88,1.01-.53-.04-.81-.34-.81-.87,0-.57,.29-.88,.87-.87,.55,.01,.79,.34,.82,.73Z"/><path class="cls-52" d="M43.73,58.97c-.51-.07-.84-.32-.84-.87,0-.55,.29-.85,.81-.89,.51-.04,.89,.37,.88,.9-.01,.55-.35,.79-.85,.87Z"/><path class="cls-61" d="M57.25,51.35c.57-.07,1.16,.04,1.72-.17,.7,.46,1.02,1.23,1.5,1.88,.06,.08,0,.18-.05,.26-1.12-.55-2.2-1.16-3.16-1.97Z"/><path class="cls-51" d="M56.96,48.05c0,1.09-.01,2.17-.02,3.26-.13,.08-.26,.14-.41,.03,.01-1.27,.02-2.55,.03-3.82,.21,.12,.29,.34,.39,.54Z"/><path class="cls-74" d="M52.25,65.15l-.15,.14c-.05-.07-.17-.15-.16-.21,.17-1.12,.35-2.25,.55-3.37,.04-.22,.15-.38,.37-.12-.16,1.19-.33,2.38-.61,3.56Z"/><path class="cls-14" d="M60.41,53.32l-1.44-2.13s.02-.08,.02-.13c.42,.01,.58,.35,.79,.63,.43,.57,.86,1.13,1.27,1.71,.1,.14,.33,.32,.14,.49-.21,.18-.31-.08-.44-.21-.12-.12-.23-.24-.34-.36Z"/><path class="cls-42" d="M98.09,78.16c-.47-1.81-.94-3.61-1.41-5.42,1.18,0,2.36,0,3.54,0,0,1.18,.04,2.35,.01,3.53-.02,.79,.21,1.43,.86,1.9-1,.21-2,.21-2.99-.02Z"/><path class="cls-26" d="M109.51,57.64c.98,.8,1.48,1.82,1.4,3.1-.16,0-.29-.06-.4-.17-.17-.15-.19-.37-.23-.57-.13-.69-.47-1.26-1.03-1.69-1.83-1.03-3.45-.3-3.94,1.77-.04,.19-.09,.37-.23,.5l-.42,.18c-.18-2.69,2.32-4.43,4.86-3.12Z"/><path class="cls-6" d="M95.92,52.63c-.21,.77-.41,1.52-.62,2.27-.04,.15-.09,.35-.32,.27-.19-.07-.11-.23-.08-.36,.2-.75,.4-1.5,.61-2.25,.04-.15,.06-.37,.3-.28,.16,.06,.11,.24,.11,.35Z"/><path class="cls-71" d="M91.63,54.78c.21-.77,.41-1.52,.62-2.27,.04-.13,.09-.3,.28-.24,.17,.06,.16,.23,.12,.36-.2,.75-.4,1.5-.61,2.25-.04,.13-.07,.31-.25,.28-.24-.05-.12-.26-.15-.38Z"/><path class="cls-71" d="M88.37,54.72c.19-.69,.39-1.44,.59-2.19,.04-.13,.08-.3,.26-.26,.17,.04,.17,.2,.13,.35-.2,.75-.39,1.5-.6,2.25-.04,.15-.09,.37-.31,.29-.15-.06-.09-.24-.08-.44Z"/><path class="cls-59" d="M42.12,78.29c-.61-.59-1.22-1.18-1.82-1.77-.11-.11-.28-.26-.12-.42,.17-.18,.31,.02,.4,.13,.6,.7,1.47,1.17,1.86,2.07h-.31Z"/><path class="cls-8" d="M38.97,78.29c-.24-.22-.48-.45-.71-.67-.09-.09-.13-.21-.05-.31,.11-.13,.26-.13,.36,0,.29,.33,.73,.53,.85,1h-.45Z"/><path class="cls-62" d="M51.43,36.76c-.42-1.32-1.26-2.31-2.43-3.02,1.84-.35,3.01,1.1,2.43,3.02Z"/><path class="cls-13" d="M46.4,50.61v.58c-1.31,.24-1.95-.65-2.57-1.56,.02-.02,.04-.05,.05-.04,.91,.16,1.8,.39,2.51,1.03Z"/><path class="cls-22" d="M46.4,50.61c-.86-.33-1.71-.66-2.57-.98-.19-.23-.71-.4-.47-.72,.18-.24,.51,.18,.76,.31,.63,.33,1.27,.62,1.96,.8,.23,.06,.48,.08,.46,.41l-.15,.18Z"/><path class="cls-69" d="M40.84,42.4c.44,.32,.91,.59,1.25,1.03,.03,.04,.03,.15,0,.2-.05,.1-.16,.12-.24,.06-.41-.31-.81-.63-1.21-.96-.08-.06-.07-.18,0-.25,.05-.04,.12-.05,.19-.08Z"/><path class="cls-76" d="M48.38,44.79c.29,.06,.6,.13,.8,.4,.13,.18,.39,.42,.17,.61-.24,.2-.32-.16-.45-.29-.17-.18-.37-.29-.62-.31-.15,0-.4,.05-.37-.2,.03-.24,.27-.22,.47-.22Z"/><path class="cls-25" d="M49.28,43.02c-.03,.1-.06,.28-.14,.45-.06,.15-.16,.33-.36,.25-.23-.09-.11-.25-.04-.4,.06-.12,.08-.26,.11-.4,.04-.18-.11-.51,.2-.5,.27,0,.2,.32,.23,.61Z"/><path class="cls-50" d="M47.29,41.96c-.01,.26-.14,.39-.4,.35-.26-.03-.36-.21-.34-.44,.02-.24,.15-.39,.41-.36,.26,.03,.33,.22,.33,.45Z"/><path class="cls-44" d="M50.99,41.91c-.02,.25-.13,.41-.39,.4-.22-.01-.33-.15-.34-.37,0-.24,.09-.42,.35-.43,.26,0,.36,.17,.38,.4Z"/><path class="cls-43" d="M39.86,15.8c-3.32-.02-5.91-2.65-5.88-5.97,.03-3.34,2.67-5.92,6.04-5.89,3.2,.02,5.84,2.73,5.82,5.98-.02,3.29-2.67,5.9-5.98,5.88Z"/><path class="cls-40" d="M102.82,71.42c.28-.3,.27-.68,.28-1.06,0-.94,.65-1.62,1.6-1.63,2.07-.02,4.14-.02,6.2,0,.95,0,1.58,.68,1.59,1.64,0,.39,.01,.75,.28,1.06-.06,.19-.21,.29-.39,.35-.35,.11-.71,.08-1.06,.08-2.37,0-4.75,0-7.12,0-.33,0-.67,.02-.99-.07-.19-.05-.32-.17-.38-.36Z"/><path class="cls-75" d="M116.77,66.63c1.02,1.57,1.87,3.2,1.74,5.17-.13,2-1.32,3.72-3.02,4.28-.12-.14-.12-.3-.12-.47,0-2.23,.02-4.46,.03-6.68,.64-.66,.83-1.58,1.37-2.29Z"/><path class="cls-55" d="M105.07,60.59c-.07-1.16,.41-2.05,1.38-2.62,.96-.56,1.95-.49,2.89,.15-.14,.78-.53,1.44-1.03,2.05-1.1-.05-2.19,.06-3.24,.42Z"/><path class="cls-38" d="M112.5,71.62l.27-.2c-.19,.8-.12,1.6-.11,2.41,.01,.63-.11,1.21-.32,1.8-.27,.77-.86,1.07-1.57,1.08-1.85,.04-3.71,.02-5.56,0-.4,0-.79-.13-1.16-.29-.55-.24-.9-.61-.85-1.25,.04-.02,.08-.04,.11-.05,1.06,.63,2.23,.5,3.38,.5,1.25,0,2.51,.01,3.76,0,1.35-.02,1.79-.45,1.8-1.79,0-.47,0-.95,0-1.42,0-.28,0-.57,.23-.79Z"/><path class="cls-54" d="M107.83,63.44c.81,0,1.45,.67,1.42,1.46-.03,.77-.66,1.39-1.43,1.4-.8,0-1.46-.64-1.46-1.44,0-.81,.65-1.43,1.47-1.42Z"/><path class="cls-48" d="M108.31,60.16c.18-.77,.6-1.41,1.03-2.05,.86,.59,1.21,1.43,1.17,2.46-.73-.14-1.44-.4-2.2-.41Z"/><path class="cls-38" d="M102.82,71.42l.27,.21c.11,.1,.19,.22,.2,.36,.04,1.05,.16,2.1-.03,3.15l-.05,.04c-.31-.2-.26-.52-.27-.82-.01-.98,.05-1.96-.11-2.94Z"/><path class="cls-65" d="M93.37,72.75c.04,.16,.1,.32,.12,.48,.11,1.04-.28,2.03-.97,2.34-.95,.43-1.7-.05-2.37-.65-.63-.56-1.08-1.25-1.35-2.05,.08-.38,.41-.35,.67-.38,.4-.04,.81-.03,1.21,.02,.64-.07,1.27-.03,1.91-.03,.29,0,.57,.04,.78,.27Z"/><path class="cls-29" d="M93.37,72.75l-2.69-.04c-.2-.17-.23-.4-.22-.64,.04-1.12-.3-2.07-1.22-2.77,.91-.56,1.66-.19,2.38,.4,.97,.8,1.57,1.8,1.76,3.05Z"/><path class="cls-31" d="M89.24,69.31c.82,.17,1.36,.97,1.43,2.15,.03,.42,0,.84,.01,1.26-.62,.13-1.28-.13-1.88,.16-.39-1.26-.64-2.49,.44-3.57Z"/><path class="cls-57" d="M21.16,55.72l2.56,1.47-.02,.13c-.9,0-1.8,0-2.69,0,.06-.53-.17-1.09,.16-1.59Z"/><path class="cls-37" d="M56.85,76.44c-.23-.14-.18-.37-.18-.58,0-3.88,.01-7.77,.02-11.65,.28,.19,.14,.48,.14,.71,.01,3.84,0,7.68,.01,11.52Z"/><path class="cls-67" d="M83.6,30.01c1.97,0,3.95,0,5.92,0,.19,0,.52-.1,.54,.17,.02,.37-.34,.24-.54,.24-3.97,0-7.94,0-11.91,0-.1,0-.19,0-.29,0-.15,0-.31-.04-.31-.22,0-.2,.18-.19,.31-.2,.4,0,.81,0,1.21,0,1.69,0,3.38,0,5.06,0Z"/><path class="cls-27" d="M71.67,28.6c.04-.55,.35-1.13,1.04-1.45,.72-.34,1.41-.22,1.99,.3,.59,.52,.72,1.21,.5,1.95-.1,.31-.32,.59,.02,.89,.07,.06,.07,.17,0,.26-.08,.1-.2,.08-.25,.01-.32-.39-.64-.11-.96-.01-1.21,.35-2.35-.5-2.34-1.94Z"/><path class="cls-2" d="M45.26,77.86c-.2,.13-.34,.04-.49-.11-.83-.78-1.67-1.55-2.5-2.34-.12-.12-.37-.25-.17-.45,.15-.15,.32,.03,.42,.14,.93,.9,2.04,1.62,2.73,2.75h0Z"/><path class="cls-33" d="M42.09,6.77c-.07,.11-.15,.26-.24,.4-.46,.72-.9,1.46-1.38,2.17-.25,.37-.28,.65,.04,1,.35,.38,.66,.81,.98,1.22,.09,.12,.14,.28-.01,.37-.11,.07-.23-.01-.31-.11-.44-.56-.88-1.12-1.32-1.68-.16-.21-.1-.39,.02-.59,.58-.92,1.16-1.85,1.75-2.77,.07-.12,.14-.26,.32-.24,.11,.01,.15,.1,.15,.24Z"/><path class="cls-41" d="M103.26,75.14c-.37-1.16-.16-2.34-.17-3.51,3.14,0,6.27,0,9.41,0,0,.85,.03,1.71,.03,2.56,0,.97-.65,1.71-1.61,1.73-2.07,.04-4.13,.01-6.2,.01-.62,0-1.05-.39-1.46-.78Z"/><path class="cls-49" d="M73.45,27.4c.81,0,1.42,.57,1.44,1.36,.02,.82-.61,1.45-1.43,1.45-.78,0-1.42-.64-1.42-1.4,0-.76,.64-1.4,1.41-1.41Z"/></g></g></svg>