<?xml version="1.0" encoding="UTF-8"?><svg id="Layer_2" xmlns="http://www.w3.org/2000/svg" viewBox="0 0 41.77 32.88"><defs><style>.cls-1{fill:#fff;}</style></defs><g id="Layer_1-2"><g><path d="M20.82,32.87c-5.34,0-10.69,0-16.03,0-2.27,0-3.95-1.17-4.57-3.22-.15-.5-.18-1.06-.18-1.59C.02,20.33,.07,12.59,0,4.86-.03,2.1,2,0,4.92,0,15.55,.04,26.18,.04,36.81,0c2.91-.01,4.98,2.05,4.95,4.91-.08,7.71-.07,15.41,0,23.12,.02,2.75-1.97,4.88-4.92,4.86-5.34-.05-10.69-.01-16.03-.01Zm.07-3.04c5.32,0,10.63,0,15.95,0,1.48,0,1.92-.44,1.92-1.92,0-7.65,0-15.3,0-22.96,0-1.46-.45-1.91-1.93-1.91-10.63,0-21.26,0-31.9,0-1.48,0-1.92,.44-1.92,1.92,0,7.65,0,15.3,0,22.96,0,1.47,.45,1.91,1.93,1.91,5.32,0,10.63,0,15.95,0Z"/><path class="cls-1" d="M20.89,29.83c-5.32,0-10.63,0-15.95,0-1.49,0-1.93-.44-1.93-1.91,0-7.65,0-15.3,0-22.96,0-1.48,.44-1.92,1.92-1.92,10.63,0,21.26,0,31.9,0,1.49,0,1.93,.44,1.93,1.91,0,7.65,0,15.3,0,22.96,0,1.47-.44,1.92-1.92,1.92-5.32,0-10.63,0-15.95,0ZM5.97,13.38c0,.99-.02,1.99,0,2.98,.05,2.66,1.94,4.54,4.6,4.56,1.91,.02,3.81,.02,5.72,0,2.69-.03,4.58-1.94,4.6-4.64,0-1.88,0-3.76,0-5.64-.01-2.67-1.87-4.59-4.52-4.64-1.96-.04-3.92-.03-5.88,0-2.62,.05-4.47,1.93-4.52,4.56-.02,.94,0,1.88,0,2.82Zm14.9,10.48c-3.54,0-7.08,0-10.63,0-.91,0-1.83-.03-2.74,0-.91,.04-1.54,.71-1.53,1.54,.01,.81,.61,1.4,1.51,1.47,.16,.01,.32,0,.48,0,8.61,0,17.23,0,25.84,0,.32,0,.73,.05,.93-.12,.4-.33,.83-.75,.99-1.22,.21-.61-.15-1.17-.74-1.45-.35-.16-.77-.22-1.16-.22-4.32-.01-8.64,0-12.96,0Zm8.96-8.89c1.42,0,2.84,0,4.26,0,1.03,0,1.71-.63,1.69-1.53-.01-.87-.66-1.47-1.66-1.48-2.87-.01-5.73-.01-8.6,0-1.01,0-1.63,.59-1.64,1.48,0,.91,.64,1.52,1.69,1.53,1.42,.01,2.84,0,4.26,0Zm-.09-5.95c1.42,0,2.84,0,4.26,0,1.09,0,1.79-.62,1.78-1.54,0-.9-.67-1.48-1.73-1.49-2.81-.01-5.63-.01-8.44,0-1.08,0-1.72,.57-1.73,1.48-.01,.93,.66,1.54,1.76,1.54,1.37,.01,2.73,0,4.1,0Zm.05,11.9c1.39,0,2.79,0,4.18,0,1.13,0,1.8-.57,1.81-1.49,0-.92-.68-1.52-1.78-1.52-2.79,0-5.57,0-8.36,0-1.11,0-1.77,.59-1.76,1.53,.01,.91,.65,1.47,1.73,1.47,1.39,.01,2.79,0,4.18,0Z"/><path d="M5.97,13.38c0-.94-.02-1.88,0-2.82,.05-2.63,1.9-4.52,4.52-4.56,1.96-.03,3.92-.04,5.88,0,2.65,.05,4.5,1.97,4.52,4.64,0,1.88,0,3.76,0,5.64-.01,2.7-1.91,4.62-4.6,4.64-1.91,.02-3.81,.02-5.72,0-2.66-.02-4.55-1.9-4.6-4.56-.02-.99,0-1.99,0-2.98Zm7.5-4.36c-.99,0-1.98-.01-2.98,0-.92,.01-1.52,.58-1.53,1.49-.02,1.96-.02,3.92,0,5.87,0,.91,.61,1.5,1.52,1.51,1.96,.02,3.92,.02,5.87,0,.92,0,1.48-.51,1.5-1.42,.04-2.01,.04-4.02,0-6.03-.02-.93-.57-1.41-1.49-1.42-.97-.02-1.93,0-2.9,0Z"/><path d="M20.87,23.86c4.32,0,8.64,0,12.96,0,.39,0,.81,.06,1.16,.22,.59,.27,.94,.84,.74,1.45-.16,.47-.59,.89-.99,1.22-.21,.17-.62,.12-.93,.12-8.61,0-17.23,0-25.84,0-.16,0-.32,0-.48,0-.9-.08-1.49-.66-1.51-1.47-.01-.83,.62-1.5,1.53-1.54,.91-.04,1.82,0,2.74,0,3.54,0,7.08,0,10.63,0Z"/><path d="M29.83,14.97c-1.42,0-2.84,0-4.26,0-1.05,0-1.7-.61-1.69-1.53,0-.89,.63-1.47,1.64-1.48,2.87-.01,5.73-.01,8.6,0,1,0,1.65,.61,1.66,1.48,.01,.9-.66,1.52-1.69,1.53-1.42,.01-2.84,0-4.26,0Z"/><path d="M29.74,9.02c-1.37,0-2.73,0-4.1,0-1.1,0-1.77-.61-1.76-1.54,.01-.91,.65-1.47,1.73-1.48,2.81-.01,5.63-.01,8.44,0,1.07,0,1.73,.59,1.73,1.49,0,.92-.69,1.53-1.78,1.54-1.42,.01-2.84,0-4.26,0Z"/><path d="M29.79,20.92c-1.39,0-2.79,0-4.18,0-1.08,0-1.72-.56-1.73-1.47-.01-.94,.65-1.53,1.76-1.53,2.79,0,5.57,0,8.36,0,1.1,0,1.79,.6,1.78,1.52,0,.92-.69,1.48-1.81,1.49-1.39,0-2.79,0-4.18,0Z"/><path class="cls-1" d="M13.47,9.02c.97,0,1.93-.01,2.9,0,.92,.01,1.48,.5,1.49,1.42,.04,2.01,.04,4.02,0,6.03-.02,.91-.59,1.42-1.5,1.42-1.96,.01-3.92,.02-5.87,0-.91,0-1.51-.6-1.52-1.51-.02-1.96-.02-3.92,0-5.87,0-.91,.61-1.48,1.53-1.49,.99-.01,1.98,0,2.98,0Z"/></g></g></svg>