<?xml version="1.0" encoding="UTF-8"?><svg id="Layer_2" xmlns="http://www.w3.org/2000/svg" viewBox="0 0 16.72 16.75"><defs><style>.cls-1{fill:#fff;}</style></defs><g id="Layer_1-2"><g><path class="cls-1" d="M8.33,16.73c-2.42,0-4.83,0-7.25,0-.9,0-1.23-.45-1.02-1.31,.29-1.25,.72-2.45,1.43-3.52,.81-1.23,1.88-2.09,3.39-2.3,.82-.12,1.58,.07,2.3,.42,.77,.37,1.52,.4,2.29,.02,1.99-.99,3.94-.3,5.22,1.18,1,1.15,1.48,2.55,1.92,3.98,.38,1.22-.23,1.58-1.21,1.56-2.35-.04-4.71-.01-7.07-.01Zm-6.34-1.77H14.67c-.43-1.24-.89-2.42-2-3.2-.74-.52-1.55-.6-2.36-.2-1.33,.65-2.63,.66-3.96,0-.71-.35-1.44-.35-2.13,.06-1.27,.74-1.76,2-2.23,3.34Z"/><path class="cls-1" d="M8.36,9.44c-2.62,0-4.77-2.13-4.76-4.74C3.61,2.11,5.75,0,8.36,0c2.6,0,4.73,2.13,4.74,4.72,0,2.59-2.12,4.71-4.74,4.71Zm0-1.74c1.65,0,2.97-1.33,2.96-2.98,0-1.62-1.35-2.96-2.96-2.97-1.63,0-2.98,1.35-2.98,2.98,0,1.65,1.32,2.96,2.98,2.96Z"/></g></g></svg>