<?xml version="1.0" encoding="UTF-8"?><svg id="Layer_2" xmlns="http://www.w3.org/2000/svg" viewBox="0 0 318 318"><defs><style>.cls-1{fill:#fff;}.cls-2{fill:#bebebe;}</style></defs><g id="Layer_1-2"><g><circle class="cls-2" cx="159" cy="159" r="159"/><g><path class="cls-1" d="M179.57,270.88c-13.04,1.46-26.21,1.51-39.26,.14-18.19-1.91-35.81-3.73-53.37-5.95-13.97-1.77-18.44-8.08-17.55-22.3,2.26-35.81,30.29-65.95,66.01-69.25,16.02-1.48,32.41-1.5,48.42,.07,36.76,3.61,65.51,36.42,65.69,73.27,.05,9.3-4.85,16.14-14.41,17.41-18.62,2.47-37.29,4.55-55.53,6.6Z"/><path class="cls-1" d="M159.65,164.25c-34.07,.13-61.75-27.37-61.91-61.49-.16-33.97,27.6-61.92,61.52-61.95,33.77-.03,61.21,27.31,61.45,61.23,.24,34.33-27,62.09-61.06,62.21Z"/></g></g></g></svg>