<?xml version="1.0" encoding="UTF-8"?><svg id="Layer_2" xmlns="http://www.w3.org/2000/svg" viewBox="0 0 37.18 32.61"><defs><style>.cls-1{fill:#fff;}.cls-2{stroke:#000;stroke-miterlimit:10;stroke-width:.5px;}</style></defs><g id="Layer_1-2"><g><path class="cls-2" d="M18.59,32.33c-5.01,0-10.03-.05-15.04,.02-2.18,.03-3.3-1.54-3.29-3.29,.06-8.52,.06-17.05,0-25.57C.24,1.82,1.35,.19,3.52,.25c3.01,.08,6.03,.07,9.04,0,2.03-.05,3.31,1.46,3.2,3.25-.03,.51,0,1.03,0,1.55,0,1.49,.59,2.08,2.11,2.08,4.52,0,9.04,.01,13.56,0,1.52,0,2.56,.61,3.11,2.05,.06,.16,.24,.32,.4,.39,1.34,.54,1.99,1.46,1.99,2.89,0,5.61,0,11.23,0,16.84,0,1.87-1.16,3.04-3.05,3.05-4.04,0-8.09,0-12.13,0-1.05,0-2.1,0-3.16,0Zm-12.85-1.15h.44c9.18,0,18.36,0,27.54,0,1.43,0,2.09-.65,2.09-2.07,0-5.47,0-10.94,0-16.4,0-1.48-.62-2.11-2.09-2.11-8.52,0-17.04,0-25.56,0-1.58,0-2.16,.58-2.17,2.16,0,5.2,.01,10.4-.01,15.6,0,.93-.15,1.85-.24,2.83ZM33.31,9.41c-.33-.84-.82-1.13-1.83-1.13-4.62,0-9.25,0-13.87,0-1.84,0-3-1.18-3.02-3.02,0-.6,0-1.2,0-1.8,0-1.41-.63-2.04-2.04-2.04-2.99,0-5.98,0-8.98,0-1.56,0-2.18,.61-2.18,2.16,0,8.48,0,16.96,0,25.45,0,.17,0,.33,0,.5,.1,1.05,.93,1.75,1.93,1.65,.91-.1,1.52-.83,1.52-1.87,0-5.59,0-11.19,0-16.78,0-.31,0-.62,.08-.92,.36-1.42,1.48-2.2,3.11-2.2,8.15,0,16.3,0,24.45,0,.26,0,.52,0,.81,0Z"/><path class="cls-2" d="M23.62,24.68c-1.85,.67-3.64,.66-5.47,0-.39,.99-.76,1.95-1.15,2.9-.09,.22-.19,.49-.37,.62-.14,.1-.54,.11-.59,.02-.14-.23-.27-.58-.19-.8,.4-1.15,.87-2.27,1.31-3.4,.51-1.28,1.02-2.56,1.51-3.85,.07-.18,.09-.46,0-.61-1.23-2.06-.65-3.76,1.66-4.69,0-.54,0-1.09,0-1.65,0-.4,.2-.69,.58-.61,.21,.05,.48,.38,.51,.61,.08,.55,.02,1.11,.02,1.65,1.79,.72,2.49,1.79,2.22,3.4-.05,.32-.14,.68-.35,.91-.42,.46-.3,.86-.09,1.34,.35,.81,.66,1.64,1.03,2.58,.46-.41,.88-.75,1.28-1.13,.29-.27,.57-.55,.95-.2,.4,.36,.19,.72-.12,1-.53,.49-1.08,.95-1.66,1.46,.36,.93,.74,1.9,1.12,2.87,.03,.08,.06,.15,.09,.23,.17,.38,.2,.76-.24,.94-.45,.19-.67-.12-.82-.51-.32-.85-.66-1.69-1-2.53-.07-.17-.15-.33-.25-.57Zm-5.04-1.09c1.59,.58,3.1,.6,4.63-.02l-1.2-3.05h-2.22l-1.21,3.07Zm2.37-7.56c-.97-.02-1.75,.72-1.76,1.68-.01,.94,.72,1.7,1.65,1.73,.96,.03,1.75-.73,1.76-1.69,0-.95-.72-1.7-1.65-1.72Z"/><path class="cls-1" d="M18.57,23.59l1.21-3.07h2.22l1.2,3.05c-1.54,.62-3.04,.6-4.63,.02Z"/><path class="cls-1" d="M20.95,16.03c.94,.02,1.66,.78,1.65,1.72,0,.96-.8,1.72-1.76,1.69-.94-.03-1.67-.79-1.65-1.73,.01-.96,.79-1.7,1.76-1.68Z"/></g></g></svg>