<?xml version="1.0" encoding="UTF-8"?><svg id="Layer_2" xmlns="http://www.w3.org/2000/svg" viewBox="0 0 55.18 55.24"><defs><style>.cls-1{fill:#fff;}</style></defs><g id="Layer_1-2"><g><path class="cls-1" d="M5.08,27.68c0,4.94,0,9.88,0,14.82,0,4.37,3.26,7.62,7.63,7.64,1.59,0,3.18-.01,4.77,0,1.43,.02,2.51,.99,2.6,2.32,.09,1.36-.82,2.64-2.21,2.67-3,.07-6.02,.38-8.97-.53C3.71,53.02,.06,48.23,.04,42.77,0,32.65-.02,22.54,.04,12.42,.08,5.64,5.64,.11,12.43,.05c6.77-.06,13.54-.06,20.31,0,6.83,.05,12.26,5.5,12.38,12.33,.03,1.73,.02,3.45,0,5.18-.02,1.51-1.03,2.53-2.45,2.54-1.42,0-2.44-1-2.49-2.5-.07-2.06,.02-4.13-.18-6.18-.34-3.43-3.53-6.28-6.99-6.31-6.9-.04-13.81-.04-20.71,0-3.86,.02-7.16,3.38-7.19,7.25-.03,5.11,0,10.22,0,15.33Z"/><path class="cls-1" d="M48.1,44.57c2.11,2.1,4.22,4.15,6.28,6.25,1.47,1.5,.84,3.79-1.16,4.3-.99,.25-1.78-.12-2.47-.81-2.05-2.06-4.1-4.13-6.18-6.22-3.25,2-6.69,2.63-10.34,1.6-2.97-.83-5.34-2.56-7.06-5.15-3.41-5.16-2.57-11.94,1.99-16.16,4.43-4.1,11.32-4.38,16.12-.67,4.51,3.48,6.77,10.34,2.81,16.87Zm-3-6.91c.02-4.21-3.31-7.56-7.48-7.55-4.12,.02-7.47,3.36-7.5,7.47-.03,4.14,3.28,7.48,7.42,7.51,4.26,.03,7.54-3.2,7.56-7.43Z"/><path class="cls-1" d="M22.56,20.09c-3.21,0-6.43,0-9.64,0-1.76,0-2.8-.93-2.8-2.49,0-1.54,1.05-2.53,2.79-2.53,6.46-.02,12.93-.02,19.39,0,1.7,0,2.84,1.05,2.85,2.52,0,1.48-1.14,2.5-2.83,2.5-3.25,0-6.5,0-9.75,0Z"/><path class="cls-1" d="M16.3,30.11c-1.22,0-2.44,.02-3.66,0-1.52-.03-2.51-1.02-2.53-2.46-.01-1.49,.99-2.51,2.56-2.53,2.44-.03,4.87-.02,7.31,0,1.56,.01,2.61,1.06,2.6,2.51,0,1.45-1.06,2.45-2.64,2.48-1.22,.02-2.44,0-3.66,0Z"/><path class="cls-1" d="M15.1,35.14c.85,0,1.69-.02,2.54,0,1.33,.05,2.33,.99,2.44,2.25,.11,1.31-.65,2.52-1.98,2.62-2.01,.15-4.05,.16-6.06,0-1.37-.11-2.06-1.31-1.91-2.75,.12-1.17,1.08-2.06,2.33-2.12,.88-.04,1.76,0,2.64,0Z"/></g></g></svg>