<?xml version="1.0" encoding="UTF-8"?><svg id="Layer_2" xmlns="http://www.w3.org/2000/svg" viewBox="0 0 181.7 170.72"><defs><style>.cls-1{fill:#a7a7a7;}.cls-2{fill:#dfdee0;}.cls-3{fill:#d6d7d9;}.cls-4{fill:#efcd3f;}.cls-5{fill:#183b41;}.cls-6{fill:#cbcaca;}.cls-7{fill:#bc7d78;}.cls-8{fill:#1f3b4e;}.cls-9{fill:#fdfdfb;}.cls-10{fill:#385964;}.cls-11{fill:#a58306;}.cls-12{fill:#ecc941;}.cls-13{fill:#fdc702;}.cls-14{fill:#f0ecc8;}.cls-15{fill:#f8d749;}.cls-16{fill:#d5b433;}.cls-17{fill:#f9d94e;}.cls-18{fill:#fdc804;}.cls-19{fill:#344e57;}.cls-20{fill:#f7d445;}.cls-21{fill:#faf8ea;}.cls-22{fill:#f7db47;}.cls-23{fill:#ecc945;}.cls-24{fill:#385a64;}.cls-25{fill:#eceaec;}.cls-26{fill:#385657;}.cls-27{fill:#fec702;}.cls-28{fill:#eceaed;}.cls-29{fill:#2a4853;}.cls-30{fill:#040304;}.cls-31{fill:#efd14b;}.cls-32{fill:#a9a9a9;}.cls-33{fill:#ecb51a;}.cls-34{fill:#f9cb58;}.cls-35{fill:#dddcdd;}.cls-36{fill:#010409;}.cls-37{fill:#e8edee;}.cls-38{fill:#222f33;}.cls-39{fill:#e3c85b;}.cls-40{fill:#9b7b0a;}.cls-41{fill:#756423;}.cls-42{fill:#f1cf44;}.cls-43{fill:#d6d7da;}.cls-44{fill:#9a7b0a;}.cls-45{fill:#f6d74b;}.cls-46{fill:#f7d844;}.cls-47{fill:#f3d148;}.cls-48{fill:#c9c9c9;}.cls-49{fill:#fefdfd;}.cls-50{fill:#efcb43;}.cls-51{fill:#f9c813;}.cls-52{fill:#e0e0e0;}.cls-53{fill:#1e2e36;}.cls-54{fill:#c7c7c7;}.cls-55{fill:#dedede;}.cls-56{fill:#9f6869;}.cls-57{fill:#1b2e35;}.cls-58{fill:#121f17;}.cls-59{fill:#71898c;}.cls-60{fill:#fbd146;}.cls-61{fill:#2b464d;}.cls-62{fill:#637375;}.cls-63{fill:#be9708;}.cls-64{fill:#f0ecd7;}.cls-65{fill:#282a30;}.cls-66{fill:#0c2024;}.cls-67{fill:#375c67;}.cls-68{fill:#cac6c5;}.cls-69{fill:#dcd8dc;}.cls-70{fill:#394f55;}.cls-71{fill:#f5d254;}.cls-72{fill:#795d06;}.cls-73{fill:#eb776e;}.cls-74{fill:#edc62d;}.cls-75{fill:#f8f7e6;}.cls-76{fill:#f6f6f8;}.cls-77{fill:#270b00;}.cls-78{fill:#e1e1e3;}.cls-79{fill:#ae7271;}.cls-80{fill:#f9aba3;}.cls-81{fill:#eace51;}.cls-82{fill:#fdaaa0;}.cls-83{fill:#121618;}.cls-84{fill:#c8c8c8;}.cls-85{fill:#fdfdfd;}.cls-86{fill:#ebebe8;}.cls-87{fill:#170c07;}.cls-88{fill:#dedee0;}.cls-89{fill:#ada8ac;}.cls-90{fill:#627983;}.cls-91{fill:#bbd0d7;}.cls-92{fill:#dadadc;}.cls-93{fill:#fdfdfe;}.cls-94{fill:#365b65;}.cls-95{fill:#ccd5d8;}.cls-96{fill:#dfdfe1;}.cls-97{fill:#2c454d;}.cls-98{fill:#d99f03;}.cls-99{fill:#41555d;}.cls-100{fill:#ebebeb;}.cls-101{fill:#465963;}.cls-102{fill:#f2c515;}.cls-103{fill:#cccacb;}.cls-104{fill:#f8d64a;}.cls-105{fill:#aa7975;}.cls-106{fill:#e2e2e1;}.cls-107{fill:#ebebe9;}.cls-108{fill:#2e1a18;}.cls-109{fill:#f5d44b;}.cls-110{fill:#dcdedd;}.cls-111{fill:#395965;}.cls-112{fill:#10161b;}.cls-113{fill:#1c2d34;}.cls-114{fill:#c8c6c7;}.cls-115{fill:#b5b4b5;}.cls-116{fill:#071525;}.cls-117{fill:#e5c645;}.cls-118{fill:#c7c6c3;}.cls-119{fill:#e0e0e2;}.cls-120{fill:#fdc705;}.cls-121{fill:#2a444d;}.cls-122{fill:#a8a8a8;}.cls-123{fill:#dcdbdc;}.cls-124{fill:#f2c523;}.cls-125{fill:#da9e08;}.cls-126{fill:#fefefd;}.cls-127{fill:#eec41f;}.cls-128{fill:#ecc73b;}.cls-129{fill:#1f2117;}.cls-130{fill:#fbfaec;}.cls-131{fill:#f8d84a;}.cls-132{fill:#fefefe;}.cls-133{fill:#efc83d;}.cls-134{fill:#dfdfdf;}</style></defs><g id="Layer_1-2"><g><path class="cls-27" d="M12.57,120.13c-.95-5.24-1.88-10.49-2.85-15.73-1.22-6.64-2.43-13.28-3.73-19.9-.28-1.43,.26-1.6,1.46-1.58,3.47,.06,6.93,.03,10.4,.03,.62,0,1.26,.1,1.82-.28,2.02-.73,4.07-.33,6.12-.15,.72,.06,1.45,.01,2.17,0,1.22-.05,2.45-.04,3.67,0,2.46-.07,4.93,.05,7.39-.12,.96,.08,1.92,.11,2.88,.14,.84,.02,1.55,.29,1.99,1.06,.66,1.26,1.44,2.45,1.99,3.76,.61,1.45,1.62,2,3.19,1.99,6.47-.05,12.94-.03,19.42-.02,1.46-.02,2.91-.03,4.37,.01,.32,0,.65,0,.97,0,10.34,.02,20.67-.02,31,0,.85,0,1.71-.09,2.54,.15,.95,.48,1.06,1.45,1.21,2.32,.92,5.31,2.06,10.58,2.95,15.89,.24,1.46,.78,2.85,.89,4.36,1.45-7.07,2.75-14.16,4.13-21.23,.98-4.78,1.86-9.57,2.78-14.36,.47-1.33,1.35-1.71,2.63-1.1,.6,.6,.54,1.35,.37,2.07-.38,1.54-.53,3.13-.96,4.65-.07,.27-.17,.53-.24,.8-.26,.98-.35,1.99-.52,2.98-1.78,11.21-4.19,22.29-6.22,33.45-.22,1.2-.2,2.35,.03,3.54,1.86,9.7,3.64,19.41,5.48,29.11,.28,1.49,.91,3.08,.17,4.66-.64,.62-1.46,.57-2.25,.57-10.16-.02-20.33,.09-30.49-.06-.67-.01-1.39,.09-1.83-.62,.28-1.35,1.6-1.65,2.45-2.43,.18-.13,.37-.26,.57-.35,1.07-.49,1.3-1.03,.11-1.67-.2-.11-.39-.23-.57-.35-2.1-1.41-4.28-2.7-6.36-4.14-.61-.42-1.28-.7-2.05-.66-4.49,.14-8.97,.06-13.45,.06-13.9,0-27.81,.06-41.71-.03-.21-.01-.43-.02-.65-.02-.96,.03-1.91,.04-2.87,0-1.15-.08-2.39,.39-3.4-.56-1.58-8.27-2.94-16.59-4.75-24.81-.41-.42,.1-.99-.25-1.42Z"/><path class="cls-57" d="M175.86,121.6c.78,2.11,1.59,4.21,2.34,6.33,.19,.55,.72,1.07,.33,1.74-.43,.56-1.1,.6-1.7,.79-4.64,1.02-9.26,2.17-13.87,3.32-1.21,.24-1.74-.44-2.05-1.48-1.01-3.41-2.14-6.77-3.14-10.18-.12-.7-.36-1.36-.61-2.03-2.29-6.99-4.51-14-6.63-21.05-.93-3.07-1.53-6.24-2.04-9.2-.25,.84,.26,2.09-.57,3.06-.37,2.14-.3,4.27,.09,6.41,.22,2.14,.11,4.28,.09,6.43,.02,1.03,.05,2.07-.02,3.1-.01,.53-.04,1.05-.42,1.48-.22,.09-.39,.03-.51-.16-.03-.16-.04-.32-.02-.49-.14,.02-.02,.09-.02,.13,.66,7.42,.17,14.85,.26,22.27,.02,1.76-.78,2.13-2.82,1.55-.94-1.42-.57-3.02-.36-4.47,.62-4.3,.33-8.62,.55-12.92,.55-10.58,.54-21.18,1.75-31.72,.07-.6-.15-1.39,.56-1.79,.17,.01,.29,.06,.33,.17,.35,.95,.34,1.96,.68,3.1-1.22-6.17-2.27-12.18-3.36-18.19,.02-.23-.26,.04-.05-.04,.03-.01,.05,.04,.06,.14,.33,2.42,.65,4.86,1.28,7.19,.99,3.64,.84,7.21,.4,10.88-.79,6.59-1.06,13.21-1.2,19.84-.05,2.25-.09,4.51-.18,7.01-1.11-.67-.96-1.56-.97-2.32-.03-4.94-.01-9.88-.02-14.83,0-5.68,0-11.36,0-17.04,0-1.05,.01-2.08-1.45-2.25-1.78-.21-2.22,.14-2.29,1.95-.05,1.18,.23,2.39-.34,3.52-.14,.18-.32,.23-.54,.16-.78-1.11-.41-2.38-.46-3.59-.04-1.06-.1-2.12-.01-3.18-.51-.74-1.26-.3-1.86-.3-1.31,.01-2.15-.43-2.37-1.79-.08-.28-.12-.56-.12-.85,.2-1.33,.26-2.67,.43-4.01,.33-1.24,.06-2.53,.32-3.77,.42-3.25,.43-6.55,1.13-9.77,.37-.68,1.04-.79,1.72-.93,5.75-1.19,11.51-2.31,17.24-3.57,.67-.13,1.33-.19,1.97,.11,.64,.79,1.19,1.62,1.45,2.62,.25,.97,.47,1.95,.77,2.91,.66,2.17,.55,4.4,.31,6.59-.18,1.61-.11,3.15,.23,4.72,.62,2.94,1.2,5.89,1.78,8.84,1.03,5.49,2.3,10.93,3.48,16.39,.37,1.72,1.11,3.31,1.68,4.96,2.59,7.19,5.43,14.28,8.13,21.43,.34,.9,.71,1.77,.67,2.75Z"/><path class="cls-100" d="M121.34,152.91c.24,1.06,1.1,.99,1.89,1.02,7.57,.25,15.07,1.14,22.59,1.98,5.02,.56,9.9,1.65,14.77,2.85,1.47,.36,2.76,1.29,3.99,2.2,.65,.49,0,2.21-1.11,2.73-3.71,1.73-7.68,2.61-11.71,3.2-3.85,.56-7.71,1.02-11.57,1.51-2.4,.31-4.8,.7-7.22,.86-4.51,.31-9.04,.4-13.55,.73-14.62,1.04-29.27,.71-43.9,.58-5.53-.05-11.09-.17-16.62-.59-6.08-.47-12.18-.75-18.23-1.42-5.59-.62-11.2-1.25-16.67-2.73-2.02-.55-4.08-.9-5.98-1.82-2.57-1.24-2.72-1.87-1.06-4.14-1.78-.48-3.68,.4-5.42-.5,.55-.5,1.24-.5,1.92-.5,2.43,0,4.86-.06,7.28,.03,1.88-.24,3.7,.4,5.58,.39,16.97-.05,33.94-.03,50.91-.04,.9,0,1.82,.14,2.69-.21,1.05-.54,2.1-1.09,3.13-1.69,.51-.3,1.05-.75,1.69-.24,.22,.27,.35,.58,.36,.93,.04,1.92,.58,2.55,2.45,2.55,9.99,.03,19.98,0,29.97,.02,1.23,0,1.92-.49,2.15-1.69,.06-.33,.1-.75,.33-.95,1.4-1.26,1.39-2.61,.5-4.17-.27-.47-.12-1.22,.83-.88Z"/><path class="cls-123" d="M158.45,53.08l-1.04-2.59c.13-.39,.38-.48,.74-.29-.29,1.1,.57,.71,1,.72,3.31,.03,6.63,.02,9.94,.03,.62,.94,1.5,1.22,2.6,1.2,2.07-.04,4.15-.06,6.22,.02,.66,.02,1.52-.18,1.76,.83,0,22.04,0,44.07,0,66.11,0,2.52,0,2.5-2.51,2.45-.42,0-.88-.35-1.29,.06-3.16-7.94-6.24-15.9-9.12-23.95,.22-13.96,.07-27.91,.1-41.87,0-2.46-.15-2.56-2.61-2.61-1.93-.04-3.86,.14-5.78-.09Z"/><path class="cls-97" d="M38.48,12.51l2.7-1.85c2.38-2.08,5.24-2.81,8.3-2.98,1.93,.27,3.87,.24,5.8,.02,.18-.05,.36-.07,.54-.08,2.11,.26,4.11,.9,6.06,1.72,3.13,1.7,6.09,3.62,8.21,6.58,.95,1.16,1.62,2.51,2.6,3.64,.55,.48,1.51,.03,2,.97-1.67,.39-1.2,1.37-.73,2.45,.38,.87,.6,1.82,.81,2.76,0,.27-.09,.51-.19,.76-.78,1.62-.37,3.34-.45,5.02,.1,.23,.33-.13,.15,0-.08,.06-.13,.02-.14-.1-.07-1.17-.04-2.34-.01-3.52,.25-.36,.49-.18,.64,.07,.32,.5,.34,1.09,.28,1.65-.21,2.06,.4,3.57,2.56,4.16,.31,.08,.7,.22,.72,.62,.02,.48-.4,.71-.76,.8-3.47,.84-4.55,3.82-5.91,6.56-.48,.96-.36,2-.36,3.01,0,1.41-.72,2.18-2.07,2.14-1.53-.04-2.7,.6-3.9,1.42-2.25,1.56-4.69,2.77-7.38,3.38-.74,.04-1.44,.36-2.19,.38-1.32,.14-2.62,.46-3.96,.35-2.19,.01-4.33-.34-6.38-1.12-.44-.15-.83-.41-1.17-.73-2.18-1.03-4.27-2.23-6.18-3.71-1.75-.54-2.57-1.98-3.34-3.48-3.38-4.78-4.91-10.07-4.45-15.92,.28-1.17-.32-2.42,.3-3.56,1.07-3.44,2.64-6.6,5.16-9.23,.93-.68,1.46-1.88,2.71-2.16Z"/><path class="cls-120" d="M158.15,50.19c-.25,.1-.49,.2-.74,.29-.61,.05-1.22,.1-1.83,.15-1.32,.09-2.66,.62-3.94-.28-.43-.3-.91-.07-1.14,.4-.51,1-1.47,1.19-2.41,1.35-3.23,.54-6.43,1.25-9.65,1.88-1,.2-1.98,.5-2.92-.24-.32-.26-.8-.23-1.15-.07-2.22,.98-4.3,.16-6.22-.74-1.62-.76-3.29-1.17-4.98-1.58-1.11-.55-2.34-.84-3.36-1.59-.94-1.06-.2-1.97,.27-2.91,.28-.55,.55-1.1,1.02-1.52,1.64-.54,1.94-1.78,1.7-3.3,.17-.78,.4-1.53,1.03-2.08,.5-.43,.95-1.11,1.74-.61,.67,.42,.63,1.15,.63,1.84,0,.59-.31,1.08-.47,1.62-.47,1.48-1.56,2.75-1.55,4.39,.21,.21,.47,.31,.74,.37,.39,.09,.83,.2,1.01-.28,.15-.4-.23-.58-.5-.76-.38-.26-.71-.54-.8-1.03,.15-.85,.74-1.51,1-2.32,.13-.36,.26-.72,.64-.91,.8-.4,1.26-1.34,2.26-1.44,.4,0,.78,.11,1.16,.18,.93,.25,1.77,.7,2.58,1.2,.42,.33,.81,.34,1.16-.1,.44-.56,1.09-.75,1.73-.95,.34-.14,.67-.29,.93-.57,.46-.56,.45-1.27,.63-1.91,.52-1.86,1.33-2.18,3.05-1.07,.64,.41,1,.41,1.29-.31,.29-.62,.02-1.11-.36-1.58-.33-.56-.93-.54-1.46-.71-1.38-.44-1.63-1.45-.53-2.34,.86-.69,1.54-1.46,2.04-2.45,.47-.94,1.21-1.33,2.24-.77,1.03,.77,2.34,1.44,1.06,3.03-.18,.23-.25,.52,.01,.75,.25,.22,.57,.16,.78-.02,1.03-.94,1.84-.32,2.65,.34,1.22,1.04,2.44,2.08,2.81,3.76l4.81,7.53c-.19,1.89,1.48,2.57,2.43,3.72,.36,.5,.76,.98,.63,1.66Z"/><path class="cls-107" d="M121.34,152.91c-.58,.09-.9,.42-.44,.9,.57,.59,.4,1.51,1.11,2.05,.48,.36,.29,.93-.24,1.04-1.51,.29-1.56,1.57-1.72,2.61-.21,1.31-.85,1.62-2.08,1.61-10.21-.04-20.43-.03-30.64-.01-1.06,0-2.03,.07-2.37-1.31-.12-.51-.99-.53-1.27-1.25,1.58,.15,1.03-.78,.81-1.55,0-.89,.38-1.31,1.31-1.02-.1,.32-.28,.7,.27,.76,.45,.05,.91,.03,1.36,.03,10.23,0,20.46,.01,30.69,0,.62,0,1.38,.35,1.84-.43,.39-1.57-.07-3.12-.11-4.68-.02-.9-.19-1.81,.44-2.6,.82-.53,1.74-.41,2.64-.41,5.94-.01,11.87,0,17.81,0,.79,0,1.58,.06,2.35-.15,.71-.35,.58-1.01,.62-1.62,.07-1.06-.23-2.15,.33-3.16,2.67-.34,2.98-2.14,2.73-4.34-.08-.72-.05-1.46,.12-2.19,.1-.38,.27-.71,.58-.96,.41-.19,.7,.02,.98,.28,.14,.18,.28,.36,.33,.58,.33,1.52,.57,2.92,2.74,2.93,1.52,0,2.95,.41,4.32-.74,.93-.78,1.96-1.53,3.18-1.91,.17-.05,.34-.07,.52-.07,.36,.04,.68,.13,.76,.56-.95,1.3-2.33,2.12-3.53,3.15-1.07,.84-2.17,1.64-2.41,3.13-.22,1.33,.12,1.76,1.38,1.47,6.93-1.62,13.82-3.35,20.62-5.45,.83-.26,1.67-.78,2.59-.22-.4,.88-1.48,.47-2.02,1.07-1.09,1.51-2.67,1.94-4.42,2.17-2.71,.37-5.2,1.3-7.11,3.38-.71,.77-1.37,1.08-1.99-.05-.33-.61-.78-.54-1.3-.33-.26,.11-.57,.16-.77,.35-3.11,2.94-6.08,1.87-9-.31-.51-.38-1.03-.7-1.65-.85-1.68-.39-2.48,.19-2.6,1.9-.04,.62-.01,1.26-.21,1.86-.19,.59-.37,1.29-1.17,1.24-.84-.05-.84-.79-.92-1.41-.15-1.16,.21-2.39-.62-3.74-.25,1.03-.12,1.85-.16,2.65-.1,1.76-.42,2.1-2.34,2.11-6.02,.03-12.04,0-18.06,.02-.91,0-1.81-.07-2.77,.06,.11,1.01,.74,2.11-.49,2.87h0Z"/><path class="cls-100" d="M121.34,152.92c.63-1.1,.33-2.18-.28-3.41,2.89,0,5.54,0,8.2,0,4.37,0,8.74,0,13.11,0q2.17,0,2.17-2.25c0-.74,0-1.48,0-2.21,0-.33-.07-.77,.38-.81,.19-.02,.44,.29,.62,.48,.66,.72,.77,1.6,.71,2.53-.04,.62-.02,1.25,0,1.87,0,.38-.08,.89,.45,.97,.55,.08,.53-.47,.69-.8,.27-.53,.18-1.11,.23-1.67,.09-.95-.43-2.12,.9-2.65,1.26-.5,2.56-.36,3.55,.42,.91,.71,1.88,1.2,2.87,1.75,2.16,1.19,4.08,1.02,5.66-.83,.77-.9,2.28-.04,2.56-1.53,.26,.23,.39,.29,.41,.37,.16,.63-.05,1.62,.72,1.71,.59,.07,1.04-.8,1.32-1.38,.4-.84,.93-1.22,1.85-1.11,.27,.03,.65,.02,.81-.15,1.43-1.44,3.25-1.67,5.13-1.67,1.43,0,2.2-1.41,3.53-1.58,.84,.66,1.75,1.26,2.5,2.01,1.01,1.01,.81,1.97-.39,2.74-2.77,1.77-5.9,2.43-9.05,3.14-2.64,.59-5.27,1.12-7.95,1.44-3.52,.43-7.03,.92-10.56,1.22-6.24,.52-12.51,.76-18.76,1.14-3.8,.23-7.58,.08-11.37,.25Z"/><path class="cls-67" d="M41.23,7.54c-.2-2.3-.2-2.33,2.09-2.5,14.84-1.11,29.69-2.2,44.54-3.3,7.59-.56,15.19-1.13,22.78-1.68,2.13-.15,2.13-.12,2.15,2.1-1.04,.89-2.42,.2-3.53,.74-6.9,.5-13.8,1.07-20.7,1.55-5.09,.36-10.18,.8-15.28,1.19-5.26,.4-10.53,.72-15.79,1.17-2.65,.23-5.33,.16-7.97,.6-2.16-.07-4.29,.48-6.45,.4-.62-.02-1.26,.1-1.83-.26Z"/><path class="cls-113" d="M23.38,60.92c.4,.49,.73,.86,.03,1.51-4.22,3.96-8.39,7.97-12.56,11.98-.53,.51-.85,.5-1.35-.07-1.16-1.32-2.38-2.59-3.64-3.82-.55-.53-.5-.84,.03-1.34,4.25-4.01,8.49-8.04,12.71-12.08,.42-.4,.73-.45,1.12-.04,1.45,1.06,2.94,2.09,3.67,3.85Z"/><path class="cls-53" d="M150.28,37.29l-2.89-3.42c-1.69-1.29-2.8-3.19-4.62-4.34-.54-.55-1.41-.37-1.95-.9-1.05-1.22-1.41-2.55-.61-4.05,.54-1.02,.37-1.51-.91-1.21-.69,.16-1.05-.26-1.25-.86-.35-1.07-.61-2.74-1.41-2.91-1.24-.26-2.65-.25-4-.25-.34,0-.68,.09-.99,.23-.99,.43-1.32-.13-1.48-.97-.59-1.04,.3-1.68,.74-2.37,.35-.55,.95-.96,1.47-1.39,2.35-1.97,9.33,.2,9.74,3.31,.45,3.43,1.76,6.17,5.17,7.52,1.62,1.99,2.59,4.22,2.55,6.83,0,.37,.12,.79,.47,1.05,0,1.33,.67,2.33,1.71,3.23l-1.75,.5Z"/><path class="cls-73" d="M20.77,159.41c-3.08-.02-6.15-.03-9.23-.05,0-3.74,.07-7.49-.04-11.23-.04-1.47,.46-1.84,1.82-1.75,1.41,.1,2.83,0,4.25-.02,1.15,.04,2.29,.07,3.44,.11,.49,1.03,.22,2.12,.24,3.18,.04,2.49,.02,4.98,0,7.48,0,.79,.06,1.6-.49,2.27Z"/><path class="cls-80" d="M130.18,18.62c.5,.44,.88,1,1.74,.4,.41-.29,1.31-.25,1.8,0,1.26,.64,2.28,.08,3.51-.58-.28,1.75,1.27,2.74,1.23,4.32-.02,.7,.57,.44,.98,.19,.49-.3,1.06-.63,1.51-.04,.39,.52,.13,1.12-.23,1.56-1.24,1.5-.44,2.78,.37,4.07,.1,1.63-1.16,3.71-2.54,4.33-.84,.38-1.3-.05-1.67-.65-.45-.72-.65-1.56-.98-2.33,.34-1.22,1.87-1.45,2.19-2.77-2.17,2.07-4.58,2.15-7.14,.94-.05-.16-.04-.37-.14-.48-2.72-2.82-2.09-5.87-.63-8.98Z"/><path class="cls-100" d="M31.09,23.72c-.26,1.25-.52,2.5-.78,3.75,.01-1.09-.53-1.45-1.6-1.44-5.16,.04-10.32,.04-15.49,0-1.23-.01-1.75,.39-1.71,1.67,.07,2.21-.04,4.43,.03,6.64,.05,1.32-.73,1.26-1.64,1.28-.93,.02-1.51-.13-1.47-1.27,.07-2.1-.07-4.2,.05-6.29,.08-1.5-.3-2.27-1.94-2-1.22,.2-1.58-.39-1.52-1.55,.04-.87,.34-1.2,1.22-1.19,2.33,.04,4.65,.01,6.98,.01,.16-.13,.33-.24,.52-.33,1.1-.29,2.23-.14,3.34-.16,1.54-.05,3.09-.05,4.63,0,1.02-.03,2.05-.04,3.07,0,1.61-.02,3.22-.04,4.83,.02,.2,.02,.4,.06,.59,.11,.4,.13,.67,.43,.89,.77Z"/><path class="cls-54" d="M23.38,60.92l-3.67-3.85c1.08-.16,1.74-.97,2.46-1.66,4.2-4,8.38-8.01,12.58-12.02,1.11,1.16,2.22,2.32,3.34,3.48-3.48,3.31-7.01,6.57-10.43,9.95-1.41,1.39-3.13,2.45-4.27,4.1Z"/><path class="cls-84" d="M21.74,23.31h-4.77c-1.37-1.26-2.04-1.26-3.4,0h-.36c0-4.41,0-8.83,.03-13.24,0-.58-.3-1.26,.35-1.72,.38,.4,.42,.91,.45,1.42,.04,.74,.4,1.12,1.17,1.13,.83,.02,1.27-.32,1.31-1.17,.02-.51,.07-1.02,.47-1.41l.03-1.7c.97-.89,3.44-1.16,4.37-.47,.75,.56,.75,1.39,.57,2.17-.28,1.22-1.34,.98-2.22,1.01,2.25,.03,2.47,.2,2.5,2.24,.04,2.04,.06,4.07-.01,6.11-.06,1.6-.47,2-2.08,2-1.07,0-2.13,0-3.17,.28-.81-1.06-.4-2.29-.47-3.45-.06-.9-.23-1.57-1.33-1.55-1.07,.02-1.1,.77-1.11,1.54,0,.23,0,.45,0,.68q0,2.28,2.17,2.64c.28,.05,.54,.16,.8,.28,1.03,.28,2.1,.26,3.15,.36,1.85,.17,2.33,1.06,1.57,2.84Z"/><path class="cls-55" d="M17.01,19.92c.35-.66,.67-1.32,1.64-.79,.27,.15,.67,.04,1,.09,1.56,.24,2.27-.24,2.13-1.99-.16-2.03-.09-4.08-.02-6.12,.04-1.11-.34-1.55-1.46-1.46-.92,.07-1.85,.01-2.78-.23,.91-.6,1.9-.36,2.85-.43,.62-.05,1.41,0,1.19-.95-.16-.7,.41-2.02-1.23-1.79-1.11,.15-2.28-.27-3.33,.36-.06-2.4-.06-2.37,2.25-2.41,1.11-.02,2.5,.57,2.63-1.54,.06-.92,1.35-.37,2.07-.46,.67-.08,.86,.38,.86,.97,0,1.36,0,2.71,0,4.07,.13,.17,.24,.35,.34,.54,.39,3.46,.12,6.94,.16,10.41-.02,.3-.03,.6-.03,.9,0,.39,.02,.77,0,1.16,.02,.48,0,.95,0,1.43,.02,.59-.04,1.16-.45,1.63-1.03,0-2.06,0-3.09,0,0-2.38,0-2.35-2.32-2.4-.85-.02-1.87,.42-2.45-.66-.09-.08-.11-.16-.08-.23,.04-.07,.07-.1,.11-.1Z"/><path class="cls-51" d="M135.99,29.72c.71,.42,.75,1.22,1.03,1.88,.56,1.36,1.2,1.53,2.24,.5,.99-.98,1.45-2.26,1.84-3.56,.69,.07,1.28,.37,1.78,.84,.16,.15,.14,.29-.04,.4-.97-.68-1.52-.03-1.82,.72-.42,1.05-1.08,1.82-2.02,2.41-.35,.22-.94,.45-.65,1,.21,.4,.54,.94,1.18,.76,.86-.25,1.23,.33,1.61,.91-.26,.46-1.16,.39-1.03,1.1,.14,.72,.96,.27,1.36,.61-.31,1.18-.76,1.76-1.93,.66-1.28-1.2-2.13-.87-2.46,.9-.14,.78-.18,1.56-.71,2.2-.67-.7-.31-1.63-.55-2.42-.05-.16-.08-.32-.1-.48,.23-1.04,.68-2.01-.72-2.8-.76-.43-.82-1.55-.36-2.49,.29-.59,.83-1.1,.66-1.95-.86-.07-1.35,.4-1.73,1.07-.47,.82-1.25,1.18-2.01,.67-1.38-.93-2.32-.39-3.23,.64q-1.6,1.02-.07,2.36c-1.21,1.02-2.18,.7-2.82-.93-.58-1.47-1.86-1.78-2.96-.71-.52,.51-.63,1.03,.26,1.18,2.02,.34,3.09,1.67,3.8,3.43-1.13,.84-1.95-.3-2.93-.45-1.13-.37-1.87-1.26-2.63-2.08-1.31-1.41-2.58-2.85-4.18-3.96-.59-.41-.99-.93-.87-1.71,.73-1.93,1.35-2.13,3.1-1.01,3.15,4.31,7.05,2.84,10.94,1.42,1.92-.87,3.86-1.65,6.04-1.11Z"/><path class="cls-38" d="M26.68,76.29c1.06-5.36,2.19-10.71,3.12-16.1,.28-1.63,.8-2.27,2.41-1.69,.29,.16,.4,.42,.44,.73-.44,3.84-1.38,7.59-2.05,11.39-.62,3.47-1.29,6.92-1.94,10.38-.11,.61-.22,1.24-.7,1.7-.05,.02-.1,.05-.16,.06-2.6,.22-2.77,.07-2.27-2.46,.27-1.36,.23-2.83,1.15-4.01Z"/><path class="cls-54" d="M24.83,19.23v-.7c.78-.65,1.71-.47,2.6-.5,1.83-.07,1.96-.16,1.98-1.91,.03-2.03-.04-4.06,.02-6.09,.04-1.36-.44-1.97-1.85-1.91-.94,.04-1.93,.19-2.76-.49v-.39c1.47,.01,3.03-.28,4.38,.12,1.32,.39,2.16,.42,2.95-.74,.26-.39,.61-.09,.84,.17,1.79,1.95,3.93,3.56,5.49,5.72-.8,.76-1.6,1.52-2.39,2.29-1.92-1.21-3.35-2.98-5.15-4.58-.3,.62-.19,1.17-.19,1.7-.01,3.1,0,6.21-.01,9.31,0,.72,.12,1.48-.46,2.09l-.36-.02c-.56-1-1.43-1.26-2.52-1.22-.87,.03-1.79,.18-2.56-.45v-1.4c1.15-.83,2.51-.24,3.65-.5-1.15-.21-2.49,.35-3.66-.49Z"/><path class="cls-125" d="M26.68,76.29c-.25,1.43-.49,2.85-.75,4.28-.42,2.24-.43,2.24,1.92,2.15,.1,.05,.15,.11,.13,.18-.02,.08-.04,.12-.07,.12-2.56,.31-5.1-.73-7.67-.06-.16,.04-.38-.18-.58-.28,0-1.76,.01-3.52-.03-5.28-.02-.81,.14-1.28,1.1-1.24,1.98,.09,3.97,.09,5.95,.13Z"/><path class="cls-128" d="M178.95,139.91c-6,1.65-12.01,3.31-18.02,4.93-1.91,.52-3.84,.96-5.77,1.39-1.22,.27-1.3-.71-1.32-1.48-.06-2.09,1.27-3.27,2.93-4.19,.31,.85-.43,1.2-.83,1.68-.44,.52-.98,.97-1.04,1.71-.06,.77,.25,1.07,1.01,.77,1.2-.39,2.46-.61,3.66-1.01,5.71-1.3,11.31-3.07,17.05-4.24,.1-.02-.11-.23-.11-.37,.41-.7,1.07-.46,1.67-.43,.52,.03,1.04-.16,.94-.69-.51-2.54-.18-5.33-2.17-7.44-.13-.15-.13-.3-.02-.46,.47-.36,1.03-.42,1.6-.41,.46,2.71,1.3,5.35,1.65,8.09,.15,1.19-.17,1.81-1.24,2.15Z"/><path class="cls-100" d="M179.67,52.99c-1.15-.73-2.42-.26-3.64-.32-1.75-.09-3.52-.11-5.27,0-1.39,.09-1.87-.43-1.67-1.73,3.68,0,7.37-.01,11.05,0,.61,0,1.46-.32,1.55,.78,.09,1.12-.82,.82-1.4,.99-.22,.06-.42,.18-.62,.27Z"/><path class="cls-92" d="M32.38,59.13l-.17-.63c3.44,.26,6.77,1.15,10.15,1.77,2.77,.51,2.91,.39,2.54-2.44-.31-2.4-.43-4.83-.64-7.25,.37,.05,.77,.02,1.05,.34-.05,2.71,.4,5.39,.44,8.1,.01,1.03,.44,1.59,1.47,1.68,.25,.03,.49,.08,.73,.15,.97,.2,1.91,.61,2.93,.05,.45-.25,1.02-.07,1.43,.25,.55,.43,1.15,.36,1.77,.33,.49,.4,1.02,.73,1.67,.81,.8,.19,1.65,.25,2.4,.62,.53,.27,.65,.59,.03,.93-1.51,.38-2.91-.25-4.34-.49-6.52-1.13-13.01-2.41-19.51-3.66-.66-.13-1.35-.2-1.95-.56Z"/><path class="cls-37" d="M41.23,7.54l8.15-.59c1.53,.52,3.11,0,4.66,.2,.67,.09,1.52-.21,1.82,.77l-.36,.1c-2.03,.17-4.06,.19-6.1-.01-2.98,.13-5.58,1.46-8.22,2.65l.05-3.13Z"/><path class="cls-65" d="M135.99,29.72c-2.01,.37-4.03,.74-6.04,1.11,.33-.92,.67-1.84,1-2.76,.1-.06,.22-.18,.29-.16,2.9,1.03,5.5,.75,7.6-1.91-.33,1.84-1.25,3.05-2.84,3.71Z"/><path class="cls-110" d="M109.34,2.47c1.12-.38,2.29-.2,3.44-.31,.87,1.37,.43,2.97,.61,4.43,.48,3.86,.53,7.77,.8,11.66,.18,2.59,.45,5.17,.68,7.75-.14,.31-.3,.56-.7,.37-.49-.49-.47-1.12-.5-1.74-.32-6.72-1.06-13.41-1.38-20.13-.05-.97-.41-1.47-1.41-1.49-.56-.01-1.14-.04-1.54-.54Z"/><path class="cls-1" d="M16.98,8.32c0,.33,0,.67,0,1,0,1.96-.89,2.6-2.78,2.04-.47-.14-.62-.42-.62-.85,0-.73,0-1.45,.02-2.18,1.13,0,2.26-.02,3.39-.03Z"/><path class="cls-23" d="M114.46,26.37l.41-.37c1.69,.77,2.88,2.13,4.14,3.42-1.26-.56-2.35-.67-2.77,1.02-1,.7-1.52,.57-1.63-.5-.08-.77-.14-1.53-.39-2.27-.08-.46-.12-.92,.24-1.3Z"/><path class="cls-106" d="M12.57,120.13c.43,.41,.29,.93,.25,1.42-4.22,0-8.44,0-12.82,0,.4-.95,.99-.67,1.42-.68,3.23-.03,6.45-.02,9.68-.04,.58,0,1.31,.21,1.47-.71Z"/><path class="cls-95" d="M150.32,33.56c-.21,.05-.49,.47-.61-.06-.15-.65-.32-1.32-.35-1.99-.09-1.99-.73-3.75-2.2-5.13-.43-.4-.51-.59,.14-.71h-.04c1.54,1.09,2.49,2.56,2.72,4.45,.49,1.11,.42,2.27,.33,3.43Z"/><path class="cls-71" d="M157.52,48.54c-.7-.31-1.23-.85-2.02-1.12-1.45-.49-.48-1.68-.41-2.6,1.12,1.03,1.76,2.39,2.43,3.72Z"/><path class="cls-83" d="M149.98,30.13c-.53-1.72-1.51-3.16-2.72-4.46,1.99,.88,2.84,2.28,2.72,4.46Z"/><path class="cls-24" d="M143.87,149.13l-23.53,.05c-.66-.62-.57-1.45-.57-2.23-.02-18.14-.02-36.29,0-54.43,0-2.26,.26-4.51,.49-6.76-.06-1.06,.23-2.05,.53-3.04,.89-.41,1.82-.54,2.8-.53,4.36,.02,8.72,.01,13.08,0,.62,0,1.25,.07,1.85-.15,.28-.09,.56-.17,.86-.07l.38,.02c2.32-1.07,3.88-.11,3.92,2.51,.08,5.5,.03,11.01,.03,16.51,0,10.89,.62,21.77,.3,32.67-.01,.52,.04,1.02,.21,1.51,.39,4.66-.18,9.3-.35,13.95Z"/><path class="cls-132" d="M32.38,59.13c2.1-.26,4.07,.5,6.08,.87,6.27,1.13,12.51,2.36,18.77,3.54,.33,.06,.68,.03,1.02,.04,.79,0,1.62-.18,2.24,.53,1.33,1.24,2.97,1.47,4.69,1.54,2.7,.11,5.46,.01,7.5,2.33,.73,.83,1.18,1.7,.89,2.78-.24,.9-.06,1.68,.39,2.44,.56,1.09,1.68,1.06,2.65,1.28,2.35,.52,2.41,.61,2.1,2.91-.07,.56-.12,1.14-.25,1.68-.52,2.21-.79,4.46-1.35,6.66-.07,.22,.35,.04,.13,.04-.02,0-.02-.03-.01-.1,.44-2.91,1.18-5.76,1.57-8.68,.06-.47,.08-1.2,.79-1.08,.56,.09,.4,.71,.33,1.15-.49,2.9-1.08,5.79-1.62,8.68,.57-2.82,1.09-5.64,1.61-8.47,.06-.33,.13-.67,.18-1.01,.07-.46,.19-.98,.82-.8,.52,.15,.36,.64,.28,1.02-.45,2.34-.83,4.69-1.35,7.02-.22,.98-.26,1.97-.45,2.67,.46-2.9,1.21-6.02,1.69-9.18,.17-1.11,.68-1.43,1.7-1.3,.51,.06,1.02,.05,1.52,.17,1.1,.25,1.65,.8,1.42,2.06-.49,2.73-1.09,5.44-1.53,8.18,.48-2.63,1.01-5.25,1.51-7.88,.1-.53,.04-1.39,.75-1.24,.68,.15,.34,1,.24,1.51-.56,2.83-.93,5.7-1.6,8.51,.68-2.91,1.11-5.86,1.66-8.79,.03-.17,.07-.33,.11-.5,.11-.44,.16-1.01,.77-.92,.66,.1,.47,.67,.37,1.1-.35,1.55-.52,3.14-.89,4.68-.4,1.69-.59,3.41-.87,4.63,.37-2.56,1.11-5.54,1.59-8.56,.28-1.77,.67-1.98,2.4-1.69,2.07,.35,2.67,.94,2.43,2.53-.44,2.97-1.14,5.9-1.6,8.87-.09,.59-.32,1.18-.98,1.24-.94,.09-1.94,.3-2.83-.15-.37-.19-.25-.75-.14-1.11,.29-1,.31-2.06,.47-2.59-.21,.93,.06,2.85-.84,3.63-1.04,.9-2.93,.25-4.45,.28-2.39,.05-4.77,.02-7.16,0-.59,0-1.31,.21-1.55-.65-.18-1.55,.56-3.01,.52-4.48-.37,1.71-.12,3.61-1.29,5.2-1.47,.19-2.94,.13-4.41,.04-2.41-1.59-5.28-1.55-7.96-2.08-4.98-.99-9.97-1.95-14.97-2.88-.74-.14-1.43-.34-1.86-1.03-.41-.76-1.1-.81-1.87-.81-.95,0-1.91,.16-2.84-.15-.42-.83-.17-1.67-.02-2.5,.73-4.08,1.56-8.15,2.31-12.23,.34-1.88,.29-2-1.62-2.37-4.84-.93-3.91-1.36-4.85,3.26-.79,3.9-1.44,7.83-2.24,11.72-.16,.77-.18,1.6-.85,2.17-1.24,.06-2.48,.12-3.72,.18,.02-.11,0-.21-.06-.3,1.51-7.86,3.02-15.72,4.53-23.58Z"/><path class="cls-10" d="M24.14,146.5c.56-.03,1.13-.1,1.69-.1,17.6,0,35.2,0,52.79,0,.56,0,1.12,.09,1.68,.13,.05,1.63,.05,3.31-.07,4.88-.09,1.2,.54,2.53-.21,3.69-.13,.2-.17,.45-.05,.65,1.06,1.67-.3,2.52-1.17,3.55-.45,.09-.91,.07-1.36,.07-17.13,0-34.26,0-51.4,0-2.17,0-2.37-.19-2.39-2.29-.03-2.89-.02-5.79,0-8.68,0-.67-.08-1.38,.48-1.92Z"/><path class="cls-100" d="M73.89,88.72c.12,.78,.7,.76,1.29,.75,3.47,0,6.93-.03,10.4,0,.92,0,1.24-.27,1.36-1.23,.18-1.36,.26-2.77,.96-4.34,.19,1.6-.24,2.82-.45,4.06-.11,.68-.53,1.48,.62,1.46,.9-.02,2.23,.64,2.54-.9,.63-3.15,1.15-6.32,1.72-9.48,.13-.73-.17-1.22-.89-1.41-.33-.09-.68-.07-1.01-.14-2.16-.41-2.15-.37-2.51,1.83-.5,3.05-1.09,6.08-1.84,9.08,.06-3.85,1.28-7.54,1.53-11.38-1.35,3.45-1.34,7.21-2.83,10.64,.62-3.46,1.24-6.93,1.86-10.39l-.45-.09c-.68,3.43-1.36,6.86-2.05,10.29l-.41-.08c.42-2.36,.85-4.72,1.27-7.08,.06-.33,.13-.66,.19-1,.53-3.07,.52-3.03-2.67-3.18-.78-.04-.99,.04-1.14,.88-.61,3.49-1.36,6.95-2.2,10.4,.19-3.95,1.24-7.78,1.64-11.71-1.35,3.57-1.42,7.45-2.7,11.04,.06-3.59,1.34-7.01,1.61-10.57l-.43-.09-2.16,11.11c-.17-2.67,.57-5.17,.97-7.74,.15-1,.37-1.99,.54-2.99,.13-.74-.14-1.19-.93-1.32-1-.17-1.98-.47-2.98-.58-.97-.1-1.25-.6-1.14-1.47-.33-.78-.15-1.56,.06-2.32,.42-1.54,1.04-2.01,2.6-1.73,4.36,.78,8.74,1.5,13.09,2.35,5.62,1.1,11.24,2.2,16.87,3.25,3.24,.61,6.49,1.15,9.7,1.92,1.34,.32,2.54,.41,3.68-.46,.2,.13,.23,.29,.08,.48-.69,4.81-1.64,9.56-2.74,14.29-.74-.79-.47-1.71-.27-2.58,.3-1.28,.43-2.57,.6-3.86,.13-.96-.16-1.48-1.18-1.65-4.07-.71-8.13-1.53-12.21-2.21-1.09-.18-1.59,.06-1.76,1.15-.33,2.05-.84,4.07-1.3,6.09,.08-.33,.05-.67,.15-1,.09-.29,.27-.53,.58-.52,.43,0,.52,.34,.58,.7q.33,2,2.36,2.01c.74,0,1.48-.06,2.21,.06,.45,.07,1.11,0,1,.8-10.79-.02-21.58-.03-32.37-.06-.56,0-1.13-.06-1.69-.09-.36-.45-.36-.81,.27-1Z"/><path class="cls-100" d="M119.67,76.59l-.09-.42c-.64-.54-1.67-.58-2.01-1.54-.06-.19-.09-.37-.12-.56-.69-7.49-1.04-15-1.74-22.48,.06-.76,.05-1.52-.19-2.26-.06-.28-.09-.57-.09-.85,.01-.67-.08-1.37,.36-1.96,1-.21,1.53,.17,1.54,1.22-.66,2.55,0,5.07,.21,7.59,.19,2.3,.29,4.62,.47,6.92,.24,3.03,.4,6.07,.75,9.1,.12,.85-.2,1.79,.47,2.65,.75-.54,.56-1.26,.57-1.88,.02-3.33,0-6.67,.02-10.01,0-.78-.09-1.59,.37-2.31,.61-.56,1.38-.44,2.1-.45,2.04-.02,4.08-.02,6.12,0,.91,0,1.27-.32,1.36-1.27,.14-1.47,.37-2.91-.32-4.3,.34-.45,.85-.34,1.22-.2,1.36,.5,2.72,.48,4.11,.24,.84-.14,1.56,.03,1.9,.93-.32,3.29-.63,6.58-.95,9.88-.68,.53-1.5,.41-2.28,.47-.84,.06-1.98-.29-2.01,1.14-.04,1.4,1.04,1.16,1.92,1.28,.74,.1,1.76-.33,2.03,.89l-.42,4.03c.12,1.5-.25,2.68-1.92,3.07-3.59,.32-7.18,.2-10.78,.08-.1-.01-.2-.03-.31-.04-.98-.11-2.01-.34-2.3,1.06Z"/><path class="cls-126" d="M107.68,89.87c-1.36-.87-2.85-.3-4.28-.37-2.1-.11-2.1-.03-1.79-2.08,.04-.26,.3-.51-.05-.88-.68,.81-.33,2.02-1.35,2.69,.58-3.05,1.14-6.11,1.74-9.15,.1-.5,.48-.32,.81-.24,3.93,1.03,8.04,1.16,11.93,2.37,1,.31,2.44-.39,3,.7,.62,1.22-.12,2.64-.26,3.96-.15,1.33-.68,2.63-.51,4.01-.95,5.12-1.89,10.24-2.84,15.35-.45,2.44-.91,4.88-1.37,7.32l-.51,.05-4.53-23.74Z"/><path class="cls-98" d="M120.26,85.75c.01,6.8,.04,13.6,.04,20.4,0,14-.02,28.01-.03,42.01,0,.34,.05,.68,.07,1.01-.04,1.79-.05,3.58-.12,5.37-.02,.59,.22,1.24-.26,1.77-.18-3.79-1.18-7.45-1.85-11.16-1.44-7.93-3.12-15.81-4.39-23.76-.31-1.95,.52-4.09,.91-6.13,1.64-8.52,3.33-17.03,4.95-25.55,.25-1.31,.21-2.68,.69-3.96Z"/><path class="cls-94" d="M31.63,82.83c1.1-5.83,2.22-11.66,3.27-17.51,.15-.86,.46-.99,1.21-.83,1.66,.35,3.32,.71,5,.95,.91,.13,1.04,.46,.87,1.33-1.06,5.33-2.05,10.66-3.07,16-2.43,.28-4.86,.16-7.28,.05Z"/><path class="cls-86" d="M133.28,75.15c1.15-.54,1.38-1.66,1.68-2.72l.08,.7c-.29,1.85,1.47,1.27,2.23,1.88,.37,2.47,.7,4.93-.2,7.36-5.3,.13-10.6,.31-15.89-.1-.22-1.35,.22-2.63,.48-3.93,.19-.93,.44-1.85,.31-2.81l.13-.06c.96,1.85,2.68,1.59,4.33,1.57,2.48-.03,4.96,0,7.44,0,.51,0,1.02,.03,1.51-.11,.29-.08,.53-.23,.57-.54,.05-.44-.26-.58-.61-.66-.69-.17-1.49,.04-2.06-.57Z"/><path class="cls-68" d="M43.63,83.73c4.25,1.14,8.59,1.85,12.91,2.67,3.6,.69,7.2,1.41,10.81,2.02,.9,.15,.77,.84,1.08,1.31-6.96,.02-13.92,.05-20.88,.08-.63,0-1.07-.21-1.35-.8-.86-1.76-1.95-3.41-2.57-5.28Z"/><path class="cls-85" d="M79.36,158.73c-.08-.15-.27-.36-.23-.43,.55-.87,1.69-1.7,.04-2.63-.2-.11,.06-.42,.25-.53,1.11-.63,.7-1.1,.02-1.88-.78-.9,.77-.91,.83-1.71-.98-.73-1.52-1.6,.27-2.47-1.21-.83-1.74-1.68-.22-2.54,1.49,.15,2.43,1.31,3.62,2.01,1.5,.88,2.91,1.92,4.36,2.9,.67,.98,.5,1.96-.03,2.93-.81,.55-1.51,1.27-2.46,1.59-.66,.06-1.01,.5-1.31,1.03-1.41,.62-2.5,1.89-4.12,2.09-.11,.1-.24,.15-.38,.16-.31-.05-.53-.2-.63-.51Z"/><path class="cls-118" d="M80.01,159.09c.12,0,.24,0,.36,0-.11,.89-.81,.64-1.32,.64-18.08,.01-36.16,.01-54.25,0-1.35,0-2.67-.46-4.04-.31,0-3.65,0-7.3,0-10.95,0-.67-.03-1.35,.25-1.99,.91,0,1.82,.01,2.73,.02,.47,1.66,.16,3.36,.21,5.04,.06,2.04,.1,4.09-.02,6.13-.07,1.31,.37,1.6,1.63,1.6,13.62-.04,27.23,0,40.85-.04,4.54,0,9.07,.17,13.61-.13Z"/><path class="cls-8" d="M80.01,159.09c-.43,.59-1.05,.29-1.57,.29-17.58,.02-35.16-.01-52.74,.06-1.69,0-2.05-.46-1.99-2.05,.12-3.63,.04-7.26,.03-10.89,.13,0,.27,0,.4,.01,0,3.69,.03,7.39-.03,11.08-.02,1.08,.28,1.49,1.43,1.49,17.45-.03,34.89-.02,52.34-.01,.52,0,1.02-.07,1.47-.33l.65,.36Z"/><path class="cls-5" d="M121.18,82.27c4.68-.02,9.37-.05,14.05-.08,.62,0,1.24-.06,1.85-.1,.69-.29,1.36-.34,1.98,.17-.46,.65-1.14,.38-1.73,.38-4.77,.02-9.54,.07-14.3-.05-.77-.02-1.48,.8-2.24,.12-.14-.38,.17-.36,.38-.44Z"/><path class="cls-99" d="M73.89,88.72c-.09,.33-.18,.67-.27,1-.26,0-.52-.02-.79-.02,.32-1.72,.64-3.43,.98-5.15,.06-.3,.03-.77,.53-.66,.49,.11,.28,.53,.23,.84-.22,1.33-.45,2.66-.68,3.99Z"/><path class="cls-129" d="M88.27,154.37c0-.98,.02-1.96,.03-2.93q2.53,1.5-.03,2.93Z"/><path class="cls-28" d="M158.45,53.08c.8-.83,1.83-.37,2.74-.42,1.41-.08,2.84,.06,4.25-.04,1.49-.11,1.97,.46,1.96,1.95-.06,7.09-.03,14.18-.03,21.28,0,5.9,.05,11.8-.04,17.7-.02,1.36,.23,2.83-.61,4.1-1.56-3.13-2.14-6.55-2.86-9.92-.82-3.82-1.56-7.66-2.34-11.49,1.48-1.15,1.23-2.79,1.24-4.36,.01-3.05-.04-6.09,.02-9.14-.04-.7,.11-1.41-.22-2.08-.19-.22-.41-.39-.72-.39-1.43-.01-1.81-.88-1.78-2.13,.03-.93-.07-1.82-.9-2.43l-.73-2.64Z"/><path class="cls-132" d="M148.28,136.55l-.66-.34c-.54-.47-.52-1.12-.48-1.74,.26-3.8,.05-7.6,.12-11.4,.03-1.71,.25-1.97,1.98-2,2.33-.04,4.65-.03,6.98,0,.74,0,1.5,0,1.89,.83,1.11,3.5,2.26,6.99,3.3,10.51,.26,.88,.59,1.28,1.5,1.03,.41,1.59-.27,2.67-1.6,3.45-.14,.17-.32,.27-.52,.34-.37,.22-.84,.02-1.2,.3l-.4,.03c-3.71,.41-7.35,.1-10.91-1.02Z"/><path class="cls-107" d="M147.54,110.21l.06-1.29c.33-.35,.77-.41,1.22-.46,.65-.07,1.02-.38,1.02-1.06,0-.68-.35-1.01-1-1.08-.44-.05-.89-.11-1.21-.47l-.06-6.82c-.16-2.02-.31-4.04,.08-6.05l.7-4.17c2.15,10.71,6.18,20.87,9.18,31.34,.29,.84-.27,1.02-.88,1.03-2.72,.06-5.45,.04-8.17,.01-.64,0-1.16-.26-1.15-.97,.05-3.33-.37-6.68,.23-10Z"/><path class="cls-121" d="M143.82,135.19c-.43-.41-.3-.95-.3-1.45-.02-1.08-.01-2.16,0-3.24,.07-15.43-.59-30.86-.35-46.29,.03-2.04-.32-2.24-3.39-2.23,0-1.65,.03-3.29-.01-4.94-.02-.87,.29-1.29,1.18-1.2,.17,.02,.34,0,.51,0q3.08-.03,3.08,3.08c0,10.51,0,21.01,0,31.52,0,.61,0,1.22,0,2.14,.51-.85,.35-1.47,.32-2.04-.22-5.16,.23-10.31,.42-15.46,.17-4.44,.81-8.86,1.28-13.29,.23-2.14-.46-4.14-.8-6.19-.51-3.1-1.06-6.18-1.59-9.28l.44-.08c1.35,7.06,2.7,14.12,4.06,21.18l-.44,.11-1.1-4.51c-.89,1.89-.64,3.96-.79,5.91-.4,5.12-.62,10.27-.83,15.41-.28,6.81-.11,13.61-.34,20.41-.1,2.91-.7,5.8-.61,8.74,.87,.39,1.79,0,2.67,.21,.15,.13,.19,.29,.11,.48-.83,.64-1.83,.38-2.76,.49-.71-.5-.36,.55-.75,.52Z"/><path class="cls-69" d="M163.24,62.47c.02,3.9-.05,7.81,.09,11.71,.05,1.44-.46,2.01-1.79,2.06-1.01-3.82-1.61-7.73-2.33-11.61-.17-.92,.24-1.78,.34-2.67,.22-2.1-.06-4.17-.37-6.24,1.02-.08,1.48,.43,1.36,1.4-.21,1.79,.06,3.1,2.34,2.76,.11-.02,.25,.19,.38,.3-.51,.47-1.17,.36-1.77,.47-.35,.07-.66,.22-.66,.64,0,.41,.28,.6,.63,.7,.59,.18,1.26,.02,1.77,.48Z"/><path class="cls-16" d="M161.36,136.8c.02-.28-.99-.07-.31-.67,.42-.37,.89-.18,1.56,.14-1.01-1.32,.62-1.88,.31-2.82,4.63-1.32,9.29-2.47,14.02-3.37,0,.1-.01,.21-.01,.31-.69,.78-1.68,.93-2.61,1.08-2.13,.35-4.12,1.28-6.27,1.53-.41,.05-.63,.19-.63,.77,.01,1.46-1.98,3.94-3.45,4.11-1.23,.14-2.53,.81-3.77-.01-.2-.11-.4-.22-.6-.33,.21-.34,.5-.53,.91-.55,1.1,.15,2.2,.04,3.31,.03,.22-.11-.07-.4,.03-.2,.04,.09,.02,.15-.07,.15-.81,.04-1.63,.34-2.4-.17Z"/><path class="cls-117" d="M136.68,54.73c-.33-.2-.73-.63-.99-.56-2.12,.55-4.1-.31-6.13-.51-.05,.03-.09,.09-.14,.1-.84,.07-5.85-1.9-6.37-2.52-.06-.07-.01-.21,.03-.32,2.34,.14,4.37,1.23,6.49,2.05,1.5,.57,3.06,1.24,4.67,.12,.4-.28,1.06-.27,1.43,.14,.88,.98,1.85,.72,2.95,.48,3.07-.65,6.18-1.16,9.26-1.77,.96-.19,1.99-.22,2.19-1.64,.14-.96,1.32-1.05,1.74-.56,1.11,1.31,2.51,.67,3.77,.89-5.76,1.21-11.52,2.41-17.29,3.63-.55,.12-1.08,.31-1.62,.47Z"/><path class="cls-127" d="M139.06,82.26c-.66-.06-1.32-.11-1.98-.17,0-2.38,0-4.77,0-7.15,.62-.55,1.28-.33,1.94-.12,.72,1.72,.18,3.53,.33,5.29,.05,.61,.02,1.23,.03,1.85-.11,.1-.22,.2-.33,.31Z"/><path class="cls-115" d="M147.23,134.07c.02-.09,0-.17-.03-.25-.23-4.34-.05-8.68-.1-13.02-.03-2.93-.02-5.87,0-8.81,0-.54-.2-1.13,.21-1.63,.08-.05,.16-.1,.23-.15,.03,3.04,.12,6.09,.08,9.13-.01,1.16,.31,1.58,1.52,1.53,2.31-.09,4.63-.02,6.94-.03,.57,0,1.31,.25,1.44-.71l.59,1.77c-.45-.44-1.02-.41-1.59-.41-2.49,.02-4.98,.06-7.47,.02-.95-.01-1.43,.16-1.42,1.28,.05,4.47,0,8.94,0,13.41-.07,.21-.14,.43-.21,.64-.96-.87-.71-1.81-.18-2.77Z"/><path class="cls-114" d="M135.38,68.4c-1-.82-2.18-.39-3.26-.38-1.52,.01-1.19-.98-1.24-1.84-.05-.92-.02-1.7,1.28-1.61,1.18,.09,2.37,.03,3.56,.03l-.35,3.79Z"/><path class="cls-36" d="M147.31,110.36c-.04,7.82-.08,15.64-.12,23.46-.87-.2-1.83,.27-2.65-.33,2.53-.08,2.38,.43,2.38-2.37,0-7.61,0-15.22,.19-22.83l.2,2.08Z"/><path class="cls-54" d="M147.63,105.84c.28,0,.56,.03,.84,0,1.23-.14,1.93,.07,1.93,1.64,0,1.65-.93,1.47-1.95,1.44-.28,0-.56,0-.84,0l.02-3.08Z"/><path class="cls-112" d="M147.64,92.97c-.03,2.02-.05,4.03-.08,6.05-.69-2.24-.12-4.51-.34-6.84,.48,.22,.29,.57,.42,.8Z"/><path class="cls-30" d="M139.03,74.83c-.65,.04-1.3,.08-1.94,.12-1.06-.18-2.81,.42-2.05-1.81,.62,2.37,2.55,.98,3.87,1.35,.05,.01,.13,.04,.13,.07,.01,.09,0,.18,0,.28Z"/><path class="cls-85" d="M117.93,74.82c.43,.6,1.78,.08,1.65,1.35-.41,1.25-1.14,1.47-2.46,1.19-6.38-1.37-12.78-2.64-19.18-3.88-5.28-1.02-10.57-1.97-15.86-2.95-2.04-.38-4.09-.76-6.13-1.13-.9-.16-1.56,.03-1.75,1.07-.16,.88-.4,1.75-.61,2.63-.66-.61-.73-1.28-.5-2.15,.4-1.47-1.2-4.13-2.73-4.25-1.91-.14-3.72-.8-5.75-.61-1.37,.13-3.4-.04-4.32-1.84,.24-.29,.56-.31,.89-.27,.16,.03,.32,.08,.47,.14,.9,.49,1.88,.35,2.85,.37,.35,.01,.69,.05,1.03,.14,2.17,.5,4.36,.85,6.56,1.2,1.03,.25,2.08,.41,3.14,.55,.56,.07,1.27,.33,1.46-.58-.16-.3-.42-.36-.72-.34-.61,.05-1.21,.04-1.22-.77,0-.67,.49-.98,1.08-1.12,.42-.1,.86-.08,1.42-.14-.39-.21-.68-.17-.94-.25-.65-.18-1.31-.32-1.95-.52-.61-.19-1.29-.4-1.2-1.17,.09-.72,.81-.67,1.35-.72,.78-.08,1.57,0,2.45-.38-1.33-.27-2.52-.03-3.72,.03-.18-.01-.35-.06-.51-.13-.53-.43-1.41-.7-.76-1.66,.74-.41,1.55-.29,2.33-.27,.95,.02,1.76-.25,2.67-.92-1.79-.41-3.42-.12-5.02-.23-.69-.05-1.72,.21-1.83-.74-.1-.89,.94-1,1.59-1.25,1.44-.56,3.03-.07,4.78-.57-1.99-.4-3.64,.43-5.33,.11-.17-.02-.34-.06-.51-.11-2.1-.54-4.23-.15-6.24,.19-2.99,.5-6.02-.03-8.96,.68-.27,.07-.57,0-.84,.11-.36,.15-.81,.29-.65,.82,.12,.38,.47,.47,.83,.42,.5-.07,1-.22,1.52-.15,.53,.07,1.05,.2,1.09,.85,.04,.66-.47,.84-.99,.95-.5,.1-1.02,.03-1.53,.12-.44,.08-.76,.29-.45,.81,.77,.5,1.66,.12,2.46,.36,.38,.12,.79,.23,.78,.73,0,.49-.42,.62-.8,.7-.82,.18-1.68,0-2.49,.26-.09,.02-.18,.03-.27,.05-.32,.2-.66,.9-.88,.63-1.51-1.79-3.62,.09-5.21-.96-.07-.1-.09-.21-.05-.32,.17-.53,.64-.58,1.08-.68-.96-.53-.72-1.74-1.38-2.44-.21-.22-.46-.38-.74-.21-.33,.2-.31,.55-.31,.9,0,.98,.88,1.71,.74,2.72-1.47,0-2.07-.66-2.07-2.19,0-2.36-.21-4.72-.41-7.07-.04-.51-.17-.88,.47-.98,2.1,.54,4.19,1.12,6.39,1.09,.1,.08,.13,.17,.11,.26-.02,.09-.05,.14-.08,.14-.13,.1-.27,.17-.42,.21-.15,.04-.31,.07-.48,.09,.29,.23,.54-.08,.82-.05,2.65-.14,5.29-.52,7.95-.55,.07,0,.14,0,.17-.02,.06-.05,0-.08-.18-.04-.64-.05-1.39,.19-1.66-.7,3.09-.86,5.93-2.23,8.41-4.27,1.09-.89,2.39-.44,3.57-.7,.55-.12,1.06-.05,1.04-.93-.12-5.23,1.88-9.14,7.06-10.98-.67-.29-1.35-.51-1.95-.87-1.07-.64-1.79-1.44-1.54-2.9,.17-.97,.18-2.03-.2-3.02-.28-.57-.44-1.12,.14-1.62l.29-.31c.93-2.12,4.13-2.97,6.61-1.74,1.94,.97,3.05,2.6,3.21,4.71,.18,2.34-.94,4.13-2.91,5.43,2.12,.35,3.82,1.45,5.25,3.01,1.43,1.55,2.38,3.35,2.47,5.47,.06,1.36,.68,1.79,1.94,1.68,1.41-.13,1.15-1.08,1.08-2-.39-5.6-.94-11.19-1.23-16.8-.08-1.59-.43-3.15-.36-4.75,.05-1.04-.57-1.35-1.51-1.39-1.94-.07-3.85,.28-5.77,.41-2.09,.15-4.2,.16-6.27,.51-1.71,.29-3.36-.34-5.06-.31l-2.24-3.78c1.57-1.07,3.42-.67,5.12-.8,8.43-.66,16.85-1.4,25.3-1.85,2.04-.11,4.06-.45,6.1-.65,.89-.09,1.36-.48,1.35-1.39,0-.11,0-.23,.01-.34,.15-3.75-.17-4.16-3.84-4.03-5.5,.2-10.98,.78-16.48,1.11-4.31,.26-8.59,.81-12.9,.94-3.52,.1-7,.75-10.53,.75-.69,0-1.36,0-2.02-.15-2.04-.73-4.09-1.44-6.23-1.86-1.84-.69-3.75-.18-5.62-.34-.37-.03-1.19,.39-.86-.64,6.62-.53,13.24-1.08,19.86-1.58,13.03-.98,26.05-1.92,39.08-2.88,.34-.02,.68-.02,1.02-.03,3.39,.22,3.27,.23,3.5,3.71,.34,5.23,.85,10.45,1.32,15.67,.14,1.51-.31,3.05,.3,4.52,.03,.47,.07,.94,.1,1.42,.19,.31,.15,.66,.17,.99,.09,1.47-.19,1.76-1.64,1.43-2-.46-4.01-.78-6.07-.65-.28,.02-.57,0-.8,.22-.1,.17-.05,.34,.07,.46,1.17,1.11,1.19,1.12-.21,2.07-.61,.42-1,.8-.23,1.42,.26,.21,.66,.48,.47,.82-.69,1.25,.02,1.67,1.03,2.08,.54,.22,1.01,.66,.43,1.31-.67,.77-.15,1.09,.49,1.36,1.15,.5,2.36,.86,3.61,.95,1.18,.08,1.98,.61,2.2,1.76,.31,1.63,1.65,2.83,1.81,4.51v2.05c-.8,.24-1.6,.51-2.35-.14-.14-.18-.25-.38-.32-.6-.58-1.62-2.19-2.18-3.69-1.29-.73,.43-.7,1.18-.59,1.82,.6,3.34-.12,3.2-3.03,3.48-2.55,.24-5.13,.24-7.67,.58,3.21-.28,6.44-.39,9.65-.74,.35-.04,.8,.07,.8,.45,.01,.57-.49,.66-.98,.7-3.15,.24-6.3,.4-9.44,.74,3.09-.33,6.2-.49,9.31-.72,.45-.03,1.19-.28,1.21,.5,.02,.64-.65,.45-1.07,.51-2.86,.38-5.75,.38-8.61,.7-.23-.05,0,.34-.04,.11-.01-.06,.02-.08,.08-.09,2.76-.25,5.53-.33,8.27-.68,1.34-.17,1.91,.39,2.06,1.6,.08,.62,.07,1.25,.02,1.87-.08,.88-.49,1.21-1.43,1.29-2.94,.22-5.9,.26-8.83,.69,2.98-.41,5.99-.45,8.98-.69,.44-.03,1.2-.3,1.23,.46,.04,.79-.74,.5-1.18,.54-3.03,.32-6.06,.56-9.1,.67-.23-.03,.07,.29-.02,.09-.02-.04,.03-.07,.15-.07,2.95-.07,5.87-.41,8.81-.62,.47-.03,1.19-.32,1.3,.35,.14,.85-.66,.72-1.19,.77-3.08,.28-6.17,.4-7.89,.56,1.63-.18,4.63-.22,7.61-.55,1.3-.14,1.92,.44,1.92,1.73,0,.34-.03,.69,.03,1.02,.25,1.37-.31,1.88-1.7,1.97-2.74,.19-5.48,.31-8.21,.61,2.81-.31,5.65-.31,8.46-.67,.47-.06,1.19-.33,1.31,.33,.17,.85-.64,.75-1.17,.79-2.82,.26-5.65,.41-8.47,.67,2.81-.26,5.62-.4,8.43-.63,.43-.03,1.02-.11,1.1,.48,.06,.47-.49,.59-.84,.72-1.2,.47-2.47,.24-3.71,.23-2.06-.03-4.09,.23-5.62,.36,1.26-.21,3.06-.24,4.85-.33,.4,.12,.55,.45,.47,.79-.44,1.85,.95,1.7,2.01,1.85,1.21,.17,1.79-.41,1.8-1.63,0-.5,.02-1.04,.58-1.32,.35-.1,.73-.08,.92,.23,.68,1.09,.5,2.3,.27,3.45-.22,1.08-1.2,1.01-2.03,1.14-1.33,.21-2.62-.14-3.91-.34,4.55,.54,9.1,1,13.46,2.53Z"/><path class="cls-76" d="M66.78,41.05c-1.93,3.15-4.91,4.97-8.26,6.15-4.87,1.72-9.67,1.49-14.3-.96-.8-1.4-.56-3.01-.65-4.47-.23-3.88-.66-7.75-.84-11.64-.12-2.6,.02-5.22-.38-7.46-.17,1.12,.41,2.54,.31,4-2.77,.34-5.54,.94-8.26-.29,.55-3.42,2.01-6.38,4.44-8.85,.75-.5,1.11,.18,1.59,.51,.31,.21,.56,.67,1,.43,.4-.22,.31-.69,.35-1.08,.11-1.03-.31-2.19,.75-2.98,1.32-.94,2.74-1.67,4.35-1.98q.94,2.18,3.52,1.76c1.13-.19,2.26-.34,3.36,.11,.31,.12,.7,.26,.69,.66-.01,.4-.42,.5-.73,.59-1.53,.41-3.13,.55-4.63,1.11-.26,.1-.55,.14-.74,.45,.34,.41,.82,.3,1.22,.24,3.66-.48,7.37-.26,11.02-.9,1.39-.24,2.83-.13,4.25,0,1.37,.99,2.34,2.33,3.24,3.73-.08,.37-.31,.67-.66,.7-1.62,.13-1.6,1.19-1.52,2.42,.33,5.26,.83,10.52,1.14,15.78,.04,.68,.17,1.36-.25,1.97Z"/><path class="cls-18" d="M62.08,9.78c4.04-.65,8.13-.76,12.2-1.09,8.77-.72,17.55-1.3,26.32-1.98,2.09-.16,4.2-.01,6.28-.43,.74-.15,1.18,.16,1.22,.98,.08,1.64,.2,3.29,.31,4.93,.06,.79-.12,1.23-1.08,1.3-9.4,.65-18.79,1.35-28.19,2.04-3.06,.22-6.11,.45-9.17,.67-2.24-2.62-4.9-4.73-7.9-6.41Z"/><path class="cls-111" d="M72.21,19.98c5.11-.1,10.19-.67,15.28-1.04,3.71-.27,3.66-.32,3.92,3.33,.48,6.85,1.02,13.69,1.53,20.54,.07,.98,.51,2.15-1.27,1.99-1.19-.1-2.63,.81-2.74-1.61-.22-4.99-3.64-8.3-8.83-8.73,.5-.29,.8-.46,1.11-.63,1.97-1.09,3.01-2.73,2.89-5-.11-2.12-1.21-3.67-3.14-4.49-2.05-.88-3.99-.56-5.68,.98-.17,.15-.35,.28-.52,.42-1.17-1.29-1.29-3.03-1.82-4.57-.39-1.13,1.11-.11,1.3-.82-.6-.33-1.42,.22-2.02-.38Z"/><path class="cls-93" d="M34.4,26.38c2.11-.03,4.21,.52,6.33,.02,.59-.14,1.24-.05,1.78,.33,.68,2.97,.52,6.02,.86,9.02,.3,2.62,.32,5.27,.62,7.89,.08,.71,.75,1.78-.52,2.26-6.97-3.77-10.91-12.27-9.08-19.52Z"/><path class="cls-90" d="M66.78,41.05c-.52-6.49-1.02-12.99-1.56-19.48-.06-.77,.16-1,.9-1.03,.66-.03,1.38,.15,1.95-.36,1.5,2.58,2.56,5.35,2.69,8.32,.21,4.63-.75,8.97-3.98,12.55Z"/><path class="cls-60" d="M64.83,16.45c-1.54,.78-3.23,.24-4.84,.52-3.75,.65-7.57,.5-11.35,.88-.52,.05-1.3,.24-1.44-.5-.14-.74,.69-.81,1.16-.99,1.86-.7,3.82-1.01,5.97-1.36-1.93-1-3.79-.56-5.4-.03-1.85,.61-2.12-.06-2.11-1.55,0-.33,.04-.67,.06-1,5.68-2.28,13.76-.47,17.94,4.02Z"/><path class="cls-132" d="M30.28,23.31c0-4.58,0-9.15,.02-13.73,0-.1,.07-.2,.2-.54,1.89,2,4.03,3.58,5.59,5.75-2.28,2.63-4.03,5.56-5,8.92l-.81-.41Z"/><path class="cls-3" d="M43.48,45.9c.68-.51,.48-1.25,.4-1.88-.71-5.75-.94-11.53-1.36-17.29-.39-1.89-.35-3.81-.15-5.74,.29,1.3,.3,2.65,.44,3.95,.4,3.65,.54,7.32,.77,10.99,.22,3.44,.74,6.85,.63,10.31-.28-.04-.57-.06-.74-.34Z"/><path class="cls-43" d="M42.54,14.41c-.56,1.07-.26,2.21-.29,3.32-.02,.66-.07,1.32-.73,1.57-.59,.22-.81-.47-1.19-.76-.48-.37-.77-1-1.49-1.01,1.03-1.28,2.26-2.33,3.7-3.12Z"/><path class="cls-116" d="M49.4,8.01c2.03-.27,4.06-.27,6.1,.01-2.03,.44-4.06,.46-6.1-.01Z"/><path class="cls-66" d="M74.46,26.06l-.14,1.62v4.18h-.39c0-1.67,0-3.35,0-5.02,0-.37,.17-.64,.53-.77Z"/><path class="cls-59" d="M51.74,52.28c0-.09,0-.19-.03-.28l4.22-.32c.22,.2,.96,.02,.5,.7-1.57,.21-3.14,.6-4.69-.1Z"/><path class="cls-91" d="M56.56,52.01l-.63-.32,2.01-.34c.62,.5,1.39,.04,2.05,.3-1.02,1.23-2.24,.62-3.43,.37Z"/><path class="cls-82" d="M115.89,46.5c-1-1.39-1.89-2.83-2.26-4.53-.21-.95-.76-1.24-1.69-1.29-1.42-.08-2.79-.46-4.08-1.08-1.56-.75-1.58-1.15,.03-2.29l-2.67-1.22,.88-1.74c-.3-.58-1.5-.18-1.38-1.21,.16-1.34,1.5-1.19,2.34-1.79-.35-.21-.69-.42-1.03-.63-.4-.24-.77-.49-.66-1.06,.13-.65,.66-.53,1.08-.56,1.94-.15,3.85,0,5.75,.43q2.32,.54,2.38-1.75c.37,.56,.56,1.11,.42,1.85-.2,1.07,.33,1.31,1.25,.81,.01,.17-.04,.43,.05,.5,2.75,2.1,4.68,5.1,7.61,7,1,.74,.63,1.58,.17,2.42-.78,.31-.5,1.26-1.02,1.72-.19,1.32-.85,2.41-1.71,3.4-.47,1.36-2.04,2.34-1.42,4.08-1.36-.06-1.84-1.28-2.67-2.03-.27-.59-.88-.72-1.37-1.02Z"/><path class="cls-85" d="M117.25,47.52c1.21,.25,1.78,1.35,2.67,2.03,1.07,.42,2.19,.7,3.15,1.37,2.16,.91,4.32,1.83,6.48,2.74,1.05,.62,1.12,1.6,.95,2.65q-.58,3.49-4.23,3.49c-1.98,0-3.97,0-5.95,0,.05-1.12,.87-1,1.59-.93,1.76,.18,3.52,.09,5.28,.1,.76,0,1.53-.04,1.76-.98,.21-.85-.19-1.4-.74-2.08-1.9-2.35-4.57-2.47-7.2-2.81-.79-.1-1.23,.19-1.2,.99,.06,1.82,0,3.59-.92,5.26-.32,.57-.19,1.35-.05,2.02,.52,2.57,.03,5.21,.53,7.8,.16,.8,.4,2.04-1.08,2.22-.68-6.04-.87-12.13-1.41-18.18-.13-1.46-.3-2.91-.29-4.38,0-.54-.16-1.19,.68-1.31Z"/><path class="cls-33" d="M124.06,40.35c.16-.82,.41-1.65-.17-2.42,.91,.06,1.61,.84,2.57,.72,.25-.17,.54-.25,.81-.16,1.33,.46,2.04,.15,2.41-1.36,.3-1.23,1.51-1.63,2.74-1.57,1.24,.06,1.61,.91,1.62,1.99,0,.88,.33,1.15,1.14,.69,.26-.15,.54-.15,.8,.04l.02,.03c.19,.69-.27,1.15-.62,1.62-.39,.52-.38,1-.06,1.52-.69,.32-1.39,.53-1.88,1.24-.35,.51-.95,.67-1.23-.19,.01-.07,.03-.14,.04-.21,.29-.6,.29-1.24,.29-1.87,.06-1.09-.53-.1-.77-.23-.66,.05-1.19,.44-1.78,.68-.43-.08-.62,.03-.39,.48-.42,.09-.75-.13-1.1-.3-.15-.08-.31-.11-.46-.18q-1.44-.69-1.45,.94c0,.22,0,.44-.15,.62l-.6,.69c-.15,.18-.29,.17-.41-.03,.12-.66,.28-1.32,.33-1.99,.04-.54,.2-1.23-.41-1.54-.77-.4-.81,.6-1.29,.8Z"/><path class="cls-42" d="M142.83,29.79c.01-.13,.03-.27,.04-.4,1.84,1.15,3.24,2.76,4.52,4.48-.85-.39-1.63-1.5-2.6-.06-.2,.3-.98,.17-1.37-.26-.3-.33-.35-.79-.01-1.06,1.65-1.32,.43-1.98-.58-2.7Z"/><path class="cls-47" d="M141.17,45.48l-.99,1.62c.17-1.57-1.2-1.98-1.07-3.03,.21-1.69,1.66-.54,2.44-.95,.51,.89-.64,1.52-.38,2.37Z"/><path class="cls-109" d="M124.87,45.47c.23,.32,.44,.59,.87,.74,.58,.2,1.24,.56,.79,1.35-.38,.67-1.05,.93-1.73,.45-.35-.25-.72-.25-1.07-.39,0-.91,.3-1.67,1.13-2.16Z"/><path class="cls-81" d="M126.44,42.43c-.04-.11-.08-.21-.11-.32-.23-.79-.65-1.86,.2-2.25,.74-.34,1.54,.4,1.99,1.18-.82,.27-1.12,1.3-2.07,1.38Z"/><path class="cls-4" d="M143.82,39.68c.16-.03,.34-.03,.49-.1,.6-.26,1.2-.74,1.72,.11,.29,.47,.33,.98-.07,1.38-.61,.6-1.2,.3-1.78-.13-.21-.15-.52-.17-.78-.25-.25-.5,.07-.76,.42-1.01Z"/><path class="cls-104" d="M142.12,50.78c-.13,.61-.47,1.09-1.09,1.13-.72,.04-1.22-.46-1.21-1.13,0-.67,.5-1.17,1.22-1.12,.62,.04,.96,.53,1.08,1.13Z"/><path class="cls-15" d="M130.91,44.4c-.04,.58-.26,1.12-.98,1-.65-.11-1.1-.6-1.05-1.31,.04-.7,.62-.94,1.18-.94,.72,0,.87,.58,.85,1.25Z"/><path class="cls-131" d="M151.37,44.04c-.07,.7-.35,1.11-.97,1.04-.66-.08-1.17-.41-1.11-1.2,.05-.63,.29-1.16,1.01-1.04,.68,.11,1,.64,1.07,1.21Z"/><path class="cls-31" d="M135.33,41.44c-1.06-.1-1.27-.54-.6-1.39,.45-.56,.85-1.16,1.27-1.74,.67,.84,.2,1.83,.35,2.74-.34,.13-.68,.26-1.03,.39Z"/><path class="cls-22" d="M141.46,37.29c-.55,.27-1.12,.57-1.7,.09-.33-.27-.41-.66-.29-1.06,.26-.87,1-.72,1.65-.74,.31,.53,.89,1.01,.33,1.71Z"/><path class="cls-20" d="M146.24,47.55c-.06,.68-.44,1.03-1.1,.99-.69-.04-.99-.48-.94-1.13,.05-.58,.41-.9,1.01-.9,.68,0,1.01,.39,1.03,1.04Z"/><path class="cls-17" d="M131.56,50.52c-.05,.79-.42,1.13-1.09,1.09-.7-.04-.98-.48-.93-1.13,.04-.6,.4-.9,1-.9,.69,0,1,.38,1.03,.94Z"/><path class="cls-45" d="M136.35,47.58c-.08,.67-.47,1.01-1.12,.96-.68-.05-.98-.49-.92-1.14,.06-.59,.44-.88,1.02-.87,.68,0,1.01,.39,1.02,1.05Z"/><path class="cls-34" d="M121.34,45.47c.27-1.28,1.1-2.28,1.71-3.4q.43,2.57-1.71,3.4Z"/><path class="cls-40" d="M143.82,39.68c-.14,.34-.28,.67-.42,1.01-1.33,1.33-1.18,3.34-2.23,4.79-.55-.9,.47-1.54,.38-2.37,.4-.91,.87-1.79,1.18-2.73,.2-.62,.54-.76,1.09-.71Z"/><path class="cls-72" d="M124.87,45.47c-.38,.72-.76,1.44-1.13,2.15-.73-.32-.23-.75-.06-1.09,.56-1.16,1.17-2.3,1.76-3.44,.14,0,.28,.02,.41,.03-.32,.78-.65,1.57-.97,2.35Z"/><path class="cls-41" d="M129.61,41.34l-.3-.53,.48-.05c1.14,.09,2.19,.32,2.58,1.61-.07,.01-.12,.05-.15,.12-.87-.38-1.74-.77-2.61-1.15Z"/><path class="cls-13" d="M160.2,137.87c2.44,0,4.74-.36,6.3-2.51,.39-.53,1.32-.96,.31-1.94-.63-.61,.5-.77,.78-.82,3.18-.49,6.19-1.64,9.34-2.21,1.18-.19,1.24,.57,1.5,1.46,.58,1.94,.85,3.92,1.21,5.89,.23,1.28-.34,1.82-1.64,1.38-.49-.16-.97-.36-1.39,.15-.83,.77-1.93,.81-2.94,1.06-4.71,1.15-9.36,2.49-14.09,3.57-1.23,.53-2.66,.42-3.8,1.22-.45,.38-1.04,.5-1.25-.08-.25-.71-.29-1.52,.28-2.22,.63-.77,1.58-1.26,1.95-2.25,1.13-.91,2.06-2.07,3.42-2.69Z"/><path class="cls-100" d="M148.28,136.55c3.64,.34,7.27,.68,10.91,1.02-1.24,.84-2.51,1.64-3.71,2.54-.49,.36-.95,.58-1.54,.53-1.34-.11-2.67-.24-4.01-.35-.6-.05-.88-.41-1.01-.96-.21-.93-.43-1.85-.65-2.77Z"/><path class="cls-102" d="M147.23,134.07c.06,.93,.12,1.85,.18,2.77-.05,1.45-.12,2.9-.16,4.35-.07,2.56-.28,2.74-2.88,2.42-.1-.05-.29-.1-.29-.15,.02-2.96-.29-5.92,.15-8.87,.85-1.03,2.01-.32,3.01-.52Z"/><path class="cls-100" d="M117.85,158.37h-15.28c-3.46,0-6.92,.02-10.37-.01-1.36-.01-2.71,.04-4.03,.43-.49,.15-.97,.44-1.32-.21-.13-.25-.29-.5-.12-.79,.33-.54,.89-.52,1.37-.42,1.08,.21,2.06,.71,3.25,.7,8.5-.07,17.01-.04,25.51-.04h1v.34Z"/><path class="cls-58" d="M144.22,134.59c.05,3.01,.09,6.01,.14,9.02-.03,1.47-.04,2.94-.1,4.41-.02,.38,.31,.95-.39,1.11-.02-4.65-.04-9.29-.05-13.94,.23-.13-.35-.82,.41-.6Z"/><path class="cls-100" d="M152.61,143.98c-.34,.02-.51-.19-.54-.49-.04-.35,.02-.7,.44-.74,.36-.04,.69,.12,.67,.53-.02,.33-.18,.64-.57,.7Z"/><path class="cls-105" d="M138.45,25.11c.03-.66,.38-1.09,1.01-1.43,.05,.8,.27,1.61-1.01,1.43Z"/><path class="cls-108" d="M131.33,22.06c-.95-.15-1.27-.57-1.24-1.2,.01-.31,.37-.28,.51-.23,.8,.24,.15,.97,.73,1.44Z"/><path class="cls-122" d="M24.84,21.63c1.14,0,2.28,.07,3.41-.04,1.35-.13,1.93,.34,1.68,1.71-1.7,0-3.39,0-5.09,0,0-.56,0-1.12,0-1.68Z"/><path class="cls-1" d="M13.57,23.31c-.22-1.35,.61-1.41,1.62-1.38,.97,.03,2.02-.15,1.78,1.38-1.13,0-2.27,0-3.4,0Z"/><path class="cls-1" d="M17.01,19.92c-.01,.11-.02,.22-.03,.33-3.43,.01-3.35,0-3.46-3.87-.04-1.58,.43-2.08,1.99-1.98,1.06,.07,1.55,.29,1.49,1.45-.08,1.35,0,2.72,.01,4.08Z"/><path class="cls-32" d="M15.39,12.71c.49,.25,1.54-.35,1.42,.61-.1,.82-1.13,.4-1.74,.43-.49,.02-1.43,.29-1.36-.46,.08-.94,1.1-.35,1.68-.57Z"/><path class="cls-1" d="M24.83,7.63c1.3,0,2.6,.02,3.9-.02,.83-.02,1.24,.23,1.23,1.15-.04,2.88-.04,5.76,0,8.64,.01,.91-.39,1.18-1.22,1.15-1.3-.04-2.6-.02-3.9-.02,0-3.63,0-7.26,0-10.89Z"/><path class="cls-122" d="M24.83,19.23c1.4,0,2.8-.01,4.2,0,.38,0,.86,0,.8,.58-.05,.44-.46,.43-.79,.43-1.4,0-2.8,0-4.2,0,0-.33,0-.67-.01-1Z"/><path class="cls-120" d="M135.98,38.29c-.16,.04-.33,.07-.49,.14-.54,.22-.83,1.15-1.54,.76-.65-.35-.28-1.13-.32-1.71-.05-.7-.02-1.4-.95-1.52-1.09-.13-2.52,.16-2.57,1.11-.18,3.31-2.05,2-3.65,1.59-1.03-.39-.96-1.72-1.95-2.22-.68-.35-1.15-1.01-2.11-.75-.67,.18-1.15-.45-.98-1.02,.39-1.34,1.6-1.62,2.81-1.78,1.03-.14,1.37,.46,1.54,1.36,.32,1.7,.77,1.93,2.38,1.35,.03-.79,.08-1.57-.01-2.36,.87-1.72,1.76-2.03,3.21-1.09,.88,.57,1.58,.63,1.91-.58,.3-1.1,1.37-1.04,2.15-1.32,.5-.18,.63,.39,.53,.79-.11,.43-.31,.85-.52,1.24-1.06,2.03-1.01,2.29,.96,3.38,.6,.33,.45,.72,.19,1.11-.31,.48-.67,.91-.62,1.53Z"/><path class="cls-46" d="M128.15,33.23c.81,.78,.8,1.57,.01,2.36-.89,.02-1.67-.28-1.62-1.26,.05-.84,.77-1.17,1.61-1.1Z"/><path class="cls-44" d="M136.85,37.5c.46-1.22,.97-1.71,1.99-2.25-.54,1-1.02,1.52-1.99,2.25Z"/><path class="cls-11" d="M159.23,143.75c5.79-1.5,11.59-2.99,17.38-4.49,.17,.02,.43-.03,.49,.06,.41,.55-.25,.3-.32,.33-2.23,.64-4.45,1.28-6.7,1.84-3.51,.88-6.96,1.97-10.54,2.57-.35,.15-.4-.01-.31-.31Z"/><path class="cls-63" d="M159.23,143.75c.1,.1,.21,.2,.31,.31-1.18,.61-2.49,.75-3.76,1.05,.84-1.25,2.33-.83,3.45-1.36Z"/><path class="cls-130" d="M61.31,64.23c-.34,0-.68,.02-1.02,.03-.58-.54-1.48-.09-2.04-.67-.71-.91-1.9-.42-2.75-.94,1.42-1.06,3.13-.65,4.71-.91,3.62-.6,7.34-.29,10.96-.96,.61-.11,1.22-.2,1.72-.6,1.37-.51,2.8-.33,4.2-.35,.39,0,.92-.04,1,.43,.09,.54-.46,.49-.82,.61-1.04,.36-2.12,.33-3.19,.33-.28,0-.62,0-.66,.37-.04,.32,.23,.51,.51,.58,.81,.21,1.66,.26,2.39,.74-.38,.44-.91,.45-1.43,.48-3.96,.41-7.96,.31-11.9,.95-.57,.09-1.12-.07-1.68-.07Z"/><path class="cls-50" d="M72.89,60.16c.14,.98-.48,1.06-1.23,1.12-5.39,.44-10.77,.9-16.16,1.36-.7-.08-1.56,.03-1.41-1.12l.04-.05c1.3-.93,2.87-.45,4.29-.71,4.07-.74,8.24-.67,12.36-1.1,.74-.08,1.47,.1,2.12,.51h-.01Z"/><path class="cls-132" d="M47.33,61.16c-.68-.8-.96-1.76-1.23-2.76-.21-.78,.12-1.23,.72-1.52,.7-.34,.94,.25,1.31,.71,.67,.84,.2,2.4,1.7,2.71,.05,0,.1,.32,.04,.44-.13,.27-.33,.21-.54,.04-.65-.56-1.01-.12-1.33,.42-.22,0-.45-.02-.67-.03Z"/><path class="cls-19" d="M46.2,69.95c-.74,3.89-1.48,7.79-2.22,11.68l-.71-.13c.73-3.89,1.46-7.79,2.19-11.68l.74,.14Z"/><path class="cls-134" d="M69.55,71.87c-.89,4.27-1.38,8.62-2.9,12.77l2.49-12.94,.41,.16Z"/><path class="cls-96" d="M58.24,69.71c-.25,4.21-1.04,8.31-2.33,12.31l2.33-12.31Z"/><path class="cls-2" d="M63.86,72.21c-.73,3.84-1.45,7.68-2.18,11.52l-.45-.08,2.17-11.55,.46,.11Z"/><path class="cls-78" d="M54.87,69.65c-.21,3.96-.95,7.83-2.22,11.59,.74-3.86,1.48-7.73,2.22-11.59Z"/><path class="cls-52" d="M64.6,83.62l2.15-11.23,.46,.09c-.72,3.74-1.44,7.49-2.16,11.23l-.45-.09Z"/><path class="cls-96" d="M55.83,70.34c-.18,3.82-.87,7.54-2.09,11.17,.7-3.72,1.39-7.44,2.09-11.17Z"/><path class="cls-88" d="M56.91,70.68c-.2,3.85-.89,7.62-2.15,11.27l2.15-11.27Z"/><path class="cls-96" d="M60.22,82.98c.72-3.76,1.43-7.53,2.15-11.29-.26,3.85-.88,7.63-2.15,11.29Z"/><path class="cls-134" d="M70.3,73.86l-2.07,10.91-.41-.08,2.02-10.86,.46,.03Z"/><path class="cls-35" d="M65.68,83.89c.6-3.13,1.19-6.27,1.79-9.4l.42,.08c-.59,3.16-1.18,6.33-1.77,9.49l-.43-.17Z"/><path class="cls-88" d="M61.69,71.86l-1.42,7.37c-.09-2.6,.53-5.07,1.42-7.37Z"/><path class="cls-29" d="M73.69,155.92c-14.62,1.18-29.23,.61-43.85,.06,14.62-.73,29.23-1.04,43.85-.06Z"/><path class="cls-49" d="M94.59,85.25c-.32,1.29-.64,2.59-.97,3.88-.02,.07-.17,.1-.5,.29,.51-2.72,.99-5.27,1.47-7.83,.04-.22,.11-.44,.14-.66,.34-2.47,.33-2.39,2.78-2.06,1.56,.21,1.82,.83,1.45,2.29-.59,2.34-1.01,4.74-1.37,7.13-.26,1.77-1.55,1.21-2.47,1.13-1.17-.11-.64-1.03-.53-1.72,.13-.81,.22-1.63,.33-2.45h-.34Z"/><path class="cls-132" d="M93.4,78.25c-.27,3.72-1.34,7.29-1.91,10.96l-.55-.1,2.05-10.93,.41,.07Z"/><path class="cls-132" d="M92.03,89.24c.7-3.62,1.4-7.24,2.1-10.86l.5,.09c-.68,3.61-1.37,7.21-2.05,10.82l-.55-.06Z"/><path class="cls-126" d="M101.47,79.81c-.61,3.14-1.22,6.28-1.83,9.42l-.53-.11c.61-3.14,1.22-6.28,1.82-9.42l.54,.11Z"/><path class="cls-25" d="M104.63,68.35c-2.04-.22-4.03,.66-6.09,.14,3.56-.79,7.23-.7,10.83-1.24-3.65-.47-7.25,.34-10.89,.21,3.64-.86,7.42-.56,11.07-1.28l-.03-.44c-3.71,.25-7.42,.5-11.12,.75l-.05-.36c1.54-.18,3.08-.51,4.62-.49,1.94,.02,3.83-.37,5.75-.37,.73,0,.75-.28,.74-.92-.06-3.46-.54-3.82-4.34-3.06-2.39,.48-4.85-.02-7.25,.46,3.7-1.03,7.58-.68,11.29-1.79-3.81,.24-7.61,.49-11.42,.73l-.04-.39,11.49-.98-.03-.46c-3.66,.02-7.3,.74-10.97,.5,3-.81,6.1-.68,9.16-.9,1.81-.13,1.93-.26,1.72-2.89-.11-1.36-.67-1.52-2.03-1.34-3.21,.41-6.46,.47-9.73,.27l11.2-.95-.02-.45c-3.66-.02-7.32,.77-10.99,.44,3.62-.65,7.29-.75,10.95-1.05l-.04-.55-11.24,.76c.97-.7,2.02-.76,3.09-.75,2.49,.03,4.95-.28,7.42-.59,1.04-.13,1.17-.7,.97-1.54-.03-.11-.09-.21-.11-.32-.66-3.15,.86-4.64,4.07-4,.6,.12,.84,.47,.9,1.05,.08,.67,.23,1.33,.34,2,.94,2.02,.57,4.22,.8,6.32,.56,5.11,.83,10.26,1.12,15.39,.1,1.7,.2,3.44,2.16,4.19v.36c-2.95-.05-5.75-1.06-8.65-1.47-1.77-.25-3.53-.64-5.29-1.11,1.66-.11,3.3,.36,4.98-.1,.84-.23,1.33-.51,1.08-1.28-.31-.95,1.06-2.52-.99-2.85-1.44,.56-2.89,1.06-4.43,.34Z"/><path class="cls-132" d="M118.27,71.4c1.22-.92,.61-2.15,.55-3.28-.16-2.97-.98-6.07-.34-8.85,.49-2.12,.72-4.16,.83-6.27,.02-.38,.25-.75,.62-.6,2,.81,4.23,.23,6.25,1.18,1.25,.59,1.61,2.09,3.11,2.46,.55,.14,.29,1.66,.11,2.54-.17,.85-.86,.94-1.59,.89-2.14-.14-4.3,.3-6.42-.27-.53-.14-.85,.16-1.08,.61,0,4.53,0,9.05,0,13.58,0,.66,.16,1.44-.93,1.41-.92-.03-1.12-.59-1.11-1.36,.01-.68,0-1.36,0-2.04Z"/><path class="cls-132" d="M117.92,74.46c-1.59,.08-2.35-.38-2.46-2.27-.29-4.79-.7-9.56-.99-14.35-.19-3.09-.76-6.17-.63-9.29,.68-.11,1.36-.56,2.04,0v.68c-.24,.74-.06,1.4,.33,2.04,.45,5.54,.92,11.08,1.35,16.62,.17,2.19,.25,4.38,.37,6.57Z"/><path class="cls-9" d="M133.28,75.15c.74,.01,1.48,.06,2.21,.02,.86-.05,1.23,.26,1.22,1.17-.01,.86-.28,1.22-1.18,1.21-3.97-.03-7.95-.1-11.92,.03-1.84,.06-.88-1.51-1.51-2.11,.56-.59,1.28-.3,1.91-.3,3.09-.04,6.18-.02,9.27-.02Z"/><path class="cls-85" d="M116.21,51.27c-.8-.57-1.23-1.2-.32-2.04,.4,.63,.35,1.34,.32,2.04Z"/><path class="cls-89" d="M163.24,62.47c-.61,.01-1.23,.02-1.84,.03-.99,.02-1.19-.58-1.19-1.42,0-.89,.54-.97,1.22-.95,.61,.02,1.23,.03,1.84,.05,0,.77-.02,1.53-.03,2.3Z"/><path class="cls-77" d="M161.36,136.8h2.63c-1.17,.38-2.34,.71-3.49,.19,.29-.06,.58-.12,.86-.19Z"/><path class="cls-132" d="M91.36,49.27c-2.77-.43-5.55,.11-8.33,.05-.98-.02-1.94,.52-3.08,.36-.99-.14-1.2,1.01-1.23,1.88-.03,.97-.22,1.46-1.42,1.17-1.02-.24-2.14-.25-3.19,.13-.26,.09-.65,.2-.82,.08-1.64-1.13-3.53-.21-5.24-.67-1-.27-1.95-.41-2.99-.07-.72,.24-1.54,.03-1.67-.94-.16-1.21,.78-1.04,1.48-1,2.63,.15,4.87-.51,6.52-2.73,.51-.68,.75-1.49,.38-2.04-.73-1.07-.25-1.75,.33-2.56,.56-.78,.87-1.72,1.35-2.52,1.17-1.99,2.69-3.55,5.25-3.86,1.39-.17,2.78-.02,4.15-.25,.84-.14,.97,.65,1.46,.95,2.8,1.68,3.37,4.38,3.21,7.3-.09,1.61,.71,2.14,2.05,2.27,.9,.08,1.81,.01,2.72,.03,.32,0,.75-.11,.88,.31,.12,.41-.26,.56-.55,.73-.57,.33-1.34,.48-1.28,1.39h0Z"/><path class="cls-132" d="M80.41,53.35c.03-.42,.14-.85,.6-.9,.45-.05,.45,.43,.53,.73,.49,1.66,1.39,2.42,3.25,1.9,1.14-.32,2.32-.09,3.54-.67,.73-.34,2.43-.08,3.42,.67,.73,.55-.2,3.5-1.07,3.87-.46,.2-1.05,0-1.39,.5-.83,.93-1.95,.59-2.97,.7-.43,.05-1.24-.39-1.13,.66,.25,1.55,1.13,2.24,2.71,2.07,.67-.07,1.36-.08,2.03,0,.86,.1,2.03-.52,2.4,.89,.38,1.45-.44,2.13-1.68,2.52-1.74,1.07-3.57,1.01-5.43,.39-1.23-.35-2.56,.25-3.76-.4-.43-.18-.55-.55-.52-.96,.13-2.19-.3-4.36-.4-6.54-.09-1.81-.58-3.6-.13-5.43Z"/><path class="cls-21" d="M53.8,59.83c-.71-1.17-.21-1.66,.99-1.73,.34-.02,.69,.04,1.02-.02,.48-.09,1.36,.33,1.26-.6-.07-.65-.84-.36-1.31-.37-.27,0-.54,.15-.81,.22-.86,.21-1.53-.12-1.72-.94-.21-.91,.64-1.15,1.27-1.28,.99-.21,2.05-.37,3.01-.35,3.96,.11,7.84-.73,11.77-.75,.53,0,1.16-.24,1.55,.38-2.46,1.08-5.11,.94-7.68,1.09-2.55,.15-5.08,.45-7.63,.6,4.63-.15,9.24-.58,13.85-.92,.6-.04,1.09-.3,1.45-.78,1.75-.13,3.49-.27,5.24-.37,.54-.03,1.37-.16,1.42,.54,.06,.77-.89,.57-1.34,.66-.93,.19-1.91,.17-2.87,.14-1.12-.03-2.02,.42-3.2,1.16,2.04,.4,3.78,.13,5.49,.21,.51,.02,1.02,0,1.53,.04,.42,.03,.81,.19,.8,.69,0,.39-.38,.47-.69,.64-1.68,.93-3.51,.65-5.29,.71-1.64,.87-3.51,.55-5.22,1.04-1.32,.19-2.66,.05-3.99,.14-.91-.02-1.86,.15-2.69-.39,.08-1.23,1.1-.92,1.74-.92,3.86,0,7.65-.87,11.52-.77,.39,.01,.79-.09,1.29-.21-1.76-.31-3.36,.13-4.98,.25-4.63,.35-9.26,.58-13.88,1.03-.63,.06-1.24,.16-1.64,.74-.08,.05-.17,.09-.25,.14Z"/><path class="cls-132" d="M107.35,23.98c.84,1.54,1.89,.29,2.72,.06,.88-.24,.74-1.11,.31-1.85-.28-.48-.54-.98-.76-1.5-.41-.99-1.03-1.58-2.2-1.49-.6,.05-1.41,.09-1.27-.87,.1-.69,.26-1.52,1.3-1.49,.23,0,.46,0,.68-.01q3.99-.35,4,3.76c0,1.64-.21,3.3,.53,4.86,.23,.49,.24,1.03-.23,1.4-.45,.35-.93,.22-1.42-.05-1.64-.88-3.06-2.27-5.3-1.53-1.01,.33-.64-.68-.4-1.24,.68-.31,1.35-.52,2.04-.03Z"/><path class="cls-132" d="M109,45.2c-1.2,0-1.86,.76-1.43,2.03,.49,1.45,.45,2.55-1.26,3.02-1.35,.37-3.26-.49-3.37-1.85-.11-1.47,.35-3.01,1.2-4.25,.74-1.08,1.84-.24,2.79-.12,1.39,.19,2.79,.45,4-.59,.36-.31,.72-.38,1.01,.04,.34,.5,.11,.9-.4,1.06-.79,.24-1.49,.84-2.54,.65Z"/><path class="cls-130" d="M59.88,59.43l2.81,.04c1.36,.49,2.72,.57,4.07-.01,1.66-.58,3.38-.73,5.13-.67-.05,.74,.9,.75,1,1.37-4.02,.09-8.02,.4-12.02,.76-2.25,.2-4.5,.36-6.75,.54,.16-.8,.8-.6,1.33-.64,.63-.05,1.29,.14,2.09-.3-1.29-.83-2.69,.11-3.75-.7l.08-.1c1.96-.92,3.96-1.13,6-.3Z"/><path class="cls-75" d="M74.94,62.88c.46,0,.92,0,1.38-.01,.17,0,.34-.03,.51,0,.5,.1,1.37-.31,1.39,.48,.03,.84-.85,.44-1.34,.53-.44,.07-.91,.03-1.34,.13-.35,.08-.59,.38-.51,.77,.1,.52,.47,.32,.79,.24,.66-.17,1.25-.14,1.48,.66-1.63,.84-3.41,.4-5.11,.61-2.29-.35-4.61-.53-6.79-1.38,.26-1.01,1.13-.8,1.79-.79,1.88,.03,3.71-.38,5.58-.43,.78-.02,1.58-.16,2.17-.81Z"/><path class="cls-12" d="M74.94,62.88c.22,1.27-.77,1.19-1.5,1.25-2.08,.19-4.16,.3-6.24,.46-.61,.05-1.25-.09-1.8,.31l-.95-.02c-1.03-.25-2.15-.11-3.12-.65h-.02c1.74-.84,3.65-.67,5.48-.87,2.7-.3,5.43-.33,8.15-.48Z"/><path class="cls-132" d="M104.63,68.35c1.49,0,2.93-.56,4.43-.34,0,3.46-.13,3.58-3.26,3.05q-1.87-.32-1.18-2.71Z"/><path class="cls-132" d="M102.63,4.63c2.9-1.09,5.36-.94,7.83-.45,.54,.11,1.14,.44,.88,.99-.4,.87,.24,2.1-.8,2.63-.74,.38-.83-.34-.79-.86,.12-1.73-.84-2.1-2.34-2.08-1.42,.02-2.88,.2-4.78-.24Z"/><path class="cls-14" d="M93.04,54.56c.04,2.63,1.08,5.12,.99,7.71-.08,2.28,.48,4.5,.36,6.76-.02,.38-.07,.78-.2,1.14-.05,.12-.48,.25-.6,.16-.49-.35,.22-.28,.2-.46-.13-1.22-.31-2.45-.41-3.67-.18-2.12-.03-4.22-.44-6.38-.3-1.59-.06-3.49,.11-5.26Z"/><path class="cls-61" d="M91.35,49.28l7.84-.43c.06,.7-.3,.71-.64,.73-4.51,.33-9.02,.67-13.53,.98-.33,.02-.91,.33-.95-.28-.04-.58,.55-.39,.9-.43,2.13-.2,4.26-.39,6.39-.59h0Z"/><path class="cls-101" d="M102.89,17.81c.62-.04,1.25-.07,1.87-.1,.29-.02,.61-.05,.61,.36,0,.38-.32,.4-.6,.42-3.5,.26-7.01,.52-10.51,.77-.28,.02-.64,.08-.68-.29-.07-.66,.49-.48,.83-.51,2.82-.23,5.65-.43,8.48-.65Z"/><path class="cls-48" d="M80.41,53.35c.23,4.32,.48,8.64,1.05,12.93,0,.54,0,1.08,0,1.64-.92-.04-.65-.69-.68-1.13-.15-2.65-.26-5.3-.39-7.95-.02-.39,.03-.8-.31-1.1-.5-.66-.46-1.34-.05-2.03,.21-.77-.28-1.66,.37-2.36Z"/><path class="cls-70" d="M56.56,52.01c1.14-.12,2.28-.24,3.43-.37,.55,.19,1.59-.42,1.62,.24,.05,.98-1.06,.49-1.6,.53-2.86,.21-5.69,.8-8.58,.58-.18-.23-.21-.46,0-.68,.1-.04,.2-.05,.31-.03,1.61,.02,3.23,.18,4.82-.27Z"/><path class="cls-119" d="M96.89,43.49c4.04-.92,8.17-1.02,12.28-1.3l.04,.5-12.32,.8Z"/><path class="cls-119" d="M95.84,29.15c3.81-1.08,7.73-.89,11.6-1.39l.04,.51c-3.88,.29-7.76,.58-11.64,.87Z"/><path class="cls-134" d="M107.7,22.29l.64,.07v.24c-4.1,.33-8.21,.66-12.32,.99l-.05-.45,6.62-.54c1.67-.6,3.35-1.27,5.12-.31Z"/><path class="cls-55" d="M107.35,23.98c-.68,.01-1.36,.02-2.04,.03-3.37,.23-6.75,.47-10.12,.7,2.48-.93,5.1-.65,7.64-1.05,1.16-.18,2.38,.13,3.54-.29,.47-.17,.92-.03,.98,.6Z"/><path class="cls-96" d="M97.72,41.9c3.74-.3,7.48-.6,11.22-.9-3.67,1.05-7.46,.86-11.18,1.35l-.04-.46Z"/><path class="cls-132" d="M104.91,57.22c-.67-.04-1-.38-.95-1.07,.09-1.18,1.15-1.16,1.88-1.28,.68-.12,.81,.66,.81,1.2,0,1.18-1.05,.9-1.73,1.15Z"/><path class="cls-134" d="M102.58,21.98c-2.14-.03-4.25,.65-6.61,.16,1.1-.39,2.1-.26,3.03-.37,2.63-.3,5.3-.36,7.95-.49,.24-.01,.5,.2,.75,.31-1.69,.38-3.35,1-5.11,.38Z"/><path class="cls-103" d="M85.19,60.82c-.83-.56-.86-.99,.25-.99,1.3,0,2.58-.1,3.85-.37,.44,.12,1.2-.24,1.23,.49,.03,.78-.74,.46-1.18,.52-1.37,.2-2.8-.27-4.14,.35Z"/><path class="cls-103" d="M85.22,66.69c1.8-.23,3.65,.23,5.43-.39,.56,.59,.33,.92-.37,.99-1.35,.14-2.7,.23-4.05,.35-.7,.06-1.1-.17-1-.95Z"/><path class="cls-52" d="M106.26,20.4c-3.61,.33-7.19,1.03-10.83,.73,3.6-.34,7.19-.99,10.83-.73Z"/><path class="cls-132" d="M99.79,72.77c1.97-.71,3.73,.4,5.61,.46,.26,0,.52,.3,.39,.62-.12,.31-.45,.29-.72,.24-1.78-.31-3.43-1.15-5.28-1.32Z"/><path class="cls-39" d="M72.19,66.29c1.65-.62,3.36-.76,5.11-.61,.09,1.1-.56,1.39-1.47,1.26-1.22-.17-2.42-.43-3.63-.65Z"/><path class="cls-6" d="M84.36,53.34c1.8-.24,3.56-.92,5.42-.38-1.74,.99-3.58,.7-5.42,.38Z"/><path class="cls-132" d="M96.74,47.04c1.41-.87,2.66-.17,3.91,.26,.27,.09,.52,.33,.35,.64-.07,.14-.41,.28-.56,.22-1.2-.43-2.63-.07-3.71-1.12Z"/><path class="cls-132" d="M92.56,17.35c-.49,.7-.98,1.29-1.92,1.17-.38-.05-.7-.21-.59-.62,.25-.94,.98-1.13,1.84-1.07,.35,.02,.66,.07,.67,.51Z"/><path class="cls-132" d="M102.58,21.98c1.7-.13,3.41-.25,5.11-.38v.69c-1.72-.22-3.39,.42-5.11,.31v-.62Z"/><path class="cls-132" d="M98.66,38.56c-.38,.42-.5,1.2-1.32,1.08-.54-.08-.77-.48-.66-.99,.16-.75,.78-.7,1.36-.67,.33,.02,.72,.01,.63,.57Z"/><path class="cls-26" d="M52.05,59.35c.12,1.02-.52,.82-.98,.89-.81,.13-.73-.44-.78-.95-.08-.88,.52-.84,1.09-.86,.84-.03,.57,.66,.67,.92Z"/><path class="cls-124" d="M50.92,55.62c.58-.04,.89,.18,.91,.77,.01,.6-.16,.99-.84,1.02-.64,.03-.94-.26-.97-.89-.04-.68,.35-.9,.9-.9Z"/><path class="cls-132" d="M81.37,18.64c-.08,.68-.6,.55-1.02,.58-.48,.03-1-.08-1.01-.62,0-.65,.61-.68,1.1-.7,.5-.02,.85,.23,.93,.75Z"/><path class="cls-132" d="M80.03,55.71c.02,.68,.03,1.35,.05,2.03-.04,.31,.08,.76-.31,.84-.34,.07-.46-.38-.35-.58,.36-.73-.99-1.91,.62-2.28Z"/><path class="cls-132" d="M96.16,68.8c-.55-1.04-.72-1.77-.11-2.8,.54,.94,.47,1.69,.11,2.8Z"/><path class="cls-59" d="M51.43,52.32v.68c-.21,.07-.41,.2-.62,.22-.41,.04-1.03,.27-1.06-.41-.03-.65,.61-.5,1.02-.54,.22-.02,.44,.03,.66,.05Z"/><path class="cls-132" d="M93.82,33.95c.34,.77,.36,1.41-.08,2.1q-.67-.9,.08-2.1Z"/><path class="cls-75" d="M61.33,64.23c1.07,.06,2.11,.31,3.12,.65-1.08-.02-2.25,.36-3.12-.65Z"/><path class="cls-132" d="M100.13,70.12c.76-.55,1.27-.46,1.9-.28-.5,.76-1.06,.56-1.9,.28Z"/><path class="cls-132" d="M93.95,39.53c.1,.58,.29,1.05-.2,1.35-.22,.14-.46-.06-.54-.27-.22-.57,.16-.8,.73-1.08Z"/><path class="cls-62" d="M47.36,22.37c.91-.71,1.74-.53,2.46-.6,2.93-.25,5.86-.41,8.79-.61,.33-.02,.75-.16,.76,.35,0,.34-.36,.36-.64,.38-3.55,.26-7.1,.51-10.65,.76-.14,0-.29-.11-.72-.28Z"/><path class="cls-79" d="M113.09,32.43c-1.67-.25-3.38-.13-5.03-.67,1.63-.46,3.06-.29,5.03,.67Z"/><path class="cls-7" d="M109.42,37.5c1.26-.28,2.51-.39,3.85,.28-1.44,.53-2.61-.33-3.85-.28Z"/><path class="cls-56" d="M112.66,35.14c-1.47,.31-2.66-.36-3.92-.41,1.3-.3,2.57-.31,3.92,.41Z"/><path class="cls-64" d="M132.37,42.37c-.67-.85-1.8-.95-2.58-1.61,.49-.53,1.08-.85,1.82-.83,.31,.5,.98-.06,1.29,.45-.11,.68,.62,1.59-.52,2Z"/><path class="cls-87" d="M132.89,40.38c-.39-.28-1.24,.8-1.29-.44,.41-.28,.83-.56,1.28-.87,.33,.5,.02,.91,.01,1.31Z"/><path class="cls-133" d="M59.88,59.43c-2,.1-4,.2-6.01,.3-.18-.87,.17-1.23,1.06-1.3,6.45-.45,12.89-.93,19.34-1.39,.11,0,.23-.02,.34,0,.46,.08,1.18-.26,1.27,.46,.09,.74-.64,.65-1.11,.7-1.41,.12-2.83,.19-4.24,.31-3.55,.3-7.1,.62-10.64,.93Z"/><path class="cls-74" d="M70.81,54.39c.2,.82,.02,1.25-.96,1.32-4.92,.32-9.83,.69-14.74,1.03-.46,.03-1.19,.27-1.27-.43-.1-.93,.75-.63,1.23-.67,5.25-.43,10.5-.83,15.75-1.23h-.01Z"/><path class="cls-132" d="M66.77,59.47c.21,.15,.54,.56,.33,.55-1.48-.04-3.08,.76-4.4-.54,1.36,0,2.72,0,4.07-.01Z"/></g></g></svg>