<?xml version="1.0" encoding="UTF-8"?><svg id="Layer_2" xmlns="http://www.w3.org/2000/svg" viewBox="0 0 19.13 19.5"><defs><style>.cls-1{fill:#666161;}</style></defs><g id="Layer_1-2"><g><path class="cls-1" d="M9.54,19.5c-.36,0-.72,0-1.08,0-1.15-.04-2.05-.84-2.24-1.98-.02-.11-.06-.22-.04-.33,.06-.62-.38-.83-.82-1.03-.09-.04-.24,0-.35,.03-.38,.12-.74,.29-1.13,.39-.98,.24-1.94-.15-2.49-1.01-.37-.59-.73-1.19-1.08-1.79-.58-1.02-.35-2.22,.57-2.95,.16-.12,.31-.26,.48-.36,.31-.17,.4-.41,.39-.76-.01-.27-.08-.44-.3-.58-.2-.12-.38-.28-.57-.42C-.03,7.96-.26,6.76,.32,5.74c.34-.59,.69-1.18,1.06-1.76,.61-.97,1.72-1.34,2.8-.96,.25,.09,.49,.18,.73,.29,.23,.11,.42,.06,.66-.04,.44-.19,.57-.5,.62-.94,.16-1.29,.79-2.12,1.87-2.24,1-.11,2.02-.1,3.02,0,.96,.1,1.66,.92,1.82,1.88,.02,.12,.06,.25,.05,.37-.07,.65,.41,.84,.86,1.05,.08,.04,.21-.01,.32-.04,.38-.13,.74-.29,1.13-.39,.97-.24,1.92,.14,2.46,.98,.4,.62,.78,1.25,1.14,1.89,.53,.94,.3,2.12-.55,2.84-.21,.18-.42,.35-.65,.5-.22,.14-.25,.31-.27,.56-.03,.36,.1,.57,.39,.76,.59,.39,1.11,.84,1.28,1.58,.14,.6,.09,1.16-.22,1.69-.36,.61-.71,1.23-1.1,1.82-.61,.95-1.71,1.31-2.78,.93-.22-.08-.45-.15-.66-.26-.28-.15-.51-.09-.79,.04-.42,.18-.52,.48-.55,.87-.09,1.02-.52,1.81-1.52,2.19-.24,.09-.51,.13-.76,.15-.37,.02-.75,0-1.12,0Zm6.29-4.59c.14-.12,.33-.23,.44-.38,.33-.51,.64-1.04,.95-1.56,.21-.37,.18-.55-.15-.8-.45-.35-.92-.68-1.36-1.05-.11-.09-.17-.28-.18-.43-.02-.62-.02-1.24,0-1.86,0-.15,.07-.34,.18-.43,.44-.37,.91-.69,1.36-1.05,.33-.26,.37-.44,.15-.8-.3-.5-.6-1-.9-1.5-.25-.41-.45-.48-.9-.3-.52,.2-1.04,.41-1.57,.59-.12,.04-.31,.01-.43-.05-.59-.31-1.18-.64-1.75-.97-.11-.06-.23-.19-.25-.31-.1-.54-.17-1.08-.25-1.62-.06-.42-.23-.59-.66-.59-.62,0-1.25,0-1.87,0-.45,0-.62,.17-.68,.62-.07,.53-.14,1.06-.24,1.59-.02,.12-.13,.25-.24,.31-.58,.34-1.16,.66-1.76,.97-.12,.06-.3,.1-.42,.05-.55-.19-1.09-.41-1.64-.61-.4-.14-.6-.07-.82,.28-.31,.5-.61,1-.91,1.5-.24,.4-.2,.59,.16,.86,.43,.34,.87,.67,1.31,.99,.17,.12,.22,.24,.21,.46-.03,.62-.03,1.24,0,1.86,0,.22-.04,.34-.21,.46-.46,.33-.9,.67-1.34,1.01-.32,.25-.36,.45-.15,.81,.29,.49,.59,.98,.89,1.47,.27,.44,.47,.51,.96,.32,.5-.19,1-.38,1.49-.58,.19-.08,.32-.05,.5,.06,.55,.34,1.13,.62,1.68,.95,.12,.07,.25,.23,.28,.36,.1,.52,.17,1.06,.24,1.59,.05,.35,.22,.58,.6,.59,.67,0,1.35,0,2.02,0,.36,0,.54-.21,.59-.55,.08-.54,.14-1.09,.25-1.62,.03-.13,.16-.28,.29-.35,.29-.16,.61-.27,.91-.43,.38-.2,.75-.57,1.14-.6,.41-.02,.83,.28,1.25,.44,.25,.1,.51,.19,.84,.3Z"/><path class="cls-1" d="M9.48,13.3c-1.96,0-3.55-1.57-3.55-3.52,0-1.96,1.56-3.55,3.52-3.56,1.97,0,3.58,1.59,3.58,3.54,0,1.94-1.6,3.53-3.55,3.54Zm1.76-3.54c0-.96-.79-1.76-1.75-1.78-.96-.02-1.78,.8-1.78,1.78,0,.98,.82,1.8,1.78,1.78,.96-.02,1.75-.82,1.75-1.78Z"/></g></g></svg>