<?xml version="1.0" encoding="UTF-8"?><svg id="Layer_2" xmlns="http://www.w3.org/2000/svg" viewBox="0 0 16.9 20.12"><defs><style>.cls-1{fill:#666161;}</style></defs><g id="Layer_1-2"><path class="cls-1" d="M14.91,15.72c-.84,.14-1.54-.04-2.14-.54-.61-.49-.87-1.16-.88-1.92-.02-1.23-.01-2.46,0-3.69,0-1.71,1.26-2.8,2.95-2.58,.07,0,.14,.01,.21,.02-.08-2.43-3.24-5.19-6.03-5.36-4-.25-6.71,2.71-7.17,5.35,.25-.01,.49-.04,.74-.03,1.34,.02,2.41,1.06,2.43,2.4,.02,1.3,.02,2.6,0,3.9-.02,1.47-1.11,2.51-2.57,2.49C1.05,15.76,0,14.67,0,13.22c0-1.61,0-3.22,0-4.83C.03,4.4,2.87,.96,6.79,.17c4.53-.91,8.97,2,9.92,6.55,.12,.59,.16,1.21,.17,1.81,.02,1.92,0,3.84,0,5.76,0,2.61-1.85,4.52-4.47,4.6-.12,0-.24,0-.36,0-.55-.03-1.03-.04-1.38,.57-.27,.48-.85,.63-1.41,.65-.51,.02-1.03,.02-1.54-.02-1.12-.09-1.91-.96-1.9-2.03,.02-1.12,.84-2,1.97-2.05,.58-.03,1.17,0,1.75,.05,.62,.06,1.09,.41,1.4,.94,.11,.18,.23,.24,.43,.23,.57-.03,1.15,0,1.71-.1,.78-.15,1.37-.63,1.8-1.4ZM1.66,11.38c0,.61,0,1.21,0,1.82,0,.58,.33,.93,.85,.93,.52,0,.85-.37,.85-.94,0-1.21,0-2.43,0-3.64,0-.57-.33-.92-.86-.92-.53,0-.83,.34-.84,.93,0,.61,0,1.21,0,1.82Zm13.58-.01c0-.61,0-1.21,0-1.82,0-.59-.32-.93-.85-.92-.52,0-.85,.35-.85,.93,0,1.21,0,2.43,0,3.64,0,.57,.34,.93,.86,.93,.52,0,.84-.35,.84-.94,0-.61,0-1.21,0-1.82Zm-6.67,7.08h0c.21,0,.43,0,.64,0,.23,0,.38-.12,.39-.37,.01-.25-.14-.4-.36-.41-.45-.03-.9-.03-1.35,0-.23,.01-.4,.16-.37,.43,.02,.24,.18,.35,.41,.36,.21,0,.43,0,.64,0Z"/></g></svg>