<?xml version="1.0" encoding="UTF-8"?><svg id="Layer_2" xmlns="http://www.w3.org/2000/svg" xmlns:xlink="http://www.w3.org/1999/xlink" viewBox="0 0 1122.71 300.62"><defs><style>.cls-1{fill:url(#linear-gradient-2);}.cls-2{fill:#1b1464;}.cls-2,.cls-3{font-family:JMHTypewriterdry-Regular, 'JMH Typewriter dry';font-size:164.73px;}.cls-4{letter-spacing:-.04em;}.cls-5{letter-spacing:0em;}.cls-6{fill:url(#linear-gradient-3);}.cls-7{fill:url(#linear-gradient);}.cls-3{fill:#4d4d4d;}.cls-8{letter-spacing:-.03em;}</style><linearGradient id="linear-gradient" x1="113.86" y1="241.45" x2="65.21" y2="281.2" gradientTransform="matrix(1, 0, 0, 1, 0, 0)" gradientUnits="userSpaceOnUse"><stop offset="0" stop-color="#1e9cd7"/><stop offset=".5" stop-color="#0075be"/><stop offset=".99" stop-color="#0082cb"/></linearGradient><linearGradient id="linear-gradient-2" x1="219.83" y1="164.69" x2="388.19" y2="236.92" gradientTransform="matrix(1, 0, 0, 1, 0, 0)" gradientUnits="userSpaceOnUse"><stop offset="0" stop-color="#ed297b"/><stop offset=".55" stop-color="#be2983"/></linearGradient><linearGradient id="linear-gradient-3" x1="142.41" y1="122.39" x2="62.11" y2="-14.23" gradientTransform="matrix(1, 0, 0, 1, 0, 0)" gradientUnits="userSpaceOnUse"><stop offset="0" stop-color="#f7a829"/><stop offset=".77" stop-color="#ee7a39"/></linearGradient></defs><g id="Layer_1-2"><g><g><text class="cls-3" transform="translate(356.31 224.46)"><tspan x="0" y="0">SciM</tspan><tspan class="cls-4" x="393.17" y="0">a</tspan><tspan class="cls-5" x="484.55" y="0">t</tspan><tspan class="cls-8" x="571.42" y="0">c</tspan><tspan x="656.04" y="0">h</tspan></text><text class="cls-2" transform="translate(356.31 224.46)"><tspan x="0" y="0">SciM</tspan><tspan class="cls-4" x="393.17" y="0">a</tspan><tspan class="cls-5" x="484.55" y="0">t</tspan><tspan class="cls-8" x="571.42" y="0">c</tspan><tspan x="656.04" y="0">h</tspan></text></g><path class="cls-7" d="M27.49,203.89c13.69,0,25.33,10.59,26.58,24.24,.17,1.8,.05,3.63,.15,5.45,.48,8.55,6.7,13.62,15.19,12.35,2.73-.41,5.27-1.38,7.46-3.12,.89-.71,1.73-1.47,2.58-2.22,6.36-5.62,13.76-8.62,22.24-9.11,6.31-.36,12-2.39,16.58-6.94,3.44-3.42,5.94-7.5,7.43-12.07,1.55-4.76,.64-9.33-1.62-13.81-3.18-6.27-3.23-12.64,.38-18.86,4.33-7.45,12.1-11.15,20.8-9.84,7.29,1.1,13.81,7.4,15.75,15.23,1.8,7.26-1.41,15.94-7.72,20.51-1.27,.92-2.76,1.57-4.22,2.15-1.26,.5-2.6,.92-3.94,1.05-10,.99-15.26,7.05-17.76,16.25-2.5,9.18,.05,17.11,6.18,23.93,5.09,5.67,11.7,7.72,19.16,6.16,7.77-1.63,15.53-3.37,23.19-5.45,9.3-2.52,16.72-8,22.48-15.69,2.04-2.73,3.95-5.56,6.58-7.78,7.18-6.04,15.18-6.8,23.55-3.15,8.35,3.63,12.38,10.42,12.51,19.39,.17,12.12-8.13,21.23-20.21,22.46-3.48,.35-6.75-.58-9.98-1.72-.85-.3-1.65-.76-2.43-1.23-11.78-7.14-24.28-8.09-37.4-4.56-6.79,1.82-13.69,3.24-20.52,4.9-6.66,1.62-11.18,5.78-13.93,11.96-.74,1.66-1.38,3.36-2.01,5.06-1.28,3.45-3.31,6.42-5.67,9.23-11.58,13.75-36.28,18-52.21-.09-4.58-5.2-7.48-11.35-7.98-18.42-.13-1.81-.15-3.63-.32-5.44-.81-8.57-6.98-13.8-14.08-15.58-3.3-.83-6.32,.25-8.92,2.34-2.51,2.01-5.28,3.48-8.2,4.78-15.34,6.83-33.96-4-36.79-20.57-3.14-18.43,12.95-32.7,27.1-31.81Z"/><path class="cls-1" d="M258.89,276.05c-5.55-12.51-.57-27.45,11.41-34.12,1.58-.88,3.3-1.52,4.92-2.34,7.62-3.9,9.74-11.64,5.15-18.89-1.48-2.33-3.4-4.26-5.87-5.56-1.01-.53-2.04-.99-3.07-1.47-7.71-3.54-13.45-9.1-17.33-16.65-2.89-5.63-7.05-10-13.06-12.35-4.52-1.76-9.26-2.4-14.05-1.91-4.98,.51-8.79,3.19-11.97,7.08-4.45,5.44-10.25,8.07-17.4,7.29-8.57-.94-15.09-6.55-17.41-15.03-1.95-7.11,1.18-15.62,7.55-20.57,5.91-4.59,15.15-5.16,21.88-1.25,1.35,.79,2.55,1.89,3.68,2.99,.97,.95,1.9,2.01,2.56,3.18,4.95,8.74,12.63,11.1,22.05,9.66,9.4-1.44,15.62-6.97,19.38-15.34,3.12-6.95,2.32-13.82-2.13-20.01-4.63-6.45-9.37-12.84-14.37-19-6.07-7.48-14.08-12.05-23.44-14.2-3.32-.76-6.68-1.36-9.78-2.87-8.43-4.12-12.36-11.13-12.42-20.26-.06-9.11,4.52-15.54,12.67-19.29,11.01-5.07,22.7-1.16,28.72,9.39,1.73,3.03,2.2,6.41,2.47,9.82,.07,.9-.03,1.82-.15,2.72-1.76,13.67,2.43,25.48,10.97,36.05,4.42,5.47,8.5,11.2,12.79,16.78,4.17,5.43,9.81,7.88,16.58,7.89,1.82,0,3.63-.1,5.45-.21,3.68-.23,7.21,.42,10.73,1.45,17.26,5.03,31.15,25.89,21.06,47.77-2.9,6.3-7.35,11.43-13.61,14.76-1.6,.85-3.26,1.61-4.84,2.49-7.5,4.21-9.79,11.96-8.54,19.18,.58,3.35,2.79,5.68,5.75,7.21,2.85,1.48,5.32,3.42,7.69,5.56,12.45,11.26,10.09,32.67-3.92,41.96-15.58,10.33-35.15,1.4-40.05-11.9Z"/><path class="cls-6" d="M205.71,9.92c-6.77-8.28-15.94-11.43-26.25-9.25-10.81,2.29-18.1,9-20.9,20.06-1.03,4.05-1,8.09-.49,12.17,.46,3.67-.82,6.69-3.5,9.16-5.41,4.99-12.98,6.14-19.64,2.99-1.85-.87-3.6-1.96-5.48-2.73-13.21-5.45-25.53-3.59-36.29,5.58-10.43,8.89-13.48,20.67-10.87,33.91,1.07,5.42,3.62,10.23,7.27,14.45,5.71,6.6,6.91,14.05,4.17,22.27-2.44,7.32-4.71,14.7-7.17,22.01-3.7,11-10.35,19.59-20.8,24.99-.4,.21-.82,.4-1.2,.65-7.34,4.87-11.42,11.46-11.02,20.53,.39,8.88,4.98,15.07,12.66,18.72,7.49,3.57,15.18,2.97,21.94-2.02,8.14-6,11.34-15.82,8.12-24.74-.77-2.13-1.67-4.22-2.48-6.34-3.34-8.71-4.45-17.66-1.88-26.71,2.29-8.07,4.96-16.05,7.76-23.97,2.27-6.41,6.99-10.48,13.54-12.34,10.84-3.08,22.15,1.52,28.41,11.09,3.65,5.59,4.79,11.17,1.83,17.33-.29,.61-.53,1.25-.78,1.89-4.89,12.93,4.88,27.64,19.87,26.57,7.72-.55,13.51-4.12,16.64-11.13,3.06-6.84,2.7-13.8-1.8-20.05-2.53-3.51-5.56-6.62-10.31-7.05-.85-.52-1.76-.64-2.72-.4-1.49-1.39-3.4-1-5.15-1.15-3.33-.29-6.22-1.62-8.3-4.07-5.57-6.55-9.25-13.88-8.03-22.84,.27-1.99,.89-3.93,1.35-5.9,1.17-1.05,1.43-2.5,1.69-3.94,4.34-6.38,4.91-13.48,4.07-20.87-.28-2.48-.72-4.96-.75-7.44-.05-4.84,1.94-8.84,5.81-11.76,3.74-2.82,7.8-3.58,12.1-1.29,1.8,.96,3.52,2.09,5.33,3.03,6.59,3.42,13.5,3.71,20.5,1.69,17.38-5,25.62-27.36,12.74-43.12Z"/></g></g></svg>