<?xml version="1.0" encoding="UTF-8"?><svg id="Layer_2" xmlns="http://www.w3.org/2000/svg" viewBox="0 0 28.14 39.37"><defs><style>.cls-1{fill:#fff;}</style></defs><g id="Layer_1-2"><g><path d="M14.17,29.23c-.34,.33-.55,.51-.74,.71-2.83,2.83-5.65,5.66-8.49,8.48-1.61,1.59-4.1,1.07-4.78-.99-.12-.38-.14-.8-.14-1.2C0,26.1,0,15.97,0,5.84,.01,2.43,2.36,.04,5.76,.02c5.55-.03,11.09-.03,16.64,0,3.36,.02,5.72,2.4,5.73,5.77,.02,10.15,0,20.31,.01,30.46,0,1.34-.49,2.39-1.78,2.89-1.27,.5-2.35,.11-3.3-.85-2.74-2.77-5.51-5.52-8.26-8.28-.21-.21-.38-.47-.63-.79Zm-.01-4.04l11.13,11.18c.01-.16,.03-.28,.03-.4,0-10.11,0-20.21,0-30.32,0-1.65-1.23-2.83-2.93-2.83-5.55,0-11.09,0-16.64,0-1.72,0-2.92,1.19-2.93,2.91,0,10.03,0,20.06,0,30.09,0,.18,.04,.36,.08,.68l11.26-11.31Z"/><path class="cls-1" d="M14.15,25.19L2.9,36.5c-.04-.32-.08-.5-.08-.68,0-10.03,0-20.06,0-30.09,0-1.71,1.2-2.9,2.93-2.91,5.55,0,11.09,0,16.64,0,1.69,0,2.92,1.18,2.93,2.83,0,10.11,0,20.21,0,30.32,0,.12-.02,.24-.03,.4l-11.13-11.18Z"/></g></g></svg>