<?xml version="1.0" encoding="UTF-8"?><svg id="Layer_2" xmlns="http://www.w3.org/2000/svg" viewBox="0 0 24.79 24.79"><defs><style>.cls-1{fill:#4f4d4d;}</style></defs><g id="Layer_1-2"><g><path class="cls-1" d="M0,12.37c0-2.74,0-5.48,0-8.21C0,1.68,1.67,.01,4.16,.01c3.1,0,6.2,0,9.3,0,.13,0,.29-.04,.37,.02,.15,.11,.34,.27,.35,.43,.01,.11-.21,.28-.36,.37-.09,.06-.25,.01-.37,.01-3.09,0-6.18,0-9.26,0-2.06,0-3.35,1.28-3.35,3.34,0,5.46,0,10.93,0,16.39,0,2.07,1.3,3.38,3.36,3.38,5.46,0,10.93,0,16.39,0,2.04,0,3.36-1.31,3.36-3.35,0-3.09,0-6.18,0-9.26,0-.14-.04-.31,.02-.41,.09-.15,.25-.32,.4-.34,.12-.01,.29,.17,.38,.31,.06,.1,.03,.27,.03,.41,0,3.1,0,6.2,0,9.3,0,2.49-1.69,4.17-4.19,4.17-5.46,0-10.93,0-16.39,0C1.68,24.79,0,23.11,0,20.59c0-2.74,0-5.48,0-8.21Z"/><path class="cls-1" d="M21.25,.05c1.63,0,2.8,.77,3.28,2.01,.52,1.34,.26,2.56-.75,3.59-2.03,2.06-4.08,4.09-6.13,6.13-1.97,1.97-3.94,3.95-5.93,5.92-.22,.22-.51,.39-.8,.5-1.62,.61-3.24,1.2-4.87,1.78-.69,.25-1.21,.01-1.34-.61-.04-.19,0-.42,.07-.61,.6-1.69,1.22-3.38,1.84-5.07,.07-.2,.21-.4,.36-.55C11.04,9.1,15.09,5.06,19.14,1.01c.66-.66,1.46-.95,2.11-.96Zm-2.64,2.76L7.99,13.43c.88-.04,1.29,.46,1.35,1.27,.03,.42,.25,.61,.65,.65,.8,.09,1.3,.48,1.38,1.32,0,.03,.04,.07,.05,.08L21.98,6.18l-3.37-3.36Zm4.06,2.74c.89-.72,1.49-1.59,1.21-2.81-.22-.97-.85-1.6-1.82-1.82-1.21-.27-2.11,.27-2.82,1.19l3.44,3.43ZM7.38,14.11c-.38,1.03-.7,2.01-1.09,2.95-.2,.47-.12,.75,.24,1.11,.41,.43,.75,.55,1.32,.3,.92-.4,1.89-.71,2.86-1.06-.05-.19-.12-.33-.13-.48-.04-.48-.32-.65-.76-.78-1.21-.34-.98-.05-1.29-1.36-.02-.09-.04-.19-.08-.28-.04-.08-.1-.17-.18-.2-.28-.08-.56-.14-.87-.22Z"/></g></g></svg>