<?xml version="1.0" encoding="UTF-8"?><svg id="Layer_2" xmlns="http://www.w3.org/2000/svg" viewBox="0 0 154.18 91.71"><defs><style>.cls-1{fill:#febf00;}.cls-2{fill:#f06b07;}</style></defs><g id="Layer_1-2"><g><path class="cls-1" d="M25.26,12.91c6.66-2.28,13.51-3.51,20.54-3.79,.26,.95-.45,1.48-.93,2.1-8.74,11.45-8.29,26.2,1.42,36.78,5.57,6.07,12.68,8.96,20.99,8.74,4.08-.11,8.02-.71,11.61-2.77,1.77-1.02,2.98-.45,4.1,1.07,3.39,4.59,6.48,9.38,9.89,13.95,1.13,1.52,2.16,3.12,3.27,4.67,.44,.61,1.15,1.2,.69,2.14-6.45,3.1-12.74,6.53-19.52,8.92-6.81,2.4-13.81,3.79-20.99,4.17-7.32,.38-14.59-.1-21.82-1.55-5.54-1.12-10.88-2.72-15.9-5.26C7.41,76.39,1.3,67.18,.19,54.68-.92,42.13,2.83,31.19,11.32,21.91c1.13-1.23,2.52-2.22,3.79-3.32,3.15-2.31,6.59-4.1,10.15-5.68Z"/><path class="cls-1" d="M83.78,5.51c11.16-1.51,22.34-2.99,33.63-2.56,7.79,.3,15.4,1.68,22.21,5.85,6.28,3.85,11.18,8.9,13.47,16.08,2.44,7.68,.73,14.42-4.9,20.14-4.8,4.89-10.52,8.47-16.46,11.85-8.25,4.7-16.84,8.71-25.09,13.39-.25,.14-.46,.36-.69,.54-1.07-.04-1.41-.95-1.92-1.62-4.99-6.69-9.7-13.58-14.62-20.33-1.03-1.42-.93-2.64,.04-4,8.06-11.24,6.56-27.33-3.97-36.98-.71-.65-1.76-1.15-1.72-2.38Z"/><path class="cls-2" d="M83.78,5.51c8.6,6.99,12.5,16.02,11.28,27.03-.5,4.51-2.01,8.82-4.92,12.46-1.06,1.32-1.09,2.27,0,3.77,5.37,7.28,10.56,14.69,15.81,22.06,2.97,4.23,5.94,8.46,8.89,12.71,1.35,1.94,1.44,4,.13,5.94-1.2,1.77-2.97,2.52-5.14,2.14-1.64-.29-2.67-1.36-3.59-2.65-3.12-4.39-6.27-8.77-9.41-13.16-4.71-6.68-9.45-13.35-14.12-20.06-1.12-1.6-1.94-2.04-3.99-.96-9.22,4.88-22.21,2.99-30.2-3.79-7.24-6.15-10.71-13.91-10.47-23.28,.18-7.12,2.9-13.34,7.73-18.6C55.29-.86,70.73-3.51,83.78,5.51Z"/><path d="M66.65,50.69c-12.35-.06-21.84-9.68-21.79-22.11,.05-12.28,9.82-21.9,22.18-21.85,11.9,.05,21.62,10.01,21.54,22.06-.08,12.23-9.82,21.95-21.93,21.9Z"/></g></g></svg>