<?xml version="1.0" encoding="UTF-8"?><svg id="Layer_2" xmlns="http://www.w3.org/2000/svg" viewBox="0 0 48.99 50"><defs><style>.cls-1{fill:#e33e2b;}.cls-2{fill:#2ba14c;}.cls-3{fill:#efb401;}.cls-4{fill:#3b7cec;}</style></defs><g id="Layer_1-2"><g><path class="cls-1" d="M2.71,13.72c1.9-3.8,4.61-6.91,8.11-9.3C16.02,.87,21.76-.53,28.02,.18c5.05,.58,9.47,2.57,13.27,5.94,.33,.3,.39,.45,.04,.79-2.1,2.07-4.18,4.16-6.26,6.25-.27,.28-.43,.35-.77,.05-6.04-5.39-16.02-4.45-21.22,2.67-.95,1.3-1.67,2.71-2.24,4.21-.28,.07-.46-.12-.64-.27-2.28-1.8-4.59-3.56-6.88-5.34-.25-.2-.63-.32-.61-.75Z"/><path class="cls-2" d="M10.86,29.89c1.07,2.91,2.77,5.37,5.25,7.26,2.93,2.22,6.23,3.21,9.92,3.02,2.77-.14,5.3-.96,7.65-2.4,.24-.05,.37,.13,.52,.25,2.23,1.73,4.48,3.42,6.69,5.17,.25,.2,.52,.38,.67,.69-1.68,1.67-3.63,2.99-5.81,3.86-9.61,3.85-18.61,2.88-26.79-3.65-2.68-2.14-4.75-4.82-6.25-7.91,.04-.21,.17-.36,.33-.49,2.4-1.78,4.7-3.68,7.09-5.47,.22-.16,.41-.4,.74-.33Z"/><path class="cls-4" d="M41.55,43.88c-.94-.72-1.89-1.43-2.83-2.16-1.69-1.31-3.37-2.63-5.05-3.95,1.15-.9,2.22-1.87,3.05-3.08,.84-1.23,1.41-2.58,1.78-4.02,.12-.46,.06-.66-.51-.65-4.08,.03-8.16,0-12.24,.03-.59,0-.8-.11-.79-.75,.04-2.79,.03-5.57,0-8.36,0-.49,.12-.65,.63-.65,7.43,.02,14.86,.01,22.29,0,.46,0,.65,.09,.73,.6,.84,5.63,.3,11.07-2.12,16.26-1.19,2.56-2.8,4.85-4.95,6.72Z"/><path class="cls-3" d="M10.86,29.89c-2.15,1.65-4.3,3.3-6.45,4.96-.57,.44-1.14,.89-1.71,1.33C1.24,33.41,.42,30.46,.12,27.36c-.46-4.69,.41-9.15,2.44-13.39,.04-.09,.11-.17,.16-.25,1.13,1.07,2.43,1.92,3.64,2.88,1.48,1.18,2.99,2.32,4.49,3.48-.58,1.97-.88,3.96-.73,6.02,.09,1.3,.42,2.54,.74,3.79Z"/></g></g></svg>