<?xml version="1.0" encoding="UTF-8"?><svg id="Layer_2" xmlns="http://www.w3.org/2000/svg" viewBox="0 0 558.22 356.51"><defs><style>.cls-1{fill:#499cc8;}.cls-2{fill:#f8be96;}.cls-3{fill:#252629;}.cls-4{fill:#687474;}.cls-5{fill:#d58d6f;}.cls-6{fill:#e9a87f;}.cls-7{fill:#3889b4;}.cls-8{fill:#3485b1;}.cls-9{fill:#7e8884;}.cls-10{fill:#faae61;}.cls-11{fill:#403b38;}.cls-12{fill:#3889b3;}.cls-13{fill:#9a7a64;}.cls-14{fill:#6e6b62;}.cls-15{fill:#010206;}.cls-16{fill:#f9ae63;}.cls-17{fill:#2f7ea9;}.cls-18{fill:#79a4b9;}.cls-19{fill:#fdfaf5;}.cls-20{fill:#f08420;}.cls-21{fill:#d88638;}.cls-22{fill:#d4b8ae;}.cls-23{fill:#0a0e11;}.cls-24{fill:#9ad3ee;}.cls-25{fill:#4b9bc4;}.cls-26{fill:#f4bda6;}.cls-27{fill:#36383c;}.cls-28{fill:#b29a93;}.cls-29{fill:#000004;}.cls-30{fill:#000101;}.cls-31{fill:#b7601b;}.cls-32{fill:#a0a9a6;}.cls-33{fill:#dcf3fb;}.cls-34{fill:#99d5f0;}.cls-35{fill:#f9cdbb;}.cls-36{fill:#e7a983;}.cls-37{fill:#4f9ec8;}.cls-38{fill:#35393c;}.cls-39{fill:#9ccde0;}.cls-40{fill:#b07b57;}.cls-41{fill:#907a6e;}.cls-42{fill:#f7be98;}.cls-43{fill:#fdceba;}.cls-44{fill:#f8be99;}.cls-45{fill:#fbccb6;}.cls-46{fill:#fad0c0;}.cls-47{fill:#9d978e;}.cls-48{fill:#523f31;}.cls-49{fill:#35383c;}.cls-50{fill:#d78538;}.cls-51{fill:#f1d0be;}.cls-52{fill:#272a2c;}.cls-53{fill:#111516;}.cls-54{fill:#9bd4ef;}.cls-55{fill:#45606c;}.cls-56{fill:#be5f07;}.cls-57{fill:#804616;}.cls-58{fill:#fcd0ba;}.cls-59{fill:#cf741e;}.cls-60{fill:#98d5f0;}.cls-61{fill:#f3bea8;}.cls-62{fill:#2a7da8;}.cls-63{fill:#79a3b8;}.cls-64{fill:#ca7625;}.cls-65{fill:#d88639;}.cls-66{fill:#f7cfbc;}.cls-67{fill:#e8a77f;}.cls-68{fill:#ee8521;}.cls-69{fill:#92c2d7;}.cls-70{fill:#fccfbd;}.cls-71{fill:#82726e;}.cls-72{fill:#6d9eb2;}.cls-73{fill:#fcc8b1;}.cls-74{fill:#a1c4d0;}.cls-75{fill:#e37a16;}.cls-76{fill:#000205;}.cls-77{fill:#89634b;}.cls-78{fill:#75a2b7;}.cls-79{fill:#101216;}.cls-80{fill:#84abba;}.cls-81{fill:#d18c6b;}.cls-82{fill:#2d7ea8;}.cls-83{fill:#35383d;}.cls-84{fill:#3f3222;}.cls-85{fill:#709caf;}.cls-86{fill:#4e96b9;}.cls-87{fill:#4a9bc7;}.cls-88{fill:#f8be98;}.cls-89{fill:#ecfbfe;}.cls-90{fill:#324c57;}.cls-91{fill:#be8864;}.cls-92{fill:#fead60;}.cls-93{fill:#a56739;}.cls-94{fill:#c36f1b;}.cls-95{fill:#242627;}.cls-96{fill:#499cc7;}.cls-97{fill:#7ba7bc;}.cls-98{fill:#85726e;}.cls-99{fill:#584d47;}.cls-100{fill:#768686;}.cls-101{fill:#82817f;}.cls-102{fill:#fdae60;}.cls-103{fill:#499dc7;}.cls-104{fill:#4a9cc8;}.cls-105{fill:#34373d;}.cls-106{fill:#bd5e06;}.cls-107{fill:#35393d;}.cls-108{fill:#204c5d;}.cls-109{fill:#2e7eaa;}.cls-110{fill:#45433e;}.cls-111{fill:#eb8524;}.cls-112{fill:#d9825c;}.cls-113{fill:#839aa7;}</style></defs><g id="Layer_1-2"><g><path class="cls-113" d="M191.09,92.86c.95-1.08,1.29-2.3,1.27-3.77-.08-6.22-.05-12.43-.06-18.65,2.24-1.37,4.81-1.24,7.28-1.58,4.22-.78,8.1-2.41,11.73-4.64,11.95-7.61,17.72-18.4,16.83-32.64-.07-1.05-.58-2.19,.4-3.12,45.55,0,91.11,0,136.66,0,6.17,0,8.03,1.85,8.04,7.98,0,5.59,.02,11.18,.04,16.77,.13,.37,.04,.68-.27,.93-1.32,.85-2.82,.69-4.27,.69-8.79,.03-17.57-.03-26.36,.03-4.3,.03-4.99,.7-5,4.93-.04,10.25-.05,20.5,0,30.75,.02,4.07,.56,4.58,4.65,4.6,8.97,.05,17.94-.01,26.91,.04,1.51,0,3.16-.3,4.35,1.09-.03,24.64-.05,49.28-.08,73.92,0,3.02,.07,6.05-.03,9.07-.12,3.6-2.38,6-5.81,6-20.61,.02-41.22-.02-61.83-.04-1.95-3.29-1.41-6.88-1.19-10.4,.07-1.06,.85-1.58,1.98-1.17,1.69,1.21,2.14,3.3,3.37,4.86,2.82,3.56,5.03,4.39,9.19,3.25,4.15-2.85,5.4-7.18,6.02-11.82,.64-4.82,.76-9.67,.56-14.51-.13-3.21,.57-6.38,.29-9.58-.44-3.74-.3-7.5-.18-11.23,.14-4.25-.39-8.4-1.32-12.5-1.34-5.94-5.16-9.63-10.81-11.74-7.61-2.85-15.32-5.52-22.33-9.77-1.1-.67-2.23-1.28-2.7-2.6-.76-2.75,.06-5.41,.48-8.09,.07-.45,.37-.88,.32-1.32-.34-3.19,.99-5.48,3.35-7.59,2.05-1.83,1.8-3.03-.24-4.94-.47-1.41-.11-2.88-.35-4.32-.55-3.36-2.35-5.71-5.66-6.24-3.73-.6-7.6-1.29-11.18,.84-2.27,1.25-3.39,3.32-3.82,5.75-.32,1.8-.38,3.62-1.63,5.15-.65,.8-.18,1.75,.26,2.58,.55,1.04,1.32,2.01,1.27,3.29-1.23,4.02-.46,7.86,1.03,11.64,.02,1.2-.97,1.97-1.28,3.03-.75,1.52-2.14,2.24-3.61,2.77-5.86,2.11-11.63,4.49-17.6,6.27-8.3,2.47-13.78,7.61-15.92,16.19-1.09,4.35-2.25,8.68-3.53,12.98-.43,1.24-.38,3.05-2.08,3.13-1.51,.07-1.75-1.63-2.29-2.73-.72-1.47-1.35-2.98-1.52-4.64-.17-1.47-.58-2.86-1.32-4.15-.26-3.39-2.39-6.59-1.21-10.12-2.54,.41-2.57,.32-2-6.47-2.27,1.41-2.78-.12-3.14-1.7-3.81,1.54-3.85,4.92-4.02,8.24-.02,.37,0,.86-.26,1.05-2.48,1.82-.73,3.64,0,5.43,.68,1.68,2,3.1,2,5.05-1.31,1.98,.55,3.35,.98,5,1.06,3.17,1.09,6.52,1.15,9.75,.16,10.37,2.17,20.27,6.45,29.71,2.66,4.79,8.03,5.18,11.38,.79,3.35-4.39,6.01-9.18,8.29-14.2,.55-1.21,.92-3,3.04-2.41,1.84,1.93,2.07,4.48,2.31,6.88,.61,6.04-.56,12.07-.56,18.11,0,1.03-.4,1.98-1.38,2.55-15.85,0-31.71,.03-47.56,0-3.24,0-5.34-1.78-5.95-4.96-.24-1.25-.28-2.55-.28-3.82-.01-27.31,0-54.62-.02-81.93,0-.47,.45-1.07-.25-1.42-.06-.03-.18,.03-.25,.08-.08,.05-.13,.12-.2,.19-.49,.12-.8,.06-.53-.55Z"/><path class="cls-32" d="M285.83,356.35c-20.35,.03-40.69,.15-61.03,.03-6.6-.04-10.79-5.75-9.2-12.08,9.65-38.39,19.34-76.76,29.05-115.13,1.17-4.64,3.76-8.3,8.13-10.53,.64-.33,1.39-.55,1.6-1.39,.43-.43,.98-.54,1.53-.42,5.26,1.09,10.59,.57,15.89,.57,2.95,0,4.75,1.19,6.13,3.71,7.17,13.09,13.8,26.48,21.53,39.26,1.25,2.07,1.53,4.23,.99,6.6-1.31,5.81-2.74,11.59-4.11,17.38-3.38,14.32-4.36,28.95-6.15,43.49-.24,1.96,1.21,3.21,1.31,4.94-.31,3.21-.04,6.52-1.61,9.52-1.63,3.85-3.69,7.58-3.35,11.99,.04,.79-.15,1.5-.7,2.09Z"/><path class="cls-34" d="M481.49,315.72c-24.01,0-48.02,.01-72.04,0-4.75,0-5.98-1.26-5.98-6.03,0-33.18,0-66.35,0-99.53,0-5.04,1.11-6.15,6.07-6.16,7.7,0,15.4-.02,23.1-.03,1.79,.41,2.09,1.87,2.14,3.33,.05,1.4-1.2,1.6-2.23,2.02-3.35,1.35-4.02,3.82-2.12,6.81,1.89,2.99,4.22,5.79,4.75,9.47-.39,1.66,.13,3.2,.57,4.78,.99,3.57,2.32,7.04,3.17,10.66,2.03,8.19,4.37,16.29,7.11,24.27,1.23,3.59,3.62,5.39,7.39,6.03,9.13,1.54,18.29,2.83,27.47,4.03,1.26,.16,2.56,.27,3.73,.86,1.19,1.53-.29,2.3-1.04,3.11-1.36,1.46-2.63,2.94-3.37,4.82-.54,1.38-.79,2.76-.15,4.19,.44,2.05,1.15,3.99,2.17,5.81,1.39,2.48,2.18,5.14,2.43,7.96,.31,4,.69,8,1.58,11.93-1.06,2.02-2.76,2.24-4.73,1.67Z"/><path class="cls-83" d="M290.74,332.77c-3.44-4.8-.65-9.85-.33-14.69,1.19-17.75,4.89-35.1,9.32-52.3,.4-1.54,.23-2.84-.58-4.17-8.03-13.23-14.92-27.08-22.35-40.64-1.09-1.98-2.33-2.94-4.72-2.8-3.74,.21-7.51,0-11.26,.08-2.23,.04-4.37-.28-6.46-1-4.5-2.79-6.72-6.93-7.12-12.13,.38-3.11,.48-6.22-.06-9.33l-.16,.05-.1-.13c-.9-2.13,.25-3.45,1.82-4.62,5.87-4.38,12.41-7.28,19.56-8.75,2.84-.58,5.68-1.39,8.65-1.16,8-.21,15.67,1.13,22.88,4.74,1.57,.78,3.07,1.65,4.1,3.13,.26,.37,.34,.83,.54,1.23,12.28,14.56,24.66,29.06,35.99,44.38,2.23,3.01,3.2,6.92,6.26,9.49,.91,.76,1.68,1.64,2.89,1.92,.68,2.54,.4,3.12-2.01,3.02-2.2-.09-3.42,.71-3.98,2.82-.4,1.51-1.36,1.5-2.45,.61-.39-.38-.77-.77-1.19-1.12-1.52-1.29-2.89-3.2-4.64-3.67-1.73-.46-3.16,1.73-4.75,2.69-2.88,1.74-2.86-1.49-4.24-2.28-.98-.34-1.78-.92-2.44-1.72-3.07-3.71-6.21-7.37-8.97-11.19,2.88,10.25,5.05,20.75,7.4,31.21,.85,3.78,.45,7.46-.53,11.14-3.46,13.03-7.48,25.89-11.27,38.82-1.09,3.7-1.91,7.45-1.95,11.34-.06,5.4-1.07,6.26-6.42,5.71-3.8-.43-7.62-.5-11.44-.67Z"/><path class="cls-20" d="M276.97,181.92c-9.75,.67-18.74,3.56-26.83,9.13-1.69,1.16-3.26,2.33-3.22,4.65-1.13-.62-1.18-1.56-1.12-2.76,.13-2.56,.96-5.09,.33-7.67,.71-7.18,1.42-14.38,.82-21.57-.16-1.97-.2-4.4-1.89-6.08-.88-1.08-.17-2.09,.18-3.08,.82-2.33,1.94-4.54,2.84-6.83,1.63-4.14,1.27-4.96-2.98-6.85-3.74-1.99-7.71-3.18-11.91-3.68-1.24-.15-2.56-.25-3.43-1.39,1.63-6.95,2.71-14.14,6.38-20.37,3.55-6.03,9.76-8.4,16.15-10.39,5.36-1.67,10.6-3.72,15.87-5.66,1.01-.37,2.02-.93,2.31-2.16,1.18-1.49,2-.56,2.63,.49,.81,1.37,1.36,2.89,2.15,4.28,1.85,3.95,4.19,7.65,6.12,12.3,2.98-5.19,4.2-10.41,6.07-15.36,.36-.59,.69-1.21,1.54-1.13,2.85,2.97,6.62,4.43,10.26,6,5.08,2.2,10.33,4,15.46,6.08,6.27,2.54,9.69,7.14,10.84,13.94,1.24,7.3,.77,14.59,.88,21.89-2.5,1.51-5.33,1.71-8.12,2-1,.1-1.88-.37-2.31-1.21-1.29-2.51-3.33-3.49-6.06-3.3-.55,.04-1.08-.16-1.52-.53-.52-1.08,.39-1.36,1.01-1.42,2.24-.21,2.25-1.52,1.99-3.28-.33-2.3-1.24-4.76,.77-6.35-1.15,1.29-1.9,3.39-3.57,4.87-1.79,1.59-3.66,3.02-5.79,4.12-2.03,1.05-4.04,2.11-6.2,2.92-3.2,1.19-6.44,1.16-9.74,.76-1.64-.19-2.42-1.12-2.45-2.74-.04-2.29-.03-4.57-.01-6.86,1.28-7.14,4.09-13.97,4.73-21.44-1.28,.19-1.22,.95-1.28,1.49-.63,5.31-2.56,10.3-3.69,15.49-.26,1.19-.75,2.43-2.17,2.5-1.26,.06-1.54-1.18-1.87-2.09-1.63-4.38-3.42-8.7-5.07-13.07-.42-1.1-.71-2.27-1.72-3.56-.37,1.78,.24,3.08,.74,4.36,2.32,5.98,4.65,11.96,7.05,17.9,.38,.93,.78,1.86,.93,2.87,.48,3.4-.62,6.77-.25,10.18-2.38,.67-3.29,2.16-3.01,4.66,.23,2.07,.27,4.19,.14,6.28-.1,1.67,.5,3,1.63,4.17,.59,1.43,.19,2.88,.02,4.29-.44,3.69-.9,7.37,0,11.07,.33,1.36-.25,2.07-1.72,1.97-.62-.04-1.27-.1-1.88,.17Z"/><path class="cls-34" d="M104.68,135.32c17.93-.01,35.85-.09,53.78,.01,5.78,.03,6.51,1.75,6.3,6.25-.17,3.56-.05,7.13-.02,10.7,0,.97-.29,2.04,.57,2.85,.7,1.08-.45,2.11-.1,3.18-.42,1.6-.5,3.23-.5,4.88,.01,26.27,0,52.53,0,78.8,0,4.08-1.35,5.49-5.33,5.49-10.52,0-21.05-.05-31.57-.08,.47-1.55,1.83-1.28,2.94-1.33,2.38-.11,4.77,0,7.15-.05,2.62-.05,2.83-.34,1.71-2.66-1.71-3.55-3.45-7.09-5.3-10.57-1.32-2.5-1.68-5.11-1.95-7.9-1.11-11.45,.56-22.88,.08-34.32-.18-4.25-.71-8.4-2.54-12.29-1.97-4.19-5.08-7.13-9.54-8.53-3.15-.99-6.27-2.02-9.21-3.56-1.56-.82-3.28-1.14-5.07-.84-1.68-.18-3.09-.97-4.38-2.01-.79-2.19-.82-4.6-1.89-6.71-.05-.86,.32-1.59,.8-2.26,3.35-4.68,4.2-9.88,3.4-15.48-.18-1.23-.38-2.55,.69-3.58Z"/><path class="cls-92" d="M494.7,136.45c-.98,2.71-1.05,5.53-.95,8.35,.07,1.85-.47,2.57-2.46,2.56-17.87-.07-35.74-.06-53.61,0-1.83,0-2.36-.63-2.32-2.39,.21-9.91,2.19-19.41,6.39-28.41-.18-.4-.1-.76,.16-1.1,4.22-6.92,7.04-14.39,8.86-22.26,1.03-4.47,1.37-9.05,1.51-13.61,.07-2.15,.69-2.84,2.85-2.81,8.33,.1,16.67,.04,25.01,.04,9.07,0,18.14,0,27.21,0,3.42,0,3.44,.01,3.33,3.55-.35,11.36-3.53,21.96-8.67,32.03-3.09,6.05-5.43,12.39-6.94,19.03-.31,1.36-.33,2.72-.21,4.09,.24,.35,.2,.66-.13,.93Z"/><path class="cls-32" d="M302.23,332.77c5.26-.24,5.34-.24,5.53-5.72,.29-8.38,3.7-15.98,5.85-23.89,2.1-7.76,4.24-15.53,6.78-23.15,2.52-7.56,1.04-14.79-.77-22.11-1.91-7.72-3.78-15.44-5.63-23.18-.13-.56-.49-1.16-.03-1.94,4.17,5.16,8.28,10.25,12.4,15.34-.84,2.04,.32,3.88,.78,5.7,4.31,17.37,8.79,34.7,13.16,52.06,.44,1.75,1.23,2.31,3.03,2.2,5.45-.33,10.21-2.59,14.93-5.01l.1,.14c-3.14,3.42-7.41,4.48-11.67,5.31-5.49,1.07-5.5,.91-4.07,6.46,2.44,9.48,4.72,19,7.32,28.43,2.3,8.32-4.17,13.26-10.05,13.1-8.34-.23-16.68-.08-25.02-.1-.16-.17-.33-.33-.51-.48-.5-.36-.89-.82-1.26-1.3-2.74-3.27-6.5-5.24-9.83-7.75-1.61-1.22-3.27-2.38-3.44-4.66,.55-3.21,.2-6.65,2.41-9.44Z"/><path class="cls-104" d="M373.3,96.29c-10.79-.03-21.59-.06-32.38-.09-3.79-.01-4.54-.69-4.55-4.44-.03-11.16-.02-22.32,0-33.48,0-3.29,1.15-4.43,4.48-4.44,10.79-.03,21.59-.02,32.38-.02,6.27-.58,12.56-.09,18.84-.25,1.02-.02,1.51,.63,1.74,1.45,1.01,3.58,3.43,5.7,6.87,6.82,.44,.14,.81,.42,1.07,.81,0,9.88,.02,19.76,0,29.65,0,3.44-.53,3.92-4.02,3.93-8.14,.03-16.29,.04-24.43,.06Z"/><path class="cls-104" d="M105.79,164.74c1.83-.65,3.59-.51,5.28,.44,2.73,1.52,5.64,2.61,8.64,3.45,8.12,2.25,11.91,8.15,13.02,15.97,1.17,8.19,.79,16.44,.14,24.66-.51,6.43,.46,12.8,.65,19.21,.05,1.69,1.34,3.36,2.14,5,1.73,3.54,3.52,7.05,5.27,10.59,1.46,2.94,1.44,2.85-1.96,2.97-3.73,.13-7.48-.56-11.18,.38-3.48,7.39-6.37,8.1-12.64,2.6-2.22-1.95-4.56-2.72-7.31-2.91-.98-3.89-3.34-7.07-5.35-10.43-2.96-4.57-5.52-9.38-8.19-14.12-1.64-2.92-.88-4.54,1.94-4.6,1.42,2.1,2.93,.88,4.35,.06,2.02-1.17,3.08-2.77,1.84-5.14-.24-1.3,.12-2.86-1.57-3.52-1.76-2.49-3.02-5.18-3.45-8.23,.38-7.02,3-13.5,4.9-20.15,1.01-3.5,2.2-6.94,3.33-10.4,.64-1.98,.85-3.87,.14-5.84Z"/><path class="cls-34" d="M435.38,204.07c23.88,.03,47.76,.06,71.64,.09-.11,1.09-1.05,1.43-1.78,1.93-1.36,.92-2.76,1.79-4.1,2.75-4.16,2.99-7.22,6.7-7.8,12.02-.18,1.6-1,2.92-1.88,4.21-.22,.33-.47,.64-.75,.93-2.78,2.5-2.55,5.7-2.07,8.95,.09,.24,.15,.49,.19,.75,.51,4.4,3.13,6.21,7.88,5.29,1.82-.35,3.57-.55,5.24,.51,.61,2.96,.6,5.91,.01,8.86-1.35,1.87-3.59,2.69-5.14,4.33-5.47,2-11.18,2.8-16.94,3.03-6.12,.24-12.26,.05-18.39,.06-2.07,0-3.81-.52-4.79-2.52-2.94-5.99-6.35-11.76-8.56-18.1-1.28-3.4-2.72-6.74-3.99-10.14-.6-1.61-1.5-2.86-2.94-3.75-.91-3.04-1.85-6.07-2.6-9.15-.58-2.38-1.29-4.7-2.63-6.81-.58-.92-1.46-1.96-.61-3.23Z"/><path class="cls-34" d="M36,134.68c1.04,.76,2.25,.6,3.43,.6,10.93,.01,21.86,.02,32.79,.04,.66,.49,.82,1.23,.71,1.95-.42,2.73,.21,5.48-.04,8.14-.33,3.63-.03,7.02,1.43,10.33-.08,.87-.59,1.52-1.19,2.07-2.15,2-2.88,4.52-2.81,7.36,.11,1.93-.67,3.26-2.44,4.19-3.31,1.74-4.95,4.74-5.77,8.27-.6,2.59-.83,5.25-.97,7.88-.44,8.2-.76,16.41-1.21,24.61-.09,1.72,.28,3.82-1.38,4.78-1.76,1.02-3.2-.76-4.65-1.57-4.59-2.59-8.44-6.06-11.76-10.14-1.08-1.33-2.14-2.76-4-3.14-2.12-1.32-3.31-3.52-4.93-5.31-.63-.7-.74-1.64-.04-2.49,1.6-1,3.4-.48,5.1-.68,2.42-.29,3.18-1.14,2.46-3.48-2.36-7.71-5.08-15.31-7.66-22.95-.52-1.53-1.74-1.59-3.12-1.61-1.68-.03-3.42,.99-5.04-.25,.68-.97,.54-2.09,.55-3.18,0-6.39,0-12.78,0-19.17,0-4.15,1.39-5.53,5.57-5.63,1.28-.03,2.56-.06,3.83-.08,.26-.41,.81-.22,1.12-.54Z"/><path class="cls-34" d="M228.55,28.48c2.26,14.59-2.79,26.17-14.43,35.03-.71,.54-1.58,.89-2.38,1.32-1.09,0-1.6-.65-1.8-1.64,.18-2.2,1.38-4.1,1.85-6.25,.79-3.64-.03-6.84-1.76-9.96-.88-1.59-1.89-3.11-2.73-4.73-.69-2.46-.01-4.88,.21-7.31,.43-4.65,.44-9.28-.43-13.88-.24-1.25-.54-2.5-1.35-3.53-5.33-4.48-11.63-5.81-18.37-5.53-1.63,.07-3.24,.53-4.86,.79-4.56,.72-6.65,3.53-7.42,7.9-.94,5.36-.55,10.75-.75,16.12-.14,3.65-.11,7.3,.04,10.95,.09,.96-.02,1.91-.19,2.85-.67,2.79-.59,5.61-.16,8.41,.15,1,.31,1.98,.11,2.98-.49,1.3-1.34,1.87-2.73,1.36-2.87-1.22-4.84-3.4-6.75-5.8-2.15-2.71-4.37-5.28-5.76-8.54-5.53-12.93-3.89-24.96,4.92-35.73C172.63,2.52,184.33-1.29,198.06,.38c14.92,1.82,26.99,13.21,30.49,28.1Z"/><path class="cls-102" d="M56.65,297.62c4.95-1.49,9.89-2.99,14.84-4.47,17.42-5.2,34.84-10.39,52.25-15.61,2.97-.89,5.9-1.93,8.85-2.88,.69-.22,1.56-.53,2.05,.13,.4,.54-.2,1.19-.51,1.74-7.09,12.57-14.24,25.12-21.25,37.74-1.22,2.19-2.52,2.67-4.8,1.76-3.14-1.26-6.48-2.03-9.55-3.42-2.46-1.11-3.93-.12-5.53,1.42-4.15,4-8.39,7.91-12.5,11.94-1.65,1.62-2.32,1.6-2.88-.84-1.44-6.23-3.19-12.39-4.63-18.62-.47-2.02-1.59-2.81-3.39-3.42-4.36-1.49-8.64-3.19-12.96-4.8v-.65Z"/><path class="cls-96" d="M543.16,274.46c2.61,10.35,5.54,20.62,7.44,31.14,.14,.8,.18,1.62,.26,2.43-.39,1.2-1.42,1.61-2.48,1.94-8.86,2.76-17.88,4.65-27.17,5.02-3.97,.16-4.54-.37-4.9-3.76-.32-3,.12-3.49,3.87-4.27,3.18-.81,6.44-1.22,9.61-2.1,2.76-.76,2.78-.96,1.78-3.54-1.42-3.66-3.48-7.02-4.95-10.66-1.29-3.71-3.85-6.85-4.54-10.46-.51,1.8-2.02,3.08-3.48,4.32-.89,.76-2.07,1.15-3.14,1.66-3.29,1.57-3.79,1.41-5.4-1.87-.75-1.52-1.85-2.52-3.57-2.56-1.79-.04-2.77,1.11-3.52,2.59-1.24,2.46-6.3,3.19-8.18,1.2-.8-.85-.51-1.87-.37-2.86,.75-2.7,2.12-5.1,3.52-7.49,3.27-6.34,7.08-12.23,13.23-16.21,.56-.38,.87,.61,1.84,0,2.74-1.75,5.39-3.67,8.31-5.14,5.8,2.27,11.29,5.16,16.32,8.82,3.92,2.85,4.67,7.4,5.52,11.81Z"/><path class="cls-34" d="M543.16,274.46c-.41-1.19-.9-2.36-1.21-3.58-1.8-7.02-7.62-9.81-13.31-12.77-2.5-1.3-5.16-2.29-7.44-4-.7-.12-1.09-.63-1.39-1.19-.88-1.62-1.63-3.43-3.92-1.52-.27,.23-.55-.34-.75-.63-.6-2.23-.47-4.47-.15-6.72,1.6-2.62,3.96-4.22,6.86-5.05,1.32-.38,2.68-.62,4-1,1.32-.38,2.45-1.14,2.74-2.46,.92-4.28,2.05-8.63-.96-12.64-.19-.21-.35-.44-.48-.68-2.21-2.56-3.21-5.58-3.62-8.91-.29-2.37-1.57-4.42-2.77-6.46-.49-.83-1.32-1.58-.79-2.71,6.05-.04,12.09-.11,18.14-.11,3.14,0,4.58,1.54,4.58,4.79,.01,19.52,0,39.03,.04,58.55,0,2.37,.29,4.73,.44,7.1Z"/><path class="cls-90" d="M519.96,204.14c2.75,3.69,4.81,7.65,4.93,12.39,.06,2.37,2.37,3.57,2.94,5.66-1.15,1.39,.83,1.98,.76,2.54,0-.57-1.69-1.23-.79-2.58,1.91,1.57,2.41,3.81,2.56,6.04,.14,2.07,.04,4.21-.35,6.24-.47,2.39-1.53,4.53-4.5,4.65-3.91,.16-6.95,2.17-9.8,4.59-1.66,1.55-3.62,1.54-5.65,1.09-.42-.09-.92-.3-.89-.86,.04-.56,.53-.71,.98-.76,1.2-.14,2.46,.11,3.78-.53-2.76,.99-5.02,.36-7-1.42-2.29-2.05-2.15-3.83,.78-4.81,5.95-1.99,5.35-10.16,1.38-13.03-1.6-1.16-3.68-1.11-5.24-2.29-.54-1.8-1.37-3.38-3.26-4.1-.88,1.54-1.91,2.92-3.47,3.84-1.33,.78-1.98,1.57-.39,2.86,1.12,.9,1.57,2.02-.49,2.37-1.14,.2-.85,.96-.79,1.67,.18,2.19,.49,4.37,1.04,6.5,.53,2.05,1.39,3.73,3.71,4.31,1.22,.31,2.31,.99,1.12,2.52-.84,.48-1.32,1.53-2.48,1.57-.48-.83,.75-.83,.69-1.43-5.41,1.27-10.91,2.69-11.33-5.82,.21-.18,.75,.06,.68-.19-.95-3.42-.08-6.49,1.73-9.4,.15-.24,.11-.52-.02-.78,1.13-1.67,1.92-3.42,2.21-5.48,.99-7.15,6.48-10.56,11.91-13.99,.76-.48,1.55-.92,2.33-1.37,3.15-1.91,6.67-1.06,10.04-1.37,1.28-.12,1.95,.87,2.9,1.34Z"/><path class="cls-34" d="M85.01,247.42c-18.3,.02-36.6,.07-54.9,.05-2.86,0-4.6-1.6-4.61-4.33-.05-15.47-.02-30.93,.01-46.4,0-.51,.29-1.02,.45-1.53,1.65,3.1,3.69,6.01,4.8,9.38-.52,1.34-.13,2.46,.74,3.55,6.39,8.01,12.5,16.26,19.27,23.96,3.01,3.42,6.59,6.35,10.37,8.95,2.99,2.06,5.2,1.43,7.01-1.7,.43-.75,.7-2.05,1.81-1.64,.96,.36,.66,1.56,.55,2.47-.02,.18-.06,.36-.09,.54-.87,5.4-.87,5.38,4.49,5.41,2.84,.01,5.67-.11,8.51,.07,.73,.14,1.46,.28,1.58,1.21Z"/><path class="cls-40" d="M206.7,17.15c2.61,5.79,2.06,11.88,1.8,17.96-.1,2.34-.93,4.63-.43,7,.29,2.6-.7,4.9-2.19,6.82-2.31,3-2.82,6.2-2.06,9.76,.09,.44,.07,.91,.05,1.36,.05,3.77-1.25,6.98-3.98,9.6-2.55,.11-5.01,.97-7.59,.8-.61-.09-1.22-.17-1.83-.26-3.57-.83-5.06-3.96-6.98-6.52-.89-1.19-1.57-2.64-1.95-4.16,1.33-4.49,1.74-9.1,1.28-13.72-.25-2.55-1.22-4.93-3.6-6.46-1.01-.65-1.61-1.71-2.12-2.8-.71-1.21-1.14-2.48-.9-3.91,.37-2.18,1.95-3.63,4.1-3.71,2.16-.08,3.39,1.03,3.9,3.07,.15,.62,.24,1.26,.54,1.82,.87,1.05,.65,2.43,1.09,3.61,.56,1.5,1.58,2.44,3.15,2.68,1.31,.2,2.33-.4,2.99-1.49,.88-1.45,.44-2.78-.59-4-.52-.62-1.1-1.23-1.16-2.11,.12-1.2,1.13-1.55,1.96-2.1,2.61-1.72,4.84-3.84,6.64-6.4,.34-.55,.74-1.05,1.21-1.49,2.28-1.72,3.81-4.38,6.68-5.36Z"/><path class="cls-107" d="M557.94,178.67c-.65,1.52-1.95,1.73-3.39,1.72-3.29-.01-6.58,.14-9.85-.03-4.15-.22-7.97,.6-11.45,2.91-.66,.44-1.4,.76-2.07,1.11-.24-.26-.47-.41-.44-.5q.89-3.41-2.72-3.5c-3.03-.07-3.88-.92-3.94-3.93-.06-3.46-.1-6.93-.14-10.39-.31-.37-.32-.72,.04-1.07h0c.58-3.86,0-7.74,.31-11.6,.36-.85,.86-1.52,1.88-1.58,4.07,.49,8.16,.21,12.23,.2,5.99-.02,11.98,.27,17.97-.16,.95,.11,1.47,.66,1.61,1.6-.37,8.41-.27,16.81-.05,25.22Z"/><path class="cls-38" d="M11.75,108.82c-1.72-.33-2.05-1.66-2.06-3.08-.03-7.3-.02-14.6-.01-21.9,0-1.25,.29-2.36,1.55-2.95,9.33-.21,18.67-.1,28-.06,1.08,.32,1.59,1.06,1.63,2.17-.4,7.87-.38,15.74-.01,23.62-.16,1.65-1.2,2.28-2.72,2.48-3.46,.46-3.46,.5-1.88,3.82-.6,.83-1.17,.18-1.62-.12-4.75-3.2-10.04-4.04-15.64-3.68-1.35,.09-2.71-.12-4.07-.19,2.93-.79,5.86-.17,8.79-.4-3.98,.19-7.97-.28-11.96,.28Z"/><path class="cls-28" d="M73.86,156.1c-3.72-5.71-1.46-12.03-1.86-18.08-.06-.89,.14-1.8,.21-2.7,1.32-4.5,3.06-8.76,6.31-12.3,2.22-2.42,4.86-3.21,7.93-2.52,4.29,.96,8.43,2.41,12.29,4.59,3.1,1.75,4.69,4.5,5.37,7.89,.16,.79-.07,1.67,.57,2.35,.13,4.51,.98,8.95-.31,13.53-.86,3.04-2.97,5.16-4.15,7.88-.25,.12-.49,.11-.72-.04-1.52-1.77-1.02-3.48,.16-5.17,1.16-1.67,1.65-3.05-1.1-3.61-.98-.2-1.72-.97-1.88-2.09,.01-.26,.1-.5,.24-.71,.35-.18,.72-.18,1.06-.04,1.49,.64,2.95,1.28,3.97-.73,.81-1.59,.39-4.1-.98-5.3-.34-.3-.83-.38-1.25-.57-.48-.22-.92-.5-1.18-.98,.15-1.31,1.12-1.19,2.13-1.19-2.99-1.68-5.8-3.51-8.56-5.41-2.74-1.89-2.81-1.87-4.21,1.27-.93,2.08-1.69,4.23-2.51,6.36-1.14,2.16-3.29,1.84-5.2,2.1-1.19,.13-2.78-.35-3.05,1.46-.29,1.95,.79,3.29,2.48,4.1,.94,.45,2.41,.2,2.74,1.44,.69,2.58,3.3,4.46,2.72,7.49-.89,1.06-2.05,1.68-3.37,2.03-1.29,.1-2.47-.45-3.66-.7,1.23,.6,2.69,.8,3.73,1.87,.11,.26,.14,.53,.08,.81-.41,.84-1.17,.87-1.87,.64-2.3-.78-4.7-1.42-6.13-3.66Z"/><path class="cls-8" d="M520.76,307.32c-.38,.22-.77,.65-1.14,.63-2.41-.1-2.66,.79-2.46,3.17,.23,2.75,1.11,3.15,3.58,3,10.34-.64,20.43-2.36,30.13-6.1,.21,.98,.51,1.95,.63,2.94,.67,5.52-1,7.49-6.58,8.12-8.12,.91-16.29,1.21-24.42,1.06-5.66-.11-11.34-.51-17.02-.59-.89-.01-1.65-.08-1.83-1.14-1.18-2.17-1.18-4.55-1.18-6.92-.3-1.61,.29-2.93,1.91-3.03,5.99-.37,11.84-1.98,17.88-1.84,.36,.1,.53,.33,.51,.7Z"/><path class="cls-103" d="M24.92,163.28c1.9-.22,3.83-.35,5.71-.7,1.82-.34,2.73,.41,3.27,2.05,2.58,7.82,5.23,15.61,7.77,23.44,.99,3.06,.1,4.22-3.18,4.38-1.74,.08-3.48,.06-5.22,.09-1.35-2.53,1.1-2.23,2.14-3.01-.98-.2-2.05,.03-3.08-.14-.78-.13-1.82-.07-1.88-1.16-.04-.83,.77-1.16,1.47-1.42,1.28-.47,2.66-.62,4.12-1.3-1.7-.07-3.08,.48-4.53,.46-.65,0-1.39-.1-1.63-.78-.23-.68,.33-1.18,.81-1.62,1.28-1.18,3.18-1.21,4.96-2.62-2.52,.34-4.45,.79-6.32,1.54-1,.4-2.18,1.03-2.99-.16-.84-1.23-.31-2.45,.56-3.52,.63-.77,1.52-1.28,2.3-2.16-2.38,.4-3.63,2.28-5.45,3.22-1.9-4.12-3.05-8.51-4.46-12.8-.62-1.89,.22-2.96,2.14-3.24,1.17-.17,2.33-.36,3.49-.54Z"/><path class="cls-56" d="M341.17,252.5c1.04,.24,1.8,.49,1.84-1.21,.05-2.45,1.7-3.84,3.96-3.17,2.3,.69,2.71-.17,2.64-2.07,1.81,1.21,2.93,3.06,3.56,4.97,1.2,3.65,3.26,6.55,6.29,8.82,1.09,2.12,1.99,4.31,2.54,6.62,.49,2.05,.32,3.96-1.44,5.5-1.8,1.58-3.74,1.71-5.87,.89-1.72-.66-3.2-1.71-4.67-2.8-2.64-4.93-5.28-9.86-7.9-14.8-.46-.86-1.18-1.64-.95-2.75Z"/><path class="cls-46" d="M23.75,179.86c.97-3.1,4.05-3.39,6.33-4.74,.34-.2,.78-.14,.86,.3,.06,.32-.03,.79-.25,1-1.05,1.01-2.16,1.96-3.25,2.94-.86,.76-1.16,1.95-.69,2.73,.66,1.09,1.65,0,2.32-.36,1.91-1.01,4.06-1.03,6.06-1.62,.62-.18,1.58-.46,1.82,.56,.17,.74-.53,1.1-1.13,1.36-.83,.37-1.67,.74-2.54,1.01-1.22,.39-2.29,.96-3.38,2.15,2.37,.14,4.28-.53,6.23-.76,.61-.07,1.43-.32,1.61,.53,.15,.72-.55,1.13-1.15,1.32-1.9,.59-3.82,1.12-5.72,2.29h7.34c-.88,1.88-2.22,1.59-3.23,1.86-1.12,.3-2.22,.5-1.72,2.09-.21,1.24,.56,2.01,1.34,2.75,1.37,1.29,2.55,2.73,3.48,4.37,.67,.69,.28,1.34-.09,1.99-1.27,1.44-2.67,2.75-4.44,3.55-1.18,.53-2.47,1.03-3.14-.76-1.73-2.95-4.2-5.54-4.45-9.21-1.52-5.01-2.61-10.07-2.21-15.35Z"/><path class="cls-34" d="M401.75,62.65c-4.54-.24-7.71-2.59-8.64-6.93-.38-1.78-1.22-1.89-2.62-1.88-5.76,.02-11.51-.01-17.27-.03,.02-.2,.03-.39,.05-.59,5.85,.03,11.7,.01,17.55,.11,1.47,.02,1.94-.56,2.4-1.91,1.38-4.14,5.08-6.67,8.89-6.38,4.38,.33,7.17,2.9,8.17,7.54,1.08,5-2.4,9.11-8.54,10.07Z"/><path class="cls-111" d="M85.01,247.42l-1.69-.43c-1.68-2.44-.19-4.68,.41-6.98,.71-1.81,2.05-2.64,3.99-2.82,3.92-.37,7.81-.93,11.72-1.41,1.29-.16,2.57-.27,3.63,.73,2.2,3.26,5.38,6.08,4.79,10.6-6.63,.01-13.26,.01-19.89,.05-.99,0-1.97,.18-2.96,.28Z"/><path class="cls-26" d="M501.36,311.48c-.1,2.32,.67,4.6,.29,6.93-4.78-.21-9.43,1.07-14.19,1.2-2.83,.08-4.57,2.5-6.9,3.68-.96-.87,.36-1.53-.03-2.36-.17,.04-.44,.02-.63,.14-1.15,.73-2.18,1.72-3.58,1.96-1,.17-3.1,1.48-1.68-1.39,.09-.18-.02-.68-.1-.7-1.71-.31-1.69-1.11-.97-2.48,.82-1.56,1.86-2.3,3.68-2.28,1.4,.02,2.92,.5,4.24-.48,1.48-.49,2.97-.99,4.46-1.48,1.29-1.68,3.33-1.57,5.09-2.12,1.03-.32,2.11-.47,3.13-.85,.3-.09,.6-.15,.9-.18,2.1,.12,4.28-1.21,6.29,.38Z"/><path class="cls-61" d="M435.38,204.07c3.38,5.22,4.13,11.4,6.29,17.07,.3,.79,.09,1.4-.18,2.07-1.75,2.31-4.08,3-6.86,2.47-1.14-3.47-3.23-6.44-5.1-9.52-.59-.97-2.24-1.63-1.62-2.92,.81-1.69,1.62-3.62,3.35-4.57,3.02-1.65,3.08-1.54,1.37-4.69,.06-.53-.07-1.31,.22-1.55,.53-.43,.85,.35,1.25,.64,.43,.32,.85,.66,1.28,.99Z"/><path class="cls-18" d="M441.91,115.45c-.05,.37-.1,.74-.16,1.1-8.34,2.31-14.44,7.76-19.53,14.39-8.93,11.61-13.55,25.23-17.54,39.08-6.33,21.99-9.99,44.58-15.01,66.86-1.56,6.94-2.9,13.95-5.36,20.67-.39-.05-.39-.4-.51-.66,5.33-19.31,8.79-39.04,13.05-58.6,4.23-19.39,8.48-38.81,17.64-56.67,4.52-8.82,10.13-16.77,18.71-22.19,2.72-1.72,5.58-3.14,8.7-3.99Z"/><path class="cls-10" d="M181.71,59.86c.69,.09,1.15,.45,1.39,1.12,1.39,3.93,4.32,6.61,7.37,9.21-6.07-.09-11.64-1.92-16.91-4.81-.89-.49-1.68-1.1-2.17-2.02,.88-.12,1.73-.3,2.23-1.16,.37-.31,.89-.26,1.26-.58,.52-.29,1.07-.53,1.61-.79,1.72-.45,3.25-1.92,5.22-.97Z"/><path class="cls-97" d="M165.21,158.32c-1.11-1.1,.33-2.11,.1-3.18,3.11-9.55,6.12-19.14,9.37-28.64,3.74-10.92,8.03-21.61,14.62-31.21,.57-.83,1.19-1.61,1.79-2.42,.18,.18,.35,.37,.53,.55-10.69,14.88-15.75,32.2-21.33,49.3-1.7,5.2-3.39,10.41-5.08,15.61Z"/><path class="cls-78" d="M383.8,256.89c.17,.22,.34,.44,.51,.66-3.93,14.67-9,28.81-19.21,40.5-.54,.61-1.21,1.11-1.81,1.66-.25-.08-.43-.25-.52-.5,11.57-11.84,16.51-26.98,21.04-42.32Z"/><path class="cls-47" d="M304.47,190.26l-.53-.54c-.41-1.03-.54-2.11-.54-3.21,.03-7.48-.03-14.95,.04-22.43,.02-1.78-.2-3.74,1.8-4.82,1.44-.04,1.94,1.02,2.09,2.1,.58,4.36,.23,8.69-.73,12.97-1.66-.87-1.53,.31-1.61,1.37-.26,3.21,.41,6.36,.57,9.54-1.4,1.45,.01,3.51-1.09,5.02Z"/><path class="cls-84" d="M313.85,354.84c.49,.2,.81,.55,.91,1.08-3.91,.54-7.84,.12-11.75,.23-5.57,.15-11.14-.23-16.71,.19l-.23,.06-.24-.05c.06-.74,.12-1.49,.18-2.23,1.88-1.39,4.07-1.01,6.08-.77,4.55,.54,9.11,.38,13.67,.44,2.74,.04,5.47,.19,8.1,1.05Z"/><path class="cls-85" d="M523.98,165l-.04,1.07c-10.45-5.2-17.9-13.61-24.49-22.93-1.58-2.23-3.17-4.46-4.75-6.69,.04-.31,.09-.62,.13-.93,3.8,5.03,7.45,10.18,11.44,15.05,4.9,5.98,10.57,11.13,17.71,14.42Z"/><path class="cls-53" d="M39.23,80.84c-.48,.55-1.14,.5-1.78,.5-8.23,0-16.47,0-24.7,0-.55,0-1.11,.02-1.52-.44,.73-.52,1.57-.38,2.38-.39,7.83,0,15.66-.01,23.5-.01,.72,0,1.46-.08,2.12,.34Z"/><path class="cls-63" d="M36,134.68c-.18,.58-.66,.55-1.12,.54-7.39-5.84-16.02-8.55-25.18-9.78-3.14-.42-6.32-.54-9.69-.81,5.75-1.67,24.04,.88,36,10.05Z"/><path class="cls-57" d="M350.03,270.05c1.72,.02,2.69,1.52,4.16,2.1,2.03,.8,3.82,.87,5.63-.51,1.85-1.42,2.24-3.2,1.61-5.32-.64-2.16-1.3-4.32-1.96-6.48,2.59,2.75,3.4,6.15,3.3,9.76-.06,2.19-2.34,4.39-4.55,4.33-3.22-.09-6.29-.85-8.19-3.88Z"/><path class="cls-23" d="M556.38,151.85c-.59,.61-1.36,.45-2.07,.45-8.69,0-17.38,0-26.08,0-.71,0-1.48,.16-2.05-.49,10.07-.26,20.13-.33,30.2,.03Z"/><path class="cls-30" d="M286.3,356.33c.5-.55,1.16-.45,1.8-.45,8.89,0,17.78,.02,26.67,.04,.13,.15,.16,.31,.09,.49l-28.56-.08Z"/><path class="cls-15" d="M557.94,178.67c-.71-.89-.39-1.93-.4-2.9-.03-6.48-.03-12.96,0-19.44,0-.96-.35-2.02,.44-2.88,.25,8.41,.38,16.81-.05,25.22Z"/><path class="cls-79" d="M40.84,106.63c-.55-.49-.49-1.15-.49-1.78,0-6.69,0-13.37,0-20.06,0-.64-.06-1.3,.5-1.78,0,7.87,0,15.74-.01,23.62Z"/><path class="cls-29" d="M11.75,108.82c4.17-1.21,8.39-.15,12.59,.12H14.92c-1.06-.04-2.11-.08-3.17-.12Z"/><path class="cls-85" d="M524.3,153.4c-.12,3.86,.43,7.74-.31,11.59,.04-3.86-.52-7.74,.31-11.59Z"/><path class="cls-76" d="M247.18,195.79c.94,3.1,.87,6.21,.06,9.33-.02-3.11-.04-6.22-.06-9.33Z"/><path class="cls-72" d="M362.77,299.22l.52,.5c-1.53,1.32-2.75,3.08-4.93,3.48l-.1-.13c1.5-1.28,3-2.56,4.51-3.85Z"/><path class="cls-88" d="M229.76,135.79c5.49,.72,10.97,1.48,15.82,4.46,1.52,.9,1.27,2.24,.92,3.63-1.53,6.11-4.02,11.72-7.94,16.73-2.25,2.88-3.52,6.41-5.57,9.46-2.52,3.74-5.91,5.18-10.39,4.18-3.95-8.02-6.28-16.45-6.7-25.41-.24-5.1-.72-10.18-1.09-15.27-.49-.93-.9-1.86,.03-2.77,.94-.13,.99,.66,1.17,1.21,.34,1.1,.71,2.17,2.09,2.19,1.63,.02,1.74-1.34,2.06-2.47,.08-.27,.2-.51,.35-.74,1.53,.05,2.95,1.03,4.55,.51,.59,2.64,1.76,5.03,3.02,7.43,1.3-.79,.81-2.31,1.68-3.14Z"/><path class="cls-6" d="M306.6,174.33c-1.14-3.35,.38-6.67,.08-10.02-.15-1.7,.27-3.51-1.18-4.89-1.54-2.49-.58-5.27-.72-7.89-.06-1.16,1.68-1.73,2.82-2.29,.27-.06,.55-.14,.81-.06,1.79,.56,3.59,1.91,3.19,3.54-.44,1.79-2.32-.16-3.38,.11,1.87,.71,3.61,.97,5.39-1.05,1.53-1.74,3.28-1.07,3.64,1.32,.75,4.91,2.77,9.45,3.92,14.24,1.3,5.44,.47,10.5-2.45,15.24-3.27,1.37-6.01,.49-8.36-1.98-1.72-1.81-3.04-3.86-3.77-6.27Z"/><path class="cls-2" d="M318.73,182.58c-.44-1.17,.3-2.08,.7-3.05,1.72-4.2,1.94-8.42,.75-12.84-1.25-4.63-3.4-9.02-3.71-13.92-.1-1.63-1.01-1.66-2.22-.67-2.86,2.37-4.23,2.36-8.35-.22,2.19,.51,3.67,.86,5.62,1.32-1.17-1.69-1.87-3.2-3.67-3.66-2.58-1.06-4.14-3.47-3.81-5.9,.22-1.64,1.38-1.78,3.58-.44,1.45,.96,2.98,1.75,4.18,2.03-1.02-.07-2.22-1.04-3.58-1.59-.26-.46-1.23-.97,.1-1.32,1,.02,2.01,.14,3,.05,2.27-.19,3.93,.56,4.71,2.79,.6,1.7,1.77,2.01,3.41,1.68,2.31-.46,4.58-1.23,6.98-1.14,1.25,1.94,.04,3.92,.06,5.88,.04,6.12,.14,12.26-.58,18.37-.44,3.71-1.54,7.12-3.68,10.2-.88,1.26-1.94,2.17-3.49,2.44Z"/><path class="cls-27" d="M274.74,65.83c4.61-2.79,9.4-2.2,14.07-.43,3.91,1.48,3.93,5.31,4.44,8.73,.12,.79-.27,1.19-.91,1.47-2.96,3.42-2.24,7.71-2.75,11.71-.07,.54-.04,1.09-.08,1.64-.36,4.3-2.61,6.72-6.92,7.5-2.45,.44-4.88,.79-7.35,.57-1.38-.12-2.76-.37-3.35-1.92-2.23-3.89-3.26-7.89-1.12-12.18,.76-.48,1.63-.36,2.46-.49,1.27,.15,2.46-.22,3.66-.55,2.17,.07,4.32,.33,6.42-.7,2.84-1.4,4.24-4.89,2.58-7.53-.97-1.53-1.64-3.01-1.61-4.81,.02-1.36-.71-1.96-2.03-2-1.46-.04-2.91,.03-4.37,.12-1.19,.07-2.4,.12-3.13-1.13Z"/><path class="cls-42" d="M274.74,65.83c2.72,.9,5.45,.14,8.17,0,1.79-.1,2.51,.49,2.45,2.31-.06,1.85-.25,3.56,1.51,5.2,1.74,1.62-.13,7.02-2.25,8.23-2.65,1.51-5.36,1.63-8.2,.86-1.17-.69-1.03-2.05-1.6-3.17-.76,1.19-.88,2.63-1.79,3.66-.76,.78-1.51,.65-2.27,0-.54-.94-1.05-1.89-1.62-2.8-.92-1.47-1.21-2.87,.37-4.06,.98-.74,.66-1.79,.81-2.74,.49-3.07,1.03-6.12,4.42-7.48Z"/><path class="cls-67" d="M222.6,174.25c1.94-.92,4.16-.21,6.14-1.17,3.07-1.49,4.38-4.44,5.74-7.12,2.21-4.35,5.16-8.19,7.68-12.31,2.15-3.51,2.3-7.65,3.9-11.33,.29-.67-.14-1.43-.49-2.09,4.94,2.13,5.21,2.84,3.25,7.74-1.28,3.2-2.9,6.27-3.76,9.64-1.41,1.94-2.35,4.14-3.28,6.32-1.81,4.25-4.45,7.99-7.23,11.6-3.29,4.28-9.79,3.46-11.96-1.29Z"/><path class="cls-44" d="M214.11,129.02c-.84-1.63-1.73-3.23-2.51-4.88-.77-1.63-1.44-3.3-2.26-5.22,2.83,.55,2.89-1.12,2.77-3.06-.12-1.77,.55-3.41,.96-5.1,.21-.87,.35-1.61,1.58-1.03,1.19,.56,.94-.66,1.16-1.17,.28-.63,.18-1.71,1.14-1.55,.95,.15,.53,1.2,.62,1.87,.09,.73,.06,1.46,.54,2.14,.75,.03,.51-.78,.87-1.1,.4-.35,.69-.97,1.32-.76,.67,.22,.45,.91,.49,1.42,.16,2.18-1.08,4.28-.39,6.55,1.25-.12,1.83-1.54,3.64-1.54-3.85,3.97-.02,7.92-.48,11.89,.17,1.97-1.6,2.17-2.71,2.97-1.9-.35-3.8-.23-5.71,0-.68-.24-1.36-.48-1.04-1.44Z"/><path class="cls-36" d="M271.88,95.09c3.8,2.07,12.56,1.51,15.29-1.54,2.4-2.68,2.18-6.37,2.01-9.84-.16-3.17-.82-6.55,3.16-8.11,2.8,.62,3.46,1.91,2.27,4.42-.08,.16-.12,.38-.25,.48-5.98,4.46-4.67,11.19-5.38,17.28-.33,.41-.65,.81-.97,1.22-3.76,3.84-8.24,4.73-13.31,3.27-.71-1.32-1.52-2.6-2.09-3.97-.45-1.09-.92-1.71-2.14-1.1,0-1.03,.95-1.4,1.42-2.11Z"/><path class="cls-16" d="M199.89,69.65c1.16-3.07,3.38-5.76,3.37-9.25,2.85-.31,4.94,1.23,6.98,2.88,.5,.52,1,1.03,1.5,1.55-3.56,2.56-7.61,3.93-11.85,4.82Z"/><path class="cls-31" d="M220.66,130.33c.3-1.62,2.43-1.39,2.9-2.84,1.39,1,1.56,2.46,1.5,4.01-.24,.13-.51,.22-.7,.4-1.78,1.6-3.01,1.49-3.5-1.08-.19-.11-.26-.27-.19-.48Z"/><path class="cls-93" d="M214.11,129.02l1.28,1.31c.1,.2,.06,.36-.14,.47-.82,.82-.37,1.84-.44,2.77-1.3-1.35-2.81-2.67-.7-4.55Z"/><path class="cls-106" d="M313.85,354.84c-1.98,.92-3.96-.05-5.94,.03-7.32,.28-14.6-.56-21.9-.75-.71-4.4,.96-8.15,3.23-11.74,1.17-.48,1.6,.48,2.11,1.16,1.73,2.27,1.72,2.28,3.62-.02,1.53-1.85,3.1-2.06,5.39-.73,.91,2.3,3.15,3.15,4.91,4.5,2.22,1.7,4.55,3.25,6.75,4.97,.82,.64,1.77,1.33,1.83,2.58Z"/><path class="cls-52" d="M300.36,342.79c-2.42-.53-4.27-.21-5.6,2.38-1.29,2.52-2.2,2.31-3.56-.31-.49-.95-.79-2.07-1.96-2.48,.9-3.14,1-6.41,1.5-9.62,.49-.36,.78-1.19,1.48-1.04,3.3,.73,6.75-.05,10.01,1.04-.62,3.34-1.25,6.68-1.87,10.03Z"/><path class="cls-12" d="M494.78,311.78c-.15,.12-.31,.17-.5,.14-1.73-.25-1.37-1.68-1.43-2.74-.15-2.54,.03-5.1-.09-7.65-.1-2.25-.59-2.52-2.73-1.72-1.2,.45-2.25,1.19-3.38,1.77-.89,.46-1.81,.9-2.85,.37-.24-3.17-1.61-5.94-3.01-8.72-.77-1.55-1.45-3.16-1.47-4.95,.08-2.92,.89-5.57,3.06-7.62,1.26-1.19,2.81-1.77,4.54-1.12,1.48,.56,2.29,1.71,2.53,3.3,.11,.73-.4,1.87,.75,2.07,1,.18,1.98-.22,2.58-1.18,.19-.31,.35-.64,.57-.94,.19-.21,.43-.34,.7-.4,.14,.01,.28,.03,.42,.04,.12,.07,.24,.15,.35,.22,.55,.96-.79,3.06,1.76,2.81,2-.19,4.69,2.4,5.7-1.66,.48-1.93,2.13-3.13,4.11-3.07,2.12,.07,4.04,1.11,4.46,3.39,.57,3.09,2.1,2.56,4.05,1.44,1.19-.68,2.47-1.21,3.67-1.87,.63-.35,1.26-.75,1.28-1.63,.03-1.5,.04-1.5,1.69-1.03-.29-1.13-.57-2.23-1.02-4,1.62,1.51,2.21,2.86,2.61,4.17,1,3.24,3.36,5.85,4.12,9.18-.43,1.01-1.07,1.88-1.72,2.76-2.29,3.07-4.54,6.16-4.39,10.27-.41,2.12-1.88,2.69-3.83,2.72-4.78,.08-9.26-1.11-13.57-3.05-1.75-.79-3.47-1.67-5.23-2.44-2.64-1.16-2.78-1.08-2.81,1.71-.02,2.11,.02,4.22-.02,6.33-.02,1.1,0,2.22-.9,3.07Z"/><path class="cls-96" d="M493.72,282.69c-.11,1.88-2.81,3.99-4.48,3.49-.97-.29-.83-.95-.62-1.74,.5-1.91-.07-3.54-1.94-4.29-1.75-.7-3.15,.3-4.36,1.53-1.8,1.84-1.87,4.47-3,6.61-1.3-3.33,.63-5.74,2.41-8.14,.91-1.23,2.04-2.29,3.07-3.43,.1-1.32,.87-2.4,1.29-3.6,.57-1.65,.31-2.58-1.69-2.72-7.02-.49-14.05-.87-21.05-1.65-2.91-.33-5.83-.55-8.7-1.16-1.82-.39-3.16-1.38-3.92-3.11-3.16-7.21-6.17-14.47-9.14-21.76-.51-1.24-1.09-2.56-.43-3.97,2.27-1.54,4.83-2.15,7.52-2.33,2.57,6.26,5.81,12.2,8.74,18.29,.73,1.52,1.66,2.16,3.38,2.11,8.4-.21,16.83,.44,25.21-.55,3.69-.44,7.32-1.46,10.98-2.22,2.1,3.51,1.74,5.61-1.41,7.97-1.96,1.47-4.14,2.72-3.48,5.83,.21,1.01-.86,1.74-1.48,2.53-2.36,2.96-1.94,5.01,1.34,6.72,2.02,1.06,2.59,2.82,1.79,5.58Z"/><path class="cls-7" d="M441.45,238.71c.58,4.74,3.18,8.72,4.88,13.04,1.63,4.15,3.5,8.22,5.08,12.39,1.16,3.07,3.93,2.8,6.2,3.07,9.32,1.09,18.67,1.91,28.06,2.28,.95,.04,2.1,.03,1.9,1.32-.35,2.19-.69,4.47-2.77,5.89-9.61-1.03-19.11-2.98-28.7-3.87-7.58-.7-10.79-4.65-12.43-11.4-1.67-6.89-4.36-13.53-5.5-20.58,.37-1.83,1.3-2.8,3.29-2.16Z"/><path class="cls-82" d="M441.45,238.71c-1.28,.43-2.55,.89-3.29,2.16-1.37-4.37-2.7-8.74-4.13-13.09-.31-.94-.23-1.58,.6-2.1,2.28-.82,4.57-1.65,6.85-2.47,1.29-.54,1.98-.07,2.47,1.21,1.52,4.02,3.13,8,4.71,12-2.15,1.55-4.68,1.92-7.21,2.29Z"/><path class="cls-25" d="M483.8,301.96c2.34-1.16,4.65-2.39,7.03-3.47,1.82-.83,2.95-.47,2.87,1.89-.1,3-.04,6-.01,9,0,.88-.23,1.84,.59,2.55-2.66,1.21-5.54,1.6-8.34,2.32-.55-.19-.97-.47-1.04-1.12-.36-3.72-.74-7.44-1.11-11.16Z"/><path class="cls-75" d="M308.31,142.31c-.66,.41-.01,.79,.02,1.18-.18,.24-.37,.26-.59,.05-.6-.19-1.2-.36-1.79-.56-1.22-.42-1.43,.16-1.29,1.21,.3,2.24,1.42,3.98,3.18,5.34-3.66,1.58-1.69,4.93-2.31,7.46-.19,.77-.04,1.62-.04,2.43-1.23,1.24-1.1,2.84-1.1,4.38,0,7.58,.03,15.15,.04,22.73,0,1.09,.13,2.2-.51,3.19-6.3-5.29-13.92-6.82-21.78-7.6-1.72-.17-3.45-.13-5.18-.19,.59-.6,1.36-.4,2.06-.47,.76-.08,1.37-.46,.92-1.22-1.67-2.82-.71-5.85-.73-8.76-.01-2.32,.63-4.64,.98-6.96,.99-1.29,2.46-.99,3.77-1.03,1.71-.06,2.44-.83,2.45-2.52,0-2.18-.12-4.37,.05-6.53,.2-2.55-.51-4.41-3.06-5.3,.2-3.72-.68-7.44-.05-11.14,.21-1.23,.01-2.84,1.81-3.26,0,2.2,.08,4.39-.02,6.58-.08,1.69,.62,2.12,2.24,2.23,10.7,.71,18.45-4.28,24.61-12.46,.44-.58,.88-1.16,1.36-1.71,.14-.16,.42-.21,.92-.44-.2,.58-.22,1-.44,1.18-2.75,2.36-2.3,5.45-1.54,8.31,.74,2.79,.07,3.77-2.74,3.45-.4-.04-.83,.27-1.25,.42Z"/><path class="cls-4" d="M285.17,134.74c-1.39,2.86-1.56,5.98-.96,8.94,.42,2.06,.03,3.65-.81,5.35,.28,.83,.77,1.89-.67,1.94-1.28,.04-1.27-.91-.84-1.86-1.26-1.96-1.24-3.89-.77-6.22,1.01-4.97-2.16-9.05-3.7-13.46-1.59-4.56-3.36-9.05-5.04-13.58-.19-.51-.4-1.05-.41-1.58-.02-.9,.46-1.68,1.34-1.85,.96-.19,1.11,.74,1.36,1.4,2.16,5.62,4.31,11.24,6.49,16.85,.21,.55,0,1.5,.84,1.55,.91,.05,1.16-.9,1.26-1.55,.85-5.3,3.12-10.27,3.61-15.65,.02-.27,.01-.58,.13-.81,.51-.96-.01-3.03,1.46-2.76,1.43,.26,1.9,2.08,1.56,3.65-.75,3.39-1.52,6.77-2.35,10.14-.79,3.18-1.66,6.34-2.5,9.51Z"/><path class="cls-39" d="M281.88,149.11c.5,.4-.27,1.47,.65,1.52,1.17,.07,.08-1.32,.86-1.6,4.04,.14,4.06,.16,4.06,4.25,0,2.73-.05,5.47,.01,8.2,.04,2.04-.72,3.05-2.9,2.9-1.44-.1-2.9,.08-4.36,.14-1.84-.12-2.43-1.16-2.38-2.91,.08-2.81,.02-5.61,.02-8.42q0-4.08,4.03-4.08Z"/><path class="cls-2" d="M274.69,102.28c3.37-.13,6.76-.02,9.95-1.55,1.05-.5,1.77-1.12,2.39-2.07,.52-.8,.82-.27,.97,.34-1.25,5.14-3.17,10.05-5.34,14.86-.24,.53-.35,1.38-1.19,1.26-.68-.1-.97-.78-1.25-1.35-1.85-3.83-3.68-7.66-5.52-11.49Z"/><path class="cls-105" d="M81.64,156.75c1.04-.53,1.73-1.79,3.16-1.56,3.47,4.74,10.48,5.48,15.01,1.58,.14-.01,.27-.02,.41-.04,2.35,1.69,1.31,4.34,1.85,6.55,2.31,3.8-1.35,9.38-6.24,9.51q-3.94,.1-3.94,4.1c0,3.29,.04,6.58-.03,9.87-.04,1.81-.42,3.46-2.14,4.47-2.01,.95-4.11,1.63-6.33,1.88-2.01,.03-2.48-1.12-2.17-2.86,.14-.81,.32-1.61,.6-2.37,.64-1.78,.07-2.79-1.82-3.05-.76-.34-1.65-.38-2.31-.95-.84-1.18-.23-2.26,.31-3.28,1-1.92,1.98-3.84,2.92-5.79,.78-1.11,1.23-2.44,2.05-3.5,1.53-1.99,1.36-3.6-.78-4.96-.68-.73-1.17-1.56-1.3-2.57-.36-1.74,.21-3.33,.82-4.91-.04-.16-.09-.31-.15-.46-.37-.58-.42-1.14,.1-1.66Z"/><path class="cls-43" d="M89.1,190.83c1.68-.92,1.99-2.42,1.97-4.18-.07-4.85-.05-9.7-.06-14.55,0-.27,.11-.53,.16-.8,8.47,1.11,11.58-1.19,10.9-8.02,1.49-.13,2.43,1.12,3.73,1.46,1.04,.63,2.11,1.28,1.62,2.76-1.48,4.49-2.52,9.12-4.46,13.45-.84,1.99-2.36,3.45-3.94,4.81-1.93,1.66-3.76,3.42-5.69,5.07-1.27,1.08-2.83,2.29-4.23,0Z"/><path class="cls-65" d="M456.33,110.05h35.24c-1.57,1.23-32.71,1.45-35.24,0Z"/><path class="cls-21" d="M462.38,92.44h35.23c-1.5,1.22-32.64,1.45-35.23,0Z"/><path class="cls-50" d="M494.98,104.9h-36.08c1.63-1.24,32.83-1.43,36.08,0Z"/><path class="cls-94" d="M495.68,98.87h-34.25v-.29h34.36l-.11,.29Z"/><path class="cls-64" d="M488.07,116.42h-34.43v-.3h34.48l-.05,.3Z"/><path class="cls-59" d="M80.14,184.16c3.46,.31,3.51,.39,2.5,3.79-.28,.95-.47,1.94-.81,2.87-.53,1.47,.26,1.75,1.44,1.75,1.11,1.11,.57,2.39,.32,3.6-.62,2.94-1.49,5.81-2.05,8.77-.88,4.66,3.54,10.31,9.43,11.15,1.65,.24,2.01-1.33,2.94-2.1,1.28-.59,1.6,.49,1.94,1.24,.7,1.54,1.48,1.12,2.52,.36,1.14-.83,1.75-2.69,3.71-2.05-.33,2.93-2.71,5.01-5.56,4.86-2.36,.21-2.93,1.34-1.67,3.54,2.5,4.38,5.06,8.73,7.61,13.08,.28,.47,.65,.87,.59,1.47-5.5,.56-11,1.16-16.51,1.64-1.48,.13-1.43,1.48-2.18,2.17-1.06-.92-.81-2.14-.81-3.32,0-4.11-.3-8.17-1.62-12.12-.95-2.84-2.42-5.35-4.41-7.53-3.12-3.42-3.09-7.28-2.29-11.55,.92-4.91,2.51-9.68,2.95-14.71,.2-2.32,.38-4.88,1.95-6.91Z"/><path class="cls-68" d="M94.29,213.82c-1.2,3.74-1.51,3.91-4.93,2.8-6.69-2.17-10.51-7.48-7.96-15.57,.87-2.76,1.84-5.53,1.87-8.48,1.94-.58,3.88-1.16,5.82-1.74,1.49,1.24,2.64,.53,3.81-.57,3.33-3.13,6.69-6.21,10.05-9.31-1.22,4.5-2.29,9.04-3.72,13.47-.74,2.28-.21,4.73-1.29,6.89-1.56,.36-2.57-.73-3.68-1.46-1.76-1.16-3.56-1.86-5.72-1.12,.91,.26,1.96,.1,2.63,.89,1.02,1.2-.3,1.74-.76,2.52-1.01,1.73-.99,3.68-1.08,5.57-.05,1.14,.99,1.34,1.83,1.72,1.86,.85,3.51,1.91,3.12,4.4Z"/><path class="cls-58" d="M94.29,213.82c-.97-1.79-1.69-3.85-4.35-3.67-.87,.06-1.28-.58-1.55-1.3-.78-2.01,.89-7.24,2.73-8.48-.97-1.21-2.38-.53-3.55-.83-.61-.16-1.4-.15-1.36-1,.04-.74,.82-.51,1.3-.65,4.26-1.26,7.3,1.2,10.43,3.4,1.09,2.57,2.19,5.14,3.28,7.71,1.59,1.07,1.91,2.45,1.05,4.14-.11,.08-.22,.15-.33,.23-1.27,1.13-2.51,2.3-3.83,3.38-1.45,1.19-2.6,1.27-2.94-1.01-.11-.71-.28-1.44-.89-1.94Z"/><path class="cls-51" d="M96.54,218.41c2.37-1.06,4.62-2.26,5.41-5.02h0c.31-.32,.49-.87,1.13-.65,.36,1.28,1.84,2.38,.4,3.93-1.74,1.87-3.82,3.1-6.29,3.43-.86,.11-.88-.94-.65-1.7Z"/><path class="cls-14" d="M103.08,212.74l-1.13,.66c.56-1.59,.03-3.01-.73-4.38,2.67,.22,1.82,2.2,1.86,3.72Z"/><path class="cls-73" d="M501.31,241.05c.14-.99,.5-2.06-1.2-1.99-2.47,.1-3.53-1.5-4.14-3.6-1.01-3.52-1.16-7.16-1.73-11.27,1.08,1.06,1.9,1.76,2.99,1.03-.14-.84-.77-1.24-1.49-1.41-.74-.18-1.43-.24-1.43-1.27,0-.84,.33-1.41,1.08-1.71,2.22-.89,3.63-2.62,4.81-4.6,1.47,1.14,2.53,2.61,3.51,4.16,1.73,.57,3.64,.85,5.14,1.78,3.29,2.07,4.73,5.27,4.27,9.15-.42,3.59-2.78,5.49-6.13,6.08-1.88,.33-1.25,1.08-.65,1.97,2,2.95,4.99,3.44,8.5,3.13-1.81,1.42-3.87,.6-5.82,1.43,2.47,.94,4.56-.02,6.69-.26,0,2.51,.02,5.02,.03,7.52,0,.18,.01,.43-.1,.52-2.51,1.83-4.1,4.19-4.25,7.38-.1,.61-.03,1.34-.73,1.65-5.76,2.57-7.81,8.32-11.14,12.97-.42,.59-.78,1.22-1.16,1.83-.69,.56-1.39,.64-2.1,.03-.73-1.25-.25-2.5,.1-3.71,1.25-4.3,2.11-8.69,3.09-13.04,.57-2.72,.71-5.54,1.88-8.13,0-3.22,0-6.43,0-9.65Z"/><path class="cls-109" d="M501.32,250.7c.46,2.88-.38,5.59-1.12,8.32-1.92,1.94-3.78,3.94-6.08,5.47-1.43,.96-1.24,2.53-1.1,4.01,.35,3.83,1.06,7.6,1.61,11.4,.15,1.01,.43,1.99-.44,2.81-.16,0-.31,0-.47-.01-.41-2.41-.33-4.8-3.84-5.46-2.31-.43-2.39-5.18-.15-7.26,1.34-1.24,2.21-2.29,1.39-4.17-.4-.9,.34-1.55,.96-2.08,.82-.71,1.64-1.47,2.58-1.99,2.37-1.32,3.57-3,2.4-5.79-.23-.55-.07-1.26-.1-1.9,.86-1.88,2.48-2.79,4.35-3.36Z"/><path class="cls-69" d="M490.58,225.01c1.56,.37,.58,1.26,.27,1.82-1.65,3.09-2.09,6.31-1.06,9.68-1.11,.31-.86-1.07-1.6-1.13v.05c-.93-3.77-.12-7.17,2.22-10.24l.17-.18Z"/><path class="cls-90" d="M490.41,225.19c-1.6,3.23-2.89,6.52-2.21,10.24-1.57-3.45-.8-7.05,2.21-10.24Z"/><path class="cls-108" d="M493.14,243.07h4.81c-1.94,1.06-3.38,.88-4.81,0Z"/><path class="cls-1" d="M81.55,163.93l1.03,2.08c.85,3.13-.32,6.04-.96,9-1.05,2.98-3.27,5.45-3.84,8.64,1.65,.28,2.17,1.11,1.8,2.83-1.4,6.56-2.48,13.18-3.97,19.73-.66,2.87-.88,5.83,.43,8.84,1.71,3.92,1.93,8.2,1.33,12.44-.36,2.54-.91,5.04-1.04,7.62-.07,1.41-.55,2.82-2.09,3.26-1.51,.43-2.96-.15-4.07-1.16-1.24-1.13-.72-2.56-.15-3.83,2.91-6.44,3.2-13.13,1.52-19.86-1.39-5.55-.33-10.73,1.6-15.86,.77-2.03,1.1-4.05,.85-6.19-.12-.99-.49-1.84-1.6-1.92-1.18-.08-1.44,.92-1.77,1.78-.06,.17-.1,.36-.09,.54,.39,7.9-2.53,15.51-1.73,23.51,.42,4.25-.64,8.62-3.1,12.33-2.06,3.11-3.89,3.58-6.88,1.48-6.77-4.75-12.64-10.49-17.66-17.07-.94-1.24-1.81-2.53-2.88-3.67-3.01-3.19-3.03-3.53-.73-7.29,.29-.47,.7-.89,.54-1.52,1.48-1.37,2.13,.18,2.83,.93,3.88,4.12,7.4,8.63,12.49,11.43,.88,.48,1.73,1.02,2.59,1.55,2.55,1.58,2.85,1.46,3-1.63,.42-8.4,.7-16.8,1.2-25.2,.24-4.08,.38-8.22,1.94-12.11,1.14-2.84,2.86-5.2,5.79-6.23,1.84-.65,1.52-2.02,1.71-3.31,2.57,2.14,4.97,.46,7.42-.3,1.46-.45,2.72-2.01,4.49-.84Z"/><path class="cls-71" d="M81.55,163.93c-3.06,.55-5.6,2.48-8.7,3.08-2.13,.41-2.97,.11-3.21-1.94-.43-3.85,1.06-6.81,4.22-8.97,1.61,.81,3.19,1.72,4.86,2.4,.9,.37,1.86,1.35,2.97,.37-.05,1.69-.09,3.37-.14,5.06Z"/><path class="cls-49" d="M199.65,23.96c-2.21,3.71-5.54,6.19-9.14,8.38-1.61,1.91-3.8,2.17-6.09,2.13-1.06-.01-1.08-.73-1.03-1.5,.19-2.46-1.06-3.54-3.41-3.36-2.04,.16-3.39,2.12-3.01,4.36,.13,.78,.54,1.52,.83,2.28-.51,1.93-1.25,3.72-3.08,5.17-.77-1.5-.16-2.96-.42-3.96-.48,2.41,.86,4.95,.59,7.63-.1,1.02,.14,2.27-1.29,2.67,.53-8.51-.91-17.02,.21-25.53,.95-7.25,2.6-9.21,9.6-10.65,7.72-1.59,14.9,.06,21.73,3.73,.76,.41,1.31,.99,1.54,1.84-2.18,2.02-4.36,4.05-6.54,6.07-1.22-.56-1.58,.62-2.12,1.17-2.1,2.1-4.35,4.03-6.66,5.9,2.06-1.68,4.14-3.32,5.98-5.25,.6-.63,1.15-1.53,2.29-1.07Z"/><path class="cls-95" d="M173.62,47.77c.94-2.76,.24-5.61,.44-8.41,.07-.99,.01-1.99,.42-3v4.6c1.42-1.74,1.56-3.81,3.33-4.7,.56,.71,.98,1.63,1.7,2.11,4,2.69,4.56,6.7,4.35,11-.12,2.64-.4,5.26-.55,7.9-.06,1.2-.51,2.07-1.61,2.59-1.78,.57-3.56,1.13-5.34,1.7-2.26-1.4-2.07-3.84-2.58-5.99,.21-1.75-1.02-3.38-.45-5.17,.09-.88,.18-1.75,.26-2.63Z"/><path class="cls-3" d="M210.24,63.28c-2.54-.44-4.58-2.11-6.98-2.88-.16-1.08-.35-2.15-.47-3.23-.34-3-.41-5.82,2.12-8.24,1.85-1.76,2.12-4.52,3.17-6.81,2.88,4.24,5.68,8.47,4.75,14.04-.43,2.56-1.33,4.89-2.58,7.12Z"/><path class="cls-55" d="M173.35,50.4c-.13,1.85,1.6,3.27,1.17,5.18-.72,2.17,1.04,4.27,.18,6.44-.29,.52-.69,.36-1.09,.18-.69-3.92-1.32-7.84-.26-11.8Z"/><path class="cls-60" d="M520.56,303.07c-.24-5.53,3.01-9.21,6.69-12.66,1.98,4.11,3.96,8.23,5.96,12.34,.48,.99,.87,1.78-.71,2.2-3.87,1.02-7.71,2.17-11.74,2.38-.03-.14-.07-.27-.12-.4-.94-1.27-.08-2.57-.07-3.85Z"/><path class="cls-62" d="M511.84,277.77c-2.6,0-4.42-1.87-4.39-4.48,.03-2.31,2.13-4.33,4.45-4.29,2.48,.04,4.38,2.08,4.35,4.67-.03,2.47-1.79,4.11-4.41,4.1Z"/><path class="cls-17" d="M511.39,259.09c-1.75-4.39,1.24-6.18,4.35-7.89,.9-.36-.11-1.98,1.35-2,1.28-.02,2.03,.64,2.54,1.72,.51,1.07,1.04,2.13,1.57,3.19-2.3,2.67-5.42,4.08-8.49,5.59-.72,.35-.9-.36-1.32-.6Z"/><path class="cls-33" d="M496.24,275.47c.7,.03,1.41,.05,2.11,.08-1.18,2.37-2.35,4.75-3.53,7.12h0c-.4-2.56-1.23-5.22,1.41-7.2Z"/><path class="cls-101" d="M503.71,220.39c-1.91-.76-3.02-2.2-3.51-4.16,.2-.17,.44-.31,.59-.51,.57-.75,.86,0,.85,.27-.01,1.81,3.41,1.99,2.07,4.4Z"/><path class="cls-80" d="M527.81,222.15c.04,1.8,2.09,3,1.47,5.35-1.1-2.14-2.06-4.01-3.22-6.27,.84,.45,1.31,.7,1.78,.95l-.03-.03Z"/><path class="cls-86" d="M37.54,201.17c-1.78,3.18-.13,5.11,2.01,7.49,3.15,3.5,5.35,7.87,9.28,10.66,2.44,1.74,4.19,4.06,6.12,6.22,1.7,1.91,4.24,2.49,6.12,4.11,.76,.66,1.69,.01,2.44-.64,2.27-1.99,3.17-4.66,3.69-7.47,.49-2.66,1.04-5.29,.72-8.09-.51-4.47,.04-8.94,1.17-13.29,.74-2.82,.2-5.66,.43-8.47,.22-2.72,1.77-3.94,3.81-3.16,1.01,.38,1.57,1.07,1.59,2.01,.07,2.44,.19,4.8-.83,7.25-2.32,5.56-3.28,11.25-1.13,17.29,1.12,3.17,.56,6.72,.19,10.08-.35,3.12-.61,6.25-2.53,9.05-1.82,2.65,.88,2.81,2.4,3.46,1.98,.85,2.46-.91,2.4-1.96-.26-4.17,1.34-8.08,1.35-12.24,0-3.01-.71-5.87-1.4-8.6-1.44-5.72,.61-10.81,1.53-16.18,.44-2.58,1.5-5.07,1.4-7.74-.05-1.4,.06-2.79,.68-4.02,.81-1.61,.17-2.54-1.19-3.29,.79,.17,1.58,.34,2.37,.5-.88,7.59-2.55,15.03-4.22,22.47-.9,3.98-.52,7.57,2.63,10.54,3.12,2.93,4.87,6.96,5.26,10.83,.3,3.01,1.84,6.12,.65,9.32-.33,.88-.07,1.98-.08,2.98-.61,2.19-1.01,4.41-1.06,6.68-4.21,.02-8.41,0-12.62,.07-1.72,.03-2.58-.21-1.93-2.31,.66-2.12,.87-4.38,1.31-6.72-.34,.15-.46,.16-.5,.23-3.2,6.08-5.33,6.32-10.9,2.09-9.09-6.91-15.41-16.26-22.5-24.93-2.02-2.47-3.91-5.06-5.97-7.5-1.12-1.33-1.16-2.4,.2-3.49,1.06,1.22,2.14,.62,3.1-.08,1.38-1,2.69-2.11,4.03-3.17Z"/><path class="cls-77" d="M184.42,34.47c2.03-.71,4.06-1.42,6.09-2.13,.53,.62,1,1.3,1.6,1.84,1.45,1.29,1.52,2.93,.91,4.49-.55,1.39-1.86,2.4-3.39,2.4-1.66,0-3.17-.72-4.09-2.26-.79-1.33-.85-2.87-1.12-4.35Z"/><path class="cls-48" d="M200.74,33.03c1.12,1.48,1.98,2.63,2.85,3.77,.58,.75,1.63,1.4,.58,2.51-1.21,1.27-2.59,1.44-4.2,.74-1.4-.61-.86-1.55-.58-2.49,.41-1.38,.82-2.76,1.35-4.52Z"/><path class="cls-13" d="M199.65,23.96c-1.94,.95-2.98,2.88-4.56,4.22-1.73,1.46-3.52,2.81-5.9,3.28,3.7-3.31,7.4-6.62,11.13-9.97,.68,.73-.17,1.17-.16,1.71-.17,.25-.34,.5-.51,.75Z"/><path class="cls-110" d="M205.93,32.28c0,.62-.23,1.09-.92,1.12-.64,.03-1.05-.35-1.09-.97-.04-.63,.33-1.05,.95-1.12,.68-.08,.99,.34,1.06,.97Z"/><path class="cls-11" d="M195.52,32.26c-.01,.6-.2,1.1-.89,1.14-.67,.04-1.01-.38-1.06-.98-.05-.62,.27-1.05,.92-1.12,.7-.08,.98,.33,1.03,.97Z"/><path class="cls-54" d="M534.12,164.62c.07-2.83,2.69-4.71,5.28-3.8,1.11,.39,1.94,.45,3.06,.02,1.93-.73,3.65-.09,4.73,1.68,1.03,1.68,.71,3.33-.59,4.78-.43,.48-.87,.94-1.35,1.36-1.5,1.3-3.19,4.31-4.29,3.75-2.64-1.34-4.84-3.77-6.47-6.45-.27-.45-.3-1.04-.38-1.34Z"/><path class="cls-24" d="M31.92,97.59c.02,4.03,.02,4.04-3.63,3.88-1.28-.06-2.56-.18-3.83-.29-5.4-.45-6.19-1.16-7.89-6.2-.49-1.44-.05-1.85,1.23-1.94,.64-.05,1.28-.08,1.92-.1,2.27-.05,4.21-.38,3.79-3.48-.1-.73,.18-1.91,1.11-1.98,1.14-.09,.87,1.16,1.13,1.87,.82,2.2,1.66,4.02,4.61,4.25,2.59,.2,.99,2.79,1.57,3.98Z"/><path class="cls-45" d="M99.81,156.77c.3,1.54-.37,2.3-1.89,2.66-3.81,.92-7.52,.65-11.25-.49-2.08-.64-1.61-2.33-1.88-3.75-.02-2.78-2.7-4.48-2.93-7.19-.05-.54-.51-.83-1.21-.76-2.5,.26-3.52-1.56-4.31-3.42-.46-1.07-.53-2.32,.41-3.33,.99-1.06,2.09-.89,3.23-.3,2.13-.01,2.9,1.76,3.79,3.14,2.45,3.79,4.22,4.29,8.03,1.94,.39-.24,.79-.45,1.25-.54,1.32,.26,3.04-.7,3.85,1.21,.78,1.14,2,1.86,3.23,1.72,2.03-.23,1.92,.62,1.39,1.97-.23,.59-.33,1.35-.76,1.71-1.88,1.58-1.68,3.44-.94,5.43Z"/><path class="cls-70" d="M84.88,138.16c.63-3.15,2.28-5.91,3.39-8.87,.45-1.2,1.21-1.3,2.11-.61,3.8,2.92,7.96,5.31,12.58,8.14-1.86,.33-3.27-.4-4.37,.55-1.26,2.04-4.12,3.34-6.23,2.09-2.46-1.47-4.86-1.57-7.47-1.3Z"/><path class="cls-66" d="M99.69,137.93c3.18-.39,3.07,2.38,3.58,4.13,.47,1.59-.36,3.37-1.84,4.26-1.74,1.05-3.09-.2-4.32-1.35-1.34-.65-1.43-1.86-1.41-3.13,.27-2.38,1.38-3.91,3.99-3.91Z"/><path class="cls-41" d="M99.69,137.93c-2.09,.49-3.09,1.92-3.38,3.95-.18,.45-.74,.9-.91,.42-.62-1.72-1.72-1.22-2.86-.86-.77-.37-1.17-1.13-1.76-1.69-1.42-1.35-3.83-1.25-5.12,.2-1.25,1.39-1.22,3.36,.06,4.7,1.48,1.54,3.55,1.57,5.1,.12,.7-.65,.93-1.84,2.15-1.91,.85,.69,.86,1.42,.1,2.19-4.11,3.85-7.04,3.37-9.96-1.31-.8-1.28-1.66-2.76-3.16-3.54,1.4-1.25,3.92,.23,4.9-2.03,2.42-1.61,4.62-1.38,7.1,.24,2.25,1.47,4.58,.54,6.6-1.02,.37,.18,.74,.37,1.11,.55Z"/><path class="cls-81" d="M93.09,145.04c.05-.74,.33-1.52-.42-2.1-.52-.53-.51-1.06,0-1.59,.6-.8,.88-2.07,2.34-1.67,1.46,.41,.43,1.46,.6,2.2,.01,.05,.47,0,.72-.02,.27,1.03,.54,2.06,.8,3.09-.08,.32-.15,.64-.23,.97-1.14-.84-2.77,.41-3.8-.89Z"/><path class="cls-98" d="M81.64,156.75c-.03,.55-.07,1.11-.1,1.66-2.13-.44-4.15-1.11-6.34-3.2,2.71,.14,4.55,.95,6.43,1.53Z"/><path class="cls-87" d="M520.56,303.07c.02,1.28,.05,2.57,.07,3.85-5.63,1.04-11.3,1.89-17.03,2.17-1.57,.08-3.18,0-2.25,2.38-2.19,.1-4.38,.2-6.57,.3,0-3.75,.11-7.51-.04-11.26-.09-2.21,.73-2.25,2.38-1.52,4.32,1.9,8.39,4.4,13.06,5.44,2.32,.51,4.64,.82,7.03,.9,1.87,.06,2.88-.53,3.34-2.26Z"/><path class="cls-37" d="M402.33,49.99c1.14,.18,2.67,.63,1.83,2.82-.28,.72-.12,1.13,.16,1.72,.5,1.07,.49,2.15-.58,2.93-1.03,.76-2.14,.95-3.33,.33-.87-.46-1.78-1.2-1.22-2.1,.83-1.34,1.17,.24,1.72,.58,.6,.36,1.23,.47,1.73-.11,.4-.46,.35-1.41-.04-1.44-2.99-.23,2.63-3.83-1.4-3.48-.72,.06-.74,1.67-1.87,1.01-.16-.09-.17-.7-.04-.97,.49-1.01,1.38-1.39,3.03-1.3Z"/><path class="cls-74" d="M174.71,62.02c-.35-2.14-1.51-4.25-.18-6.44,.22,2.12,1.06,4.04,1.85,5.98-.45,.53-1.03,.6-1.66,.46Z"/><path class="cls-19" d="M215.25,130.8c.03-.16,.07-.32,.14-.47,1.76-1.66,3.52-1.63,5.28,0,.11,.14,.17,.31,.19,.48-.12,4-1.83,5.47-4.48,3.9-1.67-.98-.87-2.58-1.13-3.92Z"/><path class="cls-20" d="M307.74,143.55c.2-.02,.39-.04,.59-.05,1.39,.53,2.77,1.06,4.16,1.58-1.97,.45-3.35-.57-4.75-1.53Z"/><path class="cls-91" d="M273.03,82.92c-.37-2.1,1.11-3.65,1.55-6.04,1.29,1.98,1.5,3.78,1.84,5.54-.97,1.27-2.17,.95-3.39,.5Z"/><path class="cls-96" d="M496.24,275.47c-.88,2.32-1.52,4.69-1.41,7.21-.21,0-.42,.02-.64,.03-.62-4.38-1.12-8.78-1.89-13.13-.51-2.9-.53-5.25,2.6-6.84,1.42-.72,3-1.65,3.53-3.55,.26-.93,1.07-1.19,1.77-.17-.9,5.59-2.41,11.03-3.96,16.46Z"/><path class="cls-89" d="M281.92,153.54c.03,1.08,.02,2.07-1.47,2.03-1.33-.03-1.33-.94-1.34-1.88,0-.95,.01-1.85,1.34-1.87,1.25-.02,1.53,.7,1.47,1.72Z"/><path class="cls-22" d="M81.62,175.02c-.17-3.05,.08-6.06,.96-9q3.01,2.11,1.18,5.24c-.73,1.25-1.43,2.51-2.14,3.77Z"/><path class="cls-5" d="M498.93,226.56c.02,1.16,1.47,2.25,.31,3.45-.34,.35-.92,.37-1.18-.05-.8-1.31,.29-2.27,.88-3.4Z"/><path class="cls-99" d="M507.39,223.51c-1.55,.76-2.75,2.49-5.07,1.69,1.36-1.84,3.31-1.52,5.07-1.69Z"/><path class="cls-112" d="M96.6,148.89c-.37,.7-.99,.77-1.64,.67-.58-.09-1.14-.42-1.06-1.02,.14-.95,.98-.6,1.53-.51,.47,.08,1.11,.14,1.17,.85Z"/><path class="cls-100" d="M99.12,141.76c-.67,.06-.97-.34-1.04-.92-.08-.59,.14-1.09,.76-1.2,.75-.13,1.17,.32,1.23,1.03,.05,.63-.39,.93-.95,1.1Z"/><path class="cls-35" d="M92.66,141.36c0,.53,0,1.06,0,1.59-1.12,3.11-3.2,4.42-5.68,3.57-2.43-.83-3.72-3.34-2.86-5.68,.66-1.77,1.89-2.85,3.89-2.89,2.44-.05,3.95,1.11,4.64,3.42Z"/><path class="cls-9" d="M90.42,140.44c-.03,.75-.3,1.24-.93,1.28-.61,.04-1.04-.36-1.08-.98-.04-.61,.3-1.04,.93-1.12,.68-.08,.93,.39,1.07,.81Z"/></g></g></svg>