<?xml version="1.0" encoding="UTF-8"?><svg id="Layer_2" xmlns="http://www.w3.org/2000/svg" viewBox="0 0 123.79 81.4"><defs><style>.cls-1{fill:#ece5d7;}.cls-2{fill:#a3b396;}.cls-3{fill:#2f2b29;}.cls-4{fill:#2c2d30;}.cls-5{fill:#516aa6;}.cls-6{fill:#425d94;}.cls-7{fill:#eb542a;}.cls-8{fill:#79886b;}.cls-9{fill:#5a2315;}.cls-10{fill:#d6cdb8;}.cls-11{fill:#ec542a;}.cls-12{fill:#f2d2bf;}.cls-13{fill:#eb5429;}.cls-14{fill:#ea542b;}.cls-15{fill:#5775bd;}.cls-16{fill:#48649e;}.cls-17{fill:#d6d2be;}.cls-18{fill:#a4b298;}.cls-19{fill:#2e2c2a;}.cls-20{fill:#582516;}.cls-21{fill:#5876b9;}.cls-22{fill:#798769;}.cls-23{fill:#582416;}.cls-24{fill:#2c2c2c;}.cls-25{fill:#ede5d8;}.cls-26{fill:#eae5d6;}.cls-27{fill:#d85732;}.cls-28{fill:#2d2c2b;}.cls-29{fill:#283250;}.cls-30{fill:#c8c1b4;}.cls-31{fill:#78876a;}.cls-32{fill:#4c2716;}.cls-33{fill:#2d2d2e;}.cls-34{fill:#f0d8c4;}.cls-35{fill:#e9e0d3;}</style></defs><g id="Layer_1-2"><g><path class="cls-1" d="M42.94,62.37c17.72,0,35.44,0,53.17,0,2.07,0,4.15,.02,6.22-.01,.66-.01,.92,.21,.84,.86-.02,.16,0,.33,0,.5,0,1.78,0,1.79-1.84,1.8-2.05,0-4.09,0-6.14,0-9.64,0-19.28,0-28.92,0-2.15,0-4.3,.05-6.44-.02-.99-.04-1.95-.03-3.06,.11,.44,.36,.83,.25,1.19,.25,14.68,0,29.36,0,44.04,.01,.37,0,.89-.2,1.07,.2,.24,.52,.14,1.14,.04,1.71-.03,.19-.23,.22-.4,.23-.25,0-.5,0-.75,0-19.02,0-38.04,0-57.06,0-.38,0-.77-.09-1.2,.12,.31,.34,.68,.2,1,.2,13.38,0,26.76,0,40.14,0,5.75,0,11.5,.02,17.25-.02,.81,0,1.14,.17,1.09,1.05-.08,1.29-.04,2.6-.01,3.9,.01,.6-.12,.85-.81,.91-1.46,.12-2.91,.08-4.37,.03-1.09-.04-2.2,.1-3.3,.1-7.93,0-15.86,.07-23.78-.04-2.36-.03-4.74-.03-7.09-.02-5.52,.03-11.03-.01-16.55,.08-.05,0-.1,.04-.21,.1,.33,.34,.73,.21,1.08,.22,13.55,0,27.09,0,40.64,0,4.45,0,8.9,.02,13.35-.02,.77,0,1.08,.18,1.04,1.01-.07,1.7,.16,1.49-1.53,1.49-19.19,0-38.37,0-57.56,0-.22,0-.44,.01-.66,.02-.49,.44-1,.16-1.47,0-4.95-1.7-6.86-7.79-3.8-12.03,.95-1.32,2.17-2.26,3.71-2.78,.36-.12,.73-.3,1.08,.04Z"/><path class="cls-26" d="M33.66,59.23c-5.83,0-11.66,0-17.5-.01-1.27,0-1.61-.38-1.59-1.63,0-.67,.36-.95,.95-1.01,.33-.03,.66-.01,.99-.01,15.37,0,30.74,0,46.1,0,.35,0,.72,.08,1.11-.11-.26-.35-.61-.21-.89-.21-7.77,0-15.53,0-23.3,0-7.96,0-15.92,0-23.88,0-1.08,0-1.09,0-1.08-1.1,.02-1.99-.27-1.72,1.7-1.72,16.56,0,33.11,0,49.67,0,.34,0,.71,.12,1.09-.2-.34-.2-.67-.12-.97-.12-16.75,0-33.5,0-50.25,0q-1.25,0-1.25-1.26c0-.86,.04-1.72-.01-2.57-.05-.75,.19-1.01,.97-1,2.79,.04,5.58,.02,8.37,.01,.32,0,.67,.09,.96-.16-.03-.52,.44-1.03,.04-1.57-.16-.61-.41-1.2-.32-1.85,.06-.23,.06-.5,.29-.66,.54-.22,.88,.12,1.24,.48,.01,.07,.1-.15,.02-.08-.05,.04-.04,.01-.06-.05-.14-.46,.23-.49,.5-.56,.32-.09,.66-.05,.99-.05,13.04,0,26.08,.05,39.12-.03,3.99-.03,7.75,3.93,7.68,7.69-.07,3.41-1.57,5.78-4.46,7.36-.95,.52-2.02,.76-3.11,.76-10.69,.02-21.38,.01-32.08,0-.38,0-.79,.04-1.05-.34Z"/><path class="cls-8" d="M42.94,62.37c-3.54,.63-6.08,3.95-5.93,7.75,.14,3.5,3.06,6.7,6.42,7.03,.32,.23,.69,.16,1.05,.16,19.68,0,39.37,0,59.05,0,.6,0,1.44-.22,1.43,.76-.01,.92-.83,.7-1.4,.71-27.92,0-55.85,0-83.77,0-.39,0-.77-.03-1.16-.05-.21-.28-.13-.57-.05-.87,.3-1.19,.21-2.34-.32-3.45-1.53-3.23-2.98-6.49-4.46-9.75-.14-.31-.33-.57-.56-.8-.35-.38-.82-.29-1.25-.29-3.48,0-6.96,0-10.45,0-.41,0-.83,.07-1.22-.12-.09-.05-.17-.12-.23-.2,.29-.24,.63-.15,.95-.15,2.34,0,4.69-.01,7.03,0,.55,0,.99-.11,1.43-.48,.9-.75,1.94-1.25,3.07-1.57,1.64-1.02,3.47-.65,5.22-.66,23.91-.02,47.82-.02,71.73,0,2.65,0,5.3,.09,7.95,.09,.39,0,.77,0,1.15-.11,1.77,.02,3.54-.03,5.31,.03,1.13,.04,1.55,.73,1.01,1.58-.47,.22-.96,.24-1.46,.21-2.93-.17-5.86-.08-8.78-.08-16.41,0-32.82,0-49.23,0-.85,0-1.71-.03-2.53,.27Z"/><path class="cls-2" d="M98.65,60.72c-10.58,0-21.16,0-31.74,0-14.12,0-28.23-.03-42.35,.02-3.99,.01-8-.34-11.98,.29,.19-.18,.55-.18,.31-.66-.32-.64-.02-1.08,.71-1.11,.63-.03,1.26,.12,1.89,.12,5.77,0,11.53,0,17.3,0,.3,0,.61,.06,.88-.14,10.94,0,21.89,.01,32.83-.02,3.03,0,5.32-1.45,6.69-4.12,1.36-2.64,1.18-5.32-.54-7.76-1.42-2.03-3.39-3.21-5.95-3.21-13.29,0-26.58,0-39.88,0-.21,0-.44-.07-.66,.13,.37,.45,.96,.31,1.44,.51-.58,.26-.67,.25-1.39-.04-.43-.18-.86-.36-1.3-.54-.47-.4-.34-.92-.2-1.37,.14-.47,.62-.49,1.04-.5,.47-.01,.94-.01,1.41-.01,17.77,0,35.54,0,53.31,0,.86,0,1.71,.02,2.56-.14,.36-.07,.78-.19,1.07,.2-.04,.52,.37,.28,.56,.29,1.75,.02,3.51,.04,5.26,0,.54-.01,1.07,.36,1.6,.02,.91,.02,1.67,.5,2.47,.85,1.58,1.02,2.88,2.3,3.69,4.03,1.45,3.09,1.25,6.09-.42,9.02-.52,.8-1.22,1.46-1.79,2.22-.96,.65-1.87,1.42-3.07,1.59,1.91-.31,3.84-.07,5.75-.14,.27,.06,.56,.08,.49,.48Z"/><path class="cls-31" d="M84.1,42.34c-2.21,.48-4.45,.29-6.68,.29-17.04,.01-34.08,0-51.11,0q-1.56,0-1.4,1.54c-.02,.21-.05,.41-.07,.62-.36-.02-.45-.31-.46-.57-.03-.8-.15-1.62,.1-2.41,.04-.1,.1-.19,.17-.27,.49-.36,1.06-.25,1.61-.25,12,0,24,0,35.99,0,.86,0,1.71-.08,2.53-.34,2.16-.68,3.78-2.88,3.66-4.99-.14-2.51-1.85-4.47-4.26-4.94-.63-.12-1.26-.15-1.9-.15-11.86,0-23.72,0-35.58,0-.54,0-1.11,.11-1.62-.19-.37-.66-.25-1.08,.4-1.37,.37-.16,.76-.13,1.14-.13,5.96-.03,11.93,.04,17.89-.04,.26,0,.5,0,.68,.23,12.07,0,24.14,.02,36.21,.02,2.01,0,3.86,.5,5.51,1.72,3.02,2.24,3.35,6.35,.74,9.06-1.01,1.05-2.2,1.73-3.57,2.16Z"/><path class="cls-15" d="M45.22,29.38c-.81,.2-1.64,.18-2.47,.18-5.42,0-10.83,0-16.25,0-.28,0-.56-.02-.82,.05-.49,.12-.82,.38-.5,.95,.37,1.14,.19,2.3,.09,3.46-.15,.79-.24,1.58-.05,2.38,.04,1.48-.26,2.94-.19,4.42,.01,.31-.07,.6-.31,.82l-.05,.22c-.24,.26-.56,.31-.89,.31-.84,0-1.69,0-2.53,0-.46,0-.85-.14-1.15-.5-.07-.05-.14-.11-.21-.16-.42-.41-1.09-.07-1.5-.51-.02-2.61-.04-5.23-.04-7.84,0-3.07,0-6.15,0-9.22,.21-.25,.49-.27,.76-.19,.68,.21,1.37,.15,2.06,.15,3.62,0,7.24-.04,10.86,.02,1.58,.02,2.79-.5,3.7-1.78,.1-.14,.22-.25,.36-.34,2.93-.87,5.79-1.94,8.7-2.89,.73-.24,1.47-.48,2.26-.38,.09,.02,.17,.03,.26,.04,2.46,2.23,2.71,5.51,1.35,7.88-.66,1.16-1.59,2.02-2.79,2.59-.22,.1-.43,.23-.64,.35Z"/><path class="cls-15" d="M30.77,17.49l-.91-.1c.12-1.11-.06-2.24,.23-3.33,.18-.69,0-1.2-.59-1.64-.77-.58-1.4-1.32-2.15-1.93-.38-.31-.57-.73-.64-1.21-.3-1.76,.71-2.78,2.01-2.99,.25-.17,.53-.3,.75-.5,.59-.54,1.16-.81,1.85-.14,.28,.27,.66,.18,1.02,.09,2.64-.67,4.91,.03,6.83,1.93,2.55,2.53,5.08,5.08,7.62,7.62,1.1,1.1,1.13,1.32,.49,2.81-.07,.17-.03,.32,.02,.48-.02,.01-.05,.03-.07,.04-.43-.09-.84-.1-1.28,.04-2.82,.84-5.56,1.89-8.36,2.78-1.06,.34-1.12,.39-1.24-.83,0-.08-.02-.16-.03-.25,.14-.82,.05-1.67,.41-2.45,.07-.12,.17-.28,.28-.29,.96-.11,.78-.79,.71-1.4-.09-.76-.18-1.53-.29-2.2,.1,.77,.22,1.64,.3,2.51,.05,.53,.07,.93-.61,.98-.18,.01-.32,.2-.52,.25-1.67,.09-3.34,.03-5,.04-.31,0-.6-.05-.83-.29Z"/><path class="cls-13" d="M93.8,43.66c-.78-.28-1.63-.41-2.27-1,2.17-5.48,7.67-9.39,14.26-8.99,5.7,.34,10.98,4.52,12.55,10.19,1.46,5.28,.23,9.93-3.5,13.91-.49,.52-.48,.83-.08,1.37,.69,.92,1.44,1.81,2,2.83,0,.25-.2,.32-.38,.35-.84,.11-1.37,.58-1.66,1.36-.06,.15-.15,.29-.35,.29-.78-1.1-1.57-2.19-2.33-3.3-.27-.39-.51-.38-.89-.18-1.69,.87-3.5,1.3-5.38,1.51-.27,.03-.55,0-.82-.01,.04-1.14-.07-1.25-1.17-1.25-1.71,0-3.41,0-5.12,0-.09-.2-.26-.26-.46-.29-1.18-.24-2.18-.74-2.74-1.88,.28-.83,1.02-1.3,1.51-1.97,.54-.11,.88,.26,1.25,.53,1.97,1.42,4.22,2.15,6.61,2.09,5.29-.14,9.63-3.48,10.93-8.65,1.02-4.06-.06-7.65-2.86-10.64-2-2.14-4.57-3.33-7.59-3.41-4.97-.14-8.5,2.1-10.81,6.42-.16,.31-.28,.68-.71,.74Z"/><path class="cls-11" d="M.07,79.92c-.02-.22-.07-.43-.07-.65,0-5.13,0-10.26,0-15.39,0-.22,.05-.43,.08-.65,0,.04,0,.08,.02,.11,.27,.12,.32,.37,.33,.62,.08,1.41,.75,2.56,1.63,3.61,.14,.17,.29,.33,.32,.56-.1,.54-.21,1.08,.06,1.66,.32-.32,.16-.8,.53-1.02,.31-.11,.61-.04,.88,.09,2,.98,4,1.01,5.99-.02,.22-.11,.46-.19,.71-.1,.39,.19,.24,.7,.58,1.01,.2-.61,.14-1.21,.23-1.78,.54-.84,1-1.73,1.69-2.48,.27-.23,.55-.26,.81,0,.28,.28,.39,.68,.21,1-.59,1.04-.4,2.15-.4,3.24-.02,2.9,0,5.8,0,8.71,0,1.18-.08,1.25-1.29,1.26-.5,0-1,0-1.49,0-.59,0-.85-.28-.86-.86-.02-.74,.11-1.5-.3-2.19-.52-.87-1.32-1.2-2.3-1.17-.55,.02-1.1-.02-1.65,.02-1.09,.08-1.76,.79-1.79,1.88-.01,.5,0,.99-.01,1.49-.01,.33-.06,.66-.34,.9-1.17,.41-2.36,.17-3.54,.15Z"/><path class="cls-13" d="M30.77,17.49l6.06-.08c.22,.09,.24,.27,.2,.47-.27,.82-.26,1.68-.41,2.52-.18,.49,.12,1.08-.33,1.51-.98,1.7-2.41,2.4-4.39,2.34-3.31-.1-6.63-.02-9.95-.02-1.21,0-2.42,.09-3.6-.31-.94-.74-2.08-1.11-3.11-1.67-.52-.28-.97-.49-.91-1.26,.05-.65-.23-1.3-.13-1.99,.06-.44-.47-.46-.76-.63-.43-.26-.75-.5-.31-1.01,.33-.3,.62-.06,.91,.06,.66,.28,1.27,.65,1.9,1.01,0-.2-.1-.33-.14-.49-.09-.36-.01-.66,.31-.87,.3-.19,.6-.09,.84,.12,.72,.61,1.38,1.27,1.76,2.16,.89,.78,1.82,1.31,3.11,1.23,2.59-.17,5.19-.21,7.79-.26,.64-.01,.87-.24,.9-.86,.03-.66,.18-1.31,.28-1.96Z"/><path class="cls-29" d="M20.22,41.14c.13,.57,.47,.75,1.05,.72,1.13-.05,2.26-.02,3.4-.02,.09,.98-.13,1.98,.17,2.95,0,.64,.28,1.23,.39,1.85,.07,.46-.26,.56-.59,.63-.24,.05-.5,.03-.74,.03-4.22,0-8.45,0-12.67,.01-.17,0-.33,0-.48-.07-.43-.49,.03-.59,.34-.71,.93-.35,.94-.34,.68-1.25,.97-.27,1.94-.56,2.92-.81,.28-.07,.51-.19,.72-.36,.09-.11,.21-.14,.34-.14,.87,.14,1.75,.02,2.63,.04,.85,.02,1.61-.97,1.62-1.89,0-.35-.12-.73,.25-.98Z"/><path class="cls-7" d="M28.73,6.28c-.17,.14-.32,.32-.51,.42-1.09,.55-1.45,1.43-1.21,2.59-.24,.46-.52,.77-.99,.22-.41-.41-.81-.81-1.23-1.21-.2-.19-.41-.37-.72-.34-.82,.08-1.48-.31-2.12-.76-.09-.14-.29-.15-.38-.3-.69,.41-1.04,.12-1.22-.58-.15-.61-.34-1.21-.51-1.81,0-.06,0-.13,.04-.15,1.27-.83,2.67-1.25,4.19-1.41-.09-.42-.18-.98,.63-1.06,.6,.04,.84,.29,1,.94,.2,.79,.64,1.56,1.32,2.11l1.68,1.34Z"/><path class="cls-28" d="M114.37,63.96c.26-1.44,.71-1.82,2.39-2,.72,.21,1.22,.67,1.64,1.29,.72,1.07,1.49,2.1,2.26,3.14,.41,.55,.66,1.13,.63,1.82,.11,1.36-1.13,2.32-2.37,1.83-.83-.31-1.4-.91-1.88-1.64-.67-1-1.4-1.96-2.11-2.93-.33-.45-.58-.93-.54-1.51Z"/><path class="cls-27" d="M9.88,76.33c.5,.19,.37,.62,.38,.99,.03,2.15,.02,2.1,2.11,2.16,.85,.02,1.07-.24,1.06-1.08-.05-3.23-.02-6.46-.02-9.69,0-.79-.1-1.6,.38-2.33,.2-.3,.07-.63-.17-.82-.32-.27-.35,.23-.56,.28-.3-.75-.13-1.41,.52-2.01,.65,.54,.79,1.36,1.12,2.07,1.4,3.03,2.8,6.07,4.13,9.13,.53,1.22,.28,2.48-.2,3.69-1.37,2.19-3.45,2.62-5.82,2.36,.01-.6,.36-1,.79-1.37,.42-.28,.91-.18,1.37-.25,.68-.11,1.37-.22,1.73-.93,.87-1.19,.91-2.42,.28-3.73-1.05-2.18-1.98-4.42-3.05-6.61-.06,3.52,.06,7.04-.06,10.55,.05,.37,.03,.71-.3,.96-1.19,.48-2.39,.38-3.59,.06-.25-.2-.24-.5-.22-.76,.09-.89-.26-1.8,.12-2.67Z"/><path class="cls-20" d="M13.57,79.8c-.06,.54-.32,.97-.76,1.28-.44,.26-.93,.31-1.43,.31-3.08,0-6.16,0-9.23,0-1.22,0-1.71-.37-2.07-1.47,.14-.39,.48-.29,.76-.3,.93-.02,1.86-.03,2.79-.04,.3-.3,.69-.3,1.08-.3,1.46,0,2.92,.01,4.38-.01,.35,0,.66,.05,.88,.34l3.57,.06c.06,.02,.08,.05,.07,.08-.01,.04-.03,.06-.04,.06Z"/><path class="cls-19" d="M24.72,1.89c-.47,.41-.71,.83-.06,1.31,.15,.11,.28,.31,.11,.5-.2,.21-.36,0-.48-.12-.41-.43-.84-.36-1.34-.16-1.02,.4-2.06,.74-3.09,1.1-1.09-.07-1.31-.33-1.07-1.37,.26-1.17,.96-1.95,2.11-2.31,.19-.06,.34-.16,.49-.28,1.01-.81,1.63-.72,2.5,.2,.34,.35,.95,.46,.85,1.14Z"/><path class="cls-21" d="M10.63,46.94c.81,.13,1.63,0,2.45,0,3.78,.01,7.55,.01,11.33,0,.3,0,.69,.17,.83-.31,.3,.6,.26,1.11-.37,1.48-4.26,0-8.53,0-12.79,0-1.59,0-1.87-.35-1.53-1.93,.37,.21,.2,.49,.1,.77Z"/><path class="cls-5" d="M26.02,9.51c.37,.09,.72,.12,.99-.22,0,.29,.1,.54,.32,.73,.84,.75,1.63,1.57,2.53,2.24,.52,.39,.74,.78,.64,1.38-.21,1.25-.42,2.49-.63,3.73-.29-.08-.22-.32-.16-.47,.32-.81-.09-1.33-.63-1.87-1.18-1.2-2.3-2.45-3.45-3.68-.06-.06-.11-.12-.17-.18-.36-.35-.52-.79-.41-1.28,.12-.56,.69-.14,.97-.39Z"/><path class="cls-14" d="M118.9,70.05c1.19-.09,2.05-.62,2.37-1.83,.73,1,1.48,2,2.18,3.02,.56,.81,.4,1.76-.33,2.27-.72,.5-1.6,.36-2.17-.46-.7-.99-1.55-1.87-2.05-2.99Z"/><path class="cls-3" d="M18.7,19.34c-.72-.4-1.05-1.17-1.63-1.7-.27-.24-.48-.71-.94-.37-.42,.31-.04,.64,.08,.95,.09,.22,.21,.43,.39,.79-1.33-.41-2.28-1.31-3.48-1.65-.34-.21-.44-.47-.16-.81,.02-.02,.03-.05,.04-.07q.92-1.65,2.55-.73c1.05,.6,2.07,1.25,3.15,1.79,.66,.33,.79,.66,.33,1.24-.14,.17-.23,.38-.34,.57Z"/><path class="cls-33" d="M20.22,41.14c-.05,.69,.28,1.36-.18,2.07-.57,.87-1.18,1.24-2.23,1.13-.49-.05-.99-.04-1.48,0-.26,.01-.5,.07-.62-.23,.15-.57,.74-.6,1.11-.9,.28-.22,.67-.26,.91-.55,.09-.55-.05-1.19,.61-1.51,.63-.1,1.26-.11,1.89,.01h0Z"/><path class="cls-18" d="M17.73,42.64c.12,.4-.17,.52-.44,.66-.53,.26-1.05,.53-1.58,.79l-.32,.03c-.3-.22-.63-.12-.96-.08-.27,.04-.55,.07-.82,.07-.55,0-.82-.34-.83-.83,0-.48,.36-.65,.8-.65,1.38,0,2.76,0,4.14,0Z"/><path class="cls-4" d="M10.63,46.94c-.03-.26-.07-.51-.1-.77,.17-.62,.62-.86,1.23-.89,.32,0,.61,0,.51,.49-.08,.42,.03,.93-.6,1.01-.35,.04-.72-.03-1.04,.17Z"/><path class="cls-29" d="M20.22,41.14c-.63,0-1.26,0-1.89-.01,.01-.05,.03-.1,.05-.15,.61,.13,1.25-.13,1.84,.16Z"/><path class="cls-32" d="M21.58,6.91c.17-.09,.3-.41,.52-.22,.26,.21-.07,.35-.15,.52-.34,.18-.5,.12-.38-.3Z"/><path class="cls-23" d="M13.58,63.84c-.17,.67-.34,1.34-.52,2.01-.4,.78-.89,1.5-1.46,2.17-.27,.35-.36,.92-.99,.82-1.5,.79-3.05,1.31-4.8,1.02-1-.16-1.86-.62-2.77-1-.48-.02-.82-.19-.82-.74-1.39-1.3-2.21-2.85-2.13-4.8,.16-.03,.32-.09,.48-.09,4.08-.03,8.16-.04,12.24-.07,.49,0,.82,.08,.76,.67Z"/><path class="cls-24" d="M93.8,43.66c1.52-3.64,4.13-6.06,7.95-7.15,5.78-1.65,12.23,1.79,14.05,7.53,2.11,6.63-1.37,13.22-8.08,15.08-3.66,1.02-7.05,.23-10.1-2.02-.22-.16-.44-.34-.66-.51,.53-1.2,1.12-2.38,1.26-3.72,.38-3.62-.88-6.51-3.83-8.66-.22-.16-.48-.28-.61-.54Z"/><path class="cls-17" d="M95.46,58.55c.84,.73,1.79,1.3,2.73,1.88-.61,.27-1.25,.11-1.88,.13-1.51,.02-3.02,0-4.55-.07,1.37-.41,2.43-1.36,3.69-1.94Z"/><path class="cls-25" d="M24.73,41.62c-.13-1.77,.1-3.53,.16-5.3,.13-.52,.05-1.04,.06-1.57,0-.45,.19-.7,.64-.65,2.32,.23,4.63-.02,6.95-.02,9.09,.03,18.18,.01,27.27,.01,.28,0,.56,0,.66,0-.17,0-.53,0-.89,0-7.82,0-15.64,0-23.46,0-3.09,0-6.18,.02-9.27,.08-.6,.01-1.21-.02-1.8-.16-.03-1.16-.05-2.32,.14-3.48,12.6,0,25.2,0,37.79,0,2.87,0,5.08,1.69,5.67,4.28,.78,3.41-1.63,6.55-5.22,6.77-.39,.02-.77,.01-1.16,.01-12.52,0-25.03,0-37.55,0Z"/><path class="cls-30" d="M25.04,34.02c11.93,0,23.86,0,35.79-.01,.16,0,.33-.05,.48,.1-.29,.16-.6,.08-.89,.08-8.01,0-16.02,0-24.03,.01-3.11,0-6.22,.07-9.33,.15-.63,.02-1.35-.4-1.84,0-.48,.4-.11,1.16-.24,1.74-.02,.08-.07,.15-.11,.22-.01-.77-.12-1.55,.16-2.3Z"/><path class="cls-16" d="M36.29,21.91c.11-.5,.22-1.01,.33-1.51,0,.14,.03,.28,.02,.41-.07,.61,.15,.7,.7,.51,2.97-1.03,5.95-2.02,8.92-3.04,.43-.15,.8-.25,.97,.32-2.48,.41-4.78,1.41-7.16,2.17-1.26,.4-2.47,.93-3.78,1.15Z"/><path class="cls-6" d="M37.03,17.88c-.07-.16-.13-.32-.2-.47,.84-.14,.87-.69,.75-1.38-.17-1.02-.27-2.05-.4-3.07l.21-.03c.14,.94,.28,1.88,.41,2.82,.02,.14-.03,.29,.01,.41,.25,.81,.14,1.45-.78,1.73Z"/><path class="cls-35" d="M9.97,79.61c-2.11,0-4.23-.02-6.34-.03,0-.82-.04-1.65,0-2.47,.04-1.04,.79-1.83,1.81-1.9,.9-.05,1.82-.05,2.72,0,.77,.04,1.33,.47,1.72,1.12,.25,1.09,.2,2.18,.09,3.28Z"/><path class="cls-9" d="M6.82,74.32c-1,0-1.73-.71-1.74-1.7-.01-1.03,.73-1.77,1.76-1.77,.94,0,1.72,.8,1.72,1.75,0,.96-.77,1.72-1.74,1.72Z"/><path class="cls-12" d="M2.23,68.13c.27,.25,.54,.49,.82,.74-.02,.33-.02,.66-.06,.99-.03,.23-.19,.41-.44,.43-.21,.02-.43-.09-.45-.29-.08-.63-.33-1.28,.14-1.87Z"/><path class="cls-34" d="M10.62,68.85c.33-.27,.66-.55,.99-.82,.01,.54,.04,1.08,.04,1.63,0,.32-.12,.62-.5,.62-.38,0-.49-.28-.5-.61-.01-.27-.02-.54-.03-.81Z"/><path class="cls-22" d="M13.65,78.64c-.01-3.72-.03-7.45-.04-11.17,0-.1,.07-.19,.16-.45,.54,1.17,1.03,2.2,1.5,3.24,.74,1.62,1.48,3.25,2.22,4.87,.55,1.21,.32,2.65-.61,3.66-1.1,.45-2.19,.7-3.23-.15Z"/><path class="cls-10" d="M13.65,78.64c1.07,.22,2.15,.11,3.23,.15-.86,1.13-2.06,1.14-3.31,1.02,0-.05-.02-.09-.03-.14,.04-.34,.07-.69,.11-1.03Z"/></g></g></svg>