<?xml version="1.0" encoding="UTF-8"?><svg id="Layer_2" xmlns="http://www.w3.org/2000/svg" xmlns:xlink="http://www.w3.org/1999/xlink" viewBox="0 0 222.6 59.6"><defs><style>.cls-1{letter-spacing:-.04em;}.cls-2{fill:url(#linear-gradient-2);}.cls-3{letter-spacing:-.03em;}.cls-4{fill:#1b1464;}.cls-4,.cls-5{font-family:JMHTypewriterdry-Regular, 'JMH Typewriter dry';font-size:32.66px;}.cls-6{fill:url(#linear-gradient-3);}.cls-7{fill:url(#linear-gradient);}.cls-5{fill:#4d4d4d;}</style><linearGradient id="linear-gradient" x1="22.57" y1="47.87" x2="12.93" y2="55.75" gradientTransform="matrix(1, 0, 0, 1, 0, 0)" gradientUnits="userSpaceOnUse"><stop offset="0" stop-color="#1e9cd7"/><stop offset=".5" stop-color="#0075be"/><stop offset=".99" stop-color="#0082cb"/></linearGradient><linearGradient id="linear-gradient-2" x1="43.59" y1="32.65" x2="76.97" y2="46.97" gradientTransform="matrix(1, 0, 0, 1, 0, 0)" gradientUnits="userSpaceOnUse"><stop offset="0" stop-color="#ed297b"/><stop offset=".55" stop-color="#be2983"/></linearGradient><linearGradient id="linear-gradient-3" x1="28.24" y1="24.27" x2="12.31" y2="-2.82" gradientTransform="matrix(1, 0, 0, 1, 0, 0)" gradientUnits="userSpaceOnUse"><stop offset="0" stop-color="#f7a829"/><stop offset=".77" stop-color="#ee7a39"/></linearGradient></defs><g id="Layer_1-2"><g><g><text class="cls-5" transform="translate(70.65 44.5)"><tspan x="0" y="0">SciM</tspan><tspan class="cls-1" x="77.95" y="0">a</tspan><tspan x="96.07" y="0">t</tspan><tspan class="cls-3" x="113.3" y="0">c</tspan><tspan x="130.07" y="0">h</tspan></text><text class="cls-4" transform="translate(70.65 44.5)"><tspan x="0" y="0">SciM</tspan><tspan class="cls-1" x="77.95" y="0">a</tspan><tspan x="96.07" y="0">t</tspan><tspan class="cls-3" x="113.3" y="0">c</tspan><tspan x="130.07" y="0">h</tspan></text></g><path class="cls-7" d="M5.45,40.43c2.71,0,5.02,2.1,5.27,4.81,.03,.36,.01,.72,.03,1.08,.09,1.69,1.33,2.7,3.01,2.45,.54-.08,1.05-.27,1.48-.62,.18-.14,.34-.29,.51-.44,1.26-1.11,2.73-1.71,4.41-1.81,1.25-.07,2.38-.47,3.29-1.38,.68-.68,1.18-1.49,1.47-2.39,.31-.94,.13-1.85-.32-2.74-.63-1.24-.64-2.51,.08-3.74,.86-1.48,2.4-2.21,4.12-1.95,1.45,.22,2.74,1.47,3.12,3.02,.36,1.44-.28,3.16-1.53,4.07-.25,.18-.55,.31-.84,.43-.25,.1-.52,.18-.78,.21-1.98,.2-3.03,1.4-3.52,3.22-.49,1.82,.01,3.39,1.23,4.75,1.01,1.12,2.32,1.53,3.8,1.22,1.54-.32,3.08-.67,4.6-1.08,1.84-.5,3.32-1.59,4.46-3.11,.41-.54,.78-1.1,1.31-1.54,1.42-1.2,3.01-1.35,4.67-.63,1.66,.72,2.45,2.07,2.48,3.85,.03,2.4-1.61,4.21-4.01,4.45-.69,.07-1.34-.12-1.98-.34-.17-.06-.33-.15-.48-.24-2.34-1.42-4.81-1.6-7.42-.9-1.35,.36-2.71,.64-4.07,.97-1.32,.32-2.22,1.15-2.76,2.37-.15,.33-.27,.67-.4,1-.25,.69-.66,1.27-1.12,1.83-2.3,2.73-7.19,3.57-10.35-.02-.91-1.03-1.48-2.25-1.58-3.65-.03-.36-.03-.72-.06-1.08-.16-1.7-1.38-2.74-2.79-3.09-.65-.16-1.25,.05-1.77,.46-.5,.4-1.05,.69-1.63,.95-3.04,1.35-6.73-.79-7.29-4.08-.62-3.65,2.57-6.48,5.37-6.31Z"/><path class="cls-2" d="M51.33,54.73c-1.1-2.48-.11-5.44,2.26-6.77,.31-.17,.65-.3,.98-.46,1.51-.77,1.93-2.31,1.02-3.75-.29-.46-.67-.85-1.16-1.1-.2-.1-.4-.2-.61-.29-1.53-.7-2.67-1.8-3.44-3.3-.57-1.12-1.4-1.98-2.59-2.45-.9-.35-1.84-.48-2.78-.38-.99,.1-1.74,.63-2.37,1.4-.88,1.08-2.03,1.6-3.45,1.45-1.7-.19-2.99-1.3-3.45-2.98-.39-1.41,.23-3.1,1.5-4.08,1.17-.91,3-1.02,4.34-.25,.27,.16,.51,.37,.73,.59,.19,.19,.38,.4,.51,.63,.98,1.73,2.5,2.2,4.37,1.92,1.86-.28,3.1-1.38,3.84-3.04,.62-1.38,.46-2.74-.42-3.97-.92-1.28-1.86-2.55-2.85-3.77-1.2-1.48-2.79-2.39-4.65-2.82-.66-.15-1.32-.27-1.94-.57-1.67-.82-2.45-2.21-2.46-4.02-.01-1.81,.9-3.08,2.51-3.82,2.18-1,4.5-.23,5.69,1.86,.34,.6,.44,1.27,.49,1.95,.01,.18,0,.36-.03,.54-.35,2.71,.48,5.05,2.17,7.15,.88,1.08,1.69,2.22,2.54,3.33,.83,1.08,1.95,1.56,3.29,1.56,.36,0,.72-.02,1.08-.04,.73-.04,1.43,.08,2.13,.29,3.42,1,6.18,5.13,4.18,9.47-.58,1.25-1.46,2.27-2.7,2.93-.32,.17-.65,.32-.96,.49-1.49,.83-1.94,2.37-1.69,3.8,.11,.66,.55,1.13,1.14,1.43,.57,.29,1.06,.68,1.53,1.1,2.47,2.23,2,6.48-.78,8.32-3.09,2.05-6.97,.28-7.94-2.36Z"/><path class="cls-6" d="M40.79,1.97c-1.34-1.64-3.16-2.27-5.2-1.83-2.14,.45-3.59,1.78-4.14,3.98-.2,.8-.2,1.6-.1,2.41,.09,.73-.16,1.33-.69,1.82-1.07,.99-2.57,1.22-3.89,.59-.37-.17-.71-.39-1.09-.54-2.62-1.08-5.06-.71-7.2,1.11-2.07,1.76-2.67,4.1-2.16,6.72,.21,1.07,.72,2.03,1.44,2.86,1.13,1.31,1.37,2.78,.83,4.42-.48,1.45-.93,2.91-1.42,4.36-.73,2.18-2.05,3.88-4.12,4.95-.08,.04-.16,.08-.24,.13-1.46,.97-2.26,2.27-2.18,4.07,.08,1.76,.99,2.99,2.51,3.71,1.49,.71,3.01,.59,4.35-.4,1.61-1.19,2.25-3.14,1.61-4.91-.15-.42-.33-.84-.49-1.26-.66-1.73-.88-3.5-.37-5.3,.45-1.6,.98-3.18,1.54-4.75,.45-1.27,1.39-2.08,2.68-2.45,2.15-.61,4.39,.3,5.63,2.2,.72,1.11,.95,2.22,.36,3.44-.06,.12-.11,.25-.15,.37-.97,2.56,.97,5.48,3.94,5.27,1.53-.11,2.68-.82,3.3-2.21,.61-1.36,.54-2.74-.36-3.98-.5-.7-1.1-1.31-2.04-1.4-.17-.1-.35-.13-.54-.08-.29-.28-.67-.2-1.02-.23-.66-.06-1.23-.32-1.65-.81-1.1-1.3-1.83-2.75-1.59-4.53,.05-.39,.18-.78,.27-1.17,.23-.21,.28-.49,.34-.78,.86-1.26,.97-2.67,.81-4.14-.06-.49-.14-.98-.15-1.48,0-.96,.38-1.75,1.15-2.33,.74-.56,1.55-.71,2.4-.26,.36,.19,.7,.41,1.06,.6,1.31,.68,2.68,.73,4.06,.34,3.44-.99,5.08-5.42,2.53-8.55Z"/></g></g></svg>