<?xml version="1.0" encoding="UTF-8"?><svg id="Layer_2" xmlns="http://www.w3.org/2000/svg" viewBox="0 0 37.08 46.24"><defs><style>.cls-1{fill:#fff;}.cls-2{stroke:#fff;stroke-miterlimit:10;stroke-width:.29px;}</style></defs><g id="Layer_1-2"><g><g><path d="M18.5,45.95c-2.47,0-5.53-1.57-6.01-5.98v-.13H3.7c-1.52,0-2.52-.55-3.08-1.68-.59-1.2-.4-2.36,.55-3.35,1.76-1.83,2.47-3.94,2.25-6.62-.15-1.76-.11-3.57-.08-5.32,.01-.76,.03-1.52,.03-2.28,.01-7.03,3.61-12.3,10.15-14.85,.56-.22,.56-.57,.57-.91v-.11c.09-2.17,1.43-3.87,3.41-4.32,.35-.08,.71-.12,1.07-.12,2.4,0,4.3,1.81,4.41,4.22,.04,.83,.37,1.12,1.01,1.39,6.06,2.56,9.31,7.1,9.68,13.49,.14,2.43,.12,4.92,.09,7.32-.01,1.42-.03,2.84,0,4.25,0,.47,.2,1.04,.53,1.56,.46,.73,1,1.41,1.52,2.08l.21,.26c.87,1.11,1.02,2.2,.47,3.32-.55,1.11-1.51,1.65-2.93,1.65h-8.94v.13c-.4,4.33-3.47,5.93-5.98,5.98h-.12Zm-3.04-5.93c-.03,.82,.26,1.59,.82,2.18,.59,.61,1.39,.95,2.27,.95,.87,0,1.67-.33,2.26-.93,.57-.58,.87-1.36,.85-2.19v-.14h-6.19v.14Zm-9.39-6.31c-.13,0-.59,.02-.77,.25-.52,.64-1.01,1.31-1.53,2.01l-.74,.99h31.06l-.74-.99c-.52-.7-1.01-1.37-1.53-2.01-.19-.23-.64-.25-.78-.25-4.16,0-8.32,0-12.48,0s-8.32,0-12.49,0ZM18.63,7.66c-6.98,0-12.46,5.53-12.48,12.58,0,2.26,0,4.52,0,6.78v3.81H30.95v-2.32c0-1.68,.01-3.34,0-4.99,0-.38,0-.77,0-1.15,0-1.42,0-2.88-.19-4.31-.68-5.32-5.28-9.76-10.7-10.33-.47-.05-.94-.07-1.41-.07Zm-.15-4.58c-.45,.02-.83,.18-1.1,.47-.27,.3-.41,.7-.39,1.17v.14h3.15v-.15c-.07-1-.67-1.62-1.59-1.62h-.08Z"/><path class="cls-1" d="M18.56,.43c2.32,0,4.16,1.76,4.27,4.09,.04,.9,.42,1.23,1.1,1.51,6,2.54,9.23,7.04,9.59,13.37,.14,2.43,.12,4.92,.09,7.32-.01,1.39-.03,2.83,0,4.25,0,.68,.35,1.32,.55,1.64,.46,.73,1,1.43,1.53,2.1l.2,.26c.83,1.07,.98,2.1,.45,3.16-.53,1.06-1.44,1.57-2.8,1.58-1.12,0-2.24,0-3.36,0h-5.71l-.02,.26c-.38,4.23-3.38,5.8-5.83,5.85h-.12c-2.41,0-5.4-1.53-5.87-5.85l-.03-.25H6.88c-1.06,0-2.12,0-3.2,0-1.46,0-2.39-.51-2.93-1.6-.56-1.15-.38-2.25,.52-3.19,1.79-1.87,2.52-4,2.29-6.73-.15-1.75-.11-3.56-.08-5.31,.02-.76,.03-1.52,.03-2.28,.01-6.97,3.58-12.19,10.05-14.72,.64-.25,.65-.69,.66-1.04v-.11c.09-2.11,1.38-3.75,3.29-4.19,.34-.08,.69-.12,1.04-.12m-1.7,4.56h3.44l-.02-.3c-.06-1.07-.74-1.76-1.72-1.76h-.08c-.49,.02-.9,.2-1.19,.52-.3,.32-.45,.76-.43,1.27v.27M6.01,30.97H31.09v-.29c0-.74,0-1.46,0-2.19,0-1.71,0-3.33-.01-4.98,0-.39,0-.77,0-1.16,0-1.42-.01-2.89-.19-4.32-.69-5.38-5.34-9.88-10.83-10.45-.47-.05-.95-.07-1.42-.07-7.06,0-12.6,5.59-12.62,12.73,0,2.2,0,4.4,0,6.6v4.14m-3.27,6.14h31.63l-.34-.46-.56-.75c-.53-.71-1.02-1.38-1.55-2.03-.22-.28-.69-.31-.89-.31-4.16,0-8.32,0-12.48,0s-8.33,0-12.49,0c-.19,0-.66,.03-.89,.31-.52,.65-1.02,1.32-1.54,2.03l-.56,.75-.34,.46m15.81,6.18h0c.91,0,1.75-.35,2.36-.97,.59-.61,.91-1.43,.89-2.3v-.28h-6.47v.27c-.05,.86,.26,1.67,.85,2.28,.61,.64,1.46,.99,2.38,.99m.02-43.14c-.36,0-.73,.04-1.1,.13-2.03,.46-3.42,2.23-3.51,4.46-.02,.38,.03,.69-.48,.89C6.86,8.19,3.24,13.51,3.23,20.6c0,2.54-.16,5.09,.05,7.61,.21,2.57-.44,4.66-2.21,6.51-.95,.99-1.21,2.23-.57,3.52,.65,1.31,1.79,1.76,3.18,1.76h.02c1.06,0,2.12,0,3.18,0,1.53,0,3.06,0,4.6,0h.87c.5,4.56,3.7,6.11,6.15,6.11,.04,0,.08,0,.12,0,2.98-.06,5.75-2.1,6.11-6.11h1.06c1.46,0,2.93,0,4.39,0,1.12,0,2.24,0,3.36,0,1.34,0,2.43-.49,3.05-1.73,.62-1.25,.35-2.4-.48-3.47-.59-.76-1.2-1.52-1.71-2.33-.27-.43-.5-.99-.51-1.49-.05-3.86,.13-7.73-.09-11.58-.37-6.53-3.75-11.07-9.76-13.62-.65-.27-.89-.54-.93-1.26-.12-2.55-2.15-4.36-4.56-4.36h0Zm-1.42,4.56c-.03-.87,.51-1.46,1.35-1.49,.02,0,.05,0,.07,0,.83,0,1.38,.56,1.44,1.49h-2.86ZM6.3,30.69v-.85c0-3.2,0-6.4,0-9.6,.02-7.07,5.49-12.44,12.33-12.44,.46,0,.92,.02,1.39,.07,5.28,.55,9.9,4.95,10.57,10.2,.23,1.79,.18,3.63,.2,5.44,.03,2.37,0,4.73,0,7.17H6.3Zm-2.99,6.14c.74-.99,1.4-1.9,2.09-2.77,.12-.15,.44-.2,.66-.2,4.16,0,8.33,0,12.49,0s8.32,0,12.48,0c.23,0,.54,.05,.66,.2,.7,.87,1.35,1.78,2.1,2.77H3.31Zm15.24,6.18h0c-1.69,0-3.02-1.32-2.95-2.98h5.91c.04,1.67-1.27,2.98-2.96,2.98h0Z"/></g><path class="cls-2" d="M20,4.71h-2.86"/></g></g></svg>