<?xml version="1.0" encoding="UTF-8"?><svg id="Layer_2" xmlns="http://www.w3.org/2000/svg" viewBox="0 0 28.69 28.69"><defs><style>.cls-1{fill:#525252;}</style></defs><g id="Layer_1-2"><path class="cls-1" d="M18.75,20.41c-5.65,4.33-12.59,2.71-16.13-1.63C-1.12,14.17-.83,7.62,3.31,3.43,7.47-.79,14-1.16,18.7,2.56c4.29,3.39,6.16,10.38,1.72,16.2,.16,.17,.32,.35,.49,.52,2.35,2.35,4.71,4.71,7.06,7.06,.15,.15,.3,.29,.43,.45,.4,.49,.38,1.15-.05,1.57-.42,.42-1.1,.46-1.57,.03-.61-.56-1.18-1.16-1.76-1.74-1.94-1.94-3.89-3.89-5.83-5.83-.13-.13-.27-.25-.43-.4ZM2.31,11.49c0,5.07,4.15,9.2,9.2,9.17,5.05-.03,9.14-4.13,9.15-9.17,.01-5.06-4.12-9.19-9.19-9.18-5.08,0-9.18,4.11-9.17,9.18Z"/></g></svg>