<?xml version="1.0" encoding="UTF-8"?><svg id="Layer_2" xmlns="http://www.w3.org/2000/svg" viewBox="0 0 38.89 38.87"><defs><style>.cls-1{fill:#204b68;}</style></defs><g id="Layer_1-2"><g><path class="cls-1" d="M19.4,38.87C8.73,38.85-.03,30.05,0,19.4,.03,8.73,8.82-.03,19.48,0c10.67,.03,19.43,8.82,19.4,19.47-.03,10.67-8.83,19.42-19.48,19.4ZM3.79,19.43c0,8.62,7.03,15.66,15.65,15.66,8.62,0,15.66-7.03,15.66-15.64,0-8.62-7.03-15.65-15.65-15.66-8.62,0-15.66,7.02-15.66,15.64Z"/><path class="cls-1" d="M21.35,16.5c0,3.6,0,6.87,0,10.13,0,1.21-.62,2.02-1.59,2.14-1.28,.16-2.2-.66-2.21-2.05-.02-2.96,0-5.91,0-8.87,0-.34,0-.69,0-1.34-1.15,1.14-2.1,2.09-3.05,3.04-.37,.37-.74,.76-1.12,1.12-.93,.85-1.93,.89-2.72,.12-.77-.75-.74-1.94,.09-2.83,.58-.61,1.2-1.19,1.8-1.79,1.15-1.14,2.29-2.29,3.46-3.41,2.01-1.91,4.85-1.96,6.85-.05,1.81,1.73,3.55,3.52,5.3,5.3,.84,.86,.89,1.99,.18,2.73-.77,.81-1.91,.81-2.82-.07-1.34-1.29-2.63-2.63-4.16-4.17Z"/></g></g></svg>